G04 #@! TF.FileFunction,Other,User*
%FSLAX46Y46*%
G04 Gerber Fmt 4.6, Leading zero omitted, Abs format (unit mm)*
G04 Created by KiCad (PCBNEW 4.0.7) date Monday, 04 December 2017 'PMt' 14:32:11*
%MOMM*%
%LPD*%
G01*
G04 APERTURE LIST*
%ADD10C,0.100000*%
%ADD11C,0.050000*%
G04 APERTURE END LIST*
D10*
D11*
X122750000Y-33200000D02*
X129250000Y-33200000D01*
X129250000Y-33200000D02*
X129250000Y-26750000D01*
X129250000Y-26750000D02*
X122750000Y-26750000D01*
X122750000Y-26750000D02*
X122750000Y-33200000D01*
X122750000Y-41450000D02*
X129250000Y-41450000D01*
X129250000Y-41450000D02*
X129250000Y-35000000D01*
X129250000Y-35000000D02*
X122750000Y-35000000D01*
X122750000Y-35000000D02*
X122750000Y-41450000D01*
X53300000Y-35100000D02*
X53300000Y-31900000D01*
X53300000Y-31900000D02*
X43550000Y-31900000D01*
X43550000Y-31900000D02*
X43550000Y-35100000D01*
X43550000Y-35100000D02*
X53300000Y-35100000D01*
X43700000Y-24650000D02*
X43700000Y-27850000D01*
X43700000Y-27850000D02*
X53450000Y-27850000D01*
X53450000Y-27850000D02*
X53450000Y-24650000D01*
X53450000Y-24650000D02*
X43700000Y-24650000D01*
X78200000Y-30650000D02*
X78200000Y-33850000D01*
X78200000Y-33850000D02*
X87950000Y-33850000D01*
X87950000Y-33850000D02*
X87950000Y-30650000D01*
X87950000Y-30650000D02*
X78200000Y-30650000D01*
X77700000Y-24400000D02*
X77700000Y-27600000D01*
X77700000Y-27600000D02*
X87450000Y-27600000D01*
X87450000Y-27600000D02*
X87450000Y-24400000D01*
X87450000Y-24400000D02*
X77700000Y-24400000D01*
X109900000Y-42550000D02*
X113100000Y-42550000D01*
X113100000Y-42550000D02*
X113100000Y-32800000D01*
X113100000Y-32800000D02*
X109900000Y-32800000D01*
X109900000Y-32800000D02*
X109900000Y-42550000D01*
X109650000Y-31800000D02*
X112850000Y-31800000D01*
X112850000Y-31800000D02*
X112850000Y-22050000D01*
X112850000Y-22050000D02*
X109650000Y-22050000D01*
X109650000Y-22050000D02*
X109650000Y-31800000D01*
X118850000Y-19700000D02*
X115650000Y-19700000D01*
X115650000Y-19700000D02*
X115650000Y-29450000D01*
X115650000Y-29450000D02*
X118850000Y-29450000D01*
X118850000Y-29450000D02*
X118850000Y-19700000D01*
X116150000Y-41300000D02*
X119350000Y-41300000D01*
X119350000Y-41300000D02*
X119350000Y-31550000D01*
X119350000Y-31550000D02*
X116150000Y-31550000D01*
X116150000Y-31550000D02*
X116150000Y-41300000D01*
X133700000Y-19400000D02*
X133700000Y-22600000D01*
X133700000Y-22600000D02*
X143450000Y-22600000D01*
X143450000Y-22600000D02*
X143450000Y-19400000D01*
X143450000Y-19400000D02*
X133700000Y-19400000D01*
X32800000Y-56850000D02*
X32800000Y-53650000D01*
X32800000Y-53650000D02*
X23050000Y-53650000D01*
X23050000Y-53650000D02*
X23050000Y-56850000D01*
X23050000Y-56850000D02*
X32800000Y-56850000D01*
X41850000Y-63450000D02*
X38650000Y-63450000D01*
X38650000Y-63450000D02*
X38650000Y-73200000D01*
X38650000Y-73200000D02*
X41850000Y-73200000D01*
X41850000Y-73200000D02*
X41850000Y-63450000D01*
X50300000Y-58350000D02*
X50300000Y-55150000D01*
X50300000Y-55150000D02*
X40550000Y-55150000D01*
X40550000Y-55150000D02*
X40550000Y-58350000D01*
X40550000Y-58350000D02*
X50300000Y-58350000D01*
X63900000Y-72300000D02*
X67100000Y-72300000D01*
X67100000Y-72300000D02*
X67100000Y-62550000D01*
X67100000Y-62550000D02*
X63900000Y-62550000D01*
X63900000Y-62550000D02*
X63900000Y-72300000D01*
X73950000Y-55150000D02*
X73950000Y-58350000D01*
X73950000Y-58350000D02*
X83700000Y-58350000D01*
X83700000Y-58350000D02*
X83700000Y-55150000D01*
X83700000Y-55150000D02*
X73950000Y-55150000D01*
X92600000Y-63450000D02*
X89400000Y-63450000D01*
X89400000Y-63450000D02*
X89400000Y-73200000D01*
X89400000Y-73200000D02*
X92600000Y-73200000D01*
X92600000Y-73200000D02*
X92600000Y-63450000D01*
X95100000Y-49700000D02*
X91900000Y-49700000D01*
X91900000Y-49700000D02*
X91900000Y-59450000D01*
X91900000Y-59450000D02*
X95100000Y-59450000D01*
X95100000Y-59450000D02*
X95100000Y-49700000D01*
X97900000Y-59300000D02*
X101100000Y-59300000D01*
X101100000Y-59300000D02*
X101100000Y-49550000D01*
X101100000Y-49550000D02*
X97900000Y-49550000D01*
X97900000Y-49550000D02*
X97900000Y-59300000D01*
X41600000Y-86700000D02*
X38400000Y-86700000D01*
X38400000Y-86700000D02*
X38400000Y-96450000D01*
X38400000Y-96450000D02*
X41600000Y-96450000D01*
X41600000Y-96450000D02*
X41600000Y-86700000D01*
X32800000Y-82350000D02*
X32800000Y-79150000D01*
X32800000Y-79150000D02*
X23050000Y-79150000D01*
X23050000Y-79150000D02*
X23050000Y-82350000D01*
X23050000Y-82350000D02*
X32800000Y-82350000D01*
X66850000Y-87450000D02*
X63650000Y-87450000D01*
X63650000Y-87450000D02*
X63650000Y-97200000D01*
X63650000Y-97200000D02*
X66850000Y-97200000D01*
X66850000Y-97200000D02*
X66850000Y-87450000D01*
X45700000Y-79650000D02*
X45700000Y-82850000D01*
X45700000Y-82850000D02*
X55450000Y-82850000D01*
X55450000Y-82850000D02*
X55450000Y-79650000D01*
X55450000Y-79650000D02*
X45700000Y-79650000D01*
X92600000Y-87450000D02*
X89400000Y-87450000D01*
X89400000Y-87450000D02*
X89400000Y-97200000D01*
X89400000Y-97200000D02*
X92600000Y-97200000D01*
X92600000Y-97200000D02*
X92600000Y-87450000D01*
X74450000Y-79150000D02*
X74450000Y-82350000D01*
X74450000Y-82350000D02*
X84200000Y-82350000D01*
X84200000Y-82350000D02*
X84200000Y-79150000D01*
X84200000Y-79150000D02*
X74450000Y-79150000D01*
X114550000Y-82350000D02*
X114550000Y-79150000D01*
X114550000Y-79150000D02*
X104800000Y-79150000D01*
X104800000Y-79150000D02*
X104800000Y-82350000D01*
X104800000Y-82350000D02*
X114550000Y-82350000D01*
X94450000Y-79400000D02*
X94450000Y-82600000D01*
X94450000Y-82600000D02*
X104200000Y-82600000D01*
X104200000Y-82600000D02*
X104200000Y-79400000D01*
X104200000Y-79400000D02*
X94450000Y-79400000D01*
X148060000Y-75350000D02*
X148060000Y-72150000D01*
X148060000Y-72150000D02*
X138310000Y-72150000D01*
X138310000Y-72150000D02*
X138310000Y-75350000D01*
X138310000Y-75350000D02*
X148060000Y-75350000D01*
X140440000Y-98210000D02*
X140440000Y-95010000D01*
X140440000Y-95010000D02*
X130690000Y-95010000D01*
X130690000Y-95010000D02*
X130690000Y-98210000D01*
X130690000Y-98210000D02*
X140440000Y-98210000D01*
X84300000Y-42800000D02*
X48200000Y-42800000D01*
X48200000Y-42800000D02*
X48200000Y-53350000D01*
X48200000Y-53350000D02*
X84300000Y-53350000D01*
X84300000Y-53350000D02*
X84300000Y-42800000D01*
X127700000Y-102550000D02*
X127700000Y-66450000D01*
X127700000Y-66450000D02*
X117150000Y-66450000D01*
X117150000Y-66450000D02*
X117150000Y-102550000D01*
X117150000Y-102550000D02*
X127700000Y-102550000D01*
X120200000Y-18100000D02*
X120200000Y-25400000D01*
X120200000Y-25400000D02*
X131800000Y-25400000D01*
X131800000Y-25400000D02*
X131800000Y-18100000D01*
X131800000Y-18100000D02*
X120200000Y-18100000D01*
X132690000Y-43030000D02*
X132690000Y-24750000D01*
X132690000Y-43030000D02*
X178910000Y-43030000D01*
X178910000Y-24750000D02*
X132690000Y-24750000D01*
X178910000Y-24750000D02*
X178910000Y-43030000D01*
X158310000Y-45220000D02*
X158310000Y-63500000D01*
X158310000Y-45220000D02*
X112090000Y-45220000D01*
X112090000Y-63500000D02*
X158310000Y-63500000D01*
X112090000Y-63500000D02*
X112090000Y-45220000D01*
M02*
