G04 #@! TF.FileFunction,Soldermask,Bot*
%FSLAX46Y46*%
G04 Gerber Fmt 4.6, Leading zero omitted, Abs format (unit mm)*
G04 Created by KiCad (PCBNEW 4.0.7) date Sunday, 03 December 2017 'AMt' 02:27:00*
%MOMM*%
%LPD*%
G01*
G04 APERTURE LIST*
%ADD10C,0.100000*%
%ADD11R,2.200000X2.200000*%
%ADD12C,2.200000*%
%ADD13C,2.000000*%
%ADD14O,2.000000X2.000000*%
%ADD15C,3.067000*%
%ADD16O,2.305000X2.559000*%
%ADD17R,2.305000X2.559000*%
%ADD18R,2.000000X2.800000*%
%ADD19O,2.000000X2.800000*%
%ADD20R,2.800000X2.000000*%
%ADD21O,2.800000X2.000000*%
%ADD22R,2.000000X2.000000*%
%ADD23C,2.180000*%
G04 APERTURE END LIST*
D10*
D11*
X126250000Y-31250000D03*
D12*
X126250000Y-28710000D03*
D11*
X126250000Y-39500000D03*
D12*
X126250000Y-36960000D03*
D13*
X52250000Y-33500000D03*
D14*
X44630000Y-33500000D03*
D13*
X44750000Y-26250000D03*
D14*
X52370000Y-26250000D03*
D13*
X79250000Y-32250000D03*
D14*
X86870000Y-32250000D03*
D13*
X78750000Y-26000000D03*
D14*
X86370000Y-26000000D03*
D13*
X112000000Y-39750000D03*
D14*
X112000000Y-32130000D03*
D13*
X112000000Y-28750000D03*
D14*
X112000000Y-21130000D03*
D13*
X118000000Y-21000000D03*
D14*
X118000000Y-28620000D03*
D13*
X118250000Y-40250000D03*
D14*
X118250000Y-32630000D03*
D13*
X134750000Y-21000000D03*
D14*
X142370000Y-21000000D03*
D13*
X31750000Y-55250000D03*
D14*
X24130000Y-55250000D03*
D13*
X40250000Y-64500000D03*
D14*
X40250000Y-72120000D03*
D13*
X49250000Y-56750000D03*
D14*
X41630000Y-56750000D03*
D13*
X65500000Y-71250000D03*
D14*
X65500000Y-63630000D03*
D13*
X75000000Y-56750000D03*
D14*
X82620000Y-56750000D03*
D13*
X91000000Y-64500000D03*
D14*
X91000000Y-72120000D03*
D13*
X93500000Y-50750000D03*
D14*
X93500000Y-58370000D03*
D13*
X99500000Y-58250000D03*
D14*
X99500000Y-50630000D03*
D13*
X40000000Y-87750000D03*
D14*
X40000000Y-95370000D03*
D13*
X31750000Y-80750000D03*
D14*
X24130000Y-80750000D03*
D13*
X65250000Y-88500000D03*
D14*
X65250000Y-96120000D03*
D13*
X46750000Y-81250000D03*
D14*
X54370000Y-81250000D03*
D13*
X91000000Y-88500000D03*
D14*
X91000000Y-96120000D03*
D13*
X75500000Y-80750000D03*
D14*
X83120000Y-80750000D03*
D13*
X113500000Y-80750000D03*
D14*
X105880000Y-80750000D03*
D13*
X95500000Y-81000000D03*
D14*
X103120000Y-81000000D03*
D13*
X147010000Y-73750000D03*
D14*
X139390000Y-73750000D03*
D13*
X139390000Y-96610000D03*
D14*
X131770000Y-96610000D03*
D15*
X32790000Y-24170000D03*
X26440000Y-26710000D03*
D16*
X26440000Y-34330000D03*
D17*
X34060000Y-34330000D03*
D15*
X67290000Y-24170000D03*
X60940000Y-26710000D03*
D16*
X60940000Y-34330000D03*
D17*
X68560000Y-34330000D03*
D15*
X102040000Y-24420000D03*
X95690000Y-26960000D03*
D16*
X95690000Y-34580000D03*
D17*
X103310000Y-34580000D03*
D15*
X28540000Y-62670000D03*
X22190000Y-65210000D03*
D16*
X22190000Y-72830000D03*
D17*
X29810000Y-72830000D03*
D15*
X54540000Y-62670000D03*
X48190000Y-65210000D03*
D16*
X48190000Y-72830000D03*
D17*
X55810000Y-72830000D03*
D15*
X80290000Y-62670000D03*
X73940000Y-65210000D03*
D16*
X73940000Y-72830000D03*
D17*
X81560000Y-72830000D03*
D15*
X106040000Y-62670000D03*
X99690000Y-65210000D03*
D16*
X99690000Y-72830000D03*
D17*
X107310000Y-72830000D03*
D15*
X28540000Y-88670000D03*
X22190000Y-91210000D03*
D16*
X22190000Y-98830000D03*
D17*
X29810000Y-98830000D03*
D15*
X54540000Y-88670000D03*
X48190000Y-91210000D03*
D16*
X48190000Y-98830000D03*
D17*
X55810000Y-98830000D03*
D15*
X80290000Y-88420000D03*
X73940000Y-90960000D03*
D16*
X73940000Y-98580000D03*
D17*
X81560000Y-98580000D03*
D15*
X106290000Y-88420000D03*
X99940000Y-90960000D03*
D16*
X99940000Y-98580000D03*
D17*
X107560000Y-98580000D03*
D15*
X150540000Y-81170000D03*
X144190000Y-83710000D03*
D16*
X144190000Y-91330000D03*
D17*
X151810000Y-91330000D03*
D18*
X82750000Y-44250000D03*
D19*
X49730000Y-51870000D03*
X80210000Y-44250000D03*
X52270000Y-51870000D03*
X77670000Y-44250000D03*
X54810000Y-51870000D03*
X75130000Y-44250000D03*
X57350000Y-51870000D03*
X72590000Y-44250000D03*
X59890000Y-51870000D03*
X70050000Y-44250000D03*
X62430000Y-51870000D03*
X67510000Y-44250000D03*
X64970000Y-51870000D03*
X64970000Y-44250000D03*
X67510000Y-51870000D03*
X62430000Y-44250000D03*
X70050000Y-51870000D03*
X59890000Y-44250000D03*
X72590000Y-51870000D03*
X57350000Y-44250000D03*
X75130000Y-51870000D03*
X54810000Y-44250000D03*
X77670000Y-51870000D03*
X52270000Y-44250000D03*
X80210000Y-51870000D03*
X49730000Y-44250000D03*
X82750000Y-51870000D03*
D20*
X126250000Y-101000000D03*
D21*
X118630000Y-67980000D03*
X126250000Y-98460000D03*
X118630000Y-70520000D03*
X126250000Y-95920000D03*
X118630000Y-73060000D03*
X126250000Y-93380000D03*
X118630000Y-75600000D03*
X126250000Y-90840000D03*
X118630000Y-78140000D03*
X126250000Y-88300000D03*
X118630000Y-80680000D03*
X126250000Y-85760000D03*
X118630000Y-83220000D03*
X126250000Y-83220000D03*
X118630000Y-85760000D03*
X126250000Y-80680000D03*
X118630000Y-88300000D03*
X126250000Y-78140000D03*
X118630000Y-90840000D03*
X126250000Y-75600000D03*
X118630000Y-93380000D03*
X126250000Y-73060000D03*
X118630000Y-95920000D03*
X126250000Y-70520000D03*
X118630000Y-98460000D03*
X126250000Y-67980000D03*
X118630000Y-101000000D03*
D22*
X136750000Y-41500000D03*
D14*
X169770000Y-26260000D03*
X139290000Y-41500000D03*
X167230000Y-26260000D03*
X141830000Y-41500000D03*
X164690000Y-26260000D03*
X144370000Y-41500000D03*
X162150000Y-26260000D03*
X146910000Y-41500000D03*
X159610000Y-26260000D03*
X149450000Y-41500000D03*
X157070000Y-26260000D03*
X151990000Y-41500000D03*
X154530000Y-26260000D03*
X154530000Y-41500000D03*
X151990000Y-26260000D03*
X157070000Y-41500000D03*
X149450000Y-26260000D03*
X159610000Y-41500000D03*
X146910000Y-26260000D03*
X162150000Y-41500000D03*
X144370000Y-26260000D03*
X164690000Y-41500000D03*
X141830000Y-26260000D03*
X167230000Y-41500000D03*
X139290000Y-26260000D03*
X169770000Y-41500000D03*
X136750000Y-26260000D03*
X172310000Y-41500000D03*
X172310000Y-26260000D03*
D23*
X134210000Y-41500000D03*
X134210000Y-26260000D03*
X174850000Y-26260000D03*
X174850000Y-41500000D03*
D22*
X152250000Y-45750000D03*
D14*
X119230000Y-60990000D03*
X149710000Y-45750000D03*
X121770000Y-60990000D03*
X147170000Y-45750000D03*
X124310000Y-60990000D03*
X144630000Y-45750000D03*
X126850000Y-60990000D03*
X142090000Y-45750000D03*
X129390000Y-60990000D03*
X139550000Y-45750000D03*
X131930000Y-60990000D03*
X137010000Y-45750000D03*
X134470000Y-60990000D03*
X134470000Y-45750000D03*
X137010000Y-60990000D03*
X131930000Y-45750000D03*
X139550000Y-60990000D03*
X129390000Y-45750000D03*
X142090000Y-60990000D03*
X126850000Y-45750000D03*
X144630000Y-60990000D03*
X124310000Y-45750000D03*
X147170000Y-60990000D03*
X121770000Y-45750000D03*
X149710000Y-60990000D03*
X119230000Y-45750000D03*
X152250000Y-60990000D03*
X116690000Y-45750000D03*
X116690000Y-60990000D03*
D23*
X154790000Y-45750000D03*
X154790000Y-60990000D03*
X114150000Y-60990000D03*
X114150000Y-45750000D03*
M02*
