M48
;DRILL file {KiCad 4.0.7} date Sunday, 03 December 2017 'PMt' 12:04:23
;FORMAT={-:-/ absolute / metric / decimal}
FMAT,2
METRIC,TZ
T1C0.400
T2C0.800
T3C0.900
T4C0.991
T5C1.499
T6C1.702
T7C3.988
%
G90
G05
M71
T1
X38.Y-56.25
X41.63Y-56.75
X52.25Y-47.25
X52.27Y-44.25
X54.75Y-46.5
X54.81Y-44.25
X55.5Y-49.75
X57.Y-48.
X60.94Y-34.33
X61.75Y-49.
X62.75Y-49.
X68.25Y-47.25
X69.5Y-48.75
X70.Y-32.
X80.29Y-62.67
X93.75Y-62.5
X99.69Y-72.83
X99.75Y-60.25
X101.75Y-49.75
X113.75Y-84.5
X121.75Y-70.25
X126.25Y-73.06
X149.25Y-36.75
T2
X24.13Y-55.25
X24.13Y-80.75
X31.75Y-55.25
X31.75Y-80.75
X40.Y-87.75
X40.Y-95.37
X40.25Y-64.5
X40.25Y-72.12
X41.63Y-56.75
X44.63Y-33.5
X44.75Y-26.25
X46.75Y-81.25
X49.25Y-56.75
X49.73Y-44.25
X49.73Y-51.87
X52.25Y-33.5
X52.27Y-44.25
X52.27Y-51.87
X52.37Y-26.25
X54.37Y-81.25
X54.81Y-44.25
X54.81Y-51.87
X57.35Y-44.25
X57.35Y-51.87
X59.89Y-44.25
X59.89Y-51.87
X62.43Y-44.25
X62.43Y-51.87
X64.97Y-44.25
X64.97Y-51.87
X65.25Y-88.5
X65.25Y-96.12
X65.5Y-63.63
X65.5Y-71.25
X67.51Y-44.25
X67.51Y-51.87
X70.05Y-44.25
X70.05Y-51.87
X72.59Y-44.25
X72.59Y-51.87
X75.Y-56.75
X75.13Y-44.25
X75.13Y-51.87
X75.5Y-80.75
X77.67Y-44.25
X77.67Y-51.87
X78.75Y-26.
X79.25Y-32.25
X80.21Y-44.25
X80.21Y-51.87
X82.62Y-56.75
X82.75Y-44.25
X82.75Y-51.87
X83.12Y-80.75
X86.37Y-26.
X86.87Y-32.25
X91.Y-64.5
X91.Y-72.12
X91.Y-88.5
X91.Y-96.12
X93.5Y-50.75
X93.5Y-58.37
X95.5Y-81.
X99.5Y-50.63
X99.5Y-58.25
X103.12Y-81.
X105.88Y-80.75
X111.25Y-23.13
X111.25Y-30.75
X111.5Y-33.88
X111.5Y-41.5
X113.5Y-80.75
X116.69Y-45.75
X116.69Y-60.99
X117.25Y-20.75
X117.25Y-28.37
X117.75Y-32.63
X117.75Y-40.25
X118.63Y-67.98
X118.63Y-70.52
X118.63Y-73.06
X118.63Y-75.6
X118.63Y-78.14
X118.63Y-80.68
X118.63Y-83.22
X118.63Y-85.76
X118.63Y-88.3
X118.63Y-90.84
X118.63Y-93.38
X118.63Y-95.92
X118.63Y-98.46
X118.63Y-101.
X119.23Y-45.75
X119.23Y-60.99
X121.77Y-45.75
X121.77Y-60.99
X124.31Y-45.75
X124.31Y-60.99
X126.25Y-67.98
X126.25Y-70.52
X126.25Y-73.06
X126.25Y-75.6
X126.25Y-78.14
X126.25Y-80.68
X126.25Y-83.22
X126.25Y-85.76
X126.25Y-88.3
X126.25Y-90.84
X126.25Y-93.38
X126.25Y-95.92
X126.25Y-98.46
X126.25Y-101.
X126.85Y-45.75
X126.85Y-60.99
X129.39Y-45.75
X129.39Y-60.99
X131.77Y-96.61
X131.93Y-45.75
X131.93Y-60.99
X134.47Y-45.75
X134.47Y-60.99
X134.75Y-21.
X136.75Y-26.26
X136.75Y-41.5
X137.01Y-45.75
X137.01Y-60.99
X139.29Y-26.26
X139.29Y-41.5
X139.39Y-73.75
X139.39Y-96.61
X139.55Y-45.75
X139.55Y-60.99
X141.83Y-26.26
X141.83Y-41.5
X142.09Y-45.75
X142.09Y-60.99
X142.37Y-21.
X144.37Y-26.26
X144.37Y-41.5
X144.63Y-45.75
X144.63Y-60.99
X146.91Y-26.26
X146.91Y-41.5
X147.01Y-73.75
X147.17Y-45.75
X147.17Y-60.99
X149.45Y-26.26
X149.45Y-41.5
X149.71Y-45.75
X149.71Y-60.99
X151.99Y-26.26
X151.99Y-41.5
X152.25Y-45.75
X152.25Y-60.99
X154.53Y-26.26
X154.53Y-41.5
X157.07Y-26.26
X157.07Y-41.5
X159.61Y-26.26
X159.61Y-41.5
X162.15Y-26.26
X162.15Y-41.5
X164.69Y-26.26
X164.69Y-41.5
X167.23Y-26.26
X167.23Y-41.5
X169.77Y-26.26
X169.77Y-41.5
X172.31Y-26.26
X172.31Y-41.5
T3
X126.Y-28.71
X126.Y-31.25
X126.Y-36.71
X126.Y-39.25
T4
X21.94Y-72.83
X21.94Y-98.83
X26.19Y-34.33
X29.56Y-72.83
X29.56Y-98.83
X33.81Y-34.33
X47.94Y-98.83
X48.19Y-72.83
X55.56Y-98.83
X55.81Y-72.83
X60.94Y-34.33
X68.56Y-34.33
X73.69Y-72.83
X73.69Y-98.83
X81.31Y-72.83
X81.31Y-98.83
X95.69Y-34.33
X99.69Y-72.83
X99.69Y-98.83
X103.31Y-34.33
X107.31Y-72.83
X107.31Y-98.83
X144.19Y-91.33
X151.81Y-91.33
T5
X21.94Y-65.21
X21.94Y-91.21
X26.19Y-26.71
X28.29Y-62.67
X28.29Y-88.67
X32.54Y-24.17
X47.94Y-91.21
X48.19Y-65.21
X54.29Y-88.67
X54.54Y-62.67
X60.94Y-26.71
X67.29Y-24.17
X73.69Y-65.21
X73.69Y-91.21
X80.04Y-62.67
X80.04Y-88.67
X95.69Y-26.71
X99.69Y-65.21
X99.69Y-91.21
X102.04Y-24.17
X106.04Y-62.67
X106.04Y-88.67
X144.19Y-83.71
X150.54Y-81.17
T6
X20.67Y-67.75
X20.67Y-93.75
X24.92Y-29.25
X30.83Y-67.75
X30.83Y-93.75
X35.08Y-29.25
X46.67Y-93.75
X46.92Y-67.75
X56.83Y-93.75
X57.08Y-67.75
X59.67Y-29.25
X69.83Y-29.25
X72.42Y-67.75
X72.42Y-93.75
X82.58Y-67.75
X82.58Y-93.75
X94.42Y-29.25
X98.42Y-67.75
X98.42Y-93.75
X104.58Y-29.25
X108.58Y-67.75
X108.58Y-93.75
X142.92Y-86.25
X153.08Y-86.25
T7
X25.75Y-67.75
X25.75Y-93.75
X30.Y-29.25
X51.75Y-93.75
X52.Y-67.75
X64.75Y-29.25
X77.5Y-67.75
X77.5Y-93.75
X99.5Y-29.25
X103.5Y-67.75
X103.5Y-93.75
X148.Y-86.25
T0
M30
