G04 #@! TF.FileFunction,Copper,L1,Top,Signal*
%FSLAX46Y46*%
G04 Gerber Fmt 4.6, Leading zero omitted, Abs format (unit mm)*
G04 Created by KiCad (PCBNEW 4.0.7) date Saturday, 02. December 2017 'u42' 23:42:43*
%MOMM*%
%LPD*%
G01*
G04 APERTURE LIST*
%ADD10C,0.100000*%
%ADD11R,1.800000X1.800000*%
%ADD12C,1.800000*%
%ADD13C,1.600000*%
%ADD14O,1.600000X1.600000*%
%ADD15C,2.667000*%
%ADD16O,1.905000X2.159000*%
%ADD17R,1.905000X2.159000*%
%ADD18C,1.701800*%
%ADD19C,3.987800*%
%ADD20R,1.600000X2.400000*%
%ADD21O,1.600000X2.400000*%
%ADD22R,2.400000X1.600000*%
%ADD23O,2.400000X1.600000*%
%ADD24R,2.440000X1.120000*%
%ADD25R,1.600000X1.600000*%
%ADD26C,0.600000*%
%ADD27C,0.250000*%
%ADD28C,0.254000*%
G04 APERTURE END LIST*
D10*
D11*
X126250000Y-31750000D03*
D12*
X126250000Y-29210000D03*
D11*
X126250000Y-40250000D03*
D12*
X126250000Y-37710000D03*
D13*
X52250000Y-33500000D03*
D14*
X44630000Y-33500000D03*
D13*
X44750000Y-26250000D03*
D14*
X52370000Y-26250000D03*
D13*
X79250000Y-32250000D03*
D14*
X86870000Y-32250000D03*
D13*
X78750000Y-26000000D03*
D14*
X86370000Y-26000000D03*
D13*
X112000000Y-39750000D03*
D14*
X112000000Y-32130000D03*
D13*
X112000000Y-28750000D03*
D14*
X112000000Y-21130000D03*
D13*
X118000000Y-21000000D03*
D14*
X118000000Y-28620000D03*
D13*
X118250000Y-40250000D03*
D14*
X118250000Y-32630000D03*
D13*
X134750000Y-21000000D03*
D14*
X142370000Y-21000000D03*
D13*
X31750000Y-55250000D03*
D14*
X24130000Y-55250000D03*
D13*
X40250000Y-64500000D03*
D14*
X40250000Y-72120000D03*
D13*
X49250000Y-56750000D03*
D14*
X41630000Y-56750000D03*
D13*
X65500000Y-71250000D03*
D14*
X65500000Y-63630000D03*
D13*
X75000000Y-56750000D03*
D14*
X82620000Y-56750000D03*
D13*
X91000000Y-64500000D03*
D14*
X91000000Y-72120000D03*
D13*
X93500000Y-50750000D03*
D14*
X93500000Y-58370000D03*
D13*
X99500000Y-58250000D03*
D14*
X99500000Y-50630000D03*
D13*
X40000000Y-87750000D03*
D14*
X40000000Y-95370000D03*
D13*
X31750000Y-80750000D03*
D14*
X24130000Y-80750000D03*
D13*
X65250000Y-88500000D03*
D14*
X65250000Y-96120000D03*
D13*
X46750000Y-81250000D03*
D14*
X54370000Y-81250000D03*
D13*
X91000000Y-88500000D03*
D14*
X91000000Y-96120000D03*
D13*
X75500000Y-80750000D03*
D14*
X83120000Y-80750000D03*
D13*
X113500000Y-80750000D03*
D14*
X105880000Y-80750000D03*
D13*
X95500000Y-81000000D03*
D14*
X103120000Y-81000000D03*
D13*
X147010000Y-73750000D03*
D14*
X139390000Y-73750000D03*
D13*
X139390000Y-96610000D03*
D14*
X131770000Y-96610000D03*
D15*
X33790000Y-24920000D03*
X27440000Y-27460000D03*
D16*
X27440000Y-35080000D03*
D17*
X35060000Y-35080000D03*
D18*
X36330000Y-30000000D03*
X26170000Y-30000000D03*
D19*
X31250000Y-30000000D03*
D15*
X68040000Y-24920000D03*
X61690000Y-27460000D03*
D16*
X61690000Y-35080000D03*
D17*
X69310000Y-35080000D03*
D18*
X70580000Y-30000000D03*
X60420000Y-30000000D03*
D19*
X65500000Y-30000000D03*
D15*
X102290000Y-24920000D03*
X95940000Y-27460000D03*
D16*
X95940000Y-35080000D03*
D17*
X103560000Y-35080000D03*
D18*
X104830000Y-30000000D03*
X94670000Y-30000000D03*
D19*
X99750000Y-30000000D03*
D15*
X29540000Y-62920000D03*
X23190000Y-65460000D03*
D16*
X23190000Y-73080000D03*
D17*
X30810000Y-73080000D03*
D18*
X32080000Y-68000000D03*
X21920000Y-68000000D03*
D19*
X27000000Y-68000000D03*
D15*
X55040000Y-62920000D03*
X48690000Y-65460000D03*
D16*
X48690000Y-73080000D03*
D17*
X56310000Y-73080000D03*
D18*
X57580000Y-68000000D03*
X47420000Y-68000000D03*
D19*
X52500000Y-68000000D03*
D15*
X81040000Y-62920000D03*
X74690000Y-65460000D03*
D16*
X74690000Y-73080000D03*
D17*
X82310000Y-73080000D03*
D18*
X83580000Y-68000000D03*
X73420000Y-68000000D03*
D19*
X78500000Y-68000000D03*
D15*
X106540000Y-62920000D03*
X100190000Y-65460000D03*
D16*
X100190000Y-73080000D03*
D17*
X107810000Y-73080000D03*
D18*
X109080000Y-68000000D03*
X98920000Y-68000000D03*
D19*
X104000000Y-68000000D03*
D15*
X29540000Y-88420000D03*
X23190000Y-90960000D03*
D16*
X23190000Y-98580000D03*
D17*
X30810000Y-98580000D03*
D18*
X32080000Y-93500000D03*
X21920000Y-93500000D03*
D19*
X27000000Y-93500000D03*
D15*
X55040000Y-88420000D03*
X48690000Y-90960000D03*
D16*
X48690000Y-98580000D03*
D17*
X56310000Y-98580000D03*
D18*
X57580000Y-93500000D03*
X47420000Y-93500000D03*
D19*
X52500000Y-93500000D03*
D15*
X81040000Y-88420000D03*
X74690000Y-90960000D03*
D16*
X74690000Y-98580000D03*
D17*
X82310000Y-98580000D03*
D18*
X83580000Y-93500000D03*
X73420000Y-93500000D03*
D19*
X78500000Y-93500000D03*
D15*
X106540000Y-88420000D03*
X100190000Y-90960000D03*
D16*
X100190000Y-98580000D03*
D17*
X107810000Y-98580000D03*
D18*
X109080000Y-93500000D03*
X98920000Y-93500000D03*
D19*
X104000000Y-93500000D03*
D15*
X150540000Y-81170000D03*
X144190000Y-83710000D03*
D16*
X144190000Y-91330000D03*
D17*
X151810000Y-91330000D03*
D18*
X153080000Y-86250000D03*
X142920000Y-86250000D03*
D19*
X148000000Y-86250000D03*
D20*
X82750000Y-44250000D03*
D21*
X49730000Y-51870000D03*
X80210000Y-44250000D03*
X52270000Y-51870000D03*
X77670000Y-44250000D03*
X54810000Y-51870000D03*
X75130000Y-44250000D03*
X57350000Y-51870000D03*
X72590000Y-44250000D03*
X59890000Y-51870000D03*
X70050000Y-44250000D03*
X62430000Y-51870000D03*
X67510000Y-44250000D03*
X64970000Y-51870000D03*
X64970000Y-44250000D03*
X67510000Y-51870000D03*
X62430000Y-44250000D03*
X70050000Y-51870000D03*
X59890000Y-44250000D03*
X72590000Y-51870000D03*
X57350000Y-44250000D03*
X75130000Y-51870000D03*
X54810000Y-44250000D03*
X77670000Y-51870000D03*
X52270000Y-44250000D03*
X80210000Y-51870000D03*
X49730000Y-44250000D03*
X82750000Y-51870000D03*
D22*
X126250000Y-101000000D03*
D23*
X118630000Y-67980000D03*
X126250000Y-98460000D03*
X118630000Y-70520000D03*
X126250000Y-95920000D03*
X118630000Y-73060000D03*
X126250000Y-93380000D03*
X118630000Y-75600000D03*
X126250000Y-90840000D03*
X118630000Y-78140000D03*
X126250000Y-88300000D03*
X118630000Y-80680000D03*
X126250000Y-85760000D03*
X118630000Y-83220000D03*
X126250000Y-83220000D03*
X118630000Y-85760000D03*
X126250000Y-80680000D03*
X118630000Y-88300000D03*
X126250000Y-78140000D03*
X118630000Y-90840000D03*
X126250000Y-75600000D03*
X118630000Y-93380000D03*
X126250000Y-73060000D03*
X118630000Y-95920000D03*
X126250000Y-70520000D03*
X118630000Y-98460000D03*
X126250000Y-67980000D03*
X118630000Y-101000000D03*
D24*
X121945000Y-21230000D03*
X130555000Y-23770000D03*
X121945000Y-23770000D03*
X130555000Y-21230000D03*
D25*
X136750000Y-41500000D03*
D14*
X169770000Y-26260000D03*
X139290000Y-41500000D03*
X167230000Y-26260000D03*
X141830000Y-41500000D03*
X164690000Y-26260000D03*
X144370000Y-41500000D03*
X162150000Y-26260000D03*
X146910000Y-41500000D03*
X159610000Y-26260000D03*
X149450000Y-41500000D03*
X157070000Y-26260000D03*
X151990000Y-41500000D03*
X154530000Y-26260000D03*
X154530000Y-41500000D03*
X151990000Y-26260000D03*
X157070000Y-41500000D03*
X149450000Y-26260000D03*
X159610000Y-41500000D03*
X146910000Y-26260000D03*
X162150000Y-41500000D03*
X144370000Y-26260000D03*
X164690000Y-41500000D03*
X141830000Y-26260000D03*
X167230000Y-41500000D03*
X139290000Y-26260000D03*
X169770000Y-41500000D03*
X136750000Y-26260000D03*
X172310000Y-41500000D03*
X172310000Y-26260000D03*
D25*
X152250000Y-45750000D03*
D14*
X119230000Y-60990000D03*
X149710000Y-45750000D03*
X121770000Y-60990000D03*
X147170000Y-45750000D03*
X124310000Y-60990000D03*
X144630000Y-45750000D03*
X126850000Y-60990000D03*
X142090000Y-45750000D03*
X129390000Y-60990000D03*
X139550000Y-45750000D03*
X131930000Y-60990000D03*
X137010000Y-45750000D03*
X134470000Y-60990000D03*
X134470000Y-45750000D03*
X137010000Y-60990000D03*
X131930000Y-45750000D03*
X139550000Y-60990000D03*
X129390000Y-45750000D03*
X142090000Y-60990000D03*
X126850000Y-45750000D03*
X144630000Y-60990000D03*
X124310000Y-45750000D03*
X147170000Y-60990000D03*
X121770000Y-45750000D03*
X149710000Y-60990000D03*
X119230000Y-45750000D03*
X152250000Y-60990000D03*
X116690000Y-45750000D03*
X116690000Y-60990000D03*
D26*
X68250000Y-47250000D03*
X61690000Y-35080000D03*
X70000000Y-32000000D03*
X54750000Y-46500000D03*
X62750000Y-49000000D03*
X38000000Y-56250000D03*
X61750000Y-49000000D03*
X41630000Y-56750000D03*
X100190000Y-73080000D03*
X93750000Y-62500000D03*
X99750000Y-60250000D03*
X113750000Y-84500000D03*
X81040000Y-62920000D03*
X126250000Y-73060000D03*
X149250000Y-36750000D03*
X54810000Y-44250000D03*
X57000000Y-48000000D03*
X55500000Y-49750000D03*
X69500000Y-48750000D03*
X52250000Y-47250000D03*
X52270000Y-44250000D03*
X121750000Y-70250000D03*
X101750000Y-49750000D03*
D27*
X118630000Y-73060000D02*
X118630000Y-70520000D01*
X126250000Y-78140000D02*
X123710000Y-78140000D01*
X123710000Y-78140000D02*
X118630000Y-73060000D01*
X75500000Y-80750000D02*
X75500000Y-79890000D01*
X75500000Y-79890000D02*
X82310000Y-73080000D01*
X65500000Y-71250000D02*
X66000000Y-71250000D01*
X66000000Y-71250000D02*
X75500000Y-80750000D01*
X56310000Y-73080000D02*
X63670000Y-73080000D01*
X63670000Y-73080000D02*
X65500000Y-71250000D01*
X46750000Y-81250000D02*
X48140000Y-81250000D01*
X48140000Y-81250000D02*
X56310000Y-73080000D01*
X30810000Y-98580000D02*
X44330000Y-98580000D01*
X54390000Y-100500000D02*
X56310000Y-98580000D01*
X46250000Y-100500000D02*
X54390000Y-100500000D01*
X44330000Y-98580000D02*
X46250000Y-100500000D01*
X31750000Y-80750000D02*
X31750000Y-87250000D01*
X34250000Y-95140000D02*
X30810000Y-98580000D01*
X34250000Y-89750000D02*
X34250000Y-95140000D01*
X31750000Y-87250000D02*
X34250000Y-89750000D01*
X31750000Y-80750000D02*
X46250000Y-80750000D01*
X46250000Y-80750000D02*
X46750000Y-81250000D01*
X30810000Y-73080000D02*
X30810000Y-76810000D01*
X31750000Y-77750000D02*
X31750000Y-80750000D01*
X30810000Y-76810000D02*
X31750000Y-77750000D01*
X30810000Y-73080000D02*
X38330000Y-73080000D01*
X42000000Y-66250000D02*
X40250000Y-64500000D01*
X42000000Y-72750000D02*
X42000000Y-66250000D01*
X41000000Y-73750000D02*
X42000000Y-72750000D01*
X39000000Y-73750000D02*
X41000000Y-73750000D01*
X38330000Y-73080000D02*
X39000000Y-73750000D01*
X49730000Y-51870000D02*
X44380000Y-51870000D01*
X39500000Y-63750000D02*
X40250000Y-64500000D01*
X39500000Y-56750000D02*
X39500000Y-63750000D01*
X40250000Y-56000000D02*
X39500000Y-56750000D01*
X44380000Y-51870000D02*
X40250000Y-56000000D01*
X115000000Y-30750000D02*
X113000000Y-28750000D01*
X126250000Y-31750000D02*
X121000000Y-31750000D01*
X121000000Y-31750000D02*
X120000000Y-30750000D01*
X120000000Y-30750000D02*
X115250000Y-30750000D01*
X115250000Y-30750000D02*
X113250000Y-28750000D01*
X113250000Y-28750000D02*
X112000000Y-28750000D01*
X109890000Y-28750000D02*
X103500000Y-35140000D01*
X113000000Y-28750000D02*
X109890000Y-28750000D01*
X120000000Y-30750000D02*
X115000000Y-30750000D01*
X121000000Y-31750000D02*
X120000000Y-30750000D01*
X103500000Y-35140000D02*
X103500000Y-54250000D01*
X103500000Y-54250000D02*
X99500000Y-58250000D01*
X69310000Y-35080000D02*
X69060000Y-35080000D01*
X69060000Y-35080000D02*
X59890000Y-44250000D01*
X78750000Y-26000000D02*
X78390000Y-26000000D01*
X78390000Y-26000000D02*
X69310000Y-35080000D01*
X52270000Y-51870000D02*
X54810000Y-51870000D01*
X49730000Y-51870000D02*
X52270000Y-51870000D01*
X59890000Y-44250000D02*
X59890000Y-46790000D01*
X59890000Y-46790000D02*
X54810000Y-51870000D01*
X54810000Y-51870000D02*
X49730000Y-51870000D01*
X44750000Y-26250000D02*
X44750000Y-29110000D01*
X44750000Y-29110000D02*
X59890000Y-44250000D01*
X126250000Y-31750000D02*
X126500000Y-31750000D01*
X126500000Y-31750000D02*
X128750000Y-34000000D01*
X128750000Y-37750000D02*
X126250000Y-40250000D01*
X128750000Y-34000000D02*
X128750000Y-37750000D01*
X147010000Y-73750000D02*
X155000000Y-73750000D01*
X156000000Y-87140000D02*
X151810000Y-91330000D01*
X156000000Y-74750000D02*
X156000000Y-87140000D01*
X155000000Y-73750000D02*
X156000000Y-74750000D01*
X147010000Y-73750000D02*
X147010000Y-68940000D01*
X147010000Y-68940000D02*
X149710000Y-60990000D01*
X126250000Y-78140000D02*
X127860000Y-78140000D01*
X142510000Y-69250000D02*
X147010000Y-73750000D01*
X136750000Y-69250000D02*
X142510000Y-69250000D01*
X127860000Y-78140000D02*
X136750000Y-69250000D01*
X134750000Y-21000000D02*
X134750000Y-22250000D01*
X130750000Y-27250000D02*
X126250000Y-31750000D01*
X130750000Y-26250000D02*
X130750000Y-27250000D01*
X134750000Y-22250000D02*
X130750000Y-26250000D01*
X134750000Y-21000000D02*
X134750000Y-21720000D01*
X134750000Y-21720000D02*
X139290000Y-26260000D01*
X126250000Y-29210000D02*
X118590000Y-29210000D01*
X118590000Y-29210000D02*
X118000000Y-28620000D01*
X126250000Y-37710000D02*
X123330000Y-37710000D01*
X123330000Y-37710000D02*
X118250000Y-32630000D01*
X74500000Y-47250000D02*
X77210000Y-47250000D01*
X74500000Y-47250000D02*
X68250000Y-47250000D01*
X77210000Y-47250000D02*
X80210000Y-44250000D01*
X52370000Y-26250000D02*
X58250000Y-26250000D01*
X88750000Y-38250000D02*
X82750000Y-44250000D01*
X88750000Y-25750000D02*
X88750000Y-38250000D01*
X85250000Y-22250000D02*
X88750000Y-25750000D01*
X78750000Y-22250000D02*
X85250000Y-22250000D01*
X73500000Y-27500000D02*
X78750000Y-22250000D01*
X67250000Y-27500000D02*
X73500000Y-27500000D01*
X64000000Y-24250000D02*
X67250000Y-27500000D01*
X60250000Y-24250000D02*
X64000000Y-24250000D01*
X58250000Y-26250000D02*
X60250000Y-24250000D01*
X79250000Y-32250000D02*
X79250000Y-40130000D01*
X79250000Y-40130000D02*
X75130000Y-44250000D01*
X61690000Y-35080000D02*
X63520000Y-33250000D01*
X68750000Y-33250000D02*
X70000000Y-32000000D01*
X63520000Y-33250000D02*
X68750000Y-33250000D01*
X77670000Y-44250000D02*
X77500000Y-44250000D01*
X86370000Y-26000000D02*
X86370000Y-26130000D01*
X86370000Y-26130000D02*
X85000000Y-27500000D01*
X85000000Y-36920000D02*
X77670000Y-44250000D01*
X85000000Y-27500000D02*
X85000000Y-36920000D01*
X157070000Y-41500000D02*
X157070000Y-41680000D01*
X142370000Y-21000000D02*
X142370000Y-20870000D01*
X142370000Y-20870000D02*
X140500000Y-19000000D01*
X132785000Y-19000000D02*
X130555000Y-21230000D01*
X140500000Y-19000000D02*
X132785000Y-19000000D01*
X130555000Y-23770000D02*
X130555000Y-21230000D01*
X54750000Y-46500000D02*
X45000000Y-46500000D01*
X45000000Y-46500000D02*
X36250000Y-55250000D01*
X36250000Y-55250000D02*
X31750000Y-55250000D01*
X24130000Y-55250000D02*
X24130000Y-60620000D01*
X20000000Y-69890000D02*
X23190000Y-73080000D01*
X20000000Y-64750000D02*
X20000000Y-69890000D01*
X24130000Y-60620000D02*
X20000000Y-64750000D01*
X40250000Y-67500000D02*
X40250000Y-72120000D01*
X38000000Y-65250000D02*
X38000000Y-56250000D01*
X40250000Y-67500000D02*
X38000000Y-65250000D01*
X67500000Y-44250000D02*
X62750000Y-49000000D01*
X62750000Y-49000000D02*
X61750000Y-49000000D01*
X67510000Y-44250000D02*
X67500000Y-44250000D01*
X23190000Y-65460000D02*
X24790000Y-65460000D01*
X24790000Y-65460000D02*
X25250000Y-65000000D01*
X25250000Y-65000000D02*
X32250000Y-65000000D01*
X32250000Y-65000000D02*
X39370000Y-72120000D01*
X39370000Y-72120000D02*
X40250000Y-72120000D01*
X41630000Y-56750000D02*
X44750000Y-59870000D01*
X44750000Y-69140000D02*
X48690000Y-73080000D01*
X44750000Y-59870000D02*
X44750000Y-69140000D01*
X65500000Y-63630000D02*
X57870000Y-63630000D01*
X56500000Y-65000000D02*
X49150000Y-65000000D01*
X57870000Y-63630000D02*
X56500000Y-65000000D01*
X49150000Y-65000000D02*
X48690000Y-65460000D01*
X64970000Y-51870000D02*
X64970000Y-63100000D01*
X64970000Y-63100000D02*
X65500000Y-63630000D01*
X72590000Y-51870000D02*
X72590000Y-54340000D01*
X72590000Y-54340000D02*
X75000000Y-56750000D01*
X74690000Y-65460000D02*
X74690000Y-66690000D01*
X74690000Y-66690000D02*
X75500000Y-67500000D01*
X90130000Y-71250000D02*
X91000000Y-72120000D01*
X80750000Y-71250000D02*
X90130000Y-71250000D01*
X80000000Y-72000000D02*
X80750000Y-71250000D01*
X78000000Y-72000000D02*
X80000000Y-72000000D01*
X75500000Y-69500000D02*
X78000000Y-72000000D01*
X75500000Y-67500000D02*
X75500000Y-69500000D01*
X74690000Y-65460000D02*
X74690000Y-64940000D01*
X74690000Y-64940000D02*
X70050000Y-60300000D01*
X70050000Y-60300000D02*
X70050000Y-51870000D01*
X93500000Y-50750000D02*
X86500000Y-50750000D01*
X79550000Y-53750000D02*
X77670000Y-51870000D01*
X83500000Y-53750000D02*
X79550000Y-53750000D01*
X86500000Y-50750000D02*
X83500000Y-53750000D01*
X100190000Y-73080000D02*
X96500000Y-69390000D01*
X96500000Y-65250000D02*
X93750000Y-62500000D01*
X96500000Y-69390000D02*
X96500000Y-65250000D01*
X99500000Y-50630000D02*
X99500000Y-56250000D01*
X98250000Y-58750000D02*
X99750000Y-60250000D01*
X98250000Y-57500000D02*
X98250000Y-58750000D01*
X99500000Y-56250000D02*
X98250000Y-57500000D01*
X75130000Y-51870000D02*
X75130000Y-51620000D01*
X75130000Y-51620000D02*
X77250000Y-49500000D01*
X77250000Y-49500000D02*
X98370000Y-49500000D01*
X98370000Y-49500000D02*
X99500000Y-50630000D01*
X126250000Y-101000000D02*
X126250000Y-101500000D01*
X126250000Y-101500000D02*
X123500000Y-104250000D01*
X123500000Y-104250000D02*
X25250000Y-104250000D01*
X25250000Y-104250000D02*
X19750000Y-98750000D01*
X19750000Y-98750000D02*
X19750000Y-91750000D01*
X19750000Y-91750000D02*
X20540000Y-90960000D01*
X20540000Y-90960000D02*
X23190000Y-90960000D01*
X24130000Y-80750000D02*
X24130000Y-90020000D01*
X24130000Y-90020000D02*
X23190000Y-90960000D01*
X65250000Y-88500000D02*
X65250000Y-93000000D01*
X123500000Y-96000000D02*
X126120000Y-93380000D01*
X123500000Y-100000000D02*
X123500000Y-96000000D01*
X120500000Y-103000000D02*
X123500000Y-100000000D01*
X69750000Y-103000000D02*
X120500000Y-103000000D01*
X67750000Y-101000000D02*
X69750000Y-103000000D01*
X67750000Y-95500000D02*
X67750000Y-101000000D01*
X65250000Y-93000000D02*
X67750000Y-95500000D01*
X126120000Y-93380000D02*
X126250000Y-93380000D01*
X65250000Y-96120000D02*
X55130000Y-96120000D01*
X52670000Y-98580000D02*
X48690000Y-98580000D01*
X55130000Y-96120000D02*
X52670000Y-98580000D01*
X54370000Y-81250000D02*
X54370000Y-84130000D01*
X54370000Y-84130000D02*
X48690000Y-89810000D01*
X48690000Y-89810000D02*
X48690000Y-90960000D01*
X91000000Y-88500000D02*
X103000000Y-88500000D01*
X124950000Y-87000000D02*
X126250000Y-88300000D01*
X112000000Y-87000000D02*
X124950000Y-87000000D01*
X108750000Y-90250000D02*
X112000000Y-87000000D01*
X104750000Y-90250000D02*
X108750000Y-90250000D01*
X103000000Y-88500000D02*
X104750000Y-90250000D01*
X74690000Y-98580000D02*
X78670000Y-98580000D01*
X81130000Y-96120000D02*
X91000000Y-96120000D01*
X78670000Y-98580000D02*
X81130000Y-96120000D01*
X103120000Y-81000000D02*
X103250000Y-81000000D01*
X103250000Y-81000000D02*
X106750000Y-84500000D01*
X106750000Y-84500000D02*
X113750000Y-84500000D01*
X139390000Y-73750000D02*
X139390000Y-78910000D01*
X139390000Y-78910000D02*
X144190000Y-83710000D01*
X144190000Y-91330000D02*
X144190000Y-91810000D01*
X144190000Y-91810000D02*
X139390000Y-96610000D01*
X118630000Y-67980000D02*
X114980000Y-67980000D01*
X109920000Y-62920000D02*
X106540000Y-62920000D01*
X114980000Y-67980000D02*
X109920000Y-62920000D01*
X118630000Y-75600000D02*
X118600000Y-75600000D01*
X118600000Y-75600000D02*
X116500000Y-73500000D01*
X116500000Y-70110000D02*
X118630000Y-67980000D01*
X116500000Y-73500000D02*
X116500000Y-70110000D01*
X118630000Y-75600000D02*
X116900000Y-75600000D01*
X109080000Y-88420000D02*
X111750000Y-85750000D01*
X109080000Y-88420000D02*
X106540000Y-88420000D01*
X115000000Y-85750000D02*
X111750000Y-85750000D01*
X115500000Y-85250000D02*
X115000000Y-85750000D01*
X115500000Y-77000000D02*
X115500000Y-85250000D01*
X116900000Y-75600000D02*
X115500000Y-77000000D01*
X81040000Y-62920000D02*
X82210000Y-61750000D01*
X82210000Y-61750000D02*
X98250000Y-61750000D01*
X98250000Y-61750000D02*
X99420000Y-62920000D01*
X99420000Y-62920000D02*
X106540000Y-62920000D01*
X144370000Y-26260000D02*
X144370000Y-20630000D01*
X121945000Y-20305000D02*
X121945000Y-21230000D01*
X124250000Y-18000000D02*
X121945000Y-20305000D01*
X141740000Y-18000000D02*
X124250000Y-18000000D01*
X144370000Y-20630000D02*
X141740000Y-18000000D01*
X126250000Y-80680000D02*
X123710000Y-80680000D01*
X123710000Y-80680000D02*
X118630000Y-75600000D01*
X81040000Y-88420000D02*
X88330000Y-88420000D01*
X88330000Y-88420000D02*
X90500000Y-86250000D01*
X90500000Y-86250000D02*
X104370000Y-86250000D01*
X104370000Y-86250000D02*
X106540000Y-88420000D01*
X55040000Y-88420000D02*
X55080000Y-88420000D01*
X55080000Y-88420000D02*
X57250000Y-86250000D01*
X78870000Y-86250000D02*
X81040000Y-88420000D01*
X57250000Y-86250000D02*
X78870000Y-86250000D01*
X57350000Y-51870000D02*
X57350000Y-60610000D01*
X57350000Y-60610000D02*
X55040000Y-62920000D01*
X62430000Y-44250000D02*
X62430000Y-46790000D01*
X62430000Y-46790000D02*
X57350000Y-51870000D01*
X68040000Y-24920000D02*
X67920000Y-24920000D01*
X67920000Y-24920000D02*
X64000000Y-21000000D01*
X37710000Y-21000000D02*
X33790000Y-24920000D01*
X64000000Y-21000000D02*
X37710000Y-21000000D01*
X102290000Y-24920000D02*
X102290000Y-23790000D01*
X102290000Y-23790000D02*
X99000000Y-20500000D01*
X72460000Y-20500000D02*
X68040000Y-24920000D01*
X99000000Y-20500000D02*
X72460000Y-20500000D01*
X121945000Y-21230000D02*
X121945000Y-20945000D01*
X121945000Y-20945000D02*
X119750000Y-18750000D01*
X108460000Y-18750000D02*
X102290000Y-24920000D01*
X119750000Y-18750000D02*
X108460000Y-18750000D01*
X121945000Y-23770000D02*
X121945000Y-21230000D01*
X126250000Y-73060000D02*
X126310000Y-73000000D01*
X126310000Y-73000000D02*
X129000000Y-73000000D01*
X145750000Y-40250000D02*
X149250000Y-36750000D01*
X145750000Y-42500000D02*
X145750000Y-40250000D01*
X146000000Y-42750000D02*
X145750000Y-42500000D01*
X146000000Y-50500000D02*
X146000000Y-42750000D01*
X138250000Y-58250000D02*
X146000000Y-50500000D01*
X138250000Y-63750000D02*
X138250000Y-58250000D01*
X129000000Y-73000000D02*
X138250000Y-63750000D01*
X54810000Y-44250000D02*
X56000000Y-45440000D01*
X56000000Y-47000000D02*
X57000000Y-48000000D01*
X56000000Y-45440000D02*
X56000000Y-47000000D01*
X53750000Y-49000000D02*
X54500000Y-49750000D01*
X54500000Y-49750000D02*
X55500000Y-49750000D01*
X69500000Y-48750000D02*
X71500000Y-48750000D01*
X52250000Y-47250000D02*
X53750000Y-48750000D01*
X53750000Y-48750000D02*
X53750000Y-49000000D01*
X126250000Y-70520000D02*
X128480000Y-70520000D01*
X154530000Y-28220000D02*
X154530000Y-26260000D01*
X143000000Y-39750000D02*
X154530000Y-28220000D01*
X143000000Y-42000000D02*
X143000000Y-39750000D01*
X143500000Y-42500000D02*
X143000000Y-42000000D01*
X143500000Y-50500000D02*
X143500000Y-42500000D01*
X135750000Y-58250000D02*
X143500000Y-50500000D01*
X135750000Y-63250000D02*
X135750000Y-58250000D01*
X128480000Y-70520000D02*
X135750000Y-63250000D01*
X52270000Y-44250000D02*
X52250000Y-44270000D01*
X122020000Y-70520000D02*
X126250000Y-70520000D01*
X121750000Y-70250000D02*
X122020000Y-70520000D01*
X100750000Y-48750000D02*
X101750000Y-49750000D01*
X93000000Y-48750000D02*
X100750000Y-48750000D01*
X71500000Y-48750000D02*
X93000000Y-48750000D01*
X71250000Y-48750000D02*
X71500000Y-48750000D01*
D28*
G36*
X176790000Y-104540000D02*
X124284802Y-104540000D01*
X126377362Y-102447440D01*
X127450000Y-102447440D01*
X127685317Y-102403162D01*
X127901441Y-102264090D01*
X128046431Y-102051890D01*
X128097440Y-101800000D01*
X128097440Y-100200000D01*
X128053162Y-99964683D01*
X127914090Y-99748559D01*
X127701890Y-99603569D01*
X127552926Y-99573403D01*
X127700648Y-99474698D01*
X128011717Y-99009151D01*
X128120950Y-98460000D01*
X128011717Y-97910849D01*
X127700648Y-97445302D01*
X127318562Y-97190000D01*
X127700648Y-96934698D01*
X127917604Y-96610000D01*
X130306887Y-96610000D01*
X130416120Y-97159151D01*
X130727189Y-97624698D01*
X131192736Y-97935767D01*
X131741887Y-98045000D01*
X131798113Y-98045000D01*
X132347264Y-97935767D01*
X132812811Y-97624698D01*
X133123880Y-97159151D01*
X133176584Y-96894187D01*
X137954752Y-96894187D01*
X138172757Y-97421800D01*
X138576077Y-97825824D01*
X139103309Y-98044750D01*
X139674187Y-98045248D01*
X140201800Y-97827243D01*
X140605824Y-97423923D01*
X140824750Y-96896691D01*
X140825248Y-96325813D01*
X140802951Y-96271851D01*
X144028781Y-93046021D01*
X144190000Y-93078089D01*
X144797510Y-92957248D01*
X145312532Y-92613121D01*
X145656659Y-92098099D01*
X145777500Y-91490589D01*
X145777500Y-91169411D01*
X145656659Y-90561901D01*
X145312532Y-90046879D01*
X144797510Y-89702752D01*
X144190000Y-89581911D01*
X143582490Y-89702752D01*
X143067468Y-90046879D01*
X142723341Y-90561901D01*
X142602500Y-91169411D01*
X142602500Y-91490589D01*
X142723341Y-92098099D01*
X142764901Y-92160297D01*
X139728454Y-95196744D01*
X139676691Y-95175250D01*
X139105813Y-95174752D01*
X138578200Y-95392757D01*
X138174176Y-95796077D01*
X137955250Y-96323309D01*
X137954752Y-96894187D01*
X133176584Y-96894187D01*
X133233113Y-96610000D01*
X133123880Y-96060849D01*
X132812811Y-95595302D01*
X132347264Y-95284233D01*
X131798113Y-95175000D01*
X131741887Y-95175000D01*
X131192736Y-95284233D01*
X130727189Y-95595302D01*
X130416120Y-96060849D01*
X130306887Y-96610000D01*
X127917604Y-96610000D01*
X128011717Y-96469151D01*
X128120950Y-95920000D01*
X128011717Y-95370849D01*
X127700648Y-94905302D01*
X127318562Y-94650000D01*
X127700648Y-94394698D01*
X128011717Y-93929151D01*
X128120950Y-93380000D01*
X128011717Y-92830849D01*
X127700648Y-92365302D01*
X127318562Y-92110000D01*
X127700648Y-91854698D01*
X128011717Y-91389151D01*
X128120950Y-90840000D01*
X128011717Y-90290849D01*
X127700648Y-89825302D01*
X127318562Y-89570000D01*
X127700648Y-89314698D01*
X128011717Y-88849151D01*
X128120950Y-88300000D01*
X128011717Y-87750849D01*
X127700648Y-87285302D01*
X127318562Y-87030000D01*
X127700648Y-86774698D01*
X128011717Y-86309151D01*
X128120950Y-85760000D01*
X128011717Y-85210849D01*
X127700648Y-84745302D01*
X127318562Y-84490000D01*
X127700648Y-84234698D01*
X128011717Y-83769151D01*
X128120950Y-83220000D01*
X128011717Y-82670849D01*
X127700648Y-82205302D01*
X127318562Y-81950000D01*
X127700648Y-81694698D01*
X128011717Y-81229151D01*
X128120950Y-80680000D01*
X128011717Y-80130849D01*
X127700648Y-79665302D01*
X127318562Y-79410000D01*
X127700648Y-79154698D01*
X127872492Y-78897515D01*
X128150839Y-78842148D01*
X128397401Y-78677401D01*
X133324802Y-73750000D01*
X137926887Y-73750000D01*
X138036120Y-74299151D01*
X138347189Y-74764698D01*
X138630000Y-74953667D01*
X138630000Y-78910000D01*
X138687852Y-79200839D01*
X138852599Y-79447401D01*
X142368568Y-82963370D01*
X142221843Y-83316723D01*
X142221159Y-84099841D01*
X142514508Y-84809799D01*
X142079405Y-84989580D01*
X141661049Y-85407206D01*
X141434358Y-85953139D01*
X141433842Y-86544267D01*
X141659580Y-87090595D01*
X142077206Y-87508951D01*
X142623139Y-87735642D01*
X143214267Y-87736158D01*
X143760595Y-87510420D01*
X144178951Y-87092794D01*
X144405642Y-86546861D01*
X144406158Y-85955733D01*
X144291645Y-85678589D01*
X144579841Y-85678841D01*
X145303609Y-85379786D01*
X145664343Y-85019681D01*
X145371558Y-85724785D01*
X145370645Y-86770626D01*
X145770028Y-87737207D01*
X146508904Y-88477373D01*
X147474785Y-88878442D01*
X148520626Y-88879355D01*
X149487207Y-88479972D01*
X150227373Y-87741096D01*
X150628442Y-86775215D01*
X150628643Y-86544267D01*
X151593842Y-86544267D01*
X151819580Y-87090595D01*
X152237206Y-87508951D01*
X152783139Y-87735642D01*
X153374267Y-87736158D01*
X153920595Y-87510420D01*
X154338951Y-87092794D01*
X154565642Y-86546861D01*
X154566158Y-85955733D01*
X154340420Y-85409405D01*
X153922794Y-84991049D01*
X153376861Y-84764358D01*
X152785733Y-84763842D01*
X152239405Y-84989580D01*
X151821049Y-85407206D01*
X151594358Y-85953139D01*
X151593842Y-86544267D01*
X150628643Y-86544267D01*
X150629355Y-85729374D01*
X150229972Y-84762793D01*
X149491096Y-84022627D01*
X148525215Y-83621558D01*
X147479374Y-83620645D01*
X146512793Y-84020028D01*
X145966124Y-84565744D01*
X146158157Y-84103277D01*
X146158841Y-83320159D01*
X145859786Y-82596391D01*
X145306521Y-82042160D01*
X144583277Y-81741843D01*
X143800159Y-81741159D01*
X143443379Y-81888577D01*
X143114643Y-81559841D01*
X148571159Y-81559841D01*
X148870214Y-82283609D01*
X149423479Y-82837840D01*
X150146723Y-83138157D01*
X150929841Y-83138841D01*
X151653609Y-82839786D01*
X152207840Y-82286521D01*
X152508157Y-81563277D01*
X152508841Y-80780159D01*
X152209786Y-80056391D01*
X151656521Y-79502160D01*
X150933277Y-79201843D01*
X150150159Y-79201159D01*
X149426391Y-79500214D01*
X148872160Y-80053479D01*
X148571843Y-80776723D01*
X148571159Y-81559841D01*
X143114643Y-81559841D01*
X140150000Y-78595198D01*
X140150000Y-74953667D01*
X140432811Y-74764698D01*
X140743880Y-74299151D01*
X140853113Y-73750000D01*
X140743880Y-73200849D01*
X140432811Y-72735302D01*
X139967264Y-72424233D01*
X139418113Y-72315000D01*
X139361887Y-72315000D01*
X138812736Y-72424233D01*
X138347189Y-72735302D01*
X138036120Y-73200849D01*
X137926887Y-73750000D01*
X133324802Y-73750000D01*
X137064802Y-70010000D01*
X142195198Y-70010000D01*
X145596744Y-73411546D01*
X145575250Y-73463309D01*
X145574752Y-74034187D01*
X145792757Y-74561800D01*
X146196077Y-74965824D01*
X146723309Y-75184750D01*
X147294187Y-75185248D01*
X147821800Y-74967243D01*
X148225824Y-74563923D01*
X148248215Y-74510000D01*
X154685198Y-74510000D01*
X155240000Y-75064802D01*
X155240000Y-86825198D01*
X152462138Y-89603060D01*
X150857500Y-89603060D01*
X150622183Y-89647338D01*
X150406059Y-89786410D01*
X150261069Y-89998610D01*
X150210060Y-90250500D01*
X150210060Y-92409500D01*
X150254338Y-92644817D01*
X150393410Y-92860941D01*
X150605610Y-93005931D01*
X150857500Y-93056940D01*
X152762500Y-93056940D01*
X152997817Y-93012662D01*
X153213941Y-92873590D01*
X153358931Y-92661390D01*
X153409940Y-92409500D01*
X153409940Y-90804862D01*
X156537401Y-87677401D01*
X156702148Y-87430839D01*
X156760000Y-87140000D01*
X156760000Y-74750000D01*
X156702148Y-74459161D01*
X156537401Y-74212599D01*
X155537401Y-73212599D01*
X155290839Y-73047852D01*
X155000000Y-72990000D01*
X148248646Y-72990000D01*
X148227243Y-72938200D01*
X147823923Y-72534176D01*
X147770000Y-72511785D01*
X147770000Y-69065536D01*
X150037878Y-62387894D01*
X150259151Y-62343880D01*
X150724698Y-62032811D01*
X150980000Y-61650725D01*
X151235302Y-62032811D01*
X151700849Y-62343880D01*
X152250000Y-62453113D01*
X152799151Y-62343880D01*
X153264698Y-62032811D01*
X153453856Y-61749717D01*
X153496414Y-61852715D01*
X153925029Y-62282079D01*
X154485328Y-62514735D01*
X155092011Y-62515265D01*
X155652715Y-62283586D01*
X156082079Y-61854971D01*
X156314735Y-61294672D01*
X156315265Y-60687989D01*
X156083586Y-60127285D01*
X155654971Y-59697921D01*
X155094672Y-59465265D01*
X154487989Y-59464735D01*
X153927285Y-59696414D01*
X153497921Y-60125029D01*
X153454078Y-60230615D01*
X153264698Y-59947189D01*
X152799151Y-59636120D01*
X152250000Y-59526887D01*
X151700849Y-59636120D01*
X151235302Y-59947189D01*
X150980000Y-60329275D01*
X150724698Y-59947189D01*
X150259151Y-59636120D01*
X149710000Y-59526887D01*
X149160849Y-59636120D01*
X148695302Y-59947189D01*
X148440000Y-60329275D01*
X148184698Y-59947189D01*
X147719151Y-59636120D01*
X147170000Y-59526887D01*
X146620849Y-59636120D01*
X146155302Y-59947189D01*
X145900000Y-60329275D01*
X145644698Y-59947189D01*
X145179151Y-59636120D01*
X144630000Y-59526887D01*
X144080849Y-59636120D01*
X143615302Y-59947189D01*
X143360000Y-60329275D01*
X143104698Y-59947189D01*
X142639151Y-59636120D01*
X142090000Y-59526887D01*
X141540849Y-59636120D01*
X141075302Y-59947189D01*
X140820000Y-60329275D01*
X140564698Y-59947189D01*
X140099151Y-59636120D01*
X139550000Y-59526887D01*
X139010000Y-59634300D01*
X139010000Y-58564802D01*
X146537401Y-51037401D01*
X146702148Y-50790839D01*
X146760000Y-50500000D01*
X146760000Y-47131559D01*
X147170000Y-47213113D01*
X147719151Y-47103880D01*
X148184698Y-46792811D01*
X148440000Y-46410725D01*
X148695302Y-46792811D01*
X149160849Y-47103880D01*
X149710000Y-47213113D01*
X150259151Y-47103880D01*
X150724698Y-46792811D01*
X150821101Y-46648535D01*
X150846838Y-46785317D01*
X150985910Y-47001441D01*
X151198110Y-47146431D01*
X151450000Y-47197440D01*
X153050000Y-47197440D01*
X153285317Y-47153162D01*
X153501441Y-47014090D01*
X153646431Y-46801890D01*
X153652979Y-46769554D01*
X153925029Y-47042079D01*
X154485328Y-47274735D01*
X155092011Y-47275265D01*
X155652715Y-47043586D01*
X156082079Y-46614971D01*
X156314735Y-46054672D01*
X156315265Y-45447989D01*
X156083586Y-44887285D01*
X155654971Y-44457921D01*
X155094672Y-44225265D01*
X154487989Y-44224735D01*
X153927285Y-44456414D01*
X153655598Y-44727627D01*
X153653162Y-44714683D01*
X153514090Y-44498559D01*
X153301890Y-44353569D01*
X153050000Y-44302560D01*
X151450000Y-44302560D01*
X151214683Y-44346838D01*
X150998559Y-44485910D01*
X150853569Y-44698110D01*
X150822185Y-44853089D01*
X150724698Y-44707189D01*
X150259151Y-44396120D01*
X149710000Y-44286887D01*
X149160849Y-44396120D01*
X148695302Y-44707189D01*
X148440000Y-45089275D01*
X148184698Y-44707189D01*
X147719151Y-44396120D01*
X147170000Y-44286887D01*
X146760000Y-44368441D01*
X146760000Y-42933276D01*
X146910000Y-42963113D01*
X147459151Y-42853880D01*
X147924698Y-42542811D01*
X148180000Y-42160725D01*
X148435302Y-42542811D01*
X148900849Y-42853880D01*
X149450000Y-42963113D01*
X149999151Y-42853880D01*
X150464698Y-42542811D01*
X150720000Y-42160725D01*
X150975302Y-42542811D01*
X151440849Y-42853880D01*
X151990000Y-42963113D01*
X152539151Y-42853880D01*
X153004698Y-42542811D01*
X153260000Y-42160725D01*
X153515302Y-42542811D01*
X153980849Y-42853880D01*
X154530000Y-42963113D01*
X155079151Y-42853880D01*
X155544698Y-42542811D01*
X155800000Y-42160725D01*
X156055302Y-42542811D01*
X156520849Y-42853880D01*
X157070000Y-42963113D01*
X157619151Y-42853880D01*
X158084698Y-42542811D01*
X158340000Y-42160725D01*
X158595302Y-42542811D01*
X159060849Y-42853880D01*
X159610000Y-42963113D01*
X160159151Y-42853880D01*
X160624698Y-42542811D01*
X160880000Y-42160725D01*
X161135302Y-42542811D01*
X161600849Y-42853880D01*
X162150000Y-42963113D01*
X162699151Y-42853880D01*
X163164698Y-42542811D01*
X163420000Y-42160725D01*
X163675302Y-42542811D01*
X164140849Y-42853880D01*
X164690000Y-42963113D01*
X165239151Y-42853880D01*
X165704698Y-42542811D01*
X165960000Y-42160725D01*
X166215302Y-42542811D01*
X166680849Y-42853880D01*
X167230000Y-42963113D01*
X167779151Y-42853880D01*
X168244698Y-42542811D01*
X168500000Y-42160725D01*
X168755302Y-42542811D01*
X169220849Y-42853880D01*
X169770000Y-42963113D01*
X170319151Y-42853880D01*
X170784698Y-42542811D01*
X171040000Y-42160725D01*
X171295302Y-42542811D01*
X171760849Y-42853880D01*
X172310000Y-42963113D01*
X172859151Y-42853880D01*
X173324698Y-42542811D01*
X173513856Y-42259717D01*
X173556414Y-42362715D01*
X173985029Y-42792079D01*
X174545328Y-43024735D01*
X175152011Y-43025265D01*
X175712715Y-42793586D01*
X176142079Y-42364971D01*
X176374735Y-41804672D01*
X176375265Y-41197989D01*
X176143586Y-40637285D01*
X175714971Y-40207921D01*
X175154672Y-39975265D01*
X174547989Y-39974735D01*
X173987285Y-40206414D01*
X173557921Y-40635029D01*
X173514078Y-40740615D01*
X173324698Y-40457189D01*
X172859151Y-40146120D01*
X172310000Y-40036887D01*
X171760849Y-40146120D01*
X171295302Y-40457189D01*
X171040000Y-40839275D01*
X170784698Y-40457189D01*
X170319151Y-40146120D01*
X169770000Y-40036887D01*
X169220849Y-40146120D01*
X168755302Y-40457189D01*
X168500000Y-40839275D01*
X168244698Y-40457189D01*
X167779151Y-40146120D01*
X167230000Y-40036887D01*
X166680849Y-40146120D01*
X166215302Y-40457189D01*
X165960000Y-40839275D01*
X165704698Y-40457189D01*
X165239151Y-40146120D01*
X164690000Y-40036887D01*
X164140849Y-40146120D01*
X163675302Y-40457189D01*
X163420000Y-40839275D01*
X163164698Y-40457189D01*
X162699151Y-40146120D01*
X162150000Y-40036887D01*
X161600849Y-40146120D01*
X161135302Y-40457189D01*
X160880000Y-40839275D01*
X160624698Y-40457189D01*
X160159151Y-40146120D01*
X159610000Y-40036887D01*
X159060849Y-40146120D01*
X158595302Y-40457189D01*
X158340000Y-40839275D01*
X158084698Y-40457189D01*
X157619151Y-40146120D01*
X157070000Y-40036887D01*
X156520849Y-40146120D01*
X156055302Y-40457189D01*
X155800000Y-40839275D01*
X155544698Y-40457189D01*
X155079151Y-40146120D01*
X154530000Y-40036887D01*
X153980849Y-40146120D01*
X153515302Y-40457189D01*
X153260000Y-40839275D01*
X153004698Y-40457189D01*
X152539151Y-40146120D01*
X151990000Y-40036887D01*
X151440849Y-40146120D01*
X150975302Y-40457189D01*
X150720000Y-40839275D01*
X150464698Y-40457189D01*
X149999151Y-40146120D01*
X149450000Y-40036887D01*
X148900849Y-40146120D01*
X148435302Y-40457189D01*
X148180000Y-40839275D01*
X147924698Y-40457189D01*
X147459151Y-40146120D01*
X147016693Y-40058109D01*
X149389680Y-37685122D01*
X149435167Y-37685162D01*
X149778943Y-37543117D01*
X150042192Y-37280327D01*
X150184838Y-36936799D01*
X150185162Y-36564833D01*
X150043117Y-36221057D01*
X149780327Y-35957808D01*
X149436799Y-35815162D01*
X149064833Y-35814838D01*
X148721057Y-35956883D01*
X148457808Y-36219673D01*
X148315162Y-36563201D01*
X148315121Y-36610077D01*
X145212599Y-39712599D01*
X145047852Y-39959161D01*
X144999927Y-40200093D01*
X144919151Y-40146120D01*
X144370000Y-40036887D01*
X143820849Y-40146120D01*
X143760000Y-40186778D01*
X143760000Y-40064802D01*
X155067401Y-28757401D01*
X155232148Y-28510840D01*
X155290000Y-28220000D01*
X155290000Y-27472995D01*
X155544698Y-27302811D01*
X155800000Y-26920725D01*
X156055302Y-27302811D01*
X156520849Y-27613880D01*
X157070000Y-27723113D01*
X157619151Y-27613880D01*
X158084698Y-27302811D01*
X158340000Y-26920725D01*
X158595302Y-27302811D01*
X159060849Y-27613880D01*
X159610000Y-27723113D01*
X160159151Y-27613880D01*
X160624698Y-27302811D01*
X160880000Y-26920725D01*
X161135302Y-27302811D01*
X161600849Y-27613880D01*
X162150000Y-27723113D01*
X162699151Y-27613880D01*
X163164698Y-27302811D01*
X163420000Y-26920725D01*
X163675302Y-27302811D01*
X164140849Y-27613880D01*
X164690000Y-27723113D01*
X165239151Y-27613880D01*
X165704698Y-27302811D01*
X165960000Y-26920725D01*
X166215302Y-27302811D01*
X166680849Y-27613880D01*
X167230000Y-27723113D01*
X167779151Y-27613880D01*
X168244698Y-27302811D01*
X168500000Y-26920725D01*
X168755302Y-27302811D01*
X169220849Y-27613880D01*
X169770000Y-27723113D01*
X170319151Y-27613880D01*
X170784698Y-27302811D01*
X171054986Y-26898297D01*
X171157611Y-27115134D01*
X171572577Y-27491041D01*
X171960961Y-27651904D01*
X172183000Y-27529915D01*
X172183000Y-26387000D01*
X172163000Y-26387000D01*
X172163000Y-26133000D01*
X172183000Y-26133000D01*
X172183000Y-24990085D01*
X172437000Y-24990085D01*
X172437000Y-26133000D01*
X172457000Y-26133000D01*
X172457000Y-26387000D01*
X172437000Y-26387000D01*
X172437000Y-27529915D01*
X172659039Y-27651904D01*
X173047423Y-27491041D01*
X173462389Y-27115134D01*
X173510916Y-27012601D01*
X173556414Y-27122715D01*
X173985029Y-27552079D01*
X174545328Y-27784735D01*
X175152011Y-27785265D01*
X175712715Y-27553586D01*
X176142079Y-27124971D01*
X176374735Y-26564672D01*
X176375265Y-25957989D01*
X176143586Y-25397285D01*
X175714971Y-24967921D01*
X175154672Y-24735265D01*
X174547989Y-24734735D01*
X173987285Y-24966414D01*
X173557921Y-25395029D01*
X173511100Y-25507787D01*
X173462389Y-25404866D01*
X173047423Y-25028959D01*
X172659039Y-24868096D01*
X172437000Y-24990085D01*
X172183000Y-24990085D01*
X171960961Y-24868096D01*
X171572577Y-25028959D01*
X171157611Y-25404866D01*
X171054986Y-25621703D01*
X170784698Y-25217189D01*
X170319151Y-24906120D01*
X169770000Y-24796887D01*
X169220849Y-24906120D01*
X168755302Y-25217189D01*
X168500000Y-25599275D01*
X168244698Y-25217189D01*
X167779151Y-24906120D01*
X167230000Y-24796887D01*
X166680849Y-24906120D01*
X166215302Y-25217189D01*
X165960000Y-25599275D01*
X165704698Y-25217189D01*
X165239151Y-24906120D01*
X164690000Y-24796887D01*
X164140849Y-24906120D01*
X163675302Y-25217189D01*
X163420000Y-25599275D01*
X163164698Y-25217189D01*
X162699151Y-24906120D01*
X162150000Y-24796887D01*
X161600849Y-24906120D01*
X161135302Y-25217189D01*
X160880000Y-25599275D01*
X160624698Y-25217189D01*
X160159151Y-24906120D01*
X159610000Y-24796887D01*
X159060849Y-24906120D01*
X158595302Y-25217189D01*
X158340000Y-25599275D01*
X158084698Y-25217189D01*
X157619151Y-24906120D01*
X157070000Y-24796887D01*
X156520849Y-24906120D01*
X156055302Y-25217189D01*
X155800000Y-25599275D01*
X155544698Y-25217189D01*
X155079151Y-24906120D01*
X154530000Y-24796887D01*
X153980849Y-24906120D01*
X153515302Y-25217189D01*
X153260000Y-25599275D01*
X153004698Y-25217189D01*
X152539151Y-24906120D01*
X151990000Y-24796887D01*
X151440849Y-24906120D01*
X150975302Y-25217189D01*
X150720000Y-25599275D01*
X150464698Y-25217189D01*
X149999151Y-24906120D01*
X149450000Y-24796887D01*
X148900849Y-24906120D01*
X148435302Y-25217189D01*
X148180000Y-25599275D01*
X147924698Y-25217189D01*
X147459151Y-24906120D01*
X146910000Y-24796887D01*
X146360849Y-24906120D01*
X145895302Y-25217189D01*
X145640000Y-25599275D01*
X145384698Y-25217189D01*
X145130000Y-25047005D01*
X145130000Y-20630000D01*
X145072148Y-20339161D01*
X144907401Y-20092599D01*
X142277401Y-17462599D01*
X142273511Y-17460000D01*
X176790000Y-17460000D01*
X176790000Y-104540000D01*
X176790000Y-104540000D01*
G37*
X176790000Y-104540000D02*
X124284802Y-104540000D01*
X126377362Y-102447440D01*
X127450000Y-102447440D01*
X127685317Y-102403162D01*
X127901441Y-102264090D01*
X128046431Y-102051890D01*
X128097440Y-101800000D01*
X128097440Y-100200000D01*
X128053162Y-99964683D01*
X127914090Y-99748559D01*
X127701890Y-99603569D01*
X127552926Y-99573403D01*
X127700648Y-99474698D01*
X128011717Y-99009151D01*
X128120950Y-98460000D01*
X128011717Y-97910849D01*
X127700648Y-97445302D01*
X127318562Y-97190000D01*
X127700648Y-96934698D01*
X127917604Y-96610000D01*
X130306887Y-96610000D01*
X130416120Y-97159151D01*
X130727189Y-97624698D01*
X131192736Y-97935767D01*
X131741887Y-98045000D01*
X131798113Y-98045000D01*
X132347264Y-97935767D01*
X132812811Y-97624698D01*
X133123880Y-97159151D01*
X133176584Y-96894187D01*
X137954752Y-96894187D01*
X138172757Y-97421800D01*
X138576077Y-97825824D01*
X139103309Y-98044750D01*
X139674187Y-98045248D01*
X140201800Y-97827243D01*
X140605824Y-97423923D01*
X140824750Y-96896691D01*
X140825248Y-96325813D01*
X140802951Y-96271851D01*
X144028781Y-93046021D01*
X144190000Y-93078089D01*
X144797510Y-92957248D01*
X145312532Y-92613121D01*
X145656659Y-92098099D01*
X145777500Y-91490589D01*
X145777500Y-91169411D01*
X145656659Y-90561901D01*
X145312532Y-90046879D01*
X144797510Y-89702752D01*
X144190000Y-89581911D01*
X143582490Y-89702752D01*
X143067468Y-90046879D01*
X142723341Y-90561901D01*
X142602500Y-91169411D01*
X142602500Y-91490589D01*
X142723341Y-92098099D01*
X142764901Y-92160297D01*
X139728454Y-95196744D01*
X139676691Y-95175250D01*
X139105813Y-95174752D01*
X138578200Y-95392757D01*
X138174176Y-95796077D01*
X137955250Y-96323309D01*
X137954752Y-96894187D01*
X133176584Y-96894187D01*
X133233113Y-96610000D01*
X133123880Y-96060849D01*
X132812811Y-95595302D01*
X132347264Y-95284233D01*
X131798113Y-95175000D01*
X131741887Y-95175000D01*
X131192736Y-95284233D01*
X130727189Y-95595302D01*
X130416120Y-96060849D01*
X130306887Y-96610000D01*
X127917604Y-96610000D01*
X128011717Y-96469151D01*
X128120950Y-95920000D01*
X128011717Y-95370849D01*
X127700648Y-94905302D01*
X127318562Y-94650000D01*
X127700648Y-94394698D01*
X128011717Y-93929151D01*
X128120950Y-93380000D01*
X128011717Y-92830849D01*
X127700648Y-92365302D01*
X127318562Y-92110000D01*
X127700648Y-91854698D01*
X128011717Y-91389151D01*
X128120950Y-90840000D01*
X128011717Y-90290849D01*
X127700648Y-89825302D01*
X127318562Y-89570000D01*
X127700648Y-89314698D01*
X128011717Y-88849151D01*
X128120950Y-88300000D01*
X128011717Y-87750849D01*
X127700648Y-87285302D01*
X127318562Y-87030000D01*
X127700648Y-86774698D01*
X128011717Y-86309151D01*
X128120950Y-85760000D01*
X128011717Y-85210849D01*
X127700648Y-84745302D01*
X127318562Y-84490000D01*
X127700648Y-84234698D01*
X128011717Y-83769151D01*
X128120950Y-83220000D01*
X128011717Y-82670849D01*
X127700648Y-82205302D01*
X127318562Y-81950000D01*
X127700648Y-81694698D01*
X128011717Y-81229151D01*
X128120950Y-80680000D01*
X128011717Y-80130849D01*
X127700648Y-79665302D01*
X127318562Y-79410000D01*
X127700648Y-79154698D01*
X127872492Y-78897515D01*
X128150839Y-78842148D01*
X128397401Y-78677401D01*
X133324802Y-73750000D01*
X137926887Y-73750000D01*
X138036120Y-74299151D01*
X138347189Y-74764698D01*
X138630000Y-74953667D01*
X138630000Y-78910000D01*
X138687852Y-79200839D01*
X138852599Y-79447401D01*
X142368568Y-82963370D01*
X142221843Y-83316723D01*
X142221159Y-84099841D01*
X142514508Y-84809799D01*
X142079405Y-84989580D01*
X141661049Y-85407206D01*
X141434358Y-85953139D01*
X141433842Y-86544267D01*
X141659580Y-87090595D01*
X142077206Y-87508951D01*
X142623139Y-87735642D01*
X143214267Y-87736158D01*
X143760595Y-87510420D01*
X144178951Y-87092794D01*
X144405642Y-86546861D01*
X144406158Y-85955733D01*
X144291645Y-85678589D01*
X144579841Y-85678841D01*
X145303609Y-85379786D01*
X145664343Y-85019681D01*
X145371558Y-85724785D01*
X145370645Y-86770626D01*
X145770028Y-87737207D01*
X146508904Y-88477373D01*
X147474785Y-88878442D01*
X148520626Y-88879355D01*
X149487207Y-88479972D01*
X150227373Y-87741096D01*
X150628442Y-86775215D01*
X150628643Y-86544267D01*
X151593842Y-86544267D01*
X151819580Y-87090595D01*
X152237206Y-87508951D01*
X152783139Y-87735642D01*
X153374267Y-87736158D01*
X153920595Y-87510420D01*
X154338951Y-87092794D01*
X154565642Y-86546861D01*
X154566158Y-85955733D01*
X154340420Y-85409405D01*
X153922794Y-84991049D01*
X153376861Y-84764358D01*
X152785733Y-84763842D01*
X152239405Y-84989580D01*
X151821049Y-85407206D01*
X151594358Y-85953139D01*
X151593842Y-86544267D01*
X150628643Y-86544267D01*
X150629355Y-85729374D01*
X150229972Y-84762793D01*
X149491096Y-84022627D01*
X148525215Y-83621558D01*
X147479374Y-83620645D01*
X146512793Y-84020028D01*
X145966124Y-84565744D01*
X146158157Y-84103277D01*
X146158841Y-83320159D01*
X145859786Y-82596391D01*
X145306521Y-82042160D01*
X144583277Y-81741843D01*
X143800159Y-81741159D01*
X143443379Y-81888577D01*
X143114643Y-81559841D01*
X148571159Y-81559841D01*
X148870214Y-82283609D01*
X149423479Y-82837840D01*
X150146723Y-83138157D01*
X150929841Y-83138841D01*
X151653609Y-82839786D01*
X152207840Y-82286521D01*
X152508157Y-81563277D01*
X152508841Y-80780159D01*
X152209786Y-80056391D01*
X151656521Y-79502160D01*
X150933277Y-79201843D01*
X150150159Y-79201159D01*
X149426391Y-79500214D01*
X148872160Y-80053479D01*
X148571843Y-80776723D01*
X148571159Y-81559841D01*
X143114643Y-81559841D01*
X140150000Y-78595198D01*
X140150000Y-74953667D01*
X140432811Y-74764698D01*
X140743880Y-74299151D01*
X140853113Y-73750000D01*
X140743880Y-73200849D01*
X140432811Y-72735302D01*
X139967264Y-72424233D01*
X139418113Y-72315000D01*
X139361887Y-72315000D01*
X138812736Y-72424233D01*
X138347189Y-72735302D01*
X138036120Y-73200849D01*
X137926887Y-73750000D01*
X133324802Y-73750000D01*
X137064802Y-70010000D01*
X142195198Y-70010000D01*
X145596744Y-73411546D01*
X145575250Y-73463309D01*
X145574752Y-74034187D01*
X145792757Y-74561800D01*
X146196077Y-74965824D01*
X146723309Y-75184750D01*
X147294187Y-75185248D01*
X147821800Y-74967243D01*
X148225824Y-74563923D01*
X148248215Y-74510000D01*
X154685198Y-74510000D01*
X155240000Y-75064802D01*
X155240000Y-86825198D01*
X152462138Y-89603060D01*
X150857500Y-89603060D01*
X150622183Y-89647338D01*
X150406059Y-89786410D01*
X150261069Y-89998610D01*
X150210060Y-90250500D01*
X150210060Y-92409500D01*
X150254338Y-92644817D01*
X150393410Y-92860941D01*
X150605610Y-93005931D01*
X150857500Y-93056940D01*
X152762500Y-93056940D01*
X152997817Y-93012662D01*
X153213941Y-92873590D01*
X153358931Y-92661390D01*
X153409940Y-92409500D01*
X153409940Y-90804862D01*
X156537401Y-87677401D01*
X156702148Y-87430839D01*
X156760000Y-87140000D01*
X156760000Y-74750000D01*
X156702148Y-74459161D01*
X156537401Y-74212599D01*
X155537401Y-73212599D01*
X155290839Y-73047852D01*
X155000000Y-72990000D01*
X148248646Y-72990000D01*
X148227243Y-72938200D01*
X147823923Y-72534176D01*
X147770000Y-72511785D01*
X147770000Y-69065536D01*
X150037878Y-62387894D01*
X150259151Y-62343880D01*
X150724698Y-62032811D01*
X150980000Y-61650725D01*
X151235302Y-62032811D01*
X151700849Y-62343880D01*
X152250000Y-62453113D01*
X152799151Y-62343880D01*
X153264698Y-62032811D01*
X153453856Y-61749717D01*
X153496414Y-61852715D01*
X153925029Y-62282079D01*
X154485328Y-62514735D01*
X155092011Y-62515265D01*
X155652715Y-62283586D01*
X156082079Y-61854971D01*
X156314735Y-61294672D01*
X156315265Y-60687989D01*
X156083586Y-60127285D01*
X155654971Y-59697921D01*
X155094672Y-59465265D01*
X154487989Y-59464735D01*
X153927285Y-59696414D01*
X153497921Y-60125029D01*
X153454078Y-60230615D01*
X153264698Y-59947189D01*
X152799151Y-59636120D01*
X152250000Y-59526887D01*
X151700849Y-59636120D01*
X151235302Y-59947189D01*
X150980000Y-60329275D01*
X150724698Y-59947189D01*
X150259151Y-59636120D01*
X149710000Y-59526887D01*
X149160849Y-59636120D01*
X148695302Y-59947189D01*
X148440000Y-60329275D01*
X148184698Y-59947189D01*
X147719151Y-59636120D01*
X147170000Y-59526887D01*
X146620849Y-59636120D01*
X146155302Y-59947189D01*
X145900000Y-60329275D01*
X145644698Y-59947189D01*
X145179151Y-59636120D01*
X144630000Y-59526887D01*
X144080849Y-59636120D01*
X143615302Y-59947189D01*
X143360000Y-60329275D01*
X143104698Y-59947189D01*
X142639151Y-59636120D01*
X142090000Y-59526887D01*
X141540849Y-59636120D01*
X141075302Y-59947189D01*
X140820000Y-60329275D01*
X140564698Y-59947189D01*
X140099151Y-59636120D01*
X139550000Y-59526887D01*
X139010000Y-59634300D01*
X139010000Y-58564802D01*
X146537401Y-51037401D01*
X146702148Y-50790839D01*
X146760000Y-50500000D01*
X146760000Y-47131559D01*
X147170000Y-47213113D01*
X147719151Y-47103880D01*
X148184698Y-46792811D01*
X148440000Y-46410725D01*
X148695302Y-46792811D01*
X149160849Y-47103880D01*
X149710000Y-47213113D01*
X150259151Y-47103880D01*
X150724698Y-46792811D01*
X150821101Y-46648535D01*
X150846838Y-46785317D01*
X150985910Y-47001441D01*
X151198110Y-47146431D01*
X151450000Y-47197440D01*
X153050000Y-47197440D01*
X153285317Y-47153162D01*
X153501441Y-47014090D01*
X153646431Y-46801890D01*
X153652979Y-46769554D01*
X153925029Y-47042079D01*
X154485328Y-47274735D01*
X155092011Y-47275265D01*
X155652715Y-47043586D01*
X156082079Y-46614971D01*
X156314735Y-46054672D01*
X156315265Y-45447989D01*
X156083586Y-44887285D01*
X155654971Y-44457921D01*
X155094672Y-44225265D01*
X154487989Y-44224735D01*
X153927285Y-44456414D01*
X153655598Y-44727627D01*
X153653162Y-44714683D01*
X153514090Y-44498559D01*
X153301890Y-44353569D01*
X153050000Y-44302560D01*
X151450000Y-44302560D01*
X151214683Y-44346838D01*
X150998559Y-44485910D01*
X150853569Y-44698110D01*
X150822185Y-44853089D01*
X150724698Y-44707189D01*
X150259151Y-44396120D01*
X149710000Y-44286887D01*
X149160849Y-44396120D01*
X148695302Y-44707189D01*
X148440000Y-45089275D01*
X148184698Y-44707189D01*
X147719151Y-44396120D01*
X147170000Y-44286887D01*
X146760000Y-44368441D01*
X146760000Y-42933276D01*
X146910000Y-42963113D01*
X147459151Y-42853880D01*
X147924698Y-42542811D01*
X148180000Y-42160725D01*
X148435302Y-42542811D01*
X148900849Y-42853880D01*
X149450000Y-42963113D01*
X149999151Y-42853880D01*
X150464698Y-42542811D01*
X150720000Y-42160725D01*
X150975302Y-42542811D01*
X151440849Y-42853880D01*
X151990000Y-42963113D01*
X152539151Y-42853880D01*
X153004698Y-42542811D01*
X153260000Y-42160725D01*
X153515302Y-42542811D01*
X153980849Y-42853880D01*
X154530000Y-42963113D01*
X155079151Y-42853880D01*
X155544698Y-42542811D01*
X155800000Y-42160725D01*
X156055302Y-42542811D01*
X156520849Y-42853880D01*
X157070000Y-42963113D01*
X157619151Y-42853880D01*
X158084698Y-42542811D01*
X158340000Y-42160725D01*
X158595302Y-42542811D01*
X159060849Y-42853880D01*
X159610000Y-42963113D01*
X160159151Y-42853880D01*
X160624698Y-42542811D01*
X160880000Y-42160725D01*
X161135302Y-42542811D01*
X161600849Y-42853880D01*
X162150000Y-42963113D01*
X162699151Y-42853880D01*
X163164698Y-42542811D01*
X163420000Y-42160725D01*
X163675302Y-42542811D01*
X164140849Y-42853880D01*
X164690000Y-42963113D01*
X165239151Y-42853880D01*
X165704698Y-42542811D01*
X165960000Y-42160725D01*
X166215302Y-42542811D01*
X166680849Y-42853880D01*
X167230000Y-42963113D01*
X167779151Y-42853880D01*
X168244698Y-42542811D01*
X168500000Y-42160725D01*
X168755302Y-42542811D01*
X169220849Y-42853880D01*
X169770000Y-42963113D01*
X170319151Y-42853880D01*
X170784698Y-42542811D01*
X171040000Y-42160725D01*
X171295302Y-42542811D01*
X171760849Y-42853880D01*
X172310000Y-42963113D01*
X172859151Y-42853880D01*
X173324698Y-42542811D01*
X173513856Y-42259717D01*
X173556414Y-42362715D01*
X173985029Y-42792079D01*
X174545328Y-43024735D01*
X175152011Y-43025265D01*
X175712715Y-42793586D01*
X176142079Y-42364971D01*
X176374735Y-41804672D01*
X176375265Y-41197989D01*
X176143586Y-40637285D01*
X175714971Y-40207921D01*
X175154672Y-39975265D01*
X174547989Y-39974735D01*
X173987285Y-40206414D01*
X173557921Y-40635029D01*
X173514078Y-40740615D01*
X173324698Y-40457189D01*
X172859151Y-40146120D01*
X172310000Y-40036887D01*
X171760849Y-40146120D01*
X171295302Y-40457189D01*
X171040000Y-40839275D01*
X170784698Y-40457189D01*
X170319151Y-40146120D01*
X169770000Y-40036887D01*
X169220849Y-40146120D01*
X168755302Y-40457189D01*
X168500000Y-40839275D01*
X168244698Y-40457189D01*
X167779151Y-40146120D01*
X167230000Y-40036887D01*
X166680849Y-40146120D01*
X166215302Y-40457189D01*
X165960000Y-40839275D01*
X165704698Y-40457189D01*
X165239151Y-40146120D01*
X164690000Y-40036887D01*
X164140849Y-40146120D01*
X163675302Y-40457189D01*
X163420000Y-40839275D01*
X163164698Y-40457189D01*
X162699151Y-40146120D01*
X162150000Y-40036887D01*
X161600849Y-40146120D01*
X161135302Y-40457189D01*
X160880000Y-40839275D01*
X160624698Y-40457189D01*
X160159151Y-40146120D01*
X159610000Y-40036887D01*
X159060849Y-40146120D01*
X158595302Y-40457189D01*
X158340000Y-40839275D01*
X158084698Y-40457189D01*
X157619151Y-40146120D01*
X157070000Y-40036887D01*
X156520849Y-40146120D01*
X156055302Y-40457189D01*
X155800000Y-40839275D01*
X155544698Y-40457189D01*
X155079151Y-40146120D01*
X154530000Y-40036887D01*
X153980849Y-40146120D01*
X153515302Y-40457189D01*
X153260000Y-40839275D01*
X153004698Y-40457189D01*
X152539151Y-40146120D01*
X151990000Y-40036887D01*
X151440849Y-40146120D01*
X150975302Y-40457189D01*
X150720000Y-40839275D01*
X150464698Y-40457189D01*
X149999151Y-40146120D01*
X149450000Y-40036887D01*
X148900849Y-40146120D01*
X148435302Y-40457189D01*
X148180000Y-40839275D01*
X147924698Y-40457189D01*
X147459151Y-40146120D01*
X147016693Y-40058109D01*
X149389680Y-37685122D01*
X149435167Y-37685162D01*
X149778943Y-37543117D01*
X150042192Y-37280327D01*
X150184838Y-36936799D01*
X150185162Y-36564833D01*
X150043117Y-36221057D01*
X149780327Y-35957808D01*
X149436799Y-35815162D01*
X149064833Y-35814838D01*
X148721057Y-35956883D01*
X148457808Y-36219673D01*
X148315162Y-36563201D01*
X148315121Y-36610077D01*
X145212599Y-39712599D01*
X145047852Y-39959161D01*
X144999927Y-40200093D01*
X144919151Y-40146120D01*
X144370000Y-40036887D01*
X143820849Y-40146120D01*
X143760000Y-40186778D01*
X143760000Y-40064802D01*
X155067401Y-28757401D01*
X155232148Y-28510840D01*
X155290000Y-28220000D01*
X155290000Y-27472995D01*
X155544698Y-27302811D01*
X155800000Y-26920725D01*
X156055302Y-27302811D01*
X156520849Y-27613880D01*
X157070000Y-27723113D01*
X157619151Y-27613880D01*
X158084698Y-27302811D01*
X158340000Y-26920725D01*
X158595302Y-27302811D01*
X159060849Y-27613880D01*
X159610000Y-27723113D01*
X160159151Y-27613880D01*
X160624698Y-27302811D01*
X160880000Y-26920725D01*
X161135302Y-27302811D01*
X161600849Y-27613880D01*
X162150000Y-27723113D01*
X162699151Y-27613880D01*
X163164698Y-27302811D01*
X163420000Y-26920725D01*
X163675302Y-27302811D01*
X164140849Y-27613880D01*
X164690000Y-27723113D01*
X165239151Y-27613880D01*
X165704698Y-27302811D01*
X165960000Y-26920725D01*
X166215302Y-27302811D01*
X166680849Y-27613880D01*
X167230000Y-27723113D01*
X167779151Y-27613880D01*
X168244698Y-27302811D01*
X168500000Y-26920725D01*
X168755302Y-27302811D01*
X169220849Y-27613880D01*
X169770000Y-27723113D01*
X170319151Y-27613880D01*
X170784698Y-27302811D01*
X171054986Y-26898297D01*
X171157611Y-27115134D01*
X171572577Y-27491041D01*
X171960961Y-27651904D01*
X172183000Y-27529915D01*
X172183000Y-26387000D01*
X172163000Y-26387000D01*
X172163000Y-26133000D01*
X172183000Y-26133000D01*
X172183000Y-24990085D01*
X172437000Y-24990085D01*
X172437000Y-26133000D01*
X172457000Y-26133000D01*
X172457000Y-26387000D01*
X172437000Y-26387000D01*
X172437000Y-27529915D01*
X172659039Y-27651904D01*
X173047423Y-27491041D01*
X173462389Y-27115134D01*
X173510916Y-27012601D01*
X173556414Y-27122715D01*
X173985029Y-27552079D01*
X174545328Y-27784735D01*
X175152011Y-27785265D01*
X175712715Y-27553586D01*
X176142079Y-27124971D01*
X176374735Y-26564672D01*
X176375265Y-25957989D01*
X176143586Y-25397285D01*
X175714971Y-24967921D01*
X175154672Y-24735265D01*
X174547989Y-24734735D01*
X173987285Y-24966414D01*
X173557921Y-25395029D01*
X173511100Y-25507787D01*
X173462389Y-25404866D01*
X173047423Y-25028959D01*
X172659039Y-24868096D01*
X172437000Y-24990085D01*
X172183000Y-24990085D01*
X171960961Y-24868096D01*
X171572577Y-25028959D01*
X171157611Y-25404866D01*
X171054986Y-25621703D01*
X170784698Y-25217189D01*
X170319151Y-24906120D01*
X169770000Y-24796887D01*
X169220849Y-24906120D01*
X168755302Y-25217189D01*
X168500000Y-25599275D01*
X168244698Y-25217189D01*
X167779151Y-24906120D01*
X167230000Y-24796887D01*
X166680849Y-24906120D01*
X166215302Y-25217189D01*
X165960000Y-25599275D01*
X165704698Y-25217189D01*
X165239151Y-24906120D01*
X164690000Y-24796887D01*
X164140849Y-24906120D01*
X163675302Y-25217189D01*
X163420000Y-25599275D01*
X163164698Y-25217189D01*
X162699151Y-24906120D01*
X162150000Y-24796887D01*
X161600849Y-24906120D01*
X161135302Y-25217189D01*
X160880000Y-25599275D01*
X160624698Y-25217189D01*
X160159151Y-24906120D01*
X159610000Y-24796887D01*
X159060849Y-24906120D01*
X158595302Y-25217189D01*
X158340000Y-25599275D01*
X158084698Y-25217189D01*
X157619151Y-24906120D01*
X157070000Y-24796887D01*
X156520849Y-24906120D01*
X156055302Y-25217189D01*
X155800000Y-25599275D01*
X155544698Y-25217189D01*
X155079151Y-24906120D01*
X154530000Y-24796887D01*
X153980849Y-24906120D01*
X153515302Y-25217189D01*
X153260000Y-25599275D01*
X153004698Y-25217189D01*
X152539151Y-24906120D01*
X151990000Y-24796887D01*
X151440849Y-24906120D01*
X150975302Y-25217189D01*
X150720000Y-25599275D01*
X150464698Y-25217189D01*
X149999151Y-24906120D01*
X149450000Y-24796887D01*
X148900849Y-24906120D01*
X148435302Y-25217189D01*
X148180000Y-25599275D01*
X147924698Y-25217189D01*
X147459151Y-24906120D01*
X146910000Y-24796887D01*
X146360849Y-24906120D01*
X145895302Y-25217189D01*
X145640000Y-25599275D01*
X145384698Y-25217189D01*
X145130000Y-25047005D01*
X145130000Y-20630000D01*
X145072148Y-20339161D01*
X144907401Y-20092599D01*
X142277401Y-17462599D01*
X142273511Y-17460000D01*
X176790000Y-17460000D01*
X176790000Y-104540000D01*
G36*
X136752603Y-24797405D02*
X136750000Y-24796887D01*
X136200849Y-24906120D01*
X135735302Y-25217189D01*
X135546144Y-25500283D01*
X135503586Y-25397285D01*
X135074971Y-24967921D01*
X134514672Y-24735265D01*
X133907989Y-24734735D01*
X133347285Y-24966414D01*
X132917921Y-25395029D01*
X132685265Y-25955328D01*
X132684735Y-26562011D01*
X132916414Y-27122715D01*
X133345029Y-27552079D01*
X133905328Y-27784735D01*
X134512011Y-27785265D01*
X135072715Y-27553586D01*
X135502079Y-27124971D01*
X135545922Y-27019385D01*
X135735302Y-27302811D01*
X136200849Y-27613880D01*
X136750000Y-27723113D01*
X137299151Y-27613880D01*
X137764698Y-27302811D01*
X138020000Y-26920725D01*
X138275302Y-27302811D01*
X138740849Y-27613880D01*
X139290000Y-27723113D01*
X139839151Y-27613880D01*
X140304698Y-27302811D01*
X140560000Y-26920725D01*
X140815302Y-27302811D01*
X141280849Y-27613880D01*
X141830000Y-27723113D01*
X142379151Y-27613880D01*
X142844698Y-27302811D01*
X143100000Y-26920725D01*
X143355302Y-27302811D01*
X143820849Y-27613880D01*
X144370000Y-27723113D01*
X144919151Y-27613880D01*
X145384698Y-27302811D01*
X145640000Y-26920725D01*
X145895302Y-27302811D01*
X146360849Y-27613880D01*
X146910000Y-27723113D01*
X147459151Y-27613880D01*
X147924698Y-27302811D01*
X148180000Y-26920725D01*
X148435302Y-27302811D01*
X148900849Y-27613880D01*
X149450000Y-27723113D01*
X149999151Y-27613880D01*
X150464698Y-27302811D01*
X150720000Y-26920725D01*
X150975302Y-27302811D01*
X151440849Y-27613880D01*
X151990000Y-27723113D01*
X152539151Y-27613880D01*
X153004698Y-27302811D01*
X153260000Y-26920725D01*
X153515302Y-27302811D01*
X153770000Y-27472995D01*
X153770000Y-27905198D01*
X142462599Y-39212599D01*
X142297852Y-39459161D01*
X142240000Y-39750000D01*
X142240000Y-40118441D01*
X141830000Y-40036887D01*
X141280849Y-40146120D01*
X140815302Y-40457189D01*
X140560000Y-40839275D01*
X140304698Y-40457189D01*
X139839151Y-40146120D01*
X139290000Y-40036887D01*
X138740849Y-40146120D01*
X138275302Y-40457189D01*
X138178899Y-40601465D01*
X138153162Y-40464683D01*
X138014090Y-40248559D01*
X137801890Y-40103569D01*
X137550000Y-40052560D01*
X135950000Y-40052560D01*
X135714683Y-40096838D01*
X135498559Y-40235910D01*
X135353569Y-40448110D01*
X135347021Y-40480446D01*
X135074971Y-40207921D01*
X134514672Y-39975265D01*
X133907989Y-39974735D01*
X133347285Y-40206414D01*
X132917921Y-40635029D01*
X132685265Y-41195328D01*
X132684735Y-41802011D01*
X132916414Y-42362715D01*
X133345029Y-42792079D01*
X133905328Y-43024735D01*
X134512011Y-43025265D01*
X135072715Y-42793586D01*
X135344402Y-42522373D01*
X135346838Y-42535317D01*
X135485910Y-42751441D01*
X135698110Y-42896431D01*
X135950000Y-42947440D01*
X137550000Y-42947440D01*
X137785317Y-42903162D01*
X138001441Y-42764090D01*
X138146431Y-42551890D01*
X138177815Y-42396911D01*
X138275302Y-42542811D01*
X138740849Y-42853880D01*
X139290000Y-42963113D01*
X139839151Y-42853880D01*
X140304698Y-42542811D01*
X140560000Y-42160725D01*
X140815302Y-42542811D01*
X141280849Y-42853880D01*
X141830000Y-42963113D01*
X142379151Y-42853880D01*
X142618890Y-42693692D01*
X142740000Y-42814802D01*
X142740000Y-44463505D01*
X142639151Y-44396120D01*
X142090000Y-44286887D01*
X141540849Y-44396120D01*
X141075302Y-44707189D01*
X140820000Y-45089275D01*
X140564698Y-44707189D01*
X140099151Y-44396120D01*
X139550000Y-44286887D01*
X139000849Y-44396120D01*
X138535302Y-44707189D01*
X138280000Y-45089275D01*
X138024698Y-44707189D01*
X137559151Y-44396120D01*
X137010000Y-44286887D01*
X136460849Y-44396120D01*
X135995302Y-44707189D01*
X135740000Y-45089275D01*
X135484698Y-44707189D01*
X135019151Y-44396120D01*
X134470000Y-44286887D01*
X133920849Y-44396120D01*
X133455302Y-44707189D01*
X133200000Y-45089275D01*
X132944698Y-44707189D01*
X132479151Y-44396120D01*
X131930000Y-44286887D01*
X131380849Y-44396120D01*
X130915302Y-44707189D01*
X130660000Y-45089275D01*
X130404698Y-44707189D01*
X129939151Y-44396120D01*
X129390000Y-44286887D01*
X128840849Y-44396120D01*
X128375302Y-44707189D01*
X128120000Y-45089275D01*
X127864698Y-44707189D01*
X127399151Y-44396120D01*
X126850000Y-44286887D01*
X126300849Y-44396120D01*
X125835302Y-44707189D01*
X125580000Y-45089275D01*
X125324698Y-44707189D01*
X124859151Y-44396120D01*
X124310000Y-44286887D01*
X123760849Y-44396120D01*
X123295302Y-44707189D01*
X123040000Y-45089275D01*
X122784698Y-44707189D01*
X122319151Y-44396120D01*
X121770000Y-44286887D01*
X121220849Y-44396120D01*
X120755302Y-44707189D01*
X120500000Y-45089275D01*
X120244698Y-44707189D01*
X119779151Y-44396120D01*
X119230000Y-44286887D01*
X118680849Y-44396120D01*
X118215302Y-44707189D01*
X117960000Y-45089275D01*
X117704698Y-44707189D01*
X117239151Y-44396120D01*
X116690000Y-44286887D01*
X116140849Y-44396120D01*
X115675302Y-44707189D01*
X115486144Y-44990283D01*
X115443586Y-44887285D01*
X115014971Y-44457921D01*
X114454672Y-44225265D01*
X113847989Y-44224735D01*
X113287285Y-44456414D01*
X112857921Y-44885029D01*
X112625265Y-45445328D01*
X112624735Y-46052011D01*
X112856414Y-46612715D01*
X113285029Y-47042079D01*
X113845328Y-47274735D01*
X114452011Y-47275265D01*
X115012715Y-47043586D01*
X115442079Y-46614971D01*
X115485922Y-46509385D01*
X115675302Y-46792811D01*
X116140849Y-47103880D01*
X116690000Y-47213113D01*
X117239151Y-47103880D01*
X117704698Y-46792811D01*
X117960000Y-46410725D01*
X118215302Y-46792811D01*
X118680849Y-47103880D01*
X119230000Y-47213113D01*
X119779151Y-47103880D01*
X120244698Y-46792811D01*
X120500000Y-46410725D01*
X120755302Y-46792811D01*
X121220849Y-47103880D01*
X121770000Y-47213113D01*
X122319151Y-47103880D01*
X122784698Y-46792811D01*
X123040000Y-46410725D01*
X123295302Y-46792811D01*
X123760849Y-47103880D01*
X124310000Y-47213113D01*
X124859151Y-47103880D01*
X125324698Y-46792811D01*
X125580000Y-46410725D01*
X125835302Y-46792811D01*
X126300849Y-47103880D01*
X126850000Y-47213113D01*
X127399151Y-47103880D01*
X127864698Y-46792811D01*
X128120000Y-46410725D01*
X128375302Y-46792811D01*
X128840849Y-47103880D01*
X129390000Y-47213113D01*
X129939151Y-47103880D01*
X130404698Y-46792811D01*
X130660000Y-46410725D01*
X130915302Y-46792811D01*
X131380849Y-47103880D01*
X131930000Y-47213113D01*
X132479151Y-47103880D01*
X132944698Y-46792811D01*
X133200000Y-46410725D01*
X133455302Y-46792811D01*
X133920849Y-47103880D01*
X134470000Y-47213113D01*
X135019151Y-47103880D01*
X135484698Y-46792811D01*
X135740000Y-46410725D01*
X135995302Y-46792811D01*
X136460849Y-47103880D01*
X137010000Y-47213113D01*
X137559151Y-47103880D01*
X138024698Y-46792811D01*
X138280000Y-46410725D01*
X138535302Y-46792811D01*
X139000849Y-47103880D01*
X139550000Y-47213113D01*
X140099151Y-47103880D01*
X140564698Y-46792811D01*
X140820000Y-46410725D01*
X141075302Y-46792811D01*
X141540849Y-47103880D01*
X142090000Y-47213113D01*
X142639151Y-47103880D01*
X142740000Y-47036495D01*
X142740000Y-50185198D01*
X135212599Y-57712599D01*
X135047852Y-57959161D01*
X134990000Y-58250000D01*
X134990000Y-59630322D01*
X134470000Y-59526887D01*
X133920849Y-59636120D01*
X133455302Y-59947189D01*
X133200000Y-60329275D01*
X132944698Y-59947189D01*
X132479151Y-59636120D01*
X131930000Y-59526887D01*
X131380849Y-59636120D01*
X130915302Y-59947189D01*
X130660000Y-60329275D01*
X130404698Y-59947189D01*
X129939151Y-59636120D01*
X129390000Y-59526887D01*
X128840849Y-59636120D01*
X128375302Y-59947189D01*
X128120000Y-60329275D01*
X127864698Y-59947189D01*
X127399151Y-59636120D01*
X126850000Y-59526887D01*
X126300849Y-59636120D01*
X125835302Y-59947189D01*
X125580000Y-60329275D01*
X125324698Y-59947189D01*
X124859151Y-59636120D01*
X124310000Y-59526887D01*
X123760849Y-59636120D01*
X123295302Y-59947189D01*
X123040000Y-60329275D01*
X122784698Y-59947189D01*
X122319151Y-59636120D01*
X121770000Y-59526887D01*
X121220849Y-59636120D01*
X120755302Y-59947189D01*
X120500000Y-60329275D01*
X120244698Y-59947189D01*
X119779151Y-59636120D01*
X119230000Y-59526887D01*
X118680849Y-59636120D01*
X118215302Y-59947189D01*
X117945014Y-60351703D01*
X117842389Y-60134866D01*
X117427423Y-59758959D01*
X117039039Y-59598096D01*
X116817000Y-59720085D01*
X116817000Y-60863000D01*
X116837000Y-60863000D01*
X116837000Y-61117000D01*
X116817000Y-61117000D01*
X116817000Y-62259915D01*
X117039039Y-62381904D01*
X117427423Y-62221041D01*
X117842389Y-61845134D01*
X117945014Y-61628297D01*
X118215302Y-62032811D01*
X118680849Y-62343880D01*
X119230000Y-62453113D01*
X119779151Y-62343880D01*
X120244698Y-62032811D01*
X120500000Y-61650725D01*
X120755302Y-62032811D01*
X121220849Y-62343880D01*
X121770000Y-62453113D01*
X122319151Y-62343880D01*
X122784698Y-62032811D01*
X123040000Y-61650725D01*
X123295302Y-62032811D01*
X123760849Y-62343880D01*
X124310000Y-62453113D01*
X124859151Y-62343880D01*
X125324698Y-62032811D01*
X125580000Y-61650725D01*
X125835302Y-62032811D01*
X126300849Y-62343880D01*
X126850000Y-62453113D01*
X127399151Y-62343880D01*
X127864698Y-62032811D01*
X128120000Y-61650725D01*
X128375302Y-62032811D01*
X128840849Y-62343880D01*
X129390000Y-62453113D01*
X129939151Y-62343880D01*
X130404698Y-62032811D01*
X130660000Y-61650725D01*
X130915302Y-62032811D01*
X131380849Y-62343880D01*
X131930000Y-62453113D01*
X132479151Y-62343880D01*
X132944698Y-62032811D01*
X133200000Y-61650725D01*
X133455302Y-62032811D01*
X133920849Y-62343880D01*
X134470000Y-62453113D01*
X134990000Y-62349678D01*
X134990000Y-62935198D01*
X128165198Y-69760000D01*
X127870832Y-69760000D01*
X127700648Y-69505302D01*
X127318562Y-69250000D01*
X127700648Y-68994698D01*
X128011717Y-68529151D01*
X128120950Y-67980000D01*
X128011717Y-67430849D01*
X127700648Y-66965302D01*
X127235101Y-66654233D01*
X126685950Y-66545000D01*
X125814050Y-66545000D01*
X125264899Y-66654233D01*
X124799352Y-66965302D01*
X124488283Y-67430849D01*
X124379050Y-67980000D01*
X124488283Y-68529151D01*
X124799352Y-68994698D01*
X125181438Y-69250000D01*
X124799352Y-69505302D01*
X124629168Y-69760000D01*
X122559208Y-69760000D01*
X122543117Y-69721057D01*
X122280327Y-69457808D01*
X121936799Y-69315162D01*
X121564833Y-69314838D01*
X121221057Y-69456883D01*
X120957808Y-69719673D01*
X120815162Y-70063201D01*
X120814838Y-70435167D01*
X120956883Y-70778943D01*
X121219673Y-71042192D01*
X121563201Y-71184838D01*
X121673466Y-71184934D01*
X121729161Y-71222148D01*
X122020000Y-71280000D01*
X124629168Y-71280000D01*
X124799352Y-71534698D01*
X125181438Y-71790000D01*
X124799352Y-72045302D01*
X124488283Y-72510849D01*
X124379050Y-73060000D01*
X124488283Y-73609151D01*
X124799352Y-74074698D01*
X125181438Y-74330000D01*
X124799352Y-74585302D01*
X124488283Y-75050849D01*
X124379050Y-75600000D01*
X124488283Y-76149151D01*
X124799352Y-76614698D01*
X125181438Y-76870000D01*
X124799352Y-77125302D01*
X124629168Y-77380000D01*
X124024802Y-77380000D01*
X120336536Y-73691734D01*
X120391717Y-73609151D01*
X120500950Y-73060000D01*
X120391717Y-72510849D01*
X120080648Y-72045302D01*
X119698562Y-71790000D01*
X120080648Y-71534698D01*
X120391717Y-71069151D01*
X120500950Y-70520000D01*
X120391717Y-69970849D01*
X120080648Y-69505302D01*
X119698562Y-69250000D01*
X120080648Y-68994698D01*
X120391717Y-68529151D01*
X120500950Y-67980000D01*
X120391717Y-67430849D01*
X120080648Y-66965302D01*
X119615101Y-66654233D01*
X119065950Y-66545000D01*
X118194050Y-66545000D01*
X117644899Y-66654233D01*
X117179352Y-66965302D01*
X117009168Y-67220000D01*
X115294802Y-67220000D01*
X110457401Y-62382599D01*
X110210839Y-62217852D01*
X109920000Y-62160000D01*
X108355894Y-62160000D01*
X108209786Y-61806391D01*
X107696303Y-61292011D01*
X112624735Y-61292011D01*
X112856414Y-61852715D01*
X113285029Y-62282079D01*
X113845328Y-62514735D01*
X114452011Y-62515265D01*
X115012715Y-62283586D01*
X115442079Y-61854971D01*
X115488900Y-61742213D01*
X115537611Y-61845134D01*
X115952577Y-62221041D01*
X116340961Y-62381904D01*
X116563000Y-62259915D01*
X116563000Y-61117000D01*
X116543000Y-61117000D01*
X116543000Y-60863000D01*
X116563000Y-60863000D01*
X116563000Y-59720085D01*
X116340961Y-59598096D01*
X115952577Y-59758959D01*
X115537611Y-60134866D01*
X115489084Y-60237399D01*
X115443586Y-60127285D01*
X115014971Y-59697921D01*
X114454672Y-59465265D01*
X113847989Y-59464735D01*
X113287285Y-59696414D01*
X112857921Y-60125029D01*
X112625265Y-60685328D01*
X112624735Y-61292011D01*
X107696303Y-61292011D01*
X107656521Y-61252160D01*
X106933277Y-60951843D01*
X106150159Y-60951159D01*
X105426391Y-61250214D01*
X104872160Y-61803479D01*
X104724120Y-62160000D01*
X99734802Y-62160000D01*
X98787401Y-61212599D01*
X98540839Y-61047852D01*
X98250000Y-60990000D01*
X82210000Y-60990000D01*
X81919161Y-61047852D01*
X81821555Y-61113070D01*
X81433277Y-60951843D01*
X80650159Y-60951159D01*
X79926391Y-61250214D01*
X79372160Y-61803479D01*
X79071843Y-62526723D01*
X79071159Y-63309841D01*
X79370214Y-64033609D01*
X79923479Y-64587840D01*
X80646723Y-64888157D01*
X81429841Y-64888841D01*
X81683122Y-64784187D01*
X89564752Y-64784187D01*
X89782757Y-65311800D01*
X90186077Y-65715824D01*
X90713309Y-65934750D01*
X91284187Y-65935248D01*
X91811800Y-65717243D01*
X92215824Y-65313923D01*
X92434750Y-64786691D01*
X92435248Y-64215813D01*
X92217243Y-63688200D01*
X91813923Y-63284176D01*
X91286691Y-63065250D01*
X90715813Y-63064752D01*
X90188200Y-63282757D01*
X89784176Y-63686077D01*
X89565250Y-64213309D01*
X89564752Y-64784187D01*
X81683122Y-64784187D01*
X82153609Y-64589786D01*
X82707840Y-64036521D01*
X83008157Y-63313277D01*
X83008841Y-62530159D01*
X83000511Y-62510000D01*
X92814991Y-62510000D01*
X92814838Y-62685167D01*
X92956883Y-63028943D01*
X93219673Y-63292192D01*
X93563201Y-63434838D01*
X93610077Y-63434879D01*
X95740000Y-65564802D01*
X95740000Y-69390000D01*
X95797852Y-69680839D01*
X95962599Y-69927401D01*
X98660919Y-72625721D01*
X98602500Y-72919411D01*
X98602500Y-73240589D01*
X98723341Y-73848099D01*
X99067468Y-74363121D01*
X99582490Y-74707248D01*
X100190000Y-74828089D01*
X100797510Y-74707248D01*
X101312532Y-74363121D01*
X101656659Y-73848099D01*
X101777500Y-73240589D01*
X101777500Y-72919411D01*
X101656659Y-72311901D01*
X101448588Y-72000500D01*
X106210060Y-72000500D01*
X106210060Y-74159500D01*
X106254338Y-74394817D01*
X106393410Y-74610941D01*
X106605610Y-74755931D01*
X106857500Y-74806940D01*
X108762500Y-74806940D01*
X108997817Y-74762662D01*
X109213941Y-74623590D01*
X109358931Y-74411390D01*
X109409940Y-74159500D01*
X109409940Y-72000500D01*
X109365662Y-71765183D01*
X109226590Y-71549059D01*
X109014390Y-71404069D01*
X108762500Y-71353060D01*
X106857500Y-71353060D01*
X106622183Y-71397338D01*
X106406059Y-71536410D01*
X106261069Y-71748610D01*
X106210060Y-72000500D01*
X101448588Y-72000500D01*
X101312532Y-71796879D01*
X100797510Y-71452752D01*
X100190000Y-71331911D01*
X99628418Y-71443616D01*
X97260000Y-69075198D01*
X97260000Y-65250000D01*
X97217711Y-65037401D01*
X97202148Y-64959160D01*
X97037401Y-64712599D01*
X94834802Y-62510000D01*
X97935198Y-62510000D01*
X98882599Y-63457401D01*
X99129161Y-63622148D01*
X99368110Y-63669678D01*
X99076391Y-63790214D01*
X98522160Y-64343479D01*
X98221843Y-65066723D01*
X98221159Y-65849841D01*
X98514508Y-66559799D01*
X98079405Y-66739580D01*
X97661049Y-67157206D01*
X97434358Y-67703139D01*
X97433842Y-68294267D01*
X97659580Y-68840595D01*
X98077206Y-69258951D01*
X98623139Y-69485642D01*
X99214267Y-69486158D01*
X99760595Y-69260420D01*
X100178951Y-68842794D01*
X100405642Y-68296861D01*
X100406158Y-67705733D01*
X100291645Y-67428589D01*
X100579841Y-67428841D01*
X101303609Y-67129786D01*
X101664343Y-66769681D01*
X101371558Y-67474785D01*
X101370645Y-68520626D01*
X101770028Y-69487207D01*
X102508904Y-70227373D01*
X103474785Y-70628442D01*
X104520626Y-70629355D01*
X105487207Y-70229972D01*
X106227373Y-69491096D01*
X106628442Y-68525215D01*
X106628643Y-68294267D01*
X107593842Y-68294267D01*
X107819580Y-68840595D01*
X108237206Y-69258951D01*
X108783139Y-69485642D01*
X109374267Y-69486158D01*
X109920595Y-69260420D01*
X110338951Y-68842794D01*
X110565642Y-68296861D01*
X110566158Y-67705733D01*
X110340420Y-67159405D01*
X109922794Y-66741049D01*
X109376861Y-66514358D01*
X108785733Y-66513842D01*
X108239405Y-66739580D01*
X107821049Y-67157206D01*
X107594358Y-67703139D01*
X107593842Y-68294267D01*
X106628643Y-68294267D01*
X106629355Y-67479374D01*
X106229972Y-66512793D01*
X105491096Y-65772627D01*
X104525215Y-65371558D01*
X103479374Y-65370645D01*
X102512793Y-65770028D01*
X101966124Y-66315744D01*
X102158157Y-65853277D01*
X102158841Y-65070159D01*
X101859786Y-64346391D01*
X101306521Y-63792160D01*
X101036410Y-63680000D01*
X104724106Y-63680000D01*
X104870214Y-64033609D01*
X105423479Y-64587840D01*
X106146723Y-64888157D01*
X106929841Y-64888841D01*
X107653609Y-64589786D01*
X108207840Y-64036521D01*
X108355880Y-63680000D01*
X109605198Y-63680000D01*
X114442599Y-68517401D01*
X114689161Y-68682148D01*
X114980000Y-68740000D01*
X116795198Y-68740000D01*
X115962599Y-69572599D01*
X115797852Y-69819161D01*
X115740000Y-70110000D01*
X115740000Y-73500000D01*
X115797852Y-73790839D01*
X115962599Y-74037401D01*
X116787563Y-74862365D01*
X116609161Y-74897852D01*
X116362599Y-75062599D01*
X114962599Y-76462599D01*
X114797852Y-76709161D01*
X114740000Y-77000000D01*
X114740000Y-79993276D01*
X114717243Y-79938200D01*
X114313923Y-79534176D01*
X113786691Y-79315250D01*
X113215813Y-79314752D01*
X112688200Y-79532757D01*
X112284176Y-79936077D01*
X112065250Y-80463309D01*
X112064752Y-81034187D01*
X112282757Y-81561800D01*
X112686077Y-81965824D01*
X113213309Y-82184750D01*
X113784187Y-82185248D01*
X114311800Y-81967243D01*
X114715824Y-81563923D01*
X114740000Y-81505701D01*
X114740000Y-84935198D01*
X114685198Y-84990000D01*
X114558937Y-84990000D01*
X114684838Y-84686799D01*
X114685162Y-84314833D01*
X114543117Y-83971057D01*
X114280327Y-83707808D01*
X113936799Y-83565162D01*
X113564833Y-83564838D01*
X113221057Y-83706883D01*
X113187882Y-83740000D01*
X107064802Y-83740000D01*
X105424861Y-82100059D01*
X105851887Y-82185000D01*
X105908113Y-82185000D01*
X106457264Y-82075767D01*
X106922811Y-81764698D01*
X107233880Y-81299151D01*
X107343113Y-80750000D01*
X107233880Y-80200849D01*
X106922811Y-79735302D01*
X106457264Y-79424233D01*
X105908113Y-79315000D01*
X105851887Y-79315000D01*
X105302736Y-79424233D01*
X104837189Y-79735302D01*
X104526120Y-80200849D01*
X104475136Y-80457163D01*
X104473880Y-80450849D01*
X104162811Y-79985302D01*
X103697264Y-79674233D01*
X103148113Y-79565000D01*
X103091887Y-79565000D01*
X102542736Y-79674233D01*
X102077189Y-79985302D01*
X101766120Y-80450849D01*
X101656887Y-81000000D01*
X101766120Y-81549151D01*
X102077189Y-82014698D01*
X102542736Y-82325767D01*
X103091887Y-82435000D01*
X103148113Y-82435000D01*
X103533533Y-82358335D01*
X106212599Y-85037401D01*
X106459160Y-85202148D01*
X106502903Y-85210849D01*
X106750000Y-85260000D01*
X111165198Y-85260000D01*
X108765198Y-87660000D01*
X108355894Y-87660000D01*
X108209786Y-87306391D01*
X107656521Y-86752160D01*
X106933277Y-86451843D01*
X106150159Y-86451159D01*
X105793379Y-86598577D01*
X104907401Y-85712599D01*
X104660839Y-85547852D01*
X104370000Y-85490000D01*
X90500000Y-85490000D01*
X90257414Y-85538254D01*
X90209160Y-85547852D01*
X89962599Y-85712599D01*
X88015198Y-87660000D01*
X82855894Y-87660000D01*
X82709786Y-87306391D01*
X82156521Y-86752160D01*
X81433277Y-86451843D01*
X80650159Y-86451159D01*
X80293379Y-86598577D01*
X79407401Y-85712599D01*
X79160839Y-85547852D01*
X78870000Y-85490000D01*
X57250000Y-85490000D01*
X57007414Y-85538254D01*
X56959160Y-85547852D01*
X56712599Y-85712599D01*
X55814894Y-86610304D01*
X55433277Y-86451843D01*
X54650159Y-86451159D01*
X53926391Y-86750214D01*
X53372160Y-87303479D01*
X53071843Y-88026723D01*
X53071159Y-88809841D01*
X53370214Y-89533609D01*
X53923479Y-90087840D01*
X54646723Y-90388157D01*
X55429841Y-90388841D01*
X56153609Y-90089786D01*
X56707840Y-89536521D01*
X57008157Y-88813277D01*
X57008841Y-88030159D01*
X56873118Y-87701684D01*
X57564802Y-87010000D01*
X78555198Y-87010000D01*
X79218568Y-87673370D01*
X79071843Y-88026723D01*
X79071159Y-88809841D01*
X79370214Y-89533609D01*
X79923479Y-90087840D01*
X80646723Y-90388157D01*
X81429841Y-90388841D01*
X82153609Y-90089786D01*
X82707840Y-89536521D01*
X82855880Y-89180000D01*
X88330000Y-89180000D01*
X88620839Y-89122148D01*
X88867401Y-88957401D01*
X89565210Y-88259592D01*
X89564752Y-88784187D01*
X89782757Y-89311800D01*
X90186077Y-89715824D01*
X90713309Y-89934750D01*
X91284187Y-89935248D01*
X91811800Y-89717243D01*
X92215824Y-89313923D01*
X92238215Y-89260000D01*
X99149514Y-89260000D01*
X99076391Y-89290214D01*
X98522160Y-89843479D01*
X98221843Y-90566723D01*
X98221159Y-91349841D01*
X98514508Y-92059799D01*
X98079405Y-92239580D01*
X97661049Y-92657206D01*
X97434358Y-93203139D01*
X97433842Y-93794267D01*
X97659580Y-94340595D01*
X98077206Y-94758951D01*
X98623139Y-94985642D01*
X99214267Y-94986158D01*
X99760595Y-94760420D01*
X100178951Y-94342794D01*
X100405642Y-93796861D01*
X100406158Y-93205733D01*
X100291645Y-92928589D01*
X100579841Y-92928841D01*
X101303609Y-92629786D01*
X101664343Y-92269681D01*
X101371558Y-92974785D01*
X101370645Y-94020626D01*
X101770028Y-94987207D01*
X102508904Y-95727373D01*
X103474785Y-96128442D01*
X104520626Y-96129355D01*
X105487207Y-95729972D01*
X106227373Y-94991096D01*
X106628442Y-94025215D01*
X106628643Y-93794267D01*
X107593842Y-93794267D01*
X107819580Y-94340595D01*
X108237206Y-94758951D01*
X108783139Y-94985642D01*
X109374267Y-94986158D01*
X109920595Y-94760420D01*
X110338951Y-94342794D01*
X110565642Y-93796861D01*
X110566158Y-93205733D01*
X110340420Y-92659405D01*
X109922794Y-92241049D01*
X109376861Y-92014358D01*
X108785733Y-92013842D01*
X108239405Y-92239580D01*
X107821049Y-92657206D01*
X107594358Y-93203139D01*
X107593842Y-93794267D01*
X106628643Y-93794267D01*
X106629355Y-92979374D01*
X106229972Y-92012793D01*
X105491096Y-91272627D01*
X104858620Y-91010000D01*
X108750000Y-91010000D01*
X109040839Y-90952148D01*
X109287401Y-90787401D01*
X112314802Y-87760000D01*
X116866463Y-87760000D01*
X116759050Y-88300000D01*
X116868283Y-88849151D01*
X117179352Y-89314698D01*
X117561438Y-89570000D01*
X117179352Y-89825302D01*
X116868283Y-90290849D01*
X116759050Y-90840000D01*
X116868283Y-91389151D01*
X117179352Y-91854698D01*
X117561438Y-92110000D01*
X117179352Y-92365302D01*
X116868283Y-92830849D01*
X116759050Y-93380000D01*
X116868283Y-93929151D01*
X117179352Y-94394698D01*
X117561438Y-94650000D01*
X117179352Y-94905302D01*
X116868283Y-95370849D01*
X116759050Y-95920000D01*
X116868283Y-96469151D01*
X117179352Y-96934698D01*
X117561438Y-97190000D01*
X117179352Y-97445302D01*
X116868283Y-97910849D01*
X116759050Y-98460000D01*
X116868283Y-99009151D01*
X117179352Y-99474698D01*
X117561438Y-99730000D01*
X117179352Y-99985302D01*
X116868283Y-100450849D01*
X116759050Y-101000000D01*
X116868283Y-101549151D01*
X117179352Y-102014698D01*
X117516540Y-102240000D01*
X70064802Y-102240000D01*
X68510000Y-100685198D01*
X68510000Y-98419411D01*
X73102500Y-98419411D01*
X73102500Y-98740589D01*
X73223341Y-99348099D01*
X73567468Y-99863121D01*
X74082490Y-100207248D01*
X74690000Y-100328089D01*
X75297510Y-100207248D01*
X75812532Y-99863121D01*
X76156659Y-99348099D01*
X76158270Y-99340000D01*
X78670000Y-99340000D01*
X78960839Y-99282148D01*
X79207401Y-99117401D01*
X80710060Y-97614742D01*
X80710060Y-99659500D01*
X80754338Y-99894817D01*
X80893410Y-100110941D01*
X81105610Y-100255931D01*
X81357500Y-100306940D01*
X83262500Y-100306940D01*
X83497817Y-100262662D01*
X83713941Y-100123590D01*
X83858931Y-99911390D01*
X83909940Y-99659500D01*
X83909940Y-98419411D01*
X98602500Y-98419411D01*
X98602500Y-98740589D01*
X98723341Y-99348099D01*
X99067468Y-99863121D01*
X99582490Y-100207248D01*
X100190000Y-100328089D01*
X100797510Y-100207248D01*
X101312532Y-99863121D01*
X101656659Y-99348099D01*
X101777500Y-98740589D01*
X101777500Y-98419411D01*
X101656659Y-97811901D01*
X101448588Y-97500500D01*
X106210060Y-97500500D01*
X106210060Y-99659500D01*
X106254338Y-99894817D01*
X106393410Y-100110941D01*
X106605610Y-100255931D01*
X106857500Y-100306940D01*
X108762500Y-100306940D01*
X108997817Y-100262662D01*
X109213941Y-100123590D01*
X109358931Y-99911390D01*
X109409940Y-99659500D01*
X109409940Y-97500500D01*
X109365662Y-97265183D01*
X109226590Y-97049059D01*
X109014390Y-96904069D01*
X108762500Y-96853060D01*
X106857500Y-96853060D01*
X106622183Y-96897338D01*
X106406059Y-97036410D01*
X106261069Y-97248610D01*
X106210060Y-97500500D01*
X101448588Y-97500500D01*
X101312532Y-97296879D01*
X100797510Y-96952752D01*
X100190000Y-96831911D01*
X99582490Y-96952752D01*
X99067468Y-97296879D01*
X98723341Y-97811901D01*
X98602500Y-98419411D01*
X83909940Y-98419411D01*
X83909940Y-97500500D01*
X83865662Y-97265183D01*
X83726590Y-97049059D01*
X83514390Y-96904069D01*
X83395534Y-96880000D01*
X89796333Y-96880000D01*
X89985302Y-97162811D01*
X90450849Y-97473880D01*
X91000000Y-97583113D01*
X91549151Y-97473880D01*
X92014698Y-97162811D01*
X92325767Y-96697264D01*
X92435000Y-96148113D01*
X92435000Y-96091887D01*
X92325767Y-95542736D01*
X92014698Y-95077189D01*
X91549151Y-94766120D01*
X91000000Y-94656887D01*
X90450849Y-94766120D01*
X89985302Y-95077189D01*
X89796333Y-95360000D01*
X81130000Y-95360000D01*
X80839160Y-95417852D01*
X80592599Y-95582599D01*
X78355198Y-97820000D01*
X76158270Y-97820000D01*
X76156659Y-97811901D01*
X75812532Y-97296879D01*
X75297510Y-96952752D01*
X74690000Y-96831911D01*
X74082490Y-96952752D01*
X73567468Y-97296879D01*
X73223341Y-97811901D01*
X73102500Y-98419411D01*
X68510000Y-98419411D01*
X68510000Y-95500000D01*
X68452148Y-95209161D01*
X68287401Y-94962599D01*
X67119069Y-93794267D01*
X71933842Y-93794267D01*
X72159580Y-94340595D01*
X72577206Y-94758951D01*
X73123139Y-94985642D01*
X73714267Y-94986158D01*
X74260595Y-94760420D01*
X74678951Y-94342794D01*
X74905642Y-93796861D01*
X74906158Y-93205733D01*
X74791645Y-92928589D01*
X75079841Y-92928841D01*
X75803609Y-92629786D01*
X76164343Y-92269681D01*
X75871558Y-92974785D01*
X75870645Y-94020626D01*
X76270028Y-94987207D01*
X77008904Y-95727373D01*
X77974785Y-96128442D01*
X79020626Y-96129355D01*
X79987207Y-95729972D01*
X80727373Y-94991096D01*
X81128442Y-94025215D01*
X81128643Y-93794267D01*
X82093842Y-93794267D01*
X82319580Y-94340595D01*
X82737206Y-94758951D01*
X83283139Y-94985642D01*
X83874267Y-94986158D01*
X84420595Y-94760420D01*
X84838951Y-94342794D01*
X85065642Y-93796861D01*
X85066158Y-93205733D01*
X84840420Y-92659405D01*
X84422794Y-92241049D01*
X83876861Y-92014358D01*
X83285733Y-92013842D01*
X82739405Y-92239580D01*
X82321049Y-92657206D01*
X82094358Y-93203139D01*
X82093842Y-93794267D01*
X81128643Y-93794267D01*
X81129355Y-92979374D01*
X80729972Y-92012793D01*
X79991096Y-91272627D01*
X79025215Y-90871558D01*
X77979374Y-90870645D01*
X77012793Y-91270028D01*
X76466124Y-91815744D01*
X76658157Y-91353277D01*
X76658841Y-90570159D01*
X76359786Y-89846391D01*
X75806521Y-89292160D01*
X75083277Y-88991843D01*
X74300159Y-88991159D01*
X73576391Y-89290214D01*
X73022160Y-89843479D01*
X72721843Y-90566723D01*
X72721159Y-91349841D01*
X73014508Y-92059799D01*
X72579405Y-92239580D01*
X72161049Y-92657206D01*
X71934358Y-93203139D01*
X71933842Y-93794267D01*
X67119069Y-93794267D01*
X66010000Y-92685198D01*
X66010000Y-89738646D01*
X66061800Y-89717243D01*
X66465824Y-89313923D01*
X66684750Y-88786691D01*
X66685248Y-88215813D01*
X66467243Y-87688200D01*
X66063923Y-87284176D01*
X65536691Y-87065250D01*
X64965813Y-87064752D01*
X64438200Y-87282757D01*
X64034176Y-87686077D01*
X63815250Y-88213309D01*
X63814752Y-88784187D01*
X64032757Y-89311800D01*
X64436077Y-89715824D01*
X64490000Y-89738215D01*
X64490000Y-93000000D01*
X64547852Y-93290839D01*
X64712599Y-93537401D01*
X66227597Y-95052399D01*
X65799151Y-94766120D01*
X65250000Y-94656887D01*
X64700849Y-94766120D01*
X64235302Y-95077189D01*
X64046333Y-95360000D01*
X55130000Y-95360000D01*
X54839160Y-95417852D01*
X54592599Y-95582599D01*
X52355198Y-97820000D01*
X50158270Y-97820000D01*
X50156659Y-97811901D01*
X49812532Y-97296879D01*
X49297510Y-96952752D01*
X48690000Y-96831911D01*
X48082490Y-96952752D01*
X47567468Y-97296879D01*
X47223341Y-97811901D01*
X47102500Y-98419411D01*
X47102500Y-98740589D01*
X47223341Y-99348099D01*
X47485201Y-99740000D01*
X46564802Y-99740000D01*
X44867401Y-98042599D01*
X44620839Y-97877852D01*
X44330000Y-97820000D01*
X32644802Y-97820000D01*
X34787401Y-95677401D01*
X34952148Y-95430839D01*
X34969841Y-95341887D01*
X38565000Y-95341887D01*
X38565000Y-95398113D01*
X38674233Y-95947264D01*
X38985302Y-96412811D01*
X39450849Y-96723880D01*
X40000000Y-96833113D01*
X40549151Y-96723880D01*
X41014698Y-96412811D01*
X41325767Y-95947264D01*
X41435000Y-95398113D01*
X41435000Y-95341887D01*
X41325767Y-94792736D01*
X41014698Y-94327189D01*
X40549151Y-94016120D01*
X40000000Y-93906887D01*
X39450849Y-94016120D01*
X38985302Y-94327189D01*
X38674233Y-94792736D01*
X38565000Y-95341887D01*
X34969841Y-95341887D01*
X35010000Y-95140000D01*
X35010000Y-93794267D01*
X45933842Y-93794267D01*
X46159580Y-94340595D01*
X46577206Y-94758951D01*
X47123139Y-94985642D01*
X47714267Y-94986158D01*
X48260595Y-94760420D01*
X48678951Y-94342794D01*
X48905642Y-93796861D01*
X48906158Y-93205733D01*
X48791645Y-92928589D01*
X49079841Y-92928841D01*
X49803609Y-92629786D01*
X50164343Y-92269681D01*
X49871558Y-92974785D01*
X49870645Y-94020626D01*
X50270028Y-94987207D01*
X51008904Y-95727373D01*
X51974785Y-96128442D01*
X53020626Y-96129355D01*
X53987207Y-95729972D01*
X54727373Y-94991096D01*
X55128442Y-94025215D01*
X55128643Y-93794267D01*
X56093842Y-93794267D01*
X56319580Y-94340595D01*
X56737206Y-94758951D01*
X57283139Y-94985642D01*
X57874267Y-94986158D01*
X58420595Y-94760420D01*
X58838951Y-94342794D01*
X59065642Y-93796861D01*
X59066158Y-93205733D01*
X58840420Y-92659405D01*
X58422794Y-92241049D01*
X57876861Y-92014358D01*
X57285733Y-92013842D01*
X56739405Y-92239580D01*
X56321049Y-92657206D01*
X56094358Y-93203139D01*
X56093842Y-93794267D01*
X55128643Y-93794267D01*
X55129355Y-92979374D01*
X54729972Y-92012793D01*
X53991096Y-91272627D01*
X53025215Y-90871558D01*
X51979374Y-90870645D01*
X51012793Y-91270028D01*
X50466124Y-91815744D01*
X50658157Y-91353277D01*
X50658841Y-90570159D01*
X50359786Y-89846391D01*
X50044374Y-89530428D01*
X54907401Y-84667401D01*
X55072148Y-84420839D01*
X55130000Y-84130000D01*
X55130000Y-82453667D01*
X55412811Y-82264698D01*
X55723880Y-81799151D01*
X55833113Y-81250000D01*
X55723880Y-80700849D01*
X55412811Y-80235302D01*
X54947264Y-79924233D01*
X54398113Y-79815000D01*
X54341887Y-79815000D01*
X53792736Y-79924233D01*
X53327189Y-80235302D01*
X53016120Y-80700849D01*
X52906887Y-81250000D01*
X53016120Y-81799151D01*
X53327189Y-82264698D01*
X53610000Y-82453667D01*
X53610000Y-83815198D01*
X48433922Y-88991276D01*
X48300159Y-88991159D01*
X47576391Y-89290214D01*
X47022160Y-89843479D01*
X46721843Y-90566723D01*
X46721159Y-91349841D01*
X47014508Y-92059799D01*
X46579405Y-92239580D01*
X46161049Y-92657206D01*
X45934358Y-93203139D01*
X45933842Y-93794267D01*
X35010000Y-93794267D01*
X35010000Y-89750000D01*
X34952148Y-89459161D01*
X34787401Y-89212599D01*
X33608989Y-88034187D01*
X38564752Y-88034187D01*
X38782757Y-88561800D01*
X39186077Y-88965824D01*
X39713309Y-89184750D01*
X40284187Y-89185248D01*
X40811800Y-88967243D01*
X41215824Y-88563923D01*
X41434750Y-88036691D01*
X41435248Y-87465813D01*
X41217243Y-86938200D01*
X40813923Y-86534176D01*
X40286691Y-86315250D01*
X39715813Y-86314752D01*
X39188200Y-86532757D01*
X38784176Y-86936077D01*
X38565250Y-87463309D01*
X38564752Y-88034187D01*
X33608989Y-88034187D01*
X32510000Y-86935198D01*
X32510000Y-81988646D01*
X32561800Y-81967243D01*
X32965824Y-81563923D01*
X32988215Y-81510000D01*
X45314773Y-81510000D01*
X45314752Y-81534187D01*
X45532757Y-82061800D01*
X45936077Y-82465824D01*
X46463309Y-82684750D01*
X47034187Y-82685248D01*
X47561800Y-82467243D01*
X47965824Y-82063923D01*
X47988215Y-82010000D01*
X48140000Y-82010000D01*
X48430839Y-81952148D01*
X48677401Y-81787401D01*
X55657862Y-74806940D01*
X57262500Y-74806940D01*
X57497817Y-74762662D01*
X57713941Y-74623590D01*
X57858931Y-74411390D01*
X57909940Y-74159500D01*
X57909940Y-73840000D01*
X63670000Y-73840000D01*
X63960839Y-73782148D01*
X64207401Y-73617401D01*
X65161546Y-72663256D01*
X65213309Y-72684750D01*
X65784187Y-72685248D01*
X66191958Y-72516760D01*
X74086744Y-80411546D01*
X74065250Y-80463309D01*
X74064752Y-81034187D01*
X74282757Y-81561800D01*
X74686077Y-81965824D01*
X75213309Y-82184750D01*
X75784187Y-82185248D01*
X76311800Y-81967243D01*
X76715824Y-81563923D01*
X76934750Y-81036691D01*
X76935000Y-80750000D01*
X81656887Y-80750000D01*
X81766120Y-81299151D01*
X82077189Y-81764698D01*
X82542736Y-82075767D01*
X83091887Y-82185000D01*
X83148113Y-82185000D01*
X83697264Y-82075767D01*
X84162811Y-81764698D01*
X84473880Y-81299151D01*
X84476856Y-81284187D01*
X94064752Y-81284187D01*
X94282757Y-81811800D01*
X94686077Y-82215824D01*
X95213309Y-82434750D01*
X95784187Y-82435248D01*
X96311800Y-82217243D01*
X96715824Y-81813923D01*
X96934750Y-81286691D01*
X96935248Y-80715813D01*
X96717243Y-80188200D01*
X96313923Y-79784176D01*
X95786691Y-79565250D01*
X95215813Y-79564752D01*
X94688200Y-79782757D01*
X94284176Y-80186077D01*
X94065250Y-80713309D01*
X94064752Y-81284187D01*
X84476856Y-81284187D01*
X84583113Y-80750000D01*
X84473880Y-80200849D01*
X84162811Y-79735302D01*
X83697264Y-79424233D01*
X83148113Y-79315000D01*
X83091887Y-79315000D01*
X82542736Y-79424233D01*
X82077189Y-79735302D01*
X81766120Y-80200849D01*
X81656887Y-80750000D01*
X76935000Y-80750000D01*
X76935248Y-80465813D01*
X76717243Y-79938200D01*
X76622006Y-79842796D01*
X81657862Y-74806940D01*
X83262500Y-74806940D01*
X83497817Y-74762662D01*
X83713941Y-74623590D01*
X83858931Y-74411390D01*
X83909940Y-74159500D01*
X83909940Y-72010000D01*
X89581288Y-72010000D01*
X89565000Y-72091887D01*
X89565000Y-72148113D01*
X89674233Y-72697264D01*
X89985302Y-73162811D01*
X90450849Y-73473880D01*
X91000000Y-73583113D01*
X91549151Y-73473880D01*
X92014698Y-73162811D01*
X92325767Y-72697264D01*
X92435000Y-72148113D01*
X92435000Y-72091887D01*
X92325767Y-71542736D01*
X92014698Y-71077189D01*
X91549151Y-70766120D01*
X91000000Y-70656887D01*
X90676114Y-70721312D01*
X90667401Y-70712599D01*
X90420839Y-70547852D01*
X90130000Y-70490000D01*
X80750000Y-70490000D01*
X80459160Y-70547852D01*
X80212599Y-70712599D01*
X79685198Y-71240000D01*
X78314802Y-71240000D01*
X77510425Y-70435623D01*
X77974785Y-70628442D01*
X79020626Y-70629355D01*
X79987207Y-70229972D01*
X80727373Y-69491096D01*
X81128442Y-68525215D01*
X81128643Y-68294267D01*
X82093842Y-68294267D01*
X82319580Y-68840595D01*
X82737206Y-69258951D01*
X83283139Y-69485642D01*
X83874267Y-69486158D01*
X84420595Y-69260420D01*
X84838951Y-68842794D01*
X85065642Y-68296861D01*
X85066158Y-67705733D01*
X84840420Y-67159405D01*
X84422794Y-66741049D01*
X83876861Y-66514358D01*
X83285733Y-66513842D01*
X82739405Y-66739580D01*
X82321049Y-67157206D01*
X82094358Y-67703139D01*
X82093842Y-68294267D01*
X81128643Y-68294267D01*
X81129355Y-67479374D01*
X80729972Y-66512793D01*
X79991096Y-65772627D01*
X79025215Y-65371558D01*
X77979374Y-65370645D01*
X77012793Y-65770028D01*
X76466124Y-66315744D01*
X76658157Y-65853277D01*
X76658841Y-65070159D01*
X76359786Y-64346391D01*
X75806521Y-63792160D01*
X75083277Y-63491843D01*
X74315975Y-63491173D01*
X70810000Y-59985198D01*
X70810000Y-58341887D01*
X92065000Y-58341887D01*
X92065000Y-58398113D01*
X92174233Y-58947264D01*
X92485302Y-59412811D01*
X92950849Y-59723880D01*
X93500000Y-59833113D01*
X94049151Y-59723880D01*
X94514698Y-59412811D01*
X94825767Y-58947264D01*
X94935000Y-58398113D01*
X94935000Y-58341887D01*
X94825767Y-57792736D01*
X94514698Y-57327189D01*
X94049151Y-57016120D01*
X93500000Y-56906887D01*
X92950849Y-57016120D01*
X92485302Y-57327189D01*
X92174233Y-57792736D01*
X92065000Y-58341887D01*
X70810000Y-58341887D01*
X70810000Y-53490832D01*
X71064698Y-53320648D01*
X71320000Y-52938562D01*
X71575302Y-53320648D01*
X71830000Y-53490832D01*
X71830000Y-54340000D01*
X71887852Y-54630839D01*
X72052599Y-54877401D01*
X73586744Y-56411546D01*
X73565250Y-56463309D01*
X73564752Y-57034187D01*
X73782757Y-57561800D01*
X74186077Y-57965824D01*
X74713309Y-58184750D01*
X75284187Y-58185248D01*
X75811800Y-57967243D01*
X76215824Y-57563923D01*
X76434750Y-57036691D01*
X76435000Y-56750000D01*
X81156887Y-56750000D01*
X81266120Y-57299151D01*
X81577189Y-57764698D01*
X82042736Y-58075767D01*
X82591887Y-58185000D01*
X82648113Y-58185000D01*
X83197264Y-58075767D01*
X83662811Y-57764698D01*
X83973880Y-57299151D01*
X84083113Y-56750000D01*
X83973880Y-56200849D01*
X83662811Y-55735302D01*
X83197264Y-55424233D01*
X82648113Y-55315000D01*
X82591887Y-55315000D01*
X82042736Y-55424233D01*
X81577189Y-55735302D01*
X81266120Y-56200849D01*
X81156887Y-56750000D01*
X76435000Y-56750000D01*
X76435248Y-56465813D01*
X76217243Y-55938200D01*
X75813923Y-55534176D01*
X75286691Y-55315250D01*
X74715813Y-55314752D01*
X74661851Y-55337049D01*
X73350000Y-54025198D01*
X73350000Y-53490832D01*
X73604698Y-53320648D01*
X73860000Y-52938562D01*
X74115302Y-53320648D01*
X74580849Y-53631717D01*
X75130000Y-53740950D01*
X75679151Y-53631717D01*
X76144698Y-53320648D01*
X76400000Y-52938562D01*
X76655302Y-53320648D01*
X77120849Y-53631717D01*
X77670000Y-53740950D01*
X78219151Y-53631717D01*
X78301734Y-53576537D01*
X79012598Y-54287401D01*
X79091319Y-54340000D01*
X79259161Y-54452148D01*
X79550000Y-54510000D01*
X83500000Y-54510000D01*
X83790839Y-54452148D01*
X84037401Y-54287401D01*
X86814802Y-51510000D01*
X92261354Y-51510000D01*
X92282757Y-51561800D01*
X92686077Y-51965824D01*
X93213309Y-52184750D01*
X93784187Y-52185248D01*
X94311800Y-51967243D01*
X94715824Y-51563923D01*
X94934750Y-51036691D01*
X94935248Y-50465813D01*
X94850208Y-50260000D01*
X98055198Y-50260000D01*
X98120096Y-50324898D01*
X98065000Y-50601887D01*
X98065000Y-50658113D01*
X98174233Y-51207264D01*
X98485302Y-51672811D01*
X98740000Y-51842995D01*
X98740000Y-55935198D01*
X97712599Y-56962599D01*
X97547852Y-57209161D01*
X97490000Y-57500000D01*
X97490000Y-58750000D01*
X97547852Y-59040839D01*
X97712599Y-59287401D01*
X98814878Y-60389680D01*
X98814838Y-60435167D01*
X98956883Y-60778943D01*
X99219673Y-61042192D01*
X99563201Y-61184838D01*
X99935167Y-61185162D01*
X100278943Y-61043117D01*
X100542192Y-60780327D01*
X100684838Y-60436799D01*
X100685162Y-60064833D01*
X100543117Y-59721057D01*
X100296186Y-59473695D01*
X100311800Y-59467243D01*
X100715824Y-59063923D01*
X100934750Y-58536691D01*
X100935248Y-57965813D01*
X100912951Y-57911851D01*
X104037401Y-54787401D01*
X104202148Y-54540840D01*
X104260000Y-54250000D01*
X104260000Y-40034187D01*
X110564752Y-40034187D01*
X110782757Y-40561800D01*
X111186077Y-40965824D01*
X111713309Y-41184750D01*
X112284187Y-41185248D01*
X112811800Y-40967243D01*
X113215824Y-40563923D01*
X113228171Y-40534187D01*
X116814752Y-40534187D01*
X117032757Y-41061800D01*
X117436077Y-41465824D01*
X117963309Y-41684750D01*
X118534187Y-41685248D01*
X119061800Y-41467243D01*
X119465824Y-41063923D01*
X119684750Y-40536691D01*
X119685248Y-39965813D01*
X119467243Y-39438200D01*
X119063923Y-39034176D01*
X118536691Y-38815250D01*
X117965813Y-38814752D01*
X117438200Y-39032757D01*
X117034176Y-39436077D01*
X116815250Y-39963309D01*
X116814752Y-40534187D01*
X113228171Y-40534187D01*
X113434750Y-40036691D01*
X113435248Y-39465813D01*
X113217243Y-38938200D01*
X112813923Y-38534176D01*
X112286691Y-38315250D01*
X111715813Y-38314752D01*
X111188200Y-38532757D01*
X110784176Y-38936077D01*
X110565250Y-39463309D01*
X110564752Y-40034187D01*
X104260000Y-40034187D01*
X104260000Y-36806940D01*
X104512500Y-36806940D01*
X104747817Y-36762662D01*
X104963941Y-36623590D01*
X105108931Y-36411390D01*
X105159940Y-36159500D01*
X105159940Y-34554862D01*
X107612915Y-32101887D01*
X110565000Y-32101887D01*
X110565000Y-32158113D01*
X110674233Y-32707264D01*
X110985302Y-33172811D01*
X111450849Y-33483880D01*
X112000000Y-33593113D01*
X112549151Y-33483880D01*
X113014698Y-33172811D01*
X113325767Y-32707264D01*
X113435000Y-32158113D01*
X113435000Y-32101887D01*
X113325767Y-31552736D01*
X113014698Y-31087189D01*
X112549151Y-30776120D01*
X112000000Y-30666887D01*
X111450849Y-30776120D01*
X110985302Y-31087189D01*
X110674233Y-31552736D01*
X110565000Y-32101887D01*
X107612915Y-32101887D01*
X110204802Y-29510000D01*
X110761354Y-29510000D01*
X110782757Y-29561800D01*
X111186077Y-29965824D01*
X111713309Y-30184750D01*
X112284187Y-30185248D01*
X112811800Y-29967243D01*
X112977265Y-29802067D01*
X114462599Y-31287401D01*
X114709161Y-31452148D01*
X115000000Y-31510000D01*
X117350823Y-31510000D01*
X117235302Y-31587189D01*
X116924233Y-32052736D01*
X116815000Y-32601887D01*
X116815000Y-32658113D01*
X116924233Y-33207264D01*
X117235302Y-33672811D01*
X117700849Y-33983880D01*
X118250000Y-34093113D01*
X118573886Y-34028688D01*
X122792599Y-38247401D01*
X123039161Y-38412148D01*
X123330000Y-38470000D01*
X124903154Y-38470000D01*
X124947932Y-38578371D01*
X125115880Y-38746613D01*
X125114683Y-38746838D01*
X124898559Y-38885910D01*
X124753569Y-39098110D01*
X124702560Y-39350000D01*
X124702560Y-41150000D01*
X124746838Y-41385317D01*
X124885910Y-41601441D01*
X125098110Y-41746431D01*
X125350000Y-41797440D01*
X127150000Y-41797440D01*
X127385317Y-41753162D01*
X127601441Y-41614090D01*
X127746431Y-41401890D01*
X127797440Y-41150000D01*
X127797440Y-39777362D01*
X129287401Y-38287401D01*
X129452148Y-38040839D01*
X129510000Y-37750000D01*
X129510000Y-34000000D01*
X129452148Y-33709161D01*
X129287401Y-33462599D01*
X127797440Y-31972638D01*
X127797440Y-31277362D01*
X131287401Y-27787401D01*
X131452148Y-27540839D01*
X131510000Y-27250000D01*
X131510000Y-26564802D01*
X135015000Y-23059802D01*
X136752603Y-24797405D01*
X136752603Y-24797405D01*
G37*
X136752603Y-24797405D02*
X136750000Y-24796887D01*
X136200849Y-24906120D01*
X135735302Y-25217189D01*
X135546144Y-25500283D01*
X135503586Y-25397285D01*
X135074971Y-24967921D01*
X134514672Y-24735265D01*
X133907989Y-24734735D01*
X133347285Y-24966414D01*
X132917921Y-25395029D01*
X132685265Y-25955328D01*
X132684735Y-26562011D01*
X132916414Y-27122715D01*
X133345029Y-27552079D01*
X133905328Y-27784735D01*
X134512011Y-27785265D01*
X135072715Y-27553586D01*
X135502079Y-27124971D01*
X135545922Y-27019385D01*
X135735302Y-27302811D01*
X136200849Y-27613880D01*
X136750000Y-27723113D01*
X137299151Y-27613880D01*
X137764698Y-27302811D01*
X138020000Y-26920725D01*
X138275302Y-27302811D01*
X138740849Y-27613880D01*
X139290000Y-27723113D01*
X139839151Y-27613880D01*
X140304698Y-27302811D01*
X140560000Y-26920725D01*
X140815302Y-27302811D01*
X141280849Y-27613880D01*
X141830000Y-27723113D01*
X142379151Y-27613880D01*
X142844698Y-27302811D01*
X143100000Y-26920725D01*
X143355302Y-27302811D01*
X143820849Y-27613880D01*
X144370000Y-27723113D01*
X144919151Y-27613880D01*
X145384698Y-27302811D01*
X145640000Y-26920725D01*
X145895302Y-27302811D01*
X146360849Y-27613880D01*
X146910000Y-27723113D01*
X147459151Y-27613880D01*
X147924698Y-27302811D01*
X148180000Y-26920725D01*
X148435302Y-27302811D01*
X148900849Y-27613880D01*
X149450000Y-27723113D01*
X149999151Y-27613880D01*
X150464698Y-27302811D01*
X150720000Y-26920725D01*
X150975302Y-27302811D01*
X151440849Y-27613880D01*
X151990000Y-27723113D01*
X152539151Y-27613880D01*
X153004698Y-27302811D01*
X153260000Y-26920725D01*
X153515302Y-27302811D01*
X153770000Y-27472995D01*
X153770000Y-27905198D01*
X142462599Y-39212599D01*
X142297852Y-39459161D01*
X142240000Y-39750000D01*
X142240000Y-40118441D01*
X141830000Y-40036887D01*
X141280849Y-40146120D01*
X140815302Y-40457189D01*
X140560000Y-40839275D01*
X140304698Y-40457189D01*
X139839151Y-40146120D01*
X139290000Y-40036887D01*
X138740849Y-40146120D01*
X138275302Y-40457189D01*
X138178899Y-40601465D01*
X138153162Y-40464683D01*
X138014090Y-40248559D01*
X137801890Y-40103569D01*
X137550000Y-40052560D01*
X135950000Y-40052560D01*
X135714683Y-40096838D01*
X135498559Y-40235910D01*
X135353569Y-40448110D01*
X135347021Y-40480446D01*
X135074971Y-40207921D01*
X134514672Y-39975265D01*
X133907989Y-39974735D01*
X133347285Y-40206414D01*
X132917921Y-40635029D01*
X132685265Y-41195328D01*
X132684735Y-41802011D01*
X132916414Y-42362715D01*
X133345029Y-42792079D01*
X133905328Y-43024735D01*
X134512011Y-43025265D01*
X135072715Y-42793586D01*
X135344402Y-42522373D01*
X135346838Y-42535317D01*
X135485910Y-42751441D01*
X135698110Y-42896431D01*
X135950000Y-42947440D01*
X137550000Y-42947440D01*
X137785317Y-42903162D01*
X138001441Y-42764090D01*
X138146431Y-42551890D01*
X138177815Y-42396911D01*
X138275302Y-42542811D01*
X138740849Y-42853880D01*
X139290000Y-42963113D01*
X139839151Y-42853880D01*
X140304698Y-42542811D01*
X140560000Y-42160725D01*
X140815302Y-42542811D01*
X141280849Y-42853880D01*
X141830000Y-42963113D01*
X142379151Y-42853880D01*
X142618890Y-42693692D01*
X142740000Y-42814802D01*
X142740000Y-44463505D01*
X142639151Y-44396120D01*
X142090000Y-44286887D01*
X141540849Y-44396120D01*
X141075302Y-44707189D01*
X140820000Y-45089275D01*
X140564698Y-44707189D01*
X140099151Y-44396120D01*
X139550000Y-44286887D01*
X139000849Y-44396120D01*
X138535302Y-44707189D01*
X138280000Y-45089275D01*
X138024698Y-44707189D01*
X137559151Y-44396120D01*
X137010000Y-44286887D01*
X136460849Y-44396120D01*
X135995302Y-44707189D01*
X135740000Y-45089275D01*
X135484698Y-44707189D01*
X135019151Y-44396120D01*
X134470000Y-44286887D01*
X133920849Y-44396120D01*
X133455302Y-44707189D01*
X133200000Y-45089275D01*
X132944698Y-44707189D01*
X132479151Y-44396120D01*
X131930000Y-44286887D01*
X131380849Y-44396120D01*
X130915302Y-44707189D01*
X130660000Y-45089275D01*
X130404698Y-44707189D01*
X129939151Y-44396120D01*
X129390000Y-44286887D01*
X128840849Y-44396120D01*
X128375302Y-44707189D01*
X128120000Y-45089275D01*
X127864698Y-44707189D01*
X127399151Y-44396120D01*
X126850000Y-44286887D01*
X126300849Y-44396120D01*
X125835302Y-44707189D01*
X125580000Y-45089275D01*
X125324698Y-44707189D01*
X124859151Y-44396120D01*
X124310000Y-44286887D01*
X123760849Y-44396120D01*
X123295302Y-44707189D01*
X123040000Y-45089275D01*
X122784698Y-44707189D01*
X122319151Y-44396120D01*
X121770000Y-44286887D01*
X121220849Y-44396120D01*
X120755302Y-44707189D01*
X120500000Y-45089275D01*
X120244698Y-44707189D01*
X119779151Y-44396120D01*
X119230000Y-44286887D01*
X118680849Y-44396120D01*
X118215302Y-44707189D01*
X117960000Y-45089275D01*
X117704698Y-44707189D01*
X117239151Y-44396120D01*
X116690000Y-44286887D01*
X116140849Y-44396120D01*
X115675302Y-44707189D01*
X115486144Y-44990283D01*
X115443586Y-44887285D01*
X115014971Y-44457921D01*
X114454672Y-44225265D01*
X113847989Y-44224735D01*
X113287285Y-44456414D01*
X112857921Y-44885029D01*
X112625265Y-45445328D01*
X112624735Y-46052011D01*
X112856414Y-46612715D01*
X113285029Y-47042079D01*
X113845328Y-47274735D01*
X114452011Y-47275265D01*
X115012715Y-47043586D01*
X115442079Y-46614971D01*
X115485922Y-46509385D01*
X115675302Y-46792811D01*
X116140849Y-47103880D01*
X116690000Y-47213113D01*
X117239151Y-47103880D01*
X117704698Y-46792811D01*
X117960000Y-46410725D01*
X118215302Y-46792811D01*
X118680849Y-47103880D01*
X119230000Y-47213113D01*
X119779151Y-47103880D01*
X120244698Y-46792811D01*
X120500000Y-46410725D01*
X120755302Y-46792811D01*
X121220849Y-47103880D01*
X121770000Y-47213113D01*
X122319151Y-47103880D01*
X122784698Y-46792811D01*
X123040000Y-46410725D01*
X123295302Y-46792811D01*
X123760849Y-47103880D01*
X124310000Y-47213113D01*
X124859151Y-47103880D01*
X125324698Y-46792811D01*
X125580000Y-46410725D01*
X125835302Y-46792811D01*
X126300849Y-47103880D01*
X126850000Y-47213113D01*
X127399151Y-47103880D01*
X127864698Y-46792811D01*
X128120000Y-46410725D01*
X128375302Y-46792811D01*
X128840849Y-47103880D01*
X129390000Y-47213113D01*
X129939151Y-47103880D01*
X130404698Y-46792811D01*
X130660000Y-46410725D01*
X130915302Y-46792811D01*
X131380849Y-47103880D01*
X131930000Y-47213113D01*
X132479151Y-47103880D01*
X132944698Y-46792811D01*
X133200000Y-46410725D01*
X133455302Y-46792811D01*
X133920849Y-47103880D01*
X134470000Y-47213113D01*
X135019151Y-47103880D01*
X135484698Y-46792811D01*
X135740000Y-46410725D01*
X135995302Y-46792811D01*
X136460849Y-47103880D01*
X137010000Y-47213113D01*
X137559151Y-47103880D01*
X138024698Y-46792811D01*
X138280000Y-46410725D01*
X138535302Y-46792811D01*
X139000849Y-47103880D01*
X139550000Y-47213113D01*
X140099151Y-47103880D01*
X140564698Y-46792811D01*
X140820000Y-46410725D01*
X141075302Y-46792811D01*
X141540849Y-47103880D01*
X142090000Y-47213113D01*
X142639151Y-47103880D01*
X142740000Y-47036495D01*
X142740000Y-50185198D01*
X135212599Y-57712599D01*
X135047852Y-57959161D01*
X134990000Y-58250000D01*
X134990000Y-59630322D01*
X134470000Y-59526887D01*
X133920849Y-59636120D01*
X133455302Y-59947189D01*
X133200000Y-60329275D01*
X132944698Y-59947189D01*
X132479151Y-59636120D01*
X131930000Y-59526887D01*
X131380849Y-59636120D01*
X130915302Y-59947189D01*
X130660000Y-60329275D01*
X130404698Y-59947189D01*
X129939151Y-59636120D01*
X129390000Y-59526887D01*
X128840849Y-59636120D01*
X128375302Y-59947189D01*
X128120000Y-60329275D01*
X127864698Y-59947189D01*
X127399151Y-59636120D01*
X126850000Y-59526887D01*
X126300849Y-59636120D01*
X125835302Y-59947189D01*
X125580000Y-60329275D01*
X125324698Y-59947189D01*
X124859151Y-59636120D01*
X124310000Y-59526887D01*
X123760849Y-59636120D01*
X123295302Y-59947189D01*
X123040000Y-60329275D01*
X122784698Y-59947189D01*
X122319151Y-59636120D01*
X121770000Y-59526887D01*
X121220849Y-59636120D01*
X120755302Y-59947189D01*
X120500000Y-60329275D01*
X120244698Y-59947189D01*
X119779151Y-59636120D01*
X119230000Y-59526887D01*
X118680849Y-59636120D01*
X118215302Y-59947189D01*
X117945014Y-60351703D01*
X117842389Y-60134866D01*
X117427423Y-59758959D01*
X117039039Y-59598096D01*
X116817000Y-59720085D01*
X116817000Y-60863000D01*
X116837000Y-60863000D01*
X116837000Y-61117000D01*
X116817000Y-61117000D01*
X116817000Y-62259915D01*
X117039039Y-62381904D01*
X117427423Y-62221041D01*
X117842389Y-61845134D01*
X117945014Y-61628297D01*
X118215302Y-62032811D01*
X118680849Y-62343880D01*
X119230000Y-62453113D01*
X119779151Y-62343880D01*
X120244698Y-62032811D01*
X120500000Y-61650725D01*
X120755302Y-62032811D01*
X121220849Y-62343880D01*
X121770000Y-62453113D01*
X122319151Y-62343880D01*
X122784698Y-62032811D01*
X123040000Y-61650725D01*
X123295302Y-62032811D01*
X123760849Y-62343880D01*
X124310000Y-62453113D01*
X124859151Y-62343880D01*
X125324698Y-62032811D01*
X125580000Y-61650725D01*
X125835302Y-62032811D01*
X126300849Y-62343880D01*
X126850000Y-62453113D01*
X127399151Y-62343880D01*
X127864698Y-62032811D01*
X128120000Y-61650725D01*
X128375302Y-62032811D01*
X128840849Y-62343880D01*
X129390000Y-62453113D01*
X129939151Y-62343880D01*
X130404698Y-62032811D01*
X130660000Y-61650725D01*
X130915302Y-62032811D01*
X131380849Y-62343880D01*
X131930000Y-62453113D01*
X132479151Y-62343880D01*
X132944698Y-62032811D01*
X133200000Y-61650725D01*
X133455302Y-62032811D01*
X133920849Y-62343880D01*
X134470000Y-62453113D01*
X134990000Y-62349678D01*
X134990000Y-62935198D01*
X128165198Y-69760000D01*
X127870832Y-69760000D01*
X127700648Y-69505302D01*
X127318562Y-69250000D01*
X127700648Y-68994698D01*
X128011717Y-68529151D01*
X128120950Y-67980000D01*
X128011717Y-67430849D01*
X127700648Y-66965302D01*
X127235101Y-66654233D01*
X126685950Y-66545000D01*
X125814050Y-66545000D01*
X125264899Y-66654233D01*
X124799352Y-66965302D01*
X124488283Y-67430849D01*
X124379050Y-67980000D01*
X124488283Y-68529151D01*
X124799352Y-68994698D01*
X125181438Y-69250000D01*
X124799352Y-69505302D01*
X124629168Y-69760000D01*
X122559208Y-69760000D01*
X122543117Y-69721057D01*
X122280327Y-69457808D01*
X121936799Y-69315162D01*
X121564833Y-69314838D01*
X121221057Y-69456883D01*
X120957808Y-69719673D01*
X120815162Y-70063201D01*
X120814838Y-70435167D01*
X120956883Y-70778943D01*
X121219673Y-71042192D01*
X121563201Y-71184838D01*
X121673466Y-71184934D01*
X121729161Y-71222148D01*
X122020000Y-71280000D01*
X124629168Y-71280000D01*
X124799352Y-71534698D01*
X125181438Y-71790000D01*
X124799352Y-72045302D01*
X124488283Y-72510849D01*
X124379050Y-73060000D01*
X124488283Y-73609151D01*
X124799352Y-74074698D01*
X125181438Y-74330000D01*
X124799352Y-74585302D01*
X124488283Y-75050849D01*
X124379050Y-75600000D01*
X124488283Y-76149151D01*
X124799352Y-76614698D01*
X125181438Y-76870000D01*
X124799352Y-77125302D01*
X124629168Y-77380000D01*
X124024802Y-77380000D01*
X120336536Y-73691734D01*
X120391717Y-73609151D01*
X120500950Y-73060000D01*
X120391717Y-72510849D01*
X120080648Y-72045302D01*
X119698562Y-71790000D01*
X120080648Y-71534698D01*
X120391717Y-71069151D01*
X120500950Y-70520000D01*
X120391717Y-69970849D01*
X120080648Y-69505302D01*
X119698562Y-69250000D01*
X120080648Y-68994698D01*
X120391717Y-68529151D01*
X120500950Y-67980000D01*
X120391717Y-67430849D01*
X120080648Y-66965302D01*
X119615101Y-66654233D01*
X119065950Y-66545000D01*
X118194050Y-66545000D01*
X117644899Y-66654233D01*
X117179352Y-66965302D01*
X117009168Y-67220000D01*
X115294802Y-67220000D01*
X110457401Y-62382599D01*
X110210839Y-62217852D01*
X109920000Y-62160000D01*
X108355894Y-62160000D01*
X108209786Y-61806391D01*
X107696303Y-61292011D01*
X112624735Y-61292011D01*
X112856414Y-61852715D01*
X113285029Y-62282079D01*
X113845328Y-62514735D01*
X114452011Y-62515265D01*
X115012715Y-62283586D01*
X115442079Y-61854971D01*
X115488900Y-61742213D01*
X115537611Y-61845134D01*
X115952577Y-62221041D01*
X116340961Y-62381904D01*
X116563000Y-62259915D01*
X116563000Y-61117000D01*
X116543000Y-61117000D01*
X116543000Y-60863000D01*
X116563000Y-60863000D01*
X116563000Y-59720085D01*
X116340961Y-59598096D01*
X115952577Y-59758959D01*
X115537611Y-60134866D01*
X115489084Y-60237399D01*
X115443586Y-60127285D01*
X115014971Y-59697921D01*
X114454672Y-59465265D01*
X113847989Y-59464735D01*
X113287285Y-59696414D01*
X112857921Y-60125029D01*
X112625265Y-60685328D01*
X112624735Y-61292011D01*
X107696303Y-61292011D01*
X107656521Y-61252160D01*
X106933277Y-60951843D01*
X106150159Y-60951159D01*
X105426391Y-61250214D01*
X104872160Y-61803479D01*
X104724120Y-62160000D01*
X99734802Y-62160000D01*
X98787401Y-61212599D01*
X98540839Y-61047852D01*
X98250000Y-60990000D01*
X82210000Y-60990000D01*
X81919161Y-61047852D01*
X81821555Y-61113070D01*
X81433277Y-60951843D01*
X80650159Y-60951159D01*
X79926391Y-61250214D01*
X79372160Y-61803479D01*
X79071843Y-62526723D01*
X79071159Y-63309841D01*
X79370214Y-64033609D01*
X79923479Y-64587840D01*
X80646723Y-64888157D01*
X81429841Y-64888841D01*
X81683122Y-64784187D01*
X89564752Y-64784187D01*
X89782757Y-65311800D01*
X90186077Y-65715824D01*
X90713309Y-65934750D01*
X91284187Y-65935248D01*
X91811800Y-65717243D01*
X92215824Y-65313923D01*
X92434750Y-64786691D01*
X92435248Y-64215813D01*
X92217243Y-63688200D01*
X91813923Y-63284176D01*
X91286691Y-63065250D01*
X90715813Y-63064752D01*
X90188200Y-63282757D01*
X89784176Y-63686077D01*
X89565250Y-64213309D01*
X89564752Y-64784187D01*
X81683122Y-64784187D01*
X82153609Y-64589786D01*
X82707840Y-64036521D01*
X83008157Y-63313277D01*
X83008841Y-62530159D01*
X83000511Y-62510000D01*
X92814991Y-62510000D01*
X92814838Y-62685167D01*
X92956883Y-63028943D01*
X93219673Y-63292192D01*
X93563201Y-63434838D01*
X93610077Y-63434879D01*
X95740000Y-65564802D01*
X95740000Y-69390000D01*
X95797852Y-69680839D01*
X95962599Y-69927401D01*
X98660919Y-72625721D01*
X98602500Y-72919411D01*
X98602500Y-73240589D01*
X98723341Y-73848099D01*
X99067468Y-74363121D01*
X99582490Y-74707248D01*
X100190000Y-74828089D01*
X100797510Y-74707248D01*
X101312532Y-74363121D01*
X101656659Y-73848099D01*
X101777500Y-73240589D01*
X101777500Y-72919411D01*
X101656659Y-72311901D01*
X101448588Y-72000500D01*
X106210060Y-72000500D01*
X106210060Y-74159500D01*
X106254338Y-74394817D01*
X106393410Y-74610941D01*
X106605610Y-74755931D01*
X106857500Y-74806940D01*
X108762500Y-74806940D01*
X108997817Y-74762662D01*
X109213941Y-74623590D01*
X109358931Y-74411390D01*
X109409940Y-74159500D01*
X109409940Y-72000500D01*
X109365662Y-71765183D01*
X109226590Y-71549059D01*
X109014390Y-71404069D01*
X108762500Y-71353060D01*
X106857500Y-71353060D01*
X106622183Y-71397338D01*
X106406059Y-71536410D01*
X106261069Y-71748610D01*
X106210060Y-72000500D01*
X101448588Y-72000500D01*
X101312532Y-71796879D01*
X100797510Y-71452752D01*
X100190000Y-71331911D01*
X99628418Y-71443616D01*
X97260000Y-69075198D01*
X97260000Y-65250000D01*
X97217711Y-65037401D01*
X97202148Y-64959160D01*
X97037401Y-64712599D01*
X94834802Y-62510000D01*
X97935198Y-62510000D01*
X98882599Y-63457401D01*
X99129161Y-63622148D01*
X99368110Y-63669678D01*
X99076391Y-63790214D01*
X98522160Y-64343479D01*
X98221843Y-65066723D01*
X98221159Y-65849841D01*
X98514508Y-66559799D01*
X98079405Y-66739580D01*
X97661049Y-67157206D01*
X97434358Y-67703139D01*
X97433842Y-68294267D01*
X97659580Y-68840595D01*
X98077206Y-69258951D01*
X98623139Y-69485642D01*
X99214267Y-69486158D01*
X99760595Y-69260420D01*
X100178951Y-68842794D01*
X100405642Y-68296861D01*
X100406158Y-67705733D01*
X100291645Y-67428589D01*
X100579841Y-67428841D01*
X101303609Y-67129786D01*
X101664343Y-66769681D01*
X101371558Y-67474785D01*
X101370645Y-68520626D01*
X101770028Y-69487207D01*
X102508904Y-70227373D01*
X103474785Y-70628442D01*
X104520626Y-70629355D01*
X105487207Y-70229972D01*
X106227373Y-69491096D01*
X106628442Y-68525215D01*
X106628643Y-68294267D01*
X107593842Y-68294267D01*
X107819580Y-68840595D01*
X108237206Y-69258951D01*
X108783139Y-69485642D01*
X109374267Y-69486158D01*
X109920595Y-69260420D01*
X110338951Y-68842794D01*
X110565642Y-68296861D01*
X110566158Y-67705733D01*
X110340420Y-67159405D01*
X109922794Y-66741049D01*
X109376861Y-66514358D01*
X108785733Y-66513842D01*
X108239405Y-66739580D01*
X107821049Y-67157206D01*
X107594358Y-67703139D01*
X107593842Y-68294267D01*
X106628643Y-68294267D01*
X106629355Y-67479374D01*
X106229972Y-66512793D01*
X105491096Y-65772627D01*
X104525215Y-65371558D01*
X103479374Y-65370645D01*
X102512793Y-65770028D01*
X101966124Y-66315744D01*
X102158157Y-65853277D01*
X102158841Y-65070159D01*
X101859786Y-64346391D01*
X101306521Y-63792160D01*
X101036410Y-63680000D01*
X104724106Y-63680000D01*
X104870214Y-64033609D01*
X105423479Y-64587840D01*
X106146723Y-64888157D01*
X106929841Y-64888841D01*
X107653609Y-64589786D01*
X108207840Y-64036521D01*
X108355880Y-63680000D01*
X109605198Y-63680000D01*
X114442599Y-68517401D01*
X114689161Y-68682148D01*
X114980000Y-68740000D01*
X116795198Y-68740000D01*
X115962599Y-69572599D01*
X115797852Y-69819161D01*
X115740000Y-70110000D01*
X115740000Y-73500000D01*
X115797852Y-73790839D01*
X115962599Y-74037401D01*
X116787563Y-74862365D01*
X116609161Y-74897852D01*
X116362599Y-75062599D01*
X114962599Y-76462599D01*
X114797852Y-76709161D01*
X114740000Y-77000000D01*
X114740000Y-79993276D01*
X114717243Y-79938200D01*
X114313923Y-79534176D01*
X113786691Y-79315250D01*
X113215813Y-79314752D01*
X112688200Y-79532757D01*
X112284176Y-79936077D01*
X112065250Y-80463309D01*
X112064752Y-81034187D01*
X112282757Y-81561800D01*
X112686077Y-81965824D01*
X113213309Y-82184750D01*
X113784187Y-82185248D01*
X114311800Y-81967243D01*
X114715824Y-81563923D01*
X114740000Y-81505701D01*
X114740000Y-84935198D01*
X114685198Y-84990000D01*
X114558937Y-84990000D01*
X114684838Y-84686799D01*
X114685162Y-84314833D01*
X114543117Y-83971057D01*
X114280327Y-83707808D01*
X113936799Y-83565162D01*
X113564833Y-83564838D01*
X113221057Y-83706883D01*
X113187882Y-83740000D01*
X107064802Y-83740000D01*
X105424861Y-82100059D01*
X105851887Y-82185000D01*
X105908113Y-82185000D01*
X106457264Y-82075767D01*
X106922811Y-81764698D01*
X107233880Y-81299151D01*
X107343113Y-80750000D01*
X107233880Y-80200849D01*
X106922811Y-79735302D01*
X106457264Y-79424233D01*
X105908113Y-79315000D01*
X105851887Y-79315000D01*
X105302736Y-79424233D01*
X104837189Y-79735302D01*
X104526120Y-80200849D01*
X104475136Y-80457163D01*
X104473880Y-80450849D01*
X104162811Y-79985302D01*
X103697264Y-79674233D01*
X103148113Y-79565000D01*
X103091887Y-79565000D01*
X102542736Y-79674233D01*
X102077189Y-79985302D01*
X101766120Y-80450849D01*
X101656887Y-81000000D01*
X101766120Y-81549151D01*
X102077189Y-82014698D01*
X102542736Y-82325767D01*
X103091887Y-82435000D01*
X103148113Y-82435000D01*
X103533533Y-82358335D01*
X106212599Y-85037401D01*
X106459160Y-85202148D01*
X106502903Y-85210849D01*
X106750000Y-85260000D01*
X111165198Y-85260000D01*
X108765198Y-87660000D01*
X108355894Y-87660000D01*
X108209786Y-87306391D01*
X107656521Y-86752160D01*
X106933277Y-86451843D01*
X106150159Y-86451159D01*
X105793379Y-86598577D01*
X104907401Y-85712599D01*
X104660839Y-85547852D01*
X104370000Y-85490000D01*
X90500000Y-85490000D01*
X90257414Y-85538254D01*
X90209160Y-85547852D01*
X89962599Y-85712599D01*
X88015198Y-87660000D01*
X82855894Y-87660000D01*
X82709786Y-87306391D01*
X82156521Y-86752160D01*
X81433277Y-86451843D01*
X80650159Y-86451159D01*
X80293379Y-86598577D01*
X79407401Y-85712599D01*
X79160839Y-85547852D01*
X78870000Y-85490000D01*
X57250000Y-85490000D01*
X57007414Y-85538254D01*
X56959160Y-85547852D01*
X56712599Y-85712599D01*
X55814894Y-86610304D01*
X55433277Y-86451843D01*
X54650159Y-86451159D01*
X53926391Y-86750214D01*
X53372160Y-87303479D01*
X53071843Y-88026723D01*
X53071159Y-88809841D01*
X53370214Y-89533609D01*
X53923479Y-90087840D01*
X54646723Y-90388157D01*
X55429841Y-90388841D01*
X56153609Y-90089786D01*
X56707840Y-89536521D01*
X57008157Y-88813277D01*
X57008841Y-88030159D01*
X56873118Y-87701684D01*
X57564802Y-87010000D01*
X78555198Y-87010000D01*
X79218568Y-87673370D01*
X79071843Y-88026723D01*
X79071159Y-88809841D01*
X79370214Y-89533609D01*
X79923479Y-90087840D01*
X80646723Y-90388157D01*
X81429841Y-90388841D01*
X82153609Y-90089786D01*
X82707840Y-89536521D01*
X82855880Y-89180000D01*
X88330000Y-89180000D01*
X88620839Y-89122148D01*
X88867401Y-88957401D01*
X89565210Y-88259592D01*
X89564752Y-88784187D01*
X89782757Y-89311800D01*
X90186077Y-89715824D01*
X90713309Y-89934750D01*
X91284187Y-89935248D01*
X91811800Y-89717243D01*
X92215824Y-89313923D01*
X92238215Y-89260000D01*
X99149514Y-89260000D01*
X99076391Y-89290214D01*
X98522160Y-89843479D01*
X98221843Y-90566723D01*
X98221159Y-91349841D01*
X98514508Y-92059799D01*
X98079405Y-92239580D01*
X97661049Y-92657206D01*
X97434358Y-93203139D01*
X97433842Y-93794267D01*
X97659580Y-94340595D01*
X98077206Y-94758951D01*
X98623139Y-94985642D01*
X99214267Y-94986158D01*
X99760595Y-94760420D01*
X100178951Y-94342794D01*
X100405642Y-93796861D01*
X100406158Y-93205733D01*
X100291645Y-92928589D01*
X100579841Y-92928841D01*
X101303609Y-92629786D01*
X101664343Y-92269681D01*
X101371558Y-92974785D01*
X101370645Y-94020626D01*
X101770028Y-94987207D01*
X102508904Y-95727373D01*
X103474785Y-96128442D01*
X104520626Y-96129355D01*
X105487207Y-95729972D01*
X106227373Y-94991096D01*
X106628442Y-94025215D01*
X106628643Y-93794267D01*
X107593842Y-93794267D01*
X107819580Y-94340595D01*
X108237206Y-94758951D01*
X108783139Y-94985642D01*
X109374267Y-94986158D01*
X109920595Y-94760420D01*
X110338951Y-94342794D01*
X110565642Y-93796861D01*
X110566158Y-93205733D01*
X110340420Y-92659405D01*
X109922794Y-92241049D01*
X109376861Y-92014358D01*
X108785733Y-92013842D01*
X108239405Y-92239580D01*
X107821049Y-92657206D01*
X107594358Y-93203139D01*
X107593842Y-93794267D01*
X106628643Y-93794267D01*
X106629355Y-92979374D01*
X106229972Y-92012793D01*
X105491096Y-91272627D01*
X104858620Y-91010000D01*
X108750000Y-91010000D01*
X109040839Y-90952148D01*
X109287401Y-90787401D01*
X112314802Y-87760000D01*
X116866463Y-87760000D01*
X116759050Y-88300000D01*
X116868283Y-88849151D01*
X117179352Y-89314698D01*
X117561438Y-89570000D01*
X117179352Y-89825302D01*
X116868283Y-90290849D01*
X116759050Y-90840000D01*
X116868283Y-91389151D01*
X117179352Y-91854698D01*
X117561438Y-92110000D01*
X117179352Y-92365302D01*
X116868283Y-92830849D01*
X116759050Y-93380000D01*
X116868283Y-93929151D01*
X117179352Y-94394698D01*
X117561438Y-94650000D01*
X117179352Y-94905302D01*
X116868283Y-95370849D01*
X116759050Y-95920000D01*
X116868283Y-96469151D01*
X117179352Y-96934698D01*
X117561438Y-97190000D01*
X117179352Y-97445302D01*
X116868283Y-97910849D01*
X116759050Y-98460000D01*
X116868283Y-99009151D01*
X117179352Y-99474698D01*
X117561438Y-99730000D01*
X117179352Y-99985302D01*
X116868283Y-100450849D01*
X116759050Y-101000000D01*
X116868283Y-101549151D01*
X117179352Y-102014698D01*
X117516540Y-102240000D01*
X70064802Y-102240000D01*
X68510000Y-100685198D01*
X68510000Y-98419411D01*
X73102500Y-98419411D01*
X73102500Y-98740589D01*
X73223341Y-99348099D01*
X73567468Y-99863121D01*
X74082490Y-100207248D01*
X74690000Y-100328089D01*
X75297510Y-100207248D01*
X75812532Y-99863121D01*
X76156659Y-99348099D01*
X76158270Y-99340000D01*
X78670000Y-99340000D01*
X78960839Y-99282148D01*
X79207401Y-99117401D01*
X80710060Y-97614742D01*
X80710060Y-99659500D01*
X80754338Y-99894817D01*
X80893410Y-100110941D01*
X81105610Y-100255931D01*
X81357500Y-100306940D01*
X83262500Y-100306940D01*
X83497817Y-100262662D01*
X83713941Y-100123590D01*
X83858931Y-99911390D01*
X83909940Y-99659500D01*
X83909940Y-98419411D01*
X98602500Y-98419411D01*
X98602500Y-98740589D01*
X98723341Y-99348099D01*
X99067468Y-99863121D01*
X99582490Y-100207248D01*
X100190000Y-100328089D01*
X100797510Y-100207248D01*
X101312532Y-99863121D01*
X101656659Y-99348099D01*
X101777500Y-98740589D01*
X101777500Y-98419411D01*
X101656659Y-97811901D01*
X101448588Y-97500500D01*
X106210060Y-97500500D01*
X106210060Y-99659500D01*
X106254338Y-99894817D01*
X106393410Y-100110941D01*
X106605610Y-100255931D01*
X106857500Y-100306940D01*
X108762500Y-100306940D01*
X108997817Y-100262662D01*
X109213941Y-100123590D01*
X109358931Y-99911390D01*
X109409940Y-99659500D01*
X109409940Y-97500500D01*
X109365662Y-97265183D01*
X109226590Y-97049059D01*
X109014390Y-96904069D01*
X108762500Y-96853060D01*
X106857500Y-96853060D01*
X106622183Y-96897338D01*
X106406059Y-97036410D01*
X106261069Y-97248610D01*
X106210060Y-97500500D01*
X101448588Y-97500500D01*
X101312532Y-97296879D01*
X100797510Y-96952752D01*
X100190000Y-96831911D01*
X99582490Y-96952752D01*
X99067468Y-97296879D01*
X98723341Y-97811901D01*
X98602500Y-98419411D01*
X83909940Y-98419411D01*
X83909940Y-97500500D01*
X83865662Y-97265183D01*
X83726590Y-97049059D01*
X83514390Y-96904069D01*
X83395534Y-96880000D01*
X89796333Y-96880000D01*
X89985302Y-97162811D01*
X90450849Y-97473880D01*
X91000000Y-97583113D01*
X91549151Y-97473880D01*
X92014698Y-97162811D01*
X92325767Y-96697264D01*
X92435000Y-96148113D01*
X92435000Y-96091887D01*
X92325767Y-95542736D01*
X92014698Y-95077189D01*
X91549151Y-94766120D01*
X91000000Y-94656887D01*
X90450849Y-94766120D01*
X89985302Y-95077189D01*
X89796333Y-95360000D01*
X81130000Y-95360000D01*
X80839160Y-95417852D01*
X80592599Y-95582599D01*
X78355198Y-97820000D01*
X76158270Y-97820000D01*
X76156659Y-97811901D01*
X75812532Y-97296879D01*
X75297510Y-96952752D01*
X74690000Y-96831911D01*
X74082490Y-96952752D01*
X73567468Y-97296879D01*
X73223341Y-97811901D01*
X73102500Y-98419411D01*
X68510000Y-98419411D01*
X68510000Y-95500000D01*
X68452148Y-95209161D01*
X68287401Y-94962599D01*
X67119069Y-93794267D01*
X71933842Y-93794267D01*
X72159580Y-94340595D01*
X72577206Y-94758951D01*
X73123139Y-94985642D01*
X73714267Y-94986158D01*
X74260595Y-94760420D01*
X74678951Y-94342794D01*
X74905642Y-93796861D01*
X74906158Y-93205733D01*
X74791645Y-92928589D01*
X75079841Y-92928841D01*
X75803609Y-92629786D01*
X76164343Y-92269681D01*
X75871558Y-92974785D01*
X75870645Y-94020626D01*
X76270028Y-94987207D01*
X77008904Y-95727373D01*
X77974785Y-96128442D01*
X79020626Y-96129355D01*
X79987207Y-95729972D01*
X80727373Y-94991096D01*
X81128442Y-94025215D01*
X81128643Y-93794267D01*
X82093842Y-93794267D01*
X82319580Y-94340595D01*
X82737206Y-94758951D01*
X83283139Y-94985642D01*
X83874267Y-94986158D01*
X84420595Y-94760420D01*
X84838951Y-94342794D01*
X85065642Y-93796861D01*
X85066158Y-93205733D01*
X84840420Y-92659405D01*
X84422794Y-92241049D01*
X83876861Y-92014358D01*
X83285733Y-92013842D01*
X82739405Y-92239580D01*
X82321049Y-92657206D01*
X82094358Y-93203139D01*
X82093842Y-93794267D01*
X81128643Y-93794267D01*
X81129355Y-92979374D01*
X80729972Y-92012793D01*
X79991096Y-91272627D01*
X79025215Y-90871558D01*
X77979374Y-90870645D01*
X77012793Y-91270028D01*
X76466124Y-91815744D01*
X76658157Y-91353277D01*
X76658841Y-90570159D01*
X76359786Y-89846391D01*
X75806521Y-89292160D01*
X75083277Y-88991843D01*
X74300159Y-88991159D01*
X73576391Y-89290214D01*
X73022160Y-89843479D01*
X72721843Y-90566723D01*
X72721159Y-91349841D01*
X73014508Y-92059799D01*
X72579405Y-92239580D01*
X72161049Y-92657206D01*
X71934358Y-93203139D01*
X71933842Y-93794267D01*
X67119069Y-93794267D01*
X66010000Y-92685198D01*
X66010000Y-89738646D01*
X66061800Y-89717243D01*
X66465824Y-89313923D01*
X66684750Y-88786691D01*
X66685248Y-88215813D01*
X66467243Y-87688200D01*
X66063923Y-87284176D01*
X65536691Y-87065250D01*
X64965813Y-87064752D01*
X64438200Y-87282757D01*
X64034176Y-87686077D01*
X63815250Y-88213309D01*
X63814752Y-88784187D01*
X64032757Y-89311800D01*
X64436077Y-89715824D01*
X64490000Y-89738215D01*
X64490000Y-93000000D01*
X64547852Y-93290839D01*
X64712599Y-93537401D01*
X66227597Y-95052399D01*
X65799151Y-94766120D01*
X65250000Y-94656887D01*
X64700849Y-94766120D01*
X64235302Y-95077189D01*
X64046333Y-95360000D01*
X55130000Y-95360000D01*
X54839160Y-95417852D01*
X54592599Y-95582599D01*
X52355198Y-97820000D01*
X50158270Y-97820000D01*
X50156659Y-97811901D01*
X49812532Y-97296879D01*
X49297510Y-96952752D01*
X48690000Y-96831911D01*
X48082490Y-96952752D01*
X47567468Y-97296879D01*
X47223341Y-97811901D01*
X47102500Y-98419411D01*
X47102500Y-98740589D01*
X47223341Y-99348099D01*
X47485201Y-99740000D01*
X46564802Y-99740000D01*
X44867401Y-98042599D01*
X44620839Y-97877852D01*
X44330000Y-97820000D01*
X32644802Y-97820000D01*
X34787401Y-95677401D01*
X34952148Y-95430839D01*
X34969841Y-95341887D01*
X38565000Y-95341887D01*
X38565000Y-95398113D01*
X38674233Y-95947264D01*
X38985302Y-96412811D01*
X39450849Y-96723880D01*
X40000000Y-96833113D01*
X40549151Y-96723880D01*
X41014698Y-96412811D01*
X41325767Y-95947264D01*
X41435000Y-95398113D01*
X41435000Y-95341887D01*
X41325767Y-94792736D01*
X41014698Y-94327189D01*
X40549151Y-94016120D01*
X40000000Y-93906887D01*
X39450849Y-94016120D01*
X38985302Y-94327189D01*
X38674233Y-94792736D01*
X38565000Y-95341887D01*
X34969841Y-95341887D01*
X35010000Y-95140000D01*
X35010000Y-93794267D01*
X45933842Y-93794267D01*
X46159580Y-94340595D01*
X46577206Y-94758951D01*
X47123139Y-94985642D01*
X47714267Y-94986158D01*
X48260595Y-94760420D01*
X48678951Y-94342794D01*
X48905642Y-93796861D01*
X48906158Y-93205733D01*
X48791645Y-92928589D01*
X49079841Y-92928841D01*
X49803609Y-92629786D01*
X50164343Y-92269681D01*
X49871558Y-92974785D01*
X49870645Y-94020626D01*
X50270028Y-94987207D01*
X51008904Y-95727373D01*
X51974785Y-96128442D01*
X53020626Y-96129355D01*
X53987207Y-95729972D01*
X54727373Y-94991096D01*
X55128442Y-94025215D01*
X55128643Y-93794267D01*
X56093842Y-93794267D01*
X56319580Y-94340595D01*
X56737206Y-94758951D01*
X57283139Y-94985642D01*
X57874267Y-94986158D01*
X58420595Y-94760420D01*
X58838951Y-94342794D01*
X59065642Y-93796861D01*
X59066158Y-93205733D01*
X58840420Y-92659405D01*
X58422794Y-92241049D01*
X57876861Y-92014358D01*
X57285733Y-92013842D01*
X56739405Y-92239580D01*
X56321049Y-92657206D01*
X56094358Y-93203139D01*
X56093842Y-93794267D01*
X55128643Y-93794267D01*
X55129355Y-92979374D01*
X54729972Y-92012793D01*
X53991096Y-91272627D01*
X53025215Y-90871558D01*
X51979374Y-90870645D01*
X51012793Y-91270028D01*
X50466124Y-91815744D01*
X50658157Y-91353277D01*
X50658841Y-90570159D01*
X50359786Y-89846391D01*
X50044374Y-89530428D01*
X54907401Y-84667401D01*
X55072148Y-84420839D01*
X55130000Y-84130000D01*
X55130000Y-82453667D01*
X55412811Y-82264698D01*
X55723880Y-81799151D01*
X55833113Y-81250000D01*
X55723880Y-80700849D01*
X55412811Y-80235302D01*
X54947264Y-79924233D01*
X54398113Y-79815000D01*
X54341887Y-79815000D01*
X53792736Y-79924233D01*
X53327189Y-80235302D01*
X53016120Y-80700849D01*
X52906887Y-81250000D01*
X53016120Y-81799151D01*
X53327189Y-82264698D01*
X53610000Y-82453667D01*
X53610000Y-83815198D01*
X48433922Y-88991276D01*
X48300159Y-88991159D01*
X47576391Y-89290214D01*
X47022160Y-89843479D01*
X46721843Y-90566723D01*
X46721159Y-91349841D01*
X47014508Y-92059799D01*
X46579405Y-92239580D01*
X46161049Y-92657206D01*
X45934358Y-93203139D01*
X45933842Y-93794267D01*
X35010000Y-93794267D01*
X35010000Y-89750000D01*
X34952148Y-89459161D01*
X34787401Y-89212599D01*
X33608989Y-88034187D01*
X38564752Y-88034187D01*
X38782757Y-88561800D01*
X39186077Y-88965824D01*
X39713309Y-89184750D01*
X40284187Y-89185248D01*
X40811800Y-88967243D01*
X41215824Y-88563923D01*
X41434750Y-88036691D01*
X41435248Y-87465813D01*
X41217243Y-86938200D01*
X40813923Y-86534176D01*
X40286691Y-86315250D01*
X39715813Y-86314752D01*
X39188200Y-86532757D01*
X38784176Y-86936077D01*
X38565250Y-87463309D01*
X38564752Y-88034187D01*
X33608989Y-88034187D01*
X32510000Y-86935198D01*
X32510000Y-81988646D01*
X32561800Y-81967243D01*
X32965824Y-81563923D01*
X32988215Y-81510000D01*
X45314773Y-81510000D01*
X45314752Y-81534187D01*
X45532757Y-82061800D01*
X45936077Y-82465824D01*
X46463309Y-82684750D01*
X47034187Y-82685248D01*
X47561800Y-82467243D01*
X47965824Y-82063923D01*
X47988215Y-82010000D01*
X48140000Y-82010000D01*
X48430839Y-81952148D01*
X48677401Y-81787401D01*
X55657862Y-74806940D01*
X57262500Y-74806940D01*
X57497817Y-74762662D01*
X57713941Y-74623590D01*
X57858931Y-74411390D01*
X57909940Y-74159500D01*
X57909940Y-73840000D01*
X63670000Y-73840000D01*
X63960839Y-73782148D01*
X64207401Y-73617401D01*
X65161546Y-72663256D01*
X65213309Y-72684750D01*
X65784187Y-72685248D01*
X66191958Y-72516760D01*
X74086744Y-80411546D01*
X74065250Y-80463309D01*
X74064752Y-81034187D01*
X74282757Y-81561800D01*
X74686077Y-81965824D01*
X75213309Y-82184750D01*
X75784187Y-82185248D01*
X76311800Y-81967243D01*
X76715824Y-81563923D01*
X76934750Y-81036691D01*
X76935000Y-80750000D01*
X81656887Y-80750000D01*
X81766120Y-81299151D01*
X82077189Y-81764698D01*
X82542736Y-82075767D01*
X83091887Y-82185000D01*
X83148113Y-82185000D01*
X83697264Y-82075767D01*
X84162811Y-81764698D01*
X84473880Y-81299151D01*
X84476856Y-81284187D01*
X94064752Y-81284187D01*
X94282757Y-81811800D01*
X94686077Y-82215824D01*
X95213309Y-82434750D01*
X95784187Y-82435248D01*
X96311800Y-82217243D01*
X96715824Y-81813923D01*
X96934750Y-81286691D01*
X96935248Y-80715813D01*
X96717243Y-80188200D01*
X96313923Y-79784176D01*
X95786691Y-79565250D01*
X95215813Y-79564752D01*
X94688200Y-79782757D01*
X94284176Y-80186077D01*
X94065250Y-80713309D01*
X94064752Y-81284187D01*
X84476856Y-81284187D01*
X84583113Y-80750000D01*
X84473880Y-80200849D01*
X84162811Y-79735302D01*
X83697264Y-79424233D01*
X83148113Y-79315000D01*
X83091887Y-79315000D01*
X82542736Y-79424233D01*
X82077189Y-79735302D01*
X81766120Y-80200849D01*
X81656887Y-80750000D01*
X76935000Y-80750000D01*
X76935248Y-80465813D01*
X76717243Y-79938200D01*
X76622006Y-79842796D01*
X81657862Y-74806940D01*
X83262500Y-74806940D01*
X83497817Y-74762662D01*
X83713941Y-74623590D01*
X83858931Y-74411390D01*
X83909940Y-74159500D01*
X83909940Y-72010000D01*
X89581288Y-72010000D01*
X89565000Y-72091887D01*
X89565000Y-72148113D01*
X89674233Y-72697264D01*
X89985302Y-73162811D01*
X90450849Y-73473880D01*
X91000000Y-73583113D01*
X91549151Y-73473880D01*
X92014698Y-73162811D01*
X92325767Y-72697264D01*
X92435000Y-72148113D01*
X92435000Y-72091887D01*
X92325767Y-71542736D01*
X92014698Y-71077189D01*
X91549151Y-70766120D01*
X91000000Y-70656887D01*
X90676114Y-70721312D01*
X90667401Y-70712599D01*
X90420839Y-70547852D01*
X90130000Y-70490000D01*
X80750000Y-70490000D01*
X80459160Y-70547852D01*
X80212599Y-70712599D01*
X79685198Y-71240000D01*
X78314802Y-71240000D01*
X77510425Y-70435623D01*
X77974785Y-70628442D01*
X79020626Y-70629355D01*
X79987207Y-70229972D01*
X80727373Y-69491096D01*
X81128442Y-68525215D01*
X81128643Y-68294267D01*
X82093842Y-68294267D01*
X82319580Y-68840595D01*
X82737206Y-69258951D01*
X83283139Y-69485642D01*
X83874267Y-69486158D01*
X84420595Y-69260420D01*
X84838951Y-68842794D01*
X85065642Y-68296861D01*
X85066158Y-67705733D01*
X84840420Y-67159405D01*
X84422794Y-66741049D01*
X83876861Y-66514358D01*
X83285733Y-66513842D01*
X82739405Y-66739580D01*
X82321049Y-67157206D01*
X82094358Y-67703139D01*
X82093842Y-68294267D01*
X81128643Y-68294267D01*
X81129355Y-67479374D01*
X80729972Y-66512793D01*
X79991096Y-65772627D01*
X79025215Y-65371558D01*
X77979374Y-65370645D01*
X77012793Y-65770028D01*
X76466124Y-66315744D01*
X76658157Y-65853277D01*
X76658841Y-65070159D01*
X76359786Y-64346391D01*
X75806521Y-63792160D01*
X75083277Y-63491843D01*
X74315975Y-63491173D01*
X70810000Y-59985198D01*
X70810000Y-58341887D01*
X92065000Y-58341887D01*
X92065000Y-58398113D01*
X92174233Y-58947264D01*
X92485302Y-59412811D01*
X92950849Y-59723880D01*
X93500000Y-59833113D01*
X94049151Y-59723880D01*
X94514698Y-59412811D01*
X94825767Y-58947264D01*
X94935000Y-58398113D01*
X94935000Y-58341887D01*
X94825767Y-57792736D01*
X94514698Y-57327189D01*
X94049151Y-57016120D01*
X93500000Y-56906887D01*
X92950849Y-57016120D01*
X92485302Y-57327189D01*
X92174233Y-57792736D01*
X92065000Y-58341887D01*
X70810000Y-58341887D01*
X70810000Y-53490832D01*
X71064698Y-53320648D01*
X71320000Y-52938562D01*
X71575302Y-53320648D01*
X71830000Y-53490832D01*
X71830000Y-54340000D01*
X71887852Y-54630839D01*
X72052599Y-54877401D01*
X73586744Y-56411546D01*
X73565250Y-56463309D01*
X73564752Y-57034187D01*
X73782757Y-57561800D01*
X74186077Y-57965824D01*
X74713309Y-58184750D01*
X75284187Y-58185248D01*
X75811800Y-57967243D01*
X76215824Y-57563923D01*
X76434750Y-57036691D01*
X76435000Y-56750000D01*
X81156887Y-56750000D01*
X81266120Y-57299151D01*
X81577189Y-57764698D01*
X82042736Y-58075767D01*
X82591887Y-58185000D01*
X82648113Y-58185000D01*
X83197264Y-58075767D01*
X83662811Y-57764698D01*
X83973880Y-57299151D01*
X84083113Y-56750000D01*
X83973880Y-56200849D01*
X83662811Y-55735302D01*
X83197264Y-55424233D01*
X82648113Y-55315000D01*
X82591887Y-55315000D01*
X82042736Y-55424233D01*
X81577189Y-55735302D01*
X81266120Y-56200849D01*
X81156887Y-56750000D01*
X76435000Y-56750000D01*
X76435248Y-56465813D01*
X76217243Y-55938200D01*
X75813923Y-55534176D01*
X75286691Y-55315250D01*
X74715813Y-55314752D01*
X74661851Y-55337049D01*
X73350000Y-54025198D01*
X73350000Y-53490832D01*
X73604698Y-53320648D01*
X73860000Y-52938562D01*
X74115302Y-53320648D01*
X74580849Y-53631717D01*
X75130000Y-53740950D01*
X75679151Y-53631717D01*
X76144698Y-53320648D01*
X76400000Y-52938562D01*
X76655302Y-53320648D01*
X77120849Y-53631717D01*
X77670000Y-53740950D01*
X78219151Y-53631717D01*
X78301734Y-53576537D01*
X79012598Y-54287401D01*
X79091319Y-54340000D01*
X79259161Y-54452148D01*
X79550000Y-54510000D01*
X83500000Y-54510000D01*
X83790839Y-54452148D01*
X84037401Y-54287401D01*
X86814802Y-51510000D01*
X92261354Y-51510000D01*
X92282757Y-51561800D01*
X92686077Y-51965824D01*
X93213309Y-52184750D01*
X93784187Y-52185248D01*
X94311800Y-51967243D01*
X94715824Y-51563923D01*
X94934750Y-51036691D01*
X94935248Y-50465813D01*
X94850208Y-50260000D01*
X98055198Y-50260000D01*
X98120096Y-50324898D01*
X98065000Y-50601887D01*
X98065000Y-50658113D01*
X98174233Y-51207264D01*
X98485302Y-51672811D01*
X98740000Y-51842995D01*
X98740000Y-55935198D01*
X97712599Y-56962599D01*
X97547852Y-57209161D01*
X97490000Y-57500000D01*
X97490000Y-58750000D01*
X97547852Y-59040839D01*
X97712599Y-59287401D01*
X98814878Y-60389680D01*
X98814838Y-60435167D01*
X98956883Y-60778943D01*
X99219673Y-61042192D01*
X99563201Y-61184838D01*
X99935167Y-61185162D01*
X100278943Y-61043117D01*
X100542192Y-60780327D01*
X100684838Y-60436799D01*
X100685162Y-60064833D01*
X100543117Y-59721057D01*
X100296186Y-59473695D01*
X100311800Y-59467243D01*
X100715824Y-59063923D01*
X100934750Y-58536691D01*
X100935248Y-57965813D01*
X100912951Y-57911851D01*
X104037401Y-54787401D01*
X104202148Y-54540840D01*
X104260000Y-54250000D01*
X104260000Y-40034187D01*
X110564752Y-40034187D01*
X110782757Y-40561800D01*
X111186077Y-40965824D01*
X111713309Y-41184750D01*
X112284187Y-41185248D01*
X112811800Y-40967243D01*
X113215824Y-40563923D01*
X113228171Y-40534187D01*
X116814752Y-40534187D01*
X117032757Y-41061800D01*
X117436077Y-41465824D01*
X117963309Y-41684750D01*
X118534187Y-41685248D01*
X119061800Y-41467243D01*
X119465824Y-41063923D01*
X119684750Y-40536691D01*
X119685248Y-39965813D01*
X119467243Y-39438200D01*
X119063923Y-39034176D01*
X118536691Y-38815250D01*
X117965813Y-38814752D01*
X117438200Y-39032757D01*
X117034176Y-39436077D01*
X116815250Y-39963309D01*
X116814752Y-40534187D01*
X113228171Y-40534187D01*
X113434750Y-40036691D01*
X113435248Y-39465813D01*
X113217243Y-38938200D01*
X112813923Y-38534176D01*
X112286691Y-38315250D01*
X111715813Y-38314752D01*
X111188200Y-38532757D01*
X110784176Y-38936077D01*
X110565250Y-39463309D01*
X110564752Y-40034187D01*
X104260000Y-40034187D01*
X104260000Y-36806940D01*
X104512500Y-36806940D01*
X104747817Y-36762662D01*
X104963941Y-36623590D01*
X105108931Y-36411390D01*
X105159940Y-36159500D01*
X105159940Y-34554862D01*
X107612915Y-32101887D01*
X110565000Y-32101887D01*
X110565000Y-32158113D01*
X110674233Y-32707264D01*
X110985302Y-33172811D01*
X111450849Y-33483880D01*
X112000000Y-33593113D01*
X112549151Y-33483880D01*
X113014698Y-33172811D01*
X113325767Y-32707264D01*
X113435000Y-32158113D01*
X113435000Y-32101887D01*
X113325767Y-31552736D01*
X113014698Y-31087189D01*
X112549151Y-30776120D01*
X112000000Y-30666887D01*
X111450849Y-30776120D01*
X110985302Y-31087189D01*
X110674233Y-31552736D01*
X110565000Y-32101887D01*
X107612915Y-32101887D01*
X110204802Y-29510000D01*
X110761354Y-29510000D01*
X110782757Y-29561800D01*
X111186077Y-29965824D01*
X111713309Y-30184750D01*
X112284187Y-30185248D01*
X112811800Y-29967243D01*
X112977265Y-29802067D01*
X114462599Y-31287401D01*
X114709161Y-31452148D01*
X115000000Y-31510000D01*
X117350823Y-31510000D01*
X117235302Y-31587189D01*
X116924233Y-32052736D01*
X116815000Y-32601887D01*
X116815000Y-32658113D01*
X116924233Y-33207264D01*
X117235302Y-33672811D01*
X117700849Y-33983880D01*
X118250000Y-34093113D01*
X118573886Y-34028688D01*
X122792599Y-38247401D01*
X123039161Y-38412148D01*
X123330000Y-38470000D01*
X124903154Y-38470000D01*
X124947932Y-38578371D01*
X125115880Y-38746613D01*
X125114683Y-38746838D01*
X124898559Y-38885910D01*
X124753569Y-39098110D01*
X124702560Y-39350000D01*
X124702560Y-41150000D01*
X124746838Y-41385317D01*
X124885910Y-41601441D01*
X125098110Y-41746431D01*
X125350000Y-41797440D01*
X127150000Y-41797440D01*
X127385317Y-41753162D01*
X127601441Y-41614090D01*
X127746431Y-41401890D01*
X127797440Y-41150000D01*
X127797440Y-39777362D01*
X129287401Y-38287401D01*
X129452148Y-38040839D01*
X129510000Y-37750000D01*
X129510000Y-34000000D01*
X129452148Y-33709161D01*
X129287401Y-33462599D01*
X127797440Y-31972638D01*
X127797440Y-31277362D01*
X131287401Y-27787401D01*
X131452148Y-27540839D01*
X131510000Y-27250000D01*
X131510000Y-26564802D01*
X135015000Y-23059802D01*
X136752603Y-24797405D01*
M02*
