G04 #@! TF.FileFunction,Other,Fab,Top*
%FSLAX46Y46*%
G04 Gerber Fmt 4.6, Leading zero omitted, Abs format (unit mm)*
G04 Created by KiCad (PCBNEW 4.0.7) date Monday, 04 December 2017 'PMt' 14:32:11*
%MOMM*%
%LPD*%
G01*
G04 APERTURE LIST*
%ADD10C,0.100000*%
%ADD11C,0.150000*%
%ADD12C,0.200000*%
G04 APERTURE END LIST*
D10*
X127469666Y-32480016D02*
G75*
G03X124530306Y-32480000I-1469666J2500016D01*
G01*
X128500000Y-29980000D02*
G75*
G03X128500000Y-29980000I-2500000J0D01*
G01*
X124530306Y-32480000D02*
X127469694Y-32480000D01*
X127469666Y-40730016D02*
G75*
G03X124530306Y-40730000I-1469666J2500016D01*
G01*
X128500000Y-38230000D02*
G75*
G03X128500000Y-38230000I-2500000J0D01*
G01*
X124530306Y-40730000D02*
X127469694Y-40730000D01*
X51590000Y-34750000D02*
X51590000Y-32250000D01*
X51590000Y-32250000D02*
X45290000Y-32250000D01*
X45290000Y-32250000D02*
X45290000Y-34750000D01*
X45290000Y-34750000D02*
X51590000Y-34750000D01*
X52250000Y-33500000D02*
X51590000Y-33500000D01*
X44630000Y-33500000D02*
X45290000Y-33500000D01*
X45410000Y-25000000D02*
X45410000Y-27500000D01*
X45410000Y-27500000D02*
X51710000Y-27500000D01*
X51710000Y-27500000D02*
X51710000Y-25000000D01*
X51710000Y-25000000D02*
X45410000Y-25000000D01*
X44750000Y-26250000D02*
X45410000Y-26250000D01*
X52370000Y-26250000D02*
X51710000Y-26250000D01*
X79910000Y-31000000D02*
X79910000Y-33500000D01*
X79910000Y-33500000D02*
X86210000Y-33500000D01*
X86210000Y-33500000D02*
X86210000Y-31000000D01*
X86210000Y-31000000D02*
X79910000Y-31000000D01*
X79250000Y-32250000D02*
X79910000Y-32250000D01*
X86870000Y-32250000D02*
X86210000Y-32250000D01*
X79410000Y-24750000D02*
X79410000Y-27250000D01*
X79410000Y-27250000D02*
X85710000Y-27250000D01*
X85710000Y-27250000D02*
X85710000Y-24750000D01*
X85710000Y-24750000D02*
X79410000Y-24750000D01*
X78750000Y-26000000D02*
X79410000Y-26000000D01*
X86370000Y-26000000D02*
X85710000Y-26000000D01*
X110250000Y-40840000D02*
X112750000Y-40840000D01*
X112750000Y-40840000D02*
X112750000Y-34540000D01*
X112750000Y-34540000D02*
X110250000Y-34540000D01*
X110250000Y-34540000D02*
X110250000Y-40840000D01*
X111500000Y-41500000D02*
X111500000Y-40840000D01*
X111500000Y-33880000D02*
X111500000Y-34540000D01*
X110000000Y-30090000D02*
X112500000Y-30090000D01*
X112500000Y-30090000D02*
X112500000Y-23790000D01*
X112500000Y-23790000D02*
X110000000Y-23790000D01*
X110000000Y-23790000D02*
X110000000Y-30090000D01*
X111250000Y-30750000D02*
X111250000Y-30090000D01*
X111250000Y-23130000D02*
X111250000Y-23790000D01*
X118500000Y-21410000D02*
X116000000Y-21410000D01*
X116000000Y-21410000D02*
X116000000Y-27710000D01*
X116000000Y-27710000D02*
X118500000Y-27710000D01*
X118500000Y-27710000D02*
X118500000Y-21410000D01*
X117250000Y-20750000D02*
X117250000Y-21410000D01*
X117250000Y-28370000D02*
X117250000Y-27710000D01*
X116500000Y-39590000D02*
X119000000Y-39590000D01*
X119000000Y-39590000D02*
X119000000Y-33290000D01*
X119000000Y-33290000D02*
X116500000Y-33290000D01*
X116500000Y-33290000D02*
X116500000Y-39590000D01*
X117750000Y-40250000D02*
X117750000Y-39590000D01*
X117750000Y-32630000D02*
X117750000Y-33290000D01*
X135410000Y-19750000D02*
X135410000Y-22250000D01*
X135410000Y-22250000D02*
X141710000Y-22250000D01*
X141710000Y-22250000D02*
X141710000Y-19750000D01*
X141710000Y-19750000D02*
X135410000Y-19750000D01*
X134750000Y-21000000D02*
X135410000Y-21000000D01*
X142370000Y-21000000D02*
X141710000Y-21000000D01*
X31090000Y-56500000D02*
X31090000Y-54000000D01*
X31090000Y-54000000D02*
X24790000Y-54000000D01*
X24790000Y-54000000D02*
X24790000Y-56500000D01*
X24790000Y-56500000D02*
X31090000Y-56500000D01*
X31750000Y-55250000D02*
X31090000Y-55250000D01*
X24130000Y-55250000D02*
X24790000Y-55250000D01*
X41500000Y-65160000D02*
X39000000Y-65160000D01*
X39000000Y-65160000D02*
X39000000Y-71460000D01*
X39000000Y-71460000D02*
X41500000Y-71460000D01*
X41500000Y-71460000D02*
X41500000Y-65160000D01*
X40250000Y-64500000D02*
X40250000Y-65160000D01*
X40250000Y-72120000D02*
X40250000Y-71460000D01*
X48590000Y-58000000D02*
X48590000Y-55500000D01*
X48590000Y-55500000D02*
X42290000Y-55500000D01*
X42290000Y-55500000D02*
X42290000Y-58000000D01*
X42290000Y-58000000D02*
X48590000Y-58000000D01*
X49250000Y-56750000D02*
X48590000Y-56750000D01*
X41630000Y-56750000D02*
X42290000Y-56750000D01*
X64250000Y-70590000D02*
X66750000Y-70590000D01*
X66750000Y-70590000D02*
X66750000Y-64290000D01*
X66750000Y-64290000D02*
X64250000Y-64290000D01*
X64250000Y-64290000D02*
X64250000Y-70590000D01*
X65500000Y-71250000D02*
X65500000Y-70590000D01*
X65500000Y-63630000D02*
X65500000Y-64290000D01*
X75660000Y-55500000D02*
X75660000Y-58000000D01*
X75660000Y-58000000D02*
X81960000Y-58000000D01*
X81960000Y-58000000D02*
X81960000Y-55500000D01*
X81960000Y-55500000D02*
X75660000Y-55500000D01*
X75000000Y-56750000D02*
X75660000Y-56750000D01*
X82620000Y-56750000D02*
X81960000Y-56750000D01*
X92250000Y-65160000D02*
X89750000Y-65160000D01*
X89750000Y-65160000D02*
X89750000Y-71460000D01*
X89750000Y-71460000D02*
X92250000Y-71460000D01*
X92250000Y-71460000D02*
X92250000Y-65160000D01*
X91000000Y-64500000D02*
X91000000Y-65160000D01*
X91000000Y-72120000D02*
X91000000Y-71460000D01*
X94750000Y-51410000D02*
X92250000Y-51410000D01*
X92250000Y-51410000D02*
X92250000Y-57710000D01*
X92250000Y-57710000D02*
X94750000Y-57710000D01*
X94750000Y-57710000D02*
X94750000Y-51410000D01*
X93500000Y-50750000D02*
X93500000Y-51410000D01*
X93500000Y-58370000D02*
X93500000Y-57710000D01*
X98250000Y-57590000D02*
X100750000Y-57590000D01*
X100750000Y-57590000D02*
X100750000Y-51290000D01*
X100750000Y-51290000D02*
X98250000Y-51290000D01*
X98250000Y-51290000D02*
X98250000Y-57590000D01*
X99500000Y-58250000D02*
X99500000Y-57590000D01*
X99500000Y-50630000D02*
X99500000Y-51290000D01*
X41250000Y-88410000D02*
X38750000Y-88410000D01*
X38750000Y-88410000D02*
X38750000Y-94710000D01*
X38750000Y-94710000D02*
X41250000Y-94710000D01*
X41250000Y-94710000D02*
X41250000Y-88410000D01*
X40000000Y-87750000D02*
X40000000Y-88410000D01*
X40000000Y-95370000D02*
X40000000Y-94710000D01*
X31090000Y-82000000D02*
X31090000Y-79500000D01*
X31090000Y-79500000D02*
X24790000Y-79500000D01*
X24790000Y-79500000D02*
X24790000Y-82000000D01*
X24790000Y-82000000D02*
X31090000Y-82000000D01*
X31750000Y-80750000D02*
X31090000Y-80750000D01*
X24130000Y-80750000D02*
X24790000Y-80750000D01*
X66500000Y-89160000D02*
X64000000Y-89160000D01*
X64000000Y-89160000D02*
X64000000Y-95460000D01*
X64000000Y-95460000D02*
X66500000Y-95460000D01*
X66500000Y-95460000D02*
X66500000Y-89160000D01*
X65250000Y-88500000D02*
X65250000Y-89160000D01*
X65250000Y-96120000D02*
X65250000Y-95460000D01*
X47410000Y-80000000D02*
X47410000Y-82500000D01*
X47410000Y-82500000D02*
X53710000Y-82500000D01*
X53710000Y-82500000D02*
X53710000Y-80000000D01*
X53710000Y-80000000D02*
X47410000Y-80000000D01*
X46750000Y-81250000D02*
X47410000Y-81250000D01*
X54370000Y-81250000D02*
X53710000Y-81250000D01*
X92250000Y-89160000D02*
X89750000Y-89160000D01*
X89750000Y-89160000D02*
X89750000Y-95460000D01*
X89750000Y-95460000D02*
X92250000Y-95460000D01*
X92250000Y-95460000D02*
X92250000Y-89160000D01*
X91000000Y-88500000D02*
X91000000Y-89160000D01*
X91000000Y-96120000D02*
X91000000Y-95460000D01*
X76160000Y-79500000D02*
X76160000Y-82000000D01*
X76160000Y-82000000D02*
X82460000Y-82000000D01*
X82460000Y-82000000D02*
X82460000Y-79500000D01*
X82460000Y-79500000D02*
X76160000Y-79500000D01*
X75500000Y-80750000D02*
X76160000Y-80750000D01*
X83120000Y-80750000D02*
X82460000Y-80750000D01*
X112840000Y-82000000D02*
X112840000Y-79500000D01*
X112840000Y-79500000D02*
X106540000Y-79500000D01*
X106540000Y-79500000D02*
X106540000Y-82000000D01*
X106540000Y-82000000D02*
X112840000Y-82000000D01*
X113500000Y-80750000D02*
X112840000Y-80750000D01*
X105880000Y-80750000D02*
X106540000Y-80750000D01*
X96160000Y-79750000D02*
X96160000Y-82250000D01*
X96160000Y-82250000D02*
X102460000Y-82250000D01*
X102460000Y-82250000D02*
X102460000Y-79750000D01*
X102460000Y-79750000D02*
X96160000Y-79750000D01*
X95500000Y-81000000D02*
X96160000Y-81000000D01*
X103120000Y-81000000D02*
X102460000Y-81000000D01*
X146350000Y-75000000D02*
X146350000Y-72500000D01*
X146350000Y-72500000D02*
X140050000Y-72500000D01*
X140050000Y-72500000D02*
X140050000Y-75000000D01*
X140050000Y-75000000D02*
X146350000Y-75000000D01*
X147010000Y-73750000D02*
X146350000Y-73750000D01*
X139390000Y-73750000D02*
X140050000Y-73750000D01*
X138730000Y-97860000D02*
X138730000Y-95360000D01*
X138730000Y-95360000D02*
X132430000Y-95360000D01*
X132430000Y-95360000D02*
X132430000Y-97860000D01*
X132430000Y-97860000D02*
X138730000Y-97860000D01*
X139390000Y-96610000D02*
X138730000Y-96610000D01*
X131770000Y-96610000D02*
X132430000Y-96610000D01*
X84020000Y-45885000D02*
X84020000Y-51235000D01*
X84020000Y-51235000D02*
X48460000Y-51235000D01*
X48460000Y-51235000D02*
X48460000Y-44885000D01*
X48460000Y-44885000D02*
X83020000Y-44885000D01*
X83020000Y-44885000D02*
X84020000Y-45885000D01*
X124615000Y-102270000D02*
X119265000Y-102270000D01*
X119265000Y-102270000D02*
X119265000Y-66710000D01*
X119265000Y-66710000D02*
X125615000Y-66710000D01*
X125615000Y-66710000D02*
X125615000Y-101270000D01*
X125615000Y-101270000D02*
X124615000Y-102270000D01*
X123660000Y-18430000D02*
X129340000Y-18430000D01*
X129340000Y-18430000D02*
X129340000Y-25070000D01*
X129340000Y-25070000D02*
X122660000Y-25070000D01*
X122660000Y-25070000D02*
X122660000Y-19430000D01*
X122660000Y-19430000D02*
X123660000Y-18430000D01*
X124190000Y-19845000D02*
X124190000Y-21115000D01*
X124190000Y-21115000D02*
X127810000Y-21115000D01*
X127810000Y-21115000D02*
X127810000Y-19845000D01*
X127810000Y-19845000D02*
X124190000Y-19845000D01*
X126000000Y-19845000D02*
X126000000Y-21115000D01*
X124190000Y-22385000D02*
X124190000Y-23655000D01*
X124190000Y-23655000D02*
X127810000Y-23655000D01*
X127810000Y-23655000D02*
X127810000Y-22385000D01*
X127810000Y-22385000D02*
X124190000Y-22385000D01*
X126000000Y-22385000D02*
X126000000Y-23655000D01*
X168500000Y-37690000D02*
X168500000Y-30070000D01*
X168500000Y-30070000D02*
X178660000Y-30070000D01*
X178660000Y-30070000D02*
X178660000Y-37690000D01*
X178660000Y-37690000D02*
X168500000Y-37690000D01*
X176120000Y-24990000D02*
X176120000Y-42770000D01*
X176120000Y-42770000D02*
X134210000Y-42770000D01*
X134210000Y-42770000D02*
X132940000Y-41500000D01*
X132940000Y-41500000D02*
X132940000Y-24990000D01*
X132940000Y-24990000D02*
X176120000Y-24990000D01*
X122500000Y-50560000D02*
X122500000Y-58180000D01*
X122500000Y-58180000D02*
X112340000Y-58180000D01*
X112340000Y-58180000D02*
X112340000Y-50560000D01*
X112340000Y-50560000D02*
X122500000Y-50560000D01*
X114880000Y-63260000D02*
X114880000Y-45480000D01*
X114880000Y-45480000D02*
X156790000Y-45480000D01*
X156790000Y-45480000D02*
X158060000Y-46750000D01*
X158060000Y-46750000D02*
X158060000Y-63260000D01*
X158060000Y-63260000D02*
X114880000Y-63260000D01*
D11*
X130412381Y-30622857D02*
X130412381Y-31099048D01*
X129412381Y-31099048D01*
X129888571Y-30289524D02*
X129888571Y-29956190D01*
X130412381Y-29813333D02*
X130412381Y-30289524D01*
X129412381Y-30289524D01*
X129412381Y-29813333D01*
X130412381Y-29384762D02*
X129412381Y-29384762D01*
X129412381Y-29146667D01*
X129460000Y-29003809D01*
X129555238Y-28908571D01*
X129650476Y-28860952D01*
X129840952Y-28813333D01*
X129983810Y-28813333D01*
X130174286Y-28860952D01*
X130269524Y-28908571D01*
X130364762Y-29003809D01*
X130412381Y-29146667D01*
X130412381Y-29384762D01*
D12*
X126361905Y-30590476D02*
X125561905Y-30590476D01*
X125561905Y-30400000D01*
X125600000Y-30285714D01*
X125676190Y-30209523D01*
X125752381Y-30171428D01*
X125904762Y-30133333D01*
X126019048Y-30133333D01*
X126171429Y-30171428D01*
X126247619Y-30209523D01*
X126323810Y-30285714D01*
X126361905Y-30400000D01*
X126361905Y-30590476D01*
X126361905Y-29371428D02*
X126361905Y-29828571D01*
X126361905Y-29600000D02*
X125561905Y-29600000D01*
X125676190Y-29676190D01*
X125752381Y-29752381D01*
X125790476Y-29828571D01*
D11*
X130412381Y-38872857D02*
X130412381Y-39349048D01*
X129412381Y-39349048D01*
X129888571Y-38539524D02*
X129888571Y-38206190D01*
X130412381Y-38063333D02*
X130412381Y-38539524D01*
X129412381Y-38539524D01*
X129412381Y-38063333D01*
X130412381Y-37634762D02*
X129412381Y-37634762D01*
X129412381Y-37396667D01*
X129460000Y-37253809D01*
X129555238Y-37158571D01*
X129650476Y-37110952D01*
X129840952Y-37063333D01*
X129983810Y-37063333D01*
X130174286Y-37110952D01*
X130269524Y-37158571D01*
X130364762Y-37253809D01*
X130412381Y-37396667D01*
X130412381Y-37634762D01*
D12*
X126361905Y-38840476D02*
X125561905Y-38840476D01*
X125561905Y-38650000D01*
X125600000Y-38535714D01*
X125676190Y-38459523D01*
X125752381Y-38421428D01*
X125904762Y-38383333D01*
X126019048Y-38383333D01*
X126171429Y-38421428D01*
X126247619Y-38459523D01*
X126323810Y-38535714D01*
X126361905Y-38650000D01*
X126361905Y-38840476D01*
X125638095Y-38078571D02*
X125600000Y-38040476D01*
X125561905Y-37964285D01*
X125561905Y-37773809D01*
X125600000Y-37697619D01*
X125638095Y-37659523D01*
X125714286Y-37621428D01*
X125790476Y-37621428D01*
X125904762Y-37659523D01*
X126361905Y-38116666D01*
X126361905Y-37621428D01*
D11*
X47201905Y-30737619D02*
X47249524Y-30690000D01*
X47344762Y-30642381D01*
X47582858Y-30642381D01*
X47678096Y-30690000D01*
X47725715Y-30737619D01*
X47773334Y-30832857D01*
X47773334Y-30928095D01*
X47725715Y-31070952D01*
X47154286Y-31642381D01*
X47773334Y-31642381D01*
X48154286Y-30737619D02*
X48201905Y-30690000D01*
X48297143Y-30642381D01*
X48535239Y-30642381D01*
X48630477Y-30690000D01*
X48678096Y-30737619D01*
X48725715Y-30832857D01*
X48725715Y-30928095D01*
X48678096Y-31070952D01*
X48106667Y-31642381D01*
X48725715Y-31642381D01*
X49344762Y-30642381D02*
X49440001Y-30642381D01*
X49535239Y-30690000D01*
X49582858Y-30737619D01*
X49630477Y-30832857D01*
X49678096Y-31023333D01*
X49678096Y-31261429D01*
X49630477Y-31451905D01*
X49582858Y-31547143D01*
X49535239Y-31594762D01*
X49440001Y-31642381D01*
X49344762Y-31642381D01*
X49249524Y-31594762D01*
X49201905Y-31547143D01*
X49154286Y-31451905D01*
X49106667Y-31261429D01*
X49106667Y-31023333D01*
X49154286Y-30832857D01*
X49201905Y-30737619D01*
X49249524Y-30690000D01*
X49344762Y-30642381D01*
X47583810Y-29012381D02*
X47012381Y-29012381D01*
X47298095Y-29012381D02*
X47298095Y-28012381D01*
X47202857Y-28155238D01*
X47107619Y-28250476D01*
X47012381Y-28298095D01*
X48202857Y-28012381D02*
X48298096Y-28012381D01*
X48393334Y-28060000D01*
X48440953Y-28107619D01*
X48488572Y-28202857D01*
X48536191Y-28393333D01*
X48536191Y-28631429D01*
X48488572Y-28821905D01*
X48440953Y-28917143D01*
X48393334Y-28964762D01*
X48298096Y-29012381D01*
X48202857Y-29012381D01*
X48107619Y-28964762D01*
X48060000Y-28917143D01*
X48012381Y-28821905D01*
X47964762Y-28631429D01*
X47964762Y-28393333D01*
X48012381Y-28202857D01*
X48060000Y-28107619D01*
X48107619Y-28060000D01*
X48202857Y-28012381D01*
X49726667Y-29012381D02*
X49726667Y-28012381D01*
X49821905Y-28631429D02*
X50107620Y-29012381D01*
X50107620Y-28345714D02*
X49726667Y-28726667D01*
X81821905Y-34107619D02*
X81869524Y-34060000D01*
X81964762Y-34012381D01*
X82202858Y-34012381D01*
X82298096Y-34060000D01*
X82345715Y-34107619D01*
X82393334Y-34202857D01*
X82393334Y-34298095D01*
X82345715Y-34440952D01*
X81774286Y-35012381D01*
X82393334Y-35012381D01*
X82774286Y-34107619D02*
X82821905Y-34060000D01*
X82917143Y-34012381D01*
X83155239Y-34012381D01*
X83250477Y-34060000D01*
X83298096Y-34107619D01*
X83345715Y-34202857D01*
X83345715Y-34298095D01*
X83298096Y-34440952D01*
X82726667Y-35012381D01*
X83345715Y-35012381D01*
X83964762Y-34012381D02*
X84060001Y-34012381D01*
X84155239Y-34060000D01*
X84202858Y-34107619D01*
X84250477Y-34202857D01*
X84298096Y-34393333D01*
X84298096Y-34631429D01*
X84250477Y-34821905D01*
X84202858Y-34917143D01*
X84155239Y-34964762D01*
X84060001Y-35012381D01*
X83964762Y-35012381D01*
X83869524Y-34964762D01*
X83821905Y-34917143D01*
X83774286Y-34821905D01*
X83726667Y-34631429D01*
X83726667Y-34393333D01*
X83774286Y-34202857D01*
X83821905Y-34107619D01*
X83869524Y-34060000D01*
X83964762Y-34012381D01*
X81583810Y-28762381D02*
X81012381Y-28762381D01*
X81298095Y-28762381D02*
X81298095Y-27762381D01*
X81202857Y-27905238D01*
X81107619Y-28000476D01*
X81012381Y-28048095D01*
X82202857Y-27762381D02*
X82298096Y-27762381D01*
X82393334Y-27810000D01*
X82440953Y-27857619D01*
X82488572Y-27952857D01*
X82536191Y-28143333D01*
X82536191Y-28381429D01*
X82488572Y-28571905D01*
X82440953Y-28667143D01*
X82393334Y-28714762D01*
X82298096Y-28762381D01*
X82202857Y-28762381D01*
X82107619Y-28714762D01*
X82060000Y-28667143D01*
X82012381Y-28571905D01*
X81964762Y-28381429D01*
X81964762Y-28143333D01*
X82012381Y-27952857D01*
X82060000Y-27857619D01*
X82107619Y-27810000D01*
X82202857Y-27762381D01*
X83726667Y-28762381D02*
X83726667Y-27762381D01*
X83821905Y-28381429D02*
X84107620Y-28762381D01*
X84107620Y-28095714D02*
X83726667Y-28476667D01*
X113357619Y-38928095D02*
X113310000Y-38880476D01*
X113262381Y-38785238D01*
X113262381Y-38547142D01*
X113310000Y-38451904D01*
X113357619Y-38404285D01*
X113452857Y-38356666D01*
X113548095Y-38356666D01*
X113690952Y-38404285D01*
X114262381Y-38975714D01*
X114262381Y-38356666D01*
X113357619Y-37975714D02*
X113310000Y-37928095D01*
X113262381Y-37832857D01*
X113262381Y-37594761D01*
X113310000Y-37499523D01*
X113357619Y-37451904D01*
X113452857Y-37404285D01*
X113548095Y-37404285D01*
X113690952Y-37451904D01*
X114262381Y-38023333D01*
X114262381Y-37404285D01*
X113262381Y-36785238D02*
X113262381Y-36689999D01*
X113310000Y-36594761D01*
X113357619Y-36547142D01*
X113452857Y-36499523D01*
X113643333Y-36451904D01*
X113881429Y-36451904D01*
X114071905Y-36499523D01*
X114167143Y-36547142D01*
X114214762Y-36594761D01*
X114262381Y-36689999D01*
X114262381Y-36785238D01*
X114214762Y-36880476D01*
X114167143Y-36928095D01*
X114071905Y-36975714D01*
X113881429Y-37023333D01*
X113643333Y-37023333D01*
X113452857Y-36975714D01*
X113357619Y-36928095D01*
X113310000Y-36880476D01*
X113262381Y-36785238D01*
X114012381Y-27916190D02*
X114012381Y-28487619D01*
X114012381Y-28201905D02*
X113012381Y-28201905D01*
X113155238Y-28297143D01*
X113250476Y-28392381D01*
X113298095Y-28487619D01*
X113012381Y-27297143D02*
X113012381Y-27201904D01*
X113060000Y-27106666D01*
X113107619Y-27059047D01*
X113202857Y-27011428D01*
X113393333Y-26963809D01*
X113631429Y-26963809D01*
X113821905Y-27011428D01*
X113917143Y-27059047D01*
X113964762Y-27106666D01*
X114012381Y-27201904D01*
X114012381Y-27297143D01*
X113964762Y-27392381D01*
X113917143Y-27440000D01*
X113821905Y-27487619D01*
X113631429Y-27535238D01*
X113393333Y-27535238D01*
X113202857Y-27487619D01*
X113107619Y-27440000D01*
X113060000Y-27392381D01*
X113012381Y-27297143D01*
X114012381Y-25773333D02*
X113012381Y-25773333D01*
X113631429Y-25678095D02*
X114012381Y-25392380D01*
X113345714Y-25392380D02*
X113726667Y-25773333D01*
X114487619Y-25798095D02*
X114440000Y-25750476D01*
X114392381Y-25655238D01*
X114392381Y-25417142D01*
X114440000Y-25321904D01*
X114487619Y-25274285D01*
X114582857Y-25226666D01*
X114678095Y-25226666D01*
X114820952Y-25274285D01*
X115392381Y-25845714D01*
X115392381Y-25226666D01*
X114487619Y-24845714D02*
X114440000Y-24798095D01*
X114392381Y-24702857D01*
X114392381Y-24464761D01*
X114440000Y-24369523D01*
X114487619Y-24321904D01*
X114582857Y-24274285D01*
X114678095Y-24274285D01*
X114820952Y-24321904D01*
X115392381Y-24893333D01*
X115392381Y-24274285D01*
X114392381Y-23655238D02*
X114392381Y-23559999D01*
X114440000Y-23464761D01*
X114487619Y-23417142D01*
X114582857Y-23369523D01*
X114773333Y-23321904D01*
X115011429Y-23321904D01*
X115201905Y-23369523D01*
X115297143Y-23417142D01*
X115344762Y-23464761D01*
X115392381Y-23559999D01*
X115392381Y-23655238D01*
X115344762Y-23750476D01*
X115297143Y-23798095D01*
X115201905Y-23845714D01*
X115011429Y-23893333D01*
X114773333Y-23893333D01*
X114582857Y-23845714D01*
X114487619Y-23798095D01*
X114440000Y-23750476D01*
X114392381Y-23655238D01*
X119607619Y-37678095D02*
X119560000Y-37630476D01*
X119512381Y-37535238D01*
X119512381Y-37297142D01*
X119560000Y-37201904D01*
X119607619Y-37154285D01*
X119702857Y-37106666D01*
X119798095Y-37106666D01*
X119940952Y-37154285D01*
X120512381Y-37725714D01*
X120512381Y-37106666D01*
X119607619Y-36725714D02*
X119560000Y-36678095D01*
X119512381Y-36582857D01*
X119512381Y-36344761D01*
X119560000Y-36249523D01*
X119607619Y-36201904D01*
X119702857Y-36154285D01*
X119798095Y-36154285D01*
X119940952Y-36201904D01*
X120512381Y-36773333D01*
X120512381Y-36154285D01*
X119512381Y-35535238D02*
X119512381Y-35439999D01*
X119560000Y-35344761D01*
X119607619Y-35297142D01*
X119702857Y-35249523D01*
X119893333Y-35201904D01*
X120131429Y-35201904D01*
X120321905Y-35249523D01*
X120417143Y-35297142D01*
X120464762Y-35344761D01*
X120512381Y-35439999D01*
X120512381Y-35535238D01*
X120464762Y-35630476D01*
X120417143Y-35678095D01*
X120321905Y-35725714D01*
X120131429Y-35773333D01*
X119893333Y-35773333D01*
X119702857Y-35725714D01*
X119607619Y-35678095D01*
X119560000Y-35630476D01*
X119512381Y-35535238D01*
X137583810Y-23762381D02*
X137012381Y-23762381D01*
X137298095Y-23762381D02*
X137298095Y-22762381D01*
X137202857Y-22905238D01*
X137107619Y-23000476D01*
X137012381Y-23048095D01*
X138202857Y-22762381D02*
X138298096Y-22762381D01*
X138393334Y-22810000D01*
X138440953Y-22857619D01*
X138488572Y-22952857D01*
X138536191Y-23143333D01*
X138536191Y-23381429D01*
X138488572Y-23571905D01*
X138440953Y-23667143D01*
X138393334Y-23714762D01*
X138298096Y-23762381D01*
X138202857Y-23762381D01*
X138107619Y-23714762D01*
X138060000Y-23667143D01*
X138012381Y-23571905D01*
X137964762Y-23381429D01*
X137964762Y-23143333D01*
X138012381Y-22952857D01*
X138060000Y-22857619D01*
X138107619Y-22810000D01*
X138202857Y-22762381D01*
X139726667Y-23762381D02*
X139726667Y-22762381D01*
X139821905Y-23381429D02*
X140107620Y-23762381D01*
X140107620Y-23095714D02*
X139726667Y-23476667D01*
X26701905Y-52487619D02*
X26749524Y-52440000D01*
X26844762Y-52392381D01*
X27082858Y-52392381D01*
X27178096Y-52440000D01*
X27225715Y-52487619D01*
X27273334Y-52582857D01*
X27273334Y-52678095D01*
X27225715Y-52820952D01*
X26654286Y-53392381D01*
X27273334Y-53392381D01*
X27654286Y-52487619D02*
X27701905Y-52440000D01*
X27797143Y-52392381D01*
X28035239Y-52392381D01*
X28130477Y-52440000D01*
X28178096Y-52487619D01*
X28225715Y-52582857D01*
X28225715Y-52678095D01*
X28178096Y-52820952D01*
X27606667Y-53392381D01*
X28225715Y-53392381D01*
X28844762Y-52392381D02*
X28940001Y-52392381D01*
X29035239Y-52440000D01*
X29082858Y-52487619D01*
X29130477Y-52582857D01*
X29178096Y-52773333D01*
X29178096Y-53011429D01*
X29130477Y-53201905D01*
X29082858Y-53297143D01*
X29035239Y-53344762D01*
X28940001Y-53392381D01*
X28844762Y-53392381D01*
X28749524Y-53344762D01*
X28701905Y-53297143D01*
X28654286Y-53201905D01*
X28606667Y-53011429D01*
X28606667Y-52773333D01*
X28654286Y-52582857D01*
X28701905Y-52487619D01*
X28749524Y-52440000D01*
X28844762Y-52392381D01*
X38392381Y-69286190D02*
X38392381Y-69857619D01*
X38392381Y-69571905D02*
X37392381Y-69571905D01*
X37535238Y-69667143D01*
X37630476Y-69762381D01*
X37678095Y-69857619D01*
X37392381Y-68667143D02*
X37392381Y-68571904D01*
X37440000Y-68476666D01*
X37487619Y-68429047D01*
X37582857Y-68381428D01*
X37773333Y-68333809D01*
X38011429Y-68333809D01*
X38201905Y-68381428D01*
X38297143Y-68429047D01*
X38344762Y-68476666D01*
X38392381Y-68571904D01*
X38392381Y-68667143D01*
X38344762Y-68762381D01*
X38297143Y-68810000D01*
X38201905Y-68857619D01*
X38011429Y-68905238D01*
X37773333Y-68905238D01*
X37582857Y-68857619D01*
X37487619Y-68810000D01*
X37440000Y-68762381D01*
X37392381Y-68667143D01*
X38392381Y-67143333D02*
X37392381Y-67143333D01*
X38011429Y-67048095D02*
X38392381Y-66762380D01*
X37725714Y-66762380D02*
X38106667Y-67143333D01*
X44201905Y-53987619D02*
X44249524Y-53940000D01*
X44344762Y-53892381D01*
X44582858Y-53892381D01*
X44678096Y-53940000D01*
X44725715Y-53987619D01*
X44773334Y-54082857D01*
X44773334Y-54178095D01*
X44725715Y-54320952D01*
X44154286Y-54892381D01*
X44773334Y-54892381D01*
X45154286Y-53987619D02*
X45201905Y-53940000D01*
X45297143Y-53892381D01*
X45535239Y-53892381D01*
X45630477Y-53940000D01*
X45678096Y-53987619D01*
X45725715Y-54082857D01*
X45725715Y-54178095D01*
X45678096Y-54320952D01*
X45106667Y-54892381D01*
X45725715Y-54892381D01*
X46344762Y-53892381D02*
X46440001Y-53892381D01*
X46535239Y-53940000D01*
X46582858Y-53987619D01*
X46630477Y-54082857D01*
X46678096Y-54273333D01*
X46678096Y-54511429D01*
X46630477Y-54701905D01*
X46582858Y-54797143D01*
X46535239Y-54844762D01*
X46440001Y-54892381D01*
X46344762Y-54892381D01*
X46249524Y-54844762D01*
X46201905Y-54797143D01*
X46154286Y-54701905D01*
X46106667Y-54511429D01*
X46106667Y-54273333D01*
X46154286Y-54082857D01*
X46201905Y-53987619D01*
X46249524Y-53940000D01*
X46344762Y-53892381D01*
X68262381Y-68416190D02*
X68262381Y-68987619D01*
X68262381Y-68701905D02*
X67262381Y-68701905D01*
X67405238Y-68797143D01*
X67500476Y-68892381D01*
X67548095Y-68987619D01*
X67262381Y-67797143D02*
X67262381Y-67701904D01*
X67310000Y-67606666D01*
X67357619Y-67559047D01*
X67452857Y-67511428D01*
X67643333Y-67463809D01*
X67881429Y-67463809D01*
X68071905Y-67511428D01*
X68167143Y-67559047D01*
X68214762Y-67606666D01*
X68262381Y-67701904D01*
X68262381Y-67797143D01*
X68214762Y-67892381D01*
X68167143Y-67940000D01*
X68071905Y-67987619D01*
X67881429Y-68035238D01*
X67643333Y-68035238D01*
X67452857Y-67987619D01*
X67357619Y-67940000D01*
X67310000Y-67892381D01*
X67262381Y-67797143D01*
X68262381Y-66273333D02*
X67262381Y-66273333D01*
X67881429Y-66178095D02*
X68262381Y-65892380D01*
X67595714Y-65892380D02*
X67976667Y-66273333D01*
X77571905Y-58607619D02*
X77619524Y-58560000D01*
X77714762Y-58512381D01*
X77952858Y-58512381D01*
X78048096Y-58560000D01*
X78095715Y-58607619D01*
X78143334Y-58702857D01*
X78143334Y-58798095D01*
X78095715Y-58940952D01*
X77524286Y-59512381D01*
X78143334Y-59512381D01*
X78524286Y-58607619D02*
X78571905Y-58560000D01*
X78667143Y-58512381D01*
X78905239Y-58512381D01*
X79000477Y-58560000D01*
X79048096Y-58607619D01*
X79095715Y-58702857D01*
X79095715Y-58798095D01*
X79048096Y-58940952D01*
X78476667Y-59512381D01*
X79095715Y-59512381D01*
X79714762Y-58512381D02*
X79810001Y-58512381D01*
X79905239Y-58560000D01*
X79952858Y-58607619D01*
X80000477Y-58702857D01*
X80048096Y-58893333D01*
X80048096Y-59131429D01*
X80000477Y-59321905D01*
X79952858Y-59417143D01*
X79905239Y-59464762D01*
X79810001Y-59512381D01*
X79714762Y-59512381D01*
X79619524Y-59464762D01*
X79571905Y-59417143D01*
X79524286Y-59321905D01*
X79476667Y-59131429D01*
X79476667Y-58893333D01*
X79524286Y-58702857D01*
X79571905Y-58607619D01*
X79619524Y-58560000D01*
X79714762Y-58512381D01*
X89142381Y-69286190D02*
X89142381Y-69857619D01*
X89142381Y-69571905D02*
X88142381Y-69571905D01*
X88285238Y-69667143D01*
X88380476Y-69762381D01*
X88428095Y-69857619D01*
X88142381Y-68667143D02*
X88142381Y-68571904D01*
X88190000Y-68476666D01*
X88237619Y-68429047D01*
X88332857Y-68381428D01*
X88523333Y-68333809D01*
X88761429Y-68333809D01*
X88951905Y-68381428D01*
X89047143Y-68429047D01*
X89094762Y-68476666D01*
X89142381Y-68571904D01*
X89142381Y-68667143D01*
X89094762Y-68762381D01*
X89047143Y-68810000D01*
X88951905Y-68857619D01*
X88761429Y-68905238D01*
X88523333Y-68905238D01*
X88332857Y-68857619D01*
X88237619Y-68810000D01*
X88190000Y-68762381D01*
X88142381Y-68667143D01*
X89142381Y-67143333D02*
X88142381Y-67143333D01*
X88761429Y-67048095D02*
X89142381Y-66762380D01*
X88475714Y-66762380D02*
X88856667Y-67143333D01*
X90737619Y-55798095D02*
X90690000Y-55750476D01*
X90642381Y-55655238D01*
X90642381Y-55417142D01*
X90690000Y-55321904D01*
X90737619Y-55274285D01*
X90832857Y-55226666D01*
X90928095Y-55226666D01*
X91070952Y-55274285D01*
X91642381Y-55845714D01*
X91642381Y-55226666D01*
X90737619Y-54845714D02*
X90690000Y-54798095D01*
X90642381Y-54702857D01*
X90642381Y-54464761D01*
X90690000Y-54369523D01*
X90737619Y-54321904D01*
X90832857Y-54274285D01*
X90928095Y-54274285D01*
X91070952Y-54321904D01*
X91642381Y-54893333D01*
X91642381Y-54274285D01*
X90642381Y-53655238D02*
X90642381Y-53559999D01*
X90690000Y-53464761D01*
X90737619Y-53417142D01*
X90832857Y-53369523D01*
X91023333Y-53321904D01*
X91261429Y-53321904D01*
X91451905Y-53369523D01*
X91547143Y-53417142D01*
X91594762Y-53464761D01*
X91642381Y-53559999D01*
X91642381Y-53655238D01*
X91594762Y-53750476D01*
X91547143Y-53798095D01*
X91451905Y-53845714D01*
X91261429Y-53893333D01*
X91023333Y-53893333D01*
X90832857Y-53845714D01*
X90737619Y-53798095D01*
X90690000Y-53750476D01*
X90642381Y-53655238D01*
X102262381Y-55416190D02*
X102262381Y-55987619D01*
X102262381Y-55701905D02*
X101262381Y-55701905D01*
X101405238Y-55797143D01*
X101500476Y-55892381D01*
X101548095Y-55987619D01*
X101262381Y-54797143D02*
X101262381Y-54701904D01*
X101310000Y-54606666D01*
X101357619Y-54559047D01*
X101452857Y-54511428D01*
X101643333Y-54463809D01*
X101881429Y-54463809D01*
X102071905Y-54511428D01*
X102167143Y-54559047D01*
X102214762Y-54606666D01*
X102262381Y-54701904D01*
X102262381Y-54797143D01*
X102214762Y-54892381D01*
X102167143Y-54940000D01*
X102071905Y-54987619D01*
X101881429Y-55035238D01*
X101643333Y-55035238D01*
X101452857Y-54987619D01*
X101357619Y-54940000D01*
X101310000Y-54892381D01*
X101262381Y-54797143D01*
X102262381Y-53273333D02*
X101262381Y-53273333D01*
X101881429Y-53178095D02*
X102262381Y-52892380D01*
X101595714Y-52892380D02*
X101976667Y-53273333D01*
X37237619Y-92798095D02*
X37190000Y-92750476D01*
X37142381Y-92655238D01*
X37142381Y-92417142D01*
X37190000Y-92321904D01*
X37237619Y-92274285D01*
X37332857Y-92226666D01*
X37428095Y-92226666D01*
X37570952Y-92274285D01*
X38142381Y-92845714D01*
X38142381Y-92226666D01*
X37237619Y-91845714D02*
X37190000Y-91798095D01*
X37142381Y-91702857D01*
X37142381Y-91464761D01*
X37190000Y-91369523D01*
X37237619Y-91321904D01*
X37332857Y-91274285D01*
X37428095Y-91274285D01*
X37570952Y-91321904D01*
X38142381Y-91893333D01*
X38142381Y-91274285D01*
X37142381Y-90655238D02*
X37142381Y-90559999D01*
X37190000Y-90464761D01*
X37237619Y-90417142D01*
X37332857Y-90369523D01*
X37523333Y-90321904D01*
X37761429Y-90321904D01*
X37951905Y-90369523D01*
X38047143Y-90417142D01*
X38094762Y-90464761D01*
X38142381Y-90559999D01*
X38142381Y-90655238D01*
X38094762Y-90750476D01*
X38047143Y-90798095D01*
X37951905Y-90845714D01*
X37761429Y-90893333D01*
X37523333Y-90893333D01*
X37332857Y-90845714D01*
X37237619Y-90798095D01*
X37190000Y-90750476D01*
X37142381Y-90655238D01*
X26963810Y-78892381D02*
X26392381Y-78892381D01*
X26678095Y-78892381D02*
X26678095Y-77892381D01*
X26582857Y-78035238D01*
X26487619Y-78130476D01*
X26392381Y-78178095D01*
X27582857Y-77892381D02*
X27678096Y-77892381D01*
X27773334Y-77940000D01*
X27820953Y-77987619D01*
X27868572Y-78082857D01*
X27916191Y-78273333D01*
X27916191Y-78511429D01*
X27868572Y-78701905D01*
X27820953Y-78797143D01*
X27773334Y-78844762D01*
X27678096Y-78892381D01*
X27582857Y-78892381D01*
X27487619Y-78844762D01*
X27440000Y-78797143D01*
X27392381Y-78701905D01*
X27344762Y-78511429D01*
X27344762Y-78273333D01*
X27392381Y-78082857D01*
X27440000Y-77987619D01*
X27487619Y-77940000D01*
X27582857Y-77892381D01*
X29106667Y-78892381D02*
X29106667Y-77892381D01*
X29201905Y-78511429D02*
X29487620Y-78892381D01*
X29487620Y-78225714D02*
X29106667Y-78606667D01*
X62487619Y-93548095D02*
X62440000Y-93500476D01*
X62392381Y-93405238D01*
X62392381Y-93167142D01*
X62440000Y-93071904D01*
X62487619Y-93024285D01*
X62582857Y-92976666D01*
X62678095Y-92976666D01*
X62820952Y-93024285D01*
X63392381Y-93595714D01*
X63392381Y-92976666D01*
X62487619Y-92595714D02*
X62440000Y-92548095D01*
X62392381Y-92452857D01*
X62392381Y-92214761D01*
X62440000Y-92119523D01*
X62487619Y-92071904D01*
X62582857Y-92024285D01*
X62678095Y-92024285D01*
X62820952Y-92071904D01*
X63392381Y-92643333D01*
X63392381Y-92024285D01*
X62392381Y-91405238D02*
X62392381Y-91309999D01*
X62440000Y-91214761D01*
X62487619Y-91167142D01*
X62582857Y-91119523D01*
X62773333Y-91071904D01*
X63011429Y-91071904D01*
X63201905Y-91119523D01*
X63297143Y-91167142D01*
X63344762Y-91214761D01*
X63392381Y-91309999D01*
X63392381Y-91405238D01*
X63344762Y-91500476D01*
X63297143Y-91548095D01*
X63201905Y-91595714D01*
X63011429Y-91643333D01*
X62773333Y-91643333D01*
X62582857Y-91595714D01*
X62487619Y-91548095D01*
X62440000Y-91500476D01*
X62392381Y-91405238D01*
X49583810Y-84012381D02*
X49012381Y-84012381D01*
X49298095Y-84012381D02*
X49298095Y-83012381D01*
X49202857Y-83155238D01*
X49107619Y-83250476D01*
X49012381Y-83298095D01*
X50202857Y-83012381D02*
X50298096Y-83012381D01*
X50393334Y-83060000D01*
X50440953Y-83107619D01*
X50488572Y-83202857D01*
X50536191Y-83393333D01*
X50536191Y-83631429D01*
X50488572Y-83821905D01*
X50440953Y-83917143D01*
X50393334Y-83964762D01*
X50298096Y-84012381D01*
X50202857Y-84012381D01*
X50107619Y-83964762D01*
X50060000Y-83917143D01*
X50012381Y-83821905D01*
X49964762Y-83631429D01*
X49964762Y-83393333D01*
X50012381Y-83202857D01*
X50060000Y-83107619D01*
X50107619Y-83060000D01*
X50202857Y-83012381D01*
X51726667Y-84012381D02*
X51726667Y-83012381D01*
X51821905Y-83631429D02*
X52107620Y-84012381D01*
X52107620Y-83345714D02*
X51726667Y-83726667D01*
X88237619Y-93548095D02*
X88190000Y-93500476D01*
X88142381Y-93405238D01*
X88142381Y-93167142D01*
X88190000Y-93071904D01*
X88237619Y-93024285D01*
X88332857Y-92976666D01*
X88428095Y-92976666D01*
X88570952Y-93024285D01*
X89142381Y-93595714D01*
X89142381Y-92976666D01*
X88237619Y-92595714D02*
X88190000Y-92548095D01*
X88142381Y-92452857D01*
X88142381Y-92214761D01*
X88190000Y-92119523D01*
X88237619Y-92071904D01*
X88332857Y-92024285D01*
X88428095Y-92024285D01*
X88570952Y-92071904D01*
X89142381Y-92643333D01*
X89142381Y-92024285D01*
X88142381Y-91405238D02*
X88142381Y-91309999D01*
X88190000Y-91214761D01*
X88237619Y-91167142D01*
X88332857Y-91119523D01*
X88523333Y-91071904D01*
X88761429Y-91071904D01*
X88951905Y-91119523D01*
X89047143Y-91167142D01*
X89094762Y-91214761D01*
X89142381Y-91309999D01*
X89142381Y-91405238D01*
X89094762Y-91500476D01*
X89047143Y-91548095D01*
X88951905Y-91595714D01*
X88761429Y-91643333D01*
X88523333Y-91643333D01*
X88332857Y-91595714D01*
X88237619Y-91548095D01*
X88190000Y-91500476D01*
X88142381Y-91405238D01*
X78333810Y-83512381D02*
X77762381Y-83512381D01*
X78048095Y-83512381D02*
X78048095Y-82512381D01*
X77952857Y-82655238D01*
X77857619Y-82750476D01*
X77762381Y-82798095D01*
X78952857Y-82512381D02*
X79048096Y-82512381D01*
X79143334Y-82560000D01*
X79190953Y-82607619D01*
X79238572Y-82702857D01*
X79286191Y-82893333D01*
X79286191Y-83131429D01*
X79238572Y-83321905D01*
X79190953Y-83417143D01*
X79143334Y-83464762D01*
X79048096Y-83512381D01*
X78952857Y-83512381D01*
X78857619Y-83464762D01*
X78810000Y-83417143D01*
X78762381Y-83321905D01*
X78714762Y-83131429D01*
X78714762Y-82893333D01*
X78762381Y-82702857D01*
X78810000Y-82607619D01*
X78857619Y-82560000D01*
X78952857Y-82512381D01*
X80476667Y-83512381D02*
X80476667Y-82512381D01*
X80571905Y-83131429D02*
X80857620Y-83512381D01*
X80857620Y-82845714D02*
X80476667Y-83226667D01*
X108451905Y-77987619D02*
X108499524Y-77940000D01*
X108594762Y-77892381D01*
X108832858Y-77892381D01*
X108928096Y-77940000D01*
X108975715Y-77987619D01*
X109023334Y-78082857D01*
X109023334Y-78178095D01*
X108975715Y-78320952D01*
X108404286Y-78892381D01*
X109023334Y-78892381D01*
X109404286Y-77987619D02*
X109451905Y-77940000D01*
X109547143Y-77892381D01*
X109785239Y-77892381D01*
X109880477Y-77940000D01*
X109928096Y-77987619D01*
X109975715Y-78082857D01*
X109975715Y-78178095D01*
X109928096Y-78320952D01*
X109356667Y-78892381D01*
X109975715Y-78892381D01*
X110594762Y-77892381D02*
X110690001Y-77892381D01*
X110785239Y-77940000D01*
X110832858Y-77987619D01*
X110880477Y-78082857D01*
X110928096Y-78273333D01*
X110928096Y-78511429D01*
X110880477Y-78701905D01*
X110832858Y-78797143D01*
X110785239Y-78844762D01*
X110690001Y-78892381D01*
X110594762Y-78892381D01*
X110499524Y-78844762D01*
X110451905Y-78797143D01*
X110404286Y-78701905D01*
X110356667Y-78511429D01*
X110356667Y-78273333D01*
X110404286Y-78082857D01*
X110451905Y-77987619D01*
X110499524Y-77940000D01*
X110594762Y-77892381D01*
X98333810Y-83762381D02*
X97762381Y-83762381D01*
X98048095Y-83762381D02*
X98048095Y-82762381D01*
X97952857Y-82905238D01*
X97857619Y-83000476D01*
X97762381Y-83048095D01*
X98952857Y-82762381D02*
X99048096Y-82762381D01*
X99143334Y-82810000D01*
X99190953Y-82857619D01*
X99238572Y-82952857D01*
X99286191Y-83143333D01*
X99286191Y-83381429D01*
X99238572Y-83571905D01*
X99190953Y-83667143D01*
X99143334Y-83714762D01*
X99048096Y-83762381D01*
X98952857Y-83762381D01*
X98857619Y-83714762D01*
X98810000Y-83667143D01*
X98762381Y-83571905D01*
X98714762Y-83381429D01*
X98714762Y-83143333D01*
X98762381Y-82952857D01*
X98810000Y-82857619D01*
X98857619Y-82810000D01*
X98952857Y-82762381D01*
X100476667Y-83762381D02*
X100476667Y-82762381D01*
X100571905Y-83381429D02*
X100857620Y-83762381D01*
X100857620Y-83095714D02*
X100476667Y-83476667D01*
X142223810Y-71892381D02*
X141652381Y-71892381D01*
X141938095Y-71892381D02*
X141938095Y-70892381D01*
X141842857Y-71035238D01*
X141747619Y-71130476D01*
X141652381Y-71178095D01*
X142842857Y-70892381D02*
X142938096Y-70892381D01*
X143033334Y-70940000D01*
X143080953Y-70987619D01*
X143128572Y-71082857D01*
X143176191Y-71273333D01*
X143176191Y-71511429D01*
X143128572Y-71701905D01*
X143080953Y-71797143D01*
X143033334Y-71844762D01*
X142938096Y-71892381D01*
X142842857Y-71892381D01*
X142747619Y-71844762D01*
X142700000Y-71797143D01*
X142652381Y-71701905D01*
X142604762Y-71511429D01*
X142604762Y-71273333D01*
X142652381Y-71082857D01*
X142700000Y-70987619D01*
X142747619Y-70940000D01*
X142842857Y-70892381D01*
X144366667Y-71892381D02*
X144366667Y-70892381D01*
X144461905Y-71511429D02*
X144747620Y-71892381D01*
X144747620Y-71225714D02*
X144366667Y-71606667D01*
X134341905Y-93847619D02*
X134389524Y-93800000D01*
X134484762Y-93752381D01*
X134722858Y-93752381D01*
X134818096Y-93800000D01*
X134865715Y-93847619D01*
X134913334Y-93942857D01*
X134913334Y-94038095D01*
X134865715Y-94180952D01*
X134294286Y-94752381D01*
X134913334Y-94752381D01*
X135294286Y-93847619D02*
X135341905Y-93800000D01*
X135437143Y-93752381D01*
X135675239Y-93752381D01*
X135770477Y-93800000D01*
X135818096Y-93847619D01*
X135865715Y-93942857D01*
X135865715Y-94038095D01*
X135818096Y-94180952D01*
X135246667Y-94752381D01*
X135865715Y-94752381D01*
X136484762Y-93752381D02*
X136580001Y-93752381D01*
X136675239Y-93800000D01*
X136722858Y-93847619D01*
X136770477Y-93942857D01*
X136818096Y-94133333D01*
X136818096Y-94371429D01*
X136770477Y-94561905D01*
X136722858Y-94657143D01*
X136675239Y-94704762D01*
X136580001Y-94752381D01*
X136484762Y-94752381D01*
X136389524Y-94704762D01*
X136341905Y-94657143D01*
X136294286Y-94561905D01*
X136246667Y-94371429D01*
X136246667Y-94133333D01*
X136294286Y-93942857D01*
X136341905Y-93847619D01*
X136389524Y-93800000D01*
X136484762Y-93752381D01*
X47852381Y-51774286D02*
X46852381Y-51774286D01*
X47566667Y-51440952D01*
X46852381Y-51107619D01*
X47852381Y-51107619D01*
X47757143Y-50060000D02*
X47804762Y-50107619D01*
X47852381Y-50250476D01*
X47852381Y-50345714D01*
X47804762Y-50488572D01*
X47709524Y-50583810D01*
X47614286Y-50631429D01*
X47423810Y-50679048D01*
X47280952Y-50679048D01*
X47090476Y-50631429D01*
X46995238Y-50583810D01*
X46900000Y-50488572D01*
X46852381Y-50345714D01*
X46852381Y-50250476D01*
X46900000Y-50107619D01*
X46947619Y-50060000D01*
X47852381Y-49631429D02*
X46852381Y-49631429D01*
X46852381Y-49250476D01*
X46900000Y-49155238D01*
X46947619Y-49107619D01*
X47042857Y-49060000D01*
X47185714Y-49060000D01*
X47280952Y-49107619D01*
X47328571Y-49155238D01*
X47376190Y-49250476D01*
X47376190Y-49631429D01*
X46947619Y-48679048D02*
X46900000Y-48631429D01*
X46852381Y-48536191D01*
X46852381Y-48298095D01*
X46900000Y-48202857D01*
X46947619Y-48155238D01*
X47042857Y-48107619D01*
X47138095Y-48107619D01*
X47280952Y-48155238D01*
X47852381Y-48726667D01*
X47852381Y-48107619D01*
X46852381Y-47774286D02*
X46852381Y-47155238D01*
X47233333Y-47488572D01*
X47233333Y-47345714D01*
X47280952Y-47250476D01*
X47328571Y-47202857D01*
X47423810Y-47155238D01*
X47661905Y-47155238D01*
X47757143Y-47202857D01*
X47804762Y-47250476D01*
X47852381Y-47345714D01*
X47852381Y-47631429D01*
X47804762Y-47726667D01*
X47757143Y-47774286D01*
X46852381Y-46536191D02*
X46852381Y-46440952D01*
X46900000Y-46345714D01*
X46947619Y-46298095D01*
X47042857Y-46250476D01*
X47233333Y-46202857D01*
X47471429Y-46202857D01*
X47661905Y-46250476D01*
X47757143Y-46298095D01*
X47804762Y-46345714D01*
X47852381Y-46440952D01*
X47852381Y-46536191D01*
X47804762Y-46631429D01*
X47757143Y-46679048D01*
X47661905Y-46726667D01*
X47471429Y-46774286D01*
X47233333Y-46774286D01*
X47042857Y-46726667D01*
X46947619Y-46679048D01*
X46900000Y-46631429D01*
X46852381Y-46536191D01*
X47852381Y-45250476D02*
X47852381Y-45821905D01*
X47852381Y-45536191D02*
X46852381Y-45536191D01*
X46995238Y-45631429D01*
X47090476Y-45726667D01*
X47138095Y-45821905D01*
X46852381Y-44917143D02*
X46852381Y-44250476D01*
X47852381Y-44679048D01*
X65692381Y-48821905D02*
X66501905Y-48821905D01*
X66597143Y-48774286D01*
X66644762Y-48726667D01*
X66692381Y-48631429D01*
X66692381Y-48440952D01*
X66644762Y-48345714D01*
X66597143Y-48298095D01*
X66501905Y-48250476D01*
X65692381Y-48250476D01*
X66692381Y-47250476D02*
X66692381Y-47821905D01*
X66692381Y-47536191D02*
X65692381Y-47536191D01*
X65835238Y-47631429D01*
X65930476Y-47726667D01*
X65978095Y-47821905D01*
X118725714Y-66102381D02*
X118725714Y-65102381D01*
X119059048Y-65816667D01*
X119392381Y-65102381D01*
X119392381Y-66102381D01*
X120440000Y-66007143D02*
X120392381Y-66054762D01*
X120249524Y-66102381D01*
X120154286Y-66102381D01*
X120011428Y-66054762D01*
X119916190Y-65959524D01*
X119868571Y-65864286D01*
X119820952Y-65673810D01*
X119820952Y-65530952D01*
X119868571Y-65340476D01*
X119916190Y-65245238D01*
X120011428Y-65150000D01*
X120154286Y-65102381D01*
X120249524Y-65102381D01*
X120392381Y-65150000D01*
X120440000Y-65197619D01*
X120868571Y-66102381D02*
X120868571Y-65102381D01*
X121249524Y-65102381D01*
X121344762Y-65150000D01*
X121392381Y-65197619D01*
X121440000Y-65292857D01*
X121440000Y-65435714D01*
X121392381Y-65530952D01*
X121344762Y-65578571D01*
X121249524Y-65626190D01*
X120868571Y-65626190D01*
X121820952Y-65197619D02*
X121868571Y-65150000D01*
X121963809Y-65102381D01*
X122201905Y-65102381D01*
X122297143Y-65150000D01*
X122344762Y-65197619D01*
X122392381Y-65292857D01*
X122392381Y-65388095D01*
X122344762Y-65530952D01*
X121773333Y-66102381D01*
X122392381Y-66102381D01*
X122725714Y-65102381D02*
X123344762Y-65102381D01*
X123011428Y-65483333D01*
X123154286Y-65483333D01*
X123249524Y-65530952D01*
X123297143Y-65578571D01*
X123344762Y-65673810D01*
X123344762Y-65911905D01*
X123297143Y-66007143D01*
X123249524Y-66054762D01*
X123154286Y-66102381D01*
X122868571Y-66102381D01*
X122773333Y-66054762D01*
X122725714Y-66007143D01*
X123963809Y-65102381D02*
X124059048Y-65102381D01*
X124154286Y-65150000D01*
X124201905Y-65197619D01*
X124249524Y-65292857D01*
X124297143Y-65483333D01*
X124297143Y-65721429D01*
X124249524Y-65911905D01*
X124201905Y-66007143D01*
X124154286Y-66054762D01*
X124059048Y-66102381D01*
X123963809Y-66102381D01*
X123868571Y-66054762D01*
X123820952Y-66007143D01*
X123773333Y-65911905D01*
X123725714Y-65721429D01*
X123725714Y-65483333D01*
X123773333Y-65292857D01*
X123820952Y-65197619D01*
X123868571Y-65150000D01*
X123963809Y-65102381D01*
X125249524Y-66102381D02*
X124678095Y-66102381D01*
X124963809Y-66102381D02*
X124963809Y-65102381D01*
X124868571Y-65245238D01*
X124773333Y-65340476D01*
X124678095Y-65388095D01*
X125582857Y-65102381D02*
X126249524Y-65102381D01*
X125820952Y-66102381D01*
X121678095Y-83942381D02*
X121678095Y-84751905D01*
X121725714Y-84847143D01*
X121773333Y-84894762D01*
X121868571Y-84942381D01*
X122059048Y-84942381D01*
X122154286Y-84894762D01*
X122201905Y-84847143D01*
X122249524Y-84751905D01*
X122249524Y-83942381D01*
X122678095Y-84037619D02*
X122725714Y-83990000D01*
X122820952Y-83942381D01*
X123059048Y-83942381D01*
X123154286Y-83990000D01*
X123201905Y-84037619D01*
X123249524Y-84132857D01*
X123249524Y-84228095D01*
X123201905Y-84370952D01*
X122630476Y-84942381D01*
X123249524Y-84942381D01*
X122880953Y-26487143D02*
X122833334Y-26534762D01*
X122690477Y-26582381D01*
X122595239Y-26582381D01*
X122452381Y-26534762D01*
X122357143Y-26439524D01*
X122309524Y-26344286D01*
X122261905Y-26153810D01*
X122261905Y-26010952D01*
X122309524Y-25820476D01*
X122357143Y-25725238D01*
X122452381Y-25630000D01*
X122595239Y-25582381D01*
X122690477Y-25582381D01*
X122833334Y-25630000D01*
X122880953Y-25677619D01*
X123309524Y-26582381D02*
X123309524Y-25582381D01*
X123690477Y-25582381D01*
X123785715Y-25630000D01*
X123833334Y-25677619D01*
X123880953Y-25772857D01*
X123880953Y-25915714D01*
X123833334Y-26010952D01*
X123785715Y-26058571D01*
X123690477Y-26106190D01*
X123309524Y-26106190D01*
X124880953Y-26487143D02*
X124833334Y-26534762D01*
X124690477Y-26582381D01*
X124595239Y-26582381D01*
X124452381Y-26534762D01*
X124357143Y-26439524D01*
X124309524Y-26344286D01*
X124261905Y-26153810D01*
X124261905Y-26010952D01*
X124309524Y-25820476D01*
X124357143Y-25725238D01*
X124452381Y-25630000D01*
X124595239Y-25582381D01*
X124690477Y-25582381D01*
X124833334Y-25630000D01*
X124880953Y-25677619D01*
X125833334Y-26582381D02*
X125261905Y-26582381D01*
X125547619Y-26582381D02*
X125547619Y-25582381D01*
X125452381Y-25725238D01*
X125357143Y-25820476D01*
X125261905Y-25868095D01*
X126452381Y-25582381D02*
X126547620Y-25582381D01*
X126642858Y-25630000D01*
X126690477Y-25677619D01*
X126738096Y-25772857D01*
X126785715Y-25963333D01*
X126785715Y-26201429D01*
X126738096Y-26391905D01*
X126690477Y-26487143D01*
X126642858Y-26534762D01*
X126547620Y-26582381D01*
X126452381Y-26582381D01*
X126357143Y-26534762D01*
X126309524Y-26487143D01*
X126261905Y-26391905D01*
X126214286Y-26201429D01*
X126214286Y-25963333D01*
X126261905Y-25772857D01*
X126309524Y-25677619D01*
X126357143Y-25630000D01*
X126452381Y-25582381D01*
X127738096Y-26582381D02*
X127166667Y-26582381D01*
X127452381Y-26582381D02*
X127452381Y-25582381D01*
X127357143Y-25725238D01*
X127261905Y-25820476D01*
X127166667Y-25868095D01*
X128071429Y-25582381D02*
X128738096Y-25582381D01*
X128309524Y-26582381D01*
X129119048Y-26582381D02*
X129119048Y-25582381D01*
X129690477Y-26582381D01*
X129690477Y-25582381D01*
X128136905Y-22359524D02*
X128784524Y-22359524D01*
X128860714Y-22321429D01*
X128898810Y-22283333D01*
X128936905Y-22207143D01*
X128936905Y-22054762D01*
X128898810Y-21978571D01*
X128860714Y-21940476D01*
X128784524Y-21902381D01*
X128136905Y-21902381D01*
X128136905Y-21597619D02*
X128136905Y-21102381D01*
X128441667Y-21369048D01*
X128441667Y-21254762D01*
X128479762Y-21178572D01*
X128517857Y-21140476D01*
X128594048Y-21102381D01*
X128784524Y-21102381D01*
X128860714Y-21140476D01*
X128898810Y-21178572D01*
X128936905Y-21254762D01*
X128936905Y-21483334D01*
X128898810Y-21559524D01*
X128860714Y-21597619D01*
X146561429Y-32776667D02*
X147037620Y-32776667D01*
X146466191Y-33062381D02*
X146799524Y-32062381D01*
X147132858Y-33062381D01*
X148037620Y-33062381D02*
X147704286Y-32586190D01*
X147466191Y-33062381D02*
X147466191Y-32062381D01*
X147847144Y-32062381D01*
X147942382Y-32110000D01*
X147990001Y-32157619D01*
X148037620Y-32252857D01*
X148037620Y-32395714D01*
X147990001Y-32490952D01*
X147942382Y-32538571D01*
X147847144Y-32586190D01*
X147466191Y-32586190D01*
X148466191Y-33062381D02*
X148466191Y-32062381D01*
X148704286Y-32062381D01*
X148847144Y-32110000D01*
X148942382Y-32205238D01*
X148990001Y-32300476D01*
X149037620Y-32490952D01*
X149037620Y-32633810D01*
X148990001Y-32824286D01*
X148942382Y-32919524D01*
X148847144Y-33014762D01*
X148704286Y-33062381D01*
X148466191Y-33062381D01*
X149466191Y-32062381D02*
X149466191Y-32871905D01*
X149513810Y-32967143D01*
X149561429Y-33014762D01*
X149656667Y-33062381D01*
X149847144Y-33062381D01*
X149942382Y-33014762D01*
X149990001Y-32967143D01*
X150037620Y-32871905D01*
X150037620Y-32062381D01*
X150513810Y-33062381D02*
X150513810Y-32062381D01*
X150990000Y-33062381D02*
X150990000Y-32062381D01*
X151561429Y-33062381D01*
X151561429Y-32062381D01*
X152228095Y-32062381D02*
X152418572Y-32062381D01*
X152513810Y-32110000D01*
X152609048Y-32205238D01*
X152656667Y-32395714D01*
X152656667Y-32729048D01*
X152609048Y-32919524D01*
X152513810Y-33014762D01*
X152418572Y-33062381D01*
X152228095Y-33062381D01*
X152132857Y-33014762D01*
X152037619Y-32919524D01*
X151990000Y-32729048D01*
X151990000Y-32395714D01*
X152037619Y-32205238D01*
X152132857Y-32110000D01*
X152228095Y-32062381D01*
X152847143Y-33157619D02*
X153609048Y-33157619D01*
X153847143Y-33062381D02*
X153847143Y-32062381D01*
X154418572Y-33062381D01*
X154418572Y-32062381D01*
X154847143Y-32776667D02*
X155323334Y-32776667D01*
X154751905Y-33062381D02*
X155085238Y-32062381D01*
X155418572Y-33062381D01*
X155751905Y-33062381D02*
X155751905Y-32062381D01*
X156323334Y-33062381D01*
X156323334Y-32062381D01*
X156990000Y-32062381D02*
X157180477Y-32062381D01*
X157275715Y-32110000D01*
X157370953Y-32205238D01*
X157418572Y-32395714D01*
X157418572Y-32729048D01*
X157370953Y-32919524D01*
X157275715Y-33014762D01*
X157180477Y-33062381D01*
X156990000Y-33062381D01*
X156894762Y-33014762D01*
X156799524Y-32919524D01*
X156751905Y-32729048D01*
X156751905Y-32395714D01*
X156799524Y-32205238D01*
X156894762Y-32110000D01*
X156990000Y-32062381D01*
X149736191Y-35316667D02*
X150212382Y-35316667D01*
X149640953Y-35602381D02*
X149974286Y-34602381D01*
X150307620Y-35602381D01*
X151212382Y-35602381D02*
X150879048Y-35126190D01*
X150640953Y-35602381D02*
X150640953Y-34602381D01*
X151021906Y-34602381D01*
X151117144Y-34650000D01*
X151164763Y-34697619D01*
X151212382Y-34792857D01*
X151212382Y-34935714D01*
X151164763Y-35030952D01*
X151117144Y-35078571D01*
X151021906Y-35126190D01*
X150640953Y-35126190D01*
X151640953Y-35602381D02*
X151640953Y-34602381D01*
X151879048Y-34602381D01*
X152021906Y-34650000D01*
X152117144Y-34745238D01*
X152164763Y-34840476D01*
X152212382Y-35030952D01*
X152212382Y-35173810D01*
X152164763Y-35364286D01*
X152117144Y-35459524D01*
X152021906Y-35554762D01*
X151879048Y-35602381D01*
X151640953Y-35602381D01*
X152640953Y-34602381D02*
X152640953Y-35411905D01*
X152688572Y-35507143D01*
X152736191Y-35554762D01*
X152831429Y-35602381D01*
X153021906Y-35602381D01*
X153117144Y-35554762D01*
X153164763Y-35507143D01*
X153212382Y-35411905D01*
X153212382Y-34602381D01*
X153688572Y-35602381D02*
X153688572Y-34602381D01*
X154164762Y-35602381D02*
X154164762Y-34602381D01*
X154736191Y-35602381D01*
X154736191Y-34602381D01*
X155402857Y-34602381D02*
X155593334Y-34602381D01*
X155688572Y-34650000D01*
X155783810Y-34745238D01*
X155831429Y-34935714D01*
X155831429Y-35269048D01*
X155783810Y-35459524D01*
X155688572Y-35554762D01*
X155593334Y-35602381D01*
X155402857Y-35602381D01*
X155307619Y-35554762D01*
X155212381Y-35459524D01*
X155164762Y-35269048D01*
X155164762Y-34935714D01*
X155212381Y-34745238D01*
X155307619Y-34650000D01*
X155402857Y-34602381D01*
X156783810Y-35602381D02*
X156212381Y-35602381D01*
X156498095Y-35602381D02*
X156498095Y-34602381D01*
X156402857Y-34745238D01*
X156307619Y-34840476D01*
X156212381Y-34888095D01*
X131200475Y-56092381D02*
X131200475Y-55092381D01*
X131771904Y-56092381D01*
X131771904Y-55092381D01*
X132676666Y-56092381D02*
X132676666Y-55568571D01*
X132629047Y-55473333D01*
X132533809Y-55425714D01*
X132343332Y-55425714D01*
X132248094Y-55473333D01*
X132676666Y-56044762D02*
X132581428Y-56092381D01*
X132343332Y-56092381D01*
X132248094Y-56044762D01*
X132200475Y-55949524D01*
X132200475Y-55854286D01*
X132248094Y-55759048D01*
X132343332Y-55711429D01*
X132581428Y-55711429D01*
X132676666Y-55663810D01*
X133152856Y-55425714D02*
X133152856Y-56092381D01*
X133152856Y-55520952D02*
X133200475Y-55473333D01*
X133295713Y-55425714D01*
X133438571Y-55425714D01*
X133533809Y-55473333D01*
X133581428Y-55568571D01*
X133581428Y-56092381D01*
X134200475Y-56092381D02*
X134105237Y-56044762D01*
X134057618Y-55997143D01*
X134009999Y-55901905D01*
X134009999Y-55616190D01*
X134057618Y-55520952D01*
X134105237Y-55473333D01*
X134200475Y-55425714D01*
X134343333Y-55425714D01*
X134438571Y-55473333D01*
X134486190Y-55520952D01*
X134533809Y-55616190D01*
X134533809Y-55901905D01*
X134486190Y-55997143D01*
X134438571Y-56044762D01*
X134343333Y-56092381D01*
X134200475Y-56092381D01*
X135724285Y-55568571D02*
X136057619Y-55568571D01*
X136200476Y-56092381D02*
X135724285Y-56092381D01*
X135724285Y-55092381D01*
X136200476Y-55092381D01*
X136486190Y-55425714D02*
X136867142Y-55425714D01*
X136629047Y-55092381D02*
X136629047Y-55949524D01*
X136676666Y-56044762D01*
X136771904Y-56092381D01*
X136867142Y-56092381D01*
X137200476Y-56092381D02*
X137200476Y-55092381D01*
X137629048Y-56092381D02*
X137629048Y-55568571D01*
X137581429Y-55473333D01*
X137486191Y-55425714D01*
X137343333Y-55425714D01*
X137248095Y-55473333D01*
X137200476Y-55520952D01*
X138486191Y-56044762D02*
X138390953Y-56092381D01*
X138200476Y-56092381D01*
X138105238Y-56044762D01*
X138057619Y-55949524D01*
X138057619Y-55568571D01*
X138105238Y-55473333D01*
X138200476Y-55425714D01*
X138390953Y-55425714D01*
X138486191Y-55473333D01*
X138533810Y-55568571D01*
X138533810Y-55663810D01*
X138057619Y-55759048D01*
X138962381Y-56092381D02*
X138962381Y-55425714D01*
X138962381Y-55616190D02*
X139010000Y-55520952D01*
X139057619Y-55473333D01*
X139152857Y-55425714D01*
X139248096Y-55425714D01*
X139581429Y-55425714D02*
X139581429Y-56092381D01*
X139581429Y-55520952D02*
X139629048Y-55473333D01*
X139724286Y-55425714D01*
X139867144Y-55425714D01*
X139962382Y-55473333D01*
X140010001Y-55568571D01*
X140010001Y-56092381D01*
X140867144Y-56044762D02*
X140771906Y-56092381D01*
X140581429Y-56092381D01*
X140486191Y-56044762D01*
X140438572Y-55949524D01*
X140438572Y-55568571D01*
X140486191Y-55473333D01*
X140581429Y-55425714D01*
X140771906Y-55425714D01*
X140867144Y-55473333D01*
X140914763Y-55568571D01*
X140914763Y-55663810D01*
X140438572Y-55759048D01*
X141200477Y-55425714D02*
X141581429Y-55425714D01*
X141343334Y-55092381D02*
X141343334Y-55949524D01*
X141390953Y-56044762D01*
X141486191Y-56092381D01*
X141581429Y-56092381D01*
X142629049Y-56044762D02*
X142771906Y-56092381D01*
X143010002Y-56092381D01*
X143105240Y-56044762D01*
X143152859Y-55997143D01*
X143200478Y-55901905D01*
X143200478Y-55806667D01*
X143152859Y-55711429D01*
X143105240Y-55663810D01*
X143010002Y-55616190D01*
X142819525Y-55568571D01*
X142724287Y-55520952D01*
X142676668Y-55473333D01*
X142629049Y-55378095D01*
X142629049Y-55282857D01*
X142676668Y-55187619D01*
X142724287Y-55140000D01*
X142819525Y-55092381D01*
X143057621Y-55092381D01*
X143200478Y-55140000D01*
X143629049Y-56092381D02*
X143629049Y-55092381D01*
X144057621Y-56092381D02*
X144057621Y-55568571D01*
X144010002Y-55473333D01*
X143914764Y-55425714D01*
X143771906Y-55425714D01*
X143676668Y-55473333D01*
X143629049Y-55520952D01*
X144533811Y-56092381D02*
X144533811Y-55425714D01*
X144533811Y-55092381D02*
X144486192Y-55140000D01*
X144533811Y-55187619D01*
X144581430Y-55140000D01*
X144533811Y-55092381D01*
X144533811Y-55187619D01*
X145390954Y-56044762D02*
X145295716Y-56092381D01*
X145105239Y-56092381D01*
X145010001Y-56044762D01*
X144962382Y-55949524D01*
X144962382Y-55568571D01*
X145010001Y-55473333D01*
X145105239Y-55425714D01*
X145295716Y-55425714D01*
X145390954Y-55473333D01*
X145438573Y-55568571D01*
X145438573Y-55663810D01*
X144962382Y-55759048D01*
X146010001Y-56092381D02*
X145914763Y-56044762D01*
X145867144Y-55949524D01*
X145867144Y-55092381D01*
X146819526Y-56092381D02*
X146819526Y-55092381D01*
X146819526Y-56044762D02*
X146724288Y-56092381D01*
X146533811Y-56092381D01*
X146438573Y-56044762D01*
X146390954Y-55997143D01*
X146343335Y-55901905D01*
X146343335Y-55616190D01*
X146390954Y-55520952D01*
X146438573Y-55473333D01*
X146533811Y-55425714D01*
X146724288Y-55425714D01*
X146819526Y-55473333D01*
X134216191Y-53266667D02*
X134692382Y-53266667D01*
X134120953Y-53552381D02*
X134454286Y-52552381D01*
X134787620Y-53552381D01*
X135692382Y-53552381D02*
X135359048Y-53076190D01*
X135120953Y-53552381D02*
X135120953Y-52552381D01*
X135501906Y-52552381D01*
X135597144Y-52600000D01*
X135644763Y-52647619D01*
X135692382Y-52742857D01*
X135692382Y-52885714D01*
X135644763Y-52980952D01*
X135597144Y-53028571D01*
X135501906Y-53076190D01*
X135120953Y-53076190D01*
X136120953Y-53552381D02*
X136120953Y-52552381D01*
X136359048Y-52552381D01*
X136501906Y-52600000D01*
X136597144Y-52695238D01*
X136644763Y-52790476D01*
X136692382Y-52980952D01*
X136692382Y-53123810D01*
X136644763Y-53314286D01*
X136597144Y-53409524D01*
X136501906Y-53504762D01*
X136359048Y-53552381D01*
X136120953Y-53552381D01*
X137120953Y-52552381D02*
X137120953Y-53361905D01*
X137168572Y-53457143D01*
X137216191Y-53504762D01*
X137311429Y-53552381D01*
X137501906Y-53552381D01*
X137597144Y-53504762D01*
X137644763Y-53457143D01*
X137692382Y-53361905D01*
X137692382Y-52552381D01*
X138168572Y-53552381D02*
X138168572Y-52552381D01*
X138644762Y-53552381D02*
X138644762Y-52552381D01*
X139216191Y-53552381D01*
X139216191Y-52552381D01*
X139882857Y-52552381D02*
X140073334Y-52552381D01*
X140168572Y-52600000D01*
X140263810Y-52695238D01*
X140311429Y-52885714D01*
X140311429Y-53219048D01*
X140263810Y-53409524D01*
X140168572Y-53504762D01*
X140073334Y-53552381D01*
X139882857Y-53552381D01*
X139787619Y-53504762D01*
X139692381Y-53409524D01*
X139644762Y-53219048D01*
X139644762Y-52885714D01*
X139692381Y-52695238D01*
X139787619Y-52600000D01*
X139882857Y-52552381D01*
X140692381Y-52647619D02*
X140740000Y-52600000D01*
X140835238Y-52552381D01*
X141073334Y-52552381D01*
X141168572Y-52600000D01*
X141216191Y-52647619D01*
X141263810Y-52742857D01*
X141263810Y-52838095D01*
X141216191Y-52980952D01*
X140644762Y-53552381D01*
X141263810Y-53552381D01*
M02*
