G04 #@! TF.FileFunction,Legend,Bot*
%FSLAX46Y46*%
G04 Gerber Fmt 4.6, Leading zero omitted, Abs format (unit mm)*
G04 Created by KiCad (PCBNEW 4.0.7) date Friday, 01. December 2017 'u24' 00:24:13*
%MOMM*%
%LPD*%
G01*
G04 APERTURE LIST*
%ADD10C,0.100000*%
%ADD11C,0.152400*%
G04 APERTURE END LIST*
D10*
D11*
X34100000Y-19750000D02*
G75*
G03X34100000Y-19750000I-1270000J0D01*
G01*
X23940000Y-19750000D02*
G75*
G03X23940000Y-19750000I-1270000J0D01*
G01*
X25400500Y-18734000D02*
X26734000Y-17400500D01*
X26734000Y-17400500D02*
X28766000Y-17400500D01*
X28766000Y-17400500D02*
X30099500Y-18734000D01*
X30099500Y-18734000D02*
X30099500Y-20766000D01*
X30099500Y-20766000D02*
X28766000Y-22099500D01*
X28766000Y-22099500D02*
X26734000Y-22099500D01*
X26734000Y-22099500D02*
X25400500Y-20766000D01*
X25400500Y-20766000D02*
X25400500Y-18734000D01*
X68350000Y-19750000D02*
G75*
G03X68350000Y-19750000I-1270000J0D01*
G01*
X58190000Y-19750000D02*
G75*
G03X58190000Y-19750000I-1270000J0D01*
G01*
X59650500Y-18734000D02*
X60984000Y-17400500D01*
X60984000Y-17400500D02*
X63016000Y-17400500D01*
X63016000Y-17400500D02*
X64349500Y-18734000D01*
X64349500Y-18734000D02*
X64349500Y-20766000D01*
X64349500Y-20766000D02*
X63016000Y-22099500D01*
X63016000Y-22099500D02*
X60984000Y-22099500D01*
X60984000Y-22099500D02*
X59650500Y-20766000D01*
X59650500Y-20766000D02*
X59650500Y-18734000D01*
X102600000Y-19750000D02*
G75*
G03X102600000Y-19750000I-1270000J0D01*
G01*
X92440000Y-19750000D02*
G75*
G03X92440000Y-19750000I-1270000J0D01*
G01*
X93900500Y-18734000D02*
X95234000Y-17400500D01*
X95234000Y-17400500D02*
X97266000Y-17400500D01*
X97266000Y-17400500D02*
X98599500Y-18734000D01*
X98599500Y-18734000D02*
X98599500Y-20766000D01*
X98599500Y-20766000D02*
X97266000Y-22099500D01*
X97266000Y-22099500D02*
X95234000Y-22099500D01*
X95234000Y-22099500D02*
X93900500Y-20766000D01*
X93900500Y-20766000D02*
X93900500Y-18734000D01*
X30100000Y-57750000D02*
G75*
G03X30100000Y-57750000I-1270000J0D01*
G01*
X19940000Y-57750000D02*
G75*
G03X19940000Y-57750000I-1270000J0D01*
G01*
X21400500Y-56734000D02*
X22734000Y-55400500D01*
X22734000Y-55400500D02*
X24766000Y-55400500D01*
X24766000Y-55400500D02*
X26099500Y-56734000D01*
X26099500Y-56734000D02*
X26099500Y-58766000D01*
X26099500Y-58766000D02*
X24766000Y-60099500D01*
X24766000Y-60099500D02*
X22734000Y-60099500D01*
X22734000Y-60099500D02*
X21400500Y-58766000D01*
X21400500Y-58766000D02*
X21400500Y-56734000D01*
X55600000Y-57750000D02*
G75*
G03X55600000Y-57750000I-1270000J0D01*
G01*
X45440000Y-57750000D02*
G75*
G03X45440000Y-57750000I-1270000J0D01*
G01*
X46900500Y-56734000D02*
X48234000Y-55400500D01*
X48234000Y-55400500D02*
X50266000Y-55400500D01*
X50266000Y-55400500D02*
X51599500Y-56734000D01*
X51599500Y-56734000D02*
X51599500Y-58766000D01*
X51599500Y-58766000D02*
X50266000Y-60099500D01*
X50266000Y-60099500D02*
X48234000Y-60099500D01*
X48234000Y-60099500D02*
X46900500Y-58766000D01*
X46900500Y-58766000D02*
X46900500Y-56734000D01*
X81350000Y-57750000D02*
G75*
G03X81350000Y-57750000I-1270000J0D01*
G01*
X71190000Y-57750000D02*
G75*
G03X71190000Y-57750000I-1270000J0D01*
G01*
X72650500Y-56734000D02*
X73984000Y-55400500D01*
X73984000Y-55400500D02*
X76016000Y-55400500D01*
X76016000Y-55400500D02*
X77349500Y-56734000D01*
X77349500Y-56734000D02*
X77349500Y-58766000D01*
X77349500Y-58766000D02*
X76016000Y-60099500D01*
X76016000Y-60099500D02*
X73984000Y-60099500D01*
X73984000Y-60099500D02*
X72650500Y-58766000D01*
X72650500Y-58766000D02*
X72650500Y-56734000D01*
X106850000Y-57750000D02*
G75*
G03X106850000Y-57750000I-1270000J0D01*
G01*
X96690000Y-57750000D02*
G75*
G03X96690000Y-57750000I-1270000J0D01*
G01*
X98150500Y-56734000D02*
X99484000Y-55400500D01*
X99484000Y-55400500D02*
X101516000Y-55400500D01*
X101516000Y-55400500D02*
X102849500Y-56734000D01*
X102849500Y-56734000D02*
X102849500Y-58766000D01*
X102849500Y-58766000D02*
X101516000Y-60099500D01*
X101516000Y-60099500D02*
X99484000Y-60099500D01*
X99484000Y-60099500D02*
X98150500Y-58766000D01*
X98150500Y-58766000D02*
X98150500Y-56734000D01*
X29850000Y-83500000D02*
G75*
G03X29850000Y-83500000I-1270000J0D01*
G01*
X19690000Y-83500000D02*
G75*
G03X19690000Y-83500000I-1270000J0D01*
G01*
X21150500Y-82484000D02*
X22484000Y-81150500D01*
X22484000Y-81150500D02*
X24516000Y-81150500D01*
X24516000Y-81150500D02*
X25849500Y-82484000D01*
X25849500Y-82484000D02*
X25849500Y-84516000D01*
X25849500Y-84516000D02*
X24516000Y-85849500D01*
X24516000Y-85849500D02*
X22484000Y-85849500D01*
X22484000Y-85849500D02*
X21150500Y-84516000D01*
X21150500Y-84516000D02*
X21150500Y-82484000D01*
X55600000Y-83500000D02*
G75*
G03X55600000Y-83500000I-1270000J0D01*
G01*
X45440000Y-83500000D02*
G75*
G03X45440000Y-83500000I-1270000J0D01*
G01*
X46900500Y-82484000D02*
X48234000Y-81150500D01*
X48234000Y-81150500D02*
X50266000Y-81150500D01*
X50266000Y-81150500D02*
X51599500Y-82484000D01*
X51599500Y-82484000D02*
X51599500Y-84516000D01*
X51599500Y-84516000D02*
X50266000Y-85849500D01*
X50266000Y-85849500D02*
X48234000Y-85849500D01*
X48234000Y-85849500D02*
X46900500Y-84516000D01*
X46900500Y-84516000D02*
X46900500Y-82484000D01*
X81350000Y-83250000D02*
G75*
G03X81350000Y-83250000I-1270000J0D01*
G01*
X71190000Y-83250000D02*
G75*
G03X71190000Y-83250000I-1270000J0D01*
G01*
X72650500Y-82234000D02*
X73984000Y-80900500D01*
X73984000Y-80900500D02*
X76016000Y-80900500D01*
X76016000Y-80900500D02*
X77349500Y-82234000D01*
X77349500Y-82234000D02*
X77349500Y-84266000D01*
X77349500Y-84266000D02*
X76016000Y-85599500D01*
X76016000Y-85599500D02*
X73984000Y-85599500D01*
X73984000Y-85599500D02*
X72650500Y-84266000D01*
X72650500Y-84266000D02*
X72650500Y-82234000D01*
X106850000Y-83250000D02*
G75*
G03X106850000Y-83250000I-1270000J0D01*
G01*
X96690000Y-83250000D02*
G75*
G03X96690000Y-83250000I-1270000J0D01*
G01*
X98150500Y-82234000D02*
X99484000Y-80900500D01*
X99484000Y-80900500D02*
X101516000Y-80900500D01*
X101516000Y-80900500D02*
X102849500Y-82234000D01*
X102849500Y-82234000D02*
X102849500Y-84266000D01*
X102849500Y-84266000D02*
X101516000Y-85599500D01*
X101516000Y-85599500D02*
X99484000Y-85599500D01*
X99484000Y-85599500D02*
X98150500Y-84266000D01*
X98150500Y-84266000D02*
X98150500Y-82234000D01*
X150850000Y-76000000D02*
G75*
G03X150850000Y-76000000I-1270000J0D01*
G01*
X140690000Y-76000000D02*
G75*
G03X140690000Y-76000000I-1270000J0D01*
G01*
X142150500Y-74984000D02*
X143484000Y-73650500D01*
X143484000Y-73650500D02*
X145516000Y-73650500D01*
X145516000Y-73650500D02*
X146849500Y-74984000D01*
X146849500Y-74984000D02*
X146849500Y-77016000D01*
X146849500Y-77016000D02*
X145516000Y-78349500D01*
X145516000Y-78349500D02*
X143484000Y-78349500D01*
X143484000Y-78349500D02*
X142150500Y-77016000D01*
X142150500Y-77016000D02*
X142150500Y-74984000D01*
M02*
