<?xml version="1.0" standalone="no"?>
 <!DOCTYPE svg PUBLIC "-//W3C//DTD SVG 1.1//EN" 
 "http://www.w3.org/Graphics/SVG/1.1/DTD/svg11.dtd"> 
<svg xmlns="http://www.w3.org/2000/svg" version="1.1" 
    width="17.0002cm" height="10.16cm" viewBox="0 0 66930 40000 ">
<title>SVG Picture created as voctoknopf1-F.SilkS.svg date 2017/11/30 17:07:27 </title>
  <desc>Picture generated by PCBNEW </desc>
<g style="fill:#000000; fill-opacity:1;stroke:#000000; stroke-opacity:1;
stroke-linecap:round; stroke-linejoin:round; "
 transform="translate(0 0) scale(1 1)">
</g>
<g style="fill:#000000; fill-opacity:0.0; 
stroke:#000000; stroke-width:-0.000393701; stroke-opacity:1; 
stroke-linecap:round; stroke-linejoin:round;">
</g>
<g style="fill:#000000; fill-opacity:0.0; 
stroke:#000000; stroke-width:39.3701; stroke-opacity:1; 
stroke-linecap:round; stroke-linejoin:round;">
</g>
<g style="fill:#000000; fill-opacity:0.0; 
stroke:#000000; stroke-width:59.0551; stroke-opacity:1; 
stroke-linecap:round; stroke-linejoin:round;">
<rect x="19685.9" y="22677.2" width="42519.7" height="12598.4" rx="0" />
</g>
<g style="fill:#000000; fill-opacity:0.0; 
stroke:#000000; stroke-width:39.3701; stroke-opacity:1; 
stroke-linecap:round; stroke-linejoin:round;">
</g>
<g style="fill:#000000; fill-opacity:0.0; 
stroke:#000000; stroke-width:59.0551; stroke-opacity:1; 
stroke-linecap:round; stroke-linejoin:round;">
<rect x="3937.01" y="3937.01" width="59056" height="32126" rx="0" />
</g>
<g style="fill:#000000; fill-opacity:0.0; 
stroke:#000000; stroke-width:39.3701; stroke-opacity:1; 
stroke-linecap:round; stroke-linejoin:round;">
</g>
<g style="fill:#000000; fill-opacity:0.0; 
stroke:#000000; stroke-width:59.0551; stroke-opacity:1; 
stroke-linecap:round; stroke-linejoin:round;">
<rect x="4724.41" y="4724.41" width="57481.2" height="30551.2" rx="0" />
</g>
<g style="fill:#000000; fill-opacity:0.0; 
stroke:#000000; stroke-width:39.3701; stroke-opacity:1; 
stroke-linecap:round; stroke-linejoin:round;">
</g>
<g style="fill:#000000; fill-opacity:0.0; 
stroke:#000000; stroke-width:59.0551; stroke-opacity:1; 
stroke-linecap:round; stroke-linejoin:round;">
<path d="M23622 4724
L23622 3937
" />
</g>
<g style="fill:#000000; fill-opacity:0.0; 
stroke:#000000; stroke-width:39.3701; stroke-opacity:1; 
stroke-linecap:round; stroke-linejoin:round;">
</g>
<g style="fill:#000000; fill-opacity:0.0; 
stroke:#000000; stroke-width:59.0551; stroke-opacity:1; 
stroke-linecap:round; stroke-linejoin:round;">
<path d="M43307 4724
L43307 3937
" />
</g>
<g style="fill:#000000; fill-opacity:0.0; 
stroke:#000000; stroke-width:39.3701; stroke-opacity:1; 
stroke-linecap:round; stroke-linejoin:round;">
</g>
<g style="fill:#000000; fill-opacity:0.0; 
stroke:#000000; stroke-width:59.0551; stroke-opacity:1; 
stroke-linecap:round; stroke-linejoin:round;">
<path d="M62992 4724
L62992 3937
" />
</g>
<g style="fill:#000000; fill-opacity:0.0; 
stroke:#000000; stroke-width:39.3701; stroke-opacity:1; 
stroke-linecap:round; stroke-linejoin:round;">
</g>
<g style="fill:#000000; fill-opacity:0.0; 
stroke:#000000; stroke-width:59.0551; stroke-opacity:1; 
stroke-linecap:round; stroke-linejoin:round;">
<path d="M14169 4562
L13877 4562
" />
<path d="M14023 4562
L14023 4050
L13974 4123
L13925 4172
L13877 4196
" />
</g>
<g style="fill:#000000; fill-opacity:0.0; 
stroke:#000000; stroke-width:39.3701; stroke-opacity:1; 
stroke-linecap:round; stroke-linejoin:round;">
</g>
<g style="fill:#000000; fill-opacity:0.0; 
stroke:#000000; stroke-width:59.0551; stroke-opacity:1; 
stroke-linecap:round; stroke-linejoin:round;">
<path d="M33562 4099
L33586 4074
L33635 4050
L33757 4050
L33805 4074
L33830 4099
L33854 4147
L33854 4196
L33830 4269
L33537 4562
L33854 4562
" />
</g>
<g style="fill:#000000; fill-opacity:0.0; 
stroke:#000000; stroke-width:39.3701; stroke-opacity:1; 
stroke-linecap:round; stroke-linejoin:round;">
</g>
<g style="fill:#000000; fill-opacity:0.0; 
stroke:#000000; stroke-width:59.0551; stroke-opacity:1; 
stroke-linecap:round; stroke-linejoin:round;">
<path d="M53222 4050
L53539 4050
L53368 4245
L53442 4245
L53490 4269
L53515 4294
L53539 4342
L53539 4464
L53515 4513
L53490 4537
L53442 4562
L53295 4562
L53247 4537
L53222 4513
" />
</g>
<g style="fill:#000000; fill-opacity:0.0; 
stroke:#000000; stroke-width:39.3701; stroke-opacity:1; 
stroke-linecap:round; stroke-linejoin:round;">
</g>
<g style="fill:#000000; fill-opacity:0.0; 
stroke:#000000; stroke-width:59.0551; stroke-opacity:1; 
stroke-linecap:round; stroke-linejoin:round;">
<path d="M23622 35275
L23622 36062
" />
</g>
<g style="fill:#000000; fill-opacity:0.0; 
stroke:#000000; stroke-width:39.3701; stroke-opacity:1; 
stroke-linecap:round; stroke-linejoin:round;">
</g>
<g style="fill:#000000; fill-opacity:0.0; 
stroke:#000000; stroke-width:59.0551; stroke-opacity:1; 
stroke-linecap:round; stroke-linejoin:round;">
<path d="M43307 35275
L43307 36062
" />
</g>
<g style="fill:#000000; fill-opacity:0.0; 
stroke:#000000; stroke-width:39.3701; stroke-opacity:1; 
stroke-linecap:round; stroke-linejoin:round;">
</g>
<g style="fill:#000000; fill-opacity:0.0; 
stroke:#000000; stroke-width:59.0551; stroke-opacity:1; 
stroke-linecap:round; stroke-linejoin:round;">
<path d="M62992 35275
L62992 36062
" />
</g>
<g style="fill:#000000; fill-opacity:0.0; 
stroke:#000000; stroke-width:39.3701; stroke-opacity:1; 
stroke-linecap:round; stroke-linejoin:round;">
</g>
<g style="fill:#000000; fill-opacity:0.0; 
stroke:#000000; stroke-width:59.0551; stroke-opacity:1; 
stroke-linecap:round; stroke-linejoin:round;">
<path d="M14169 35900
L13877 35900
" />
<path d="M14023 35900
L14023 35389
L13974 35462
L13925 35510
L13877 35535
" />
</g>
<g style="fill:#000000; fill-opacity:0.0; 
stroke:#000000; stroke-width:39.3701; stroke-opacity:1; 
stroke-linecap:round; stroke-linejoin:round;">
</g>
<g style="fill:#000000; fill-opacity:0.0; 
stroke:#000000; stroke-width:59.0551; stroke-opacity:1; 
stroke-linecap:round; stroke-linejoin:round;">
<path d="M33562 35437
L33586 35413
L33635 35389
L33757 35389
L33805 35413
L33830 35437
L33854 35486
L33854 35535
L33830 35608
L33537 35900
L33854 35900
" />
</g>
<g style="fill:#000000; fill-opacity:0.0; 
stroke:#000000; stroke-width:39.3701; stroke-opacity:1; 
stroke-linecap:round; stroke-linejoin:round;">
</g>
<g style="fill:#000000; fill-opacity:0.0; 
stroke:#000000; stroke-width:59.0551; stroke-opacity:1; 
stroke-linecap:round; stroke-linejoin:round;">
<path d="M53222 35389
L53539 35389
L53368 35583
L53442 35583
L53490 35608
L53515 35632
L53539 35681
L53539 35803
L53515 35852
L53490 35876
L53442 35900
L53295 35900
L53247 35876
L53222 35852
" />
</g>
<g style="fill:#000000; fill-opacity:0.0; 
stroke:#000000; stroke-width:39.3701; stroke-opacity:1; 
stroke-linecap:round; stroke-linejoin:round;">
</g>
<g style="fill:#000000; fill-opacity:0.0; 
stroke:#000000; stroke-width:59.0551; stroke-opacity:1; 
stroke-linecap:round; stroke-linejoin:round;">
<path d="M3937 23622
L4724 23622
" />
</g>
<g style="fill:#000000; fill-opacity:0.0; 
stroke:#000000; stroke-width:39.3701; stroke-opacity:1; 
stroke-linecap:round; stroke-linejoin:round;">
</g>
<g style="fill:#000000; fill-opacity:0.0; 
stroke:#000000; stroke-width:59.0551; stroke-opacity:1; 
stroke-linecap:round; stroke-linejoin:round;">
<path d="M4208 13864
L4452 13864
" />
<path d="M4160 14011
L4330 13499
L4501 14011
" />
</g>
<g style="fill:#000000; fill-opacity:0.0; 
stroke:#000000; stroke-width:39.3701; stroke-opacity:1; 
stroke-linecap:round; stroke-linejoin:round;">
</g>
<g style="fill:#000000; fill-opacity:0.0; 
stroke:#000000; stroke-width:59.0551; stroke-opacity:1; 
stroke-linecap:round; stroke-linejoin:round;">
<path d="M4367 33428
L4440 33452
L4464 33476
L4489 33525
L4489 33598
L4464 33647
L4440 33671
L4391 33696
L4196 33696
L4196 33184
L4367 33184
L4416 33208
L4440 33233
L4464 33281
L4464 33330
L4440 33379
L4416 33403
L4367 33428
L4196 33428
" />
</g>
<g style="fill:#000000; fill-opacity:0.0; 
stroke:#000000; stroke-width:39.3701; stroke-opacity:1; 
stroke-linecap:round; stroke-linejoin:round;">
</g>
<g style="fill:#000000; fill-opacity:0.0; 
stroke:#000000; stroke-width:59.0551; stroke-opacity:1; 
stroke-linecap:round; stroke-linejoin:round;">
<path d="M62992 23622
L62205 23622
" />
</g>
<g style="fill:#000000; fill-opacity:0.0; 
stroke:#000000; stroke-width:39.3701; stroke-opacity:1; 
stroke-linecap:round; stroke-linejoin:round;">
</g>
<g style="fill:#000000; fill-opacity:0.0; 
stroke:#000000; stroke-width:59.0551; stroke-opacity:1; 
stroke-linecap:round; stroke-linejoin:round;">
<path d="M62477 13864
L62721 13864
" />
<path d="M62428 14011
L62599 13499
L62769 14011
" />
</g>
<g style="fill:#000000; fill-opacity:0.0; 
stroke:#000000; stroke-width:39.3701; stroke-opacity:1; 
stroke-linecap:round; stroke-linejoin:round;">
</g>
<g style="fill:#000000; fill-opacity:0.0; 
stroke:#000000; stroke-width:59.0551; stroke-opacity:1; 
stroke-linecap:round; stroke-linejoin:round;">
<path d="M62635 33428
L62708 33452
L62733 33476
L62757 33525
L62757 33598
L62733 33647
L62708 33671
L62660 33696
L62465 33696
L62465 33184
L62635 33184
L62684 33208
L62708 33233
L62733 33281
L62733 33330
L62708 33379
L62684 33403
L62635 33428
L62465 33428
" />
</g>
<g style="fill:#000000; fill-opacity:0.0; 
stroke:#000000; stroke-width:39.3701; stroke-opacity:1; 
stroke-linecap:round; stroke-linejoin:round;">
</g>
<g style="fill:#000000; fill-opacity:0.0; 
stroke:#000000; stroke-width:59.0551; stroke-opacity:1; 
stroke-linecap:round; stroke-linejoin:round;">
<path d="M28881 33613
L28881 33023
L29022 33023
L29106 33051
L29162 33107
L29190 33163
L29219 33276
L29219 33360
L29190 33473
L29162 33529
L29106 33585
L29022 33613
L28881 33613
" />
<path d="M29725 33613
L29725 33304
L29697 33248
L29640 33219
L29528 33219
L29472 33248
" />
<path d="M29725 33585
L29669 33613
L29528 33613
L29472 33585
L29444 33529
L29444 33473
L29472 33416
L29528 33388
L29669 33388
L29725 33360
" />
<path d="M29922 33219
L30147 33219
" />
<path d="M30006 33023
L30006 33529
L30034 33585
L30090 33613
L30147 33613
" />
<path d="M30568 33585
L30512 33613
L30400 33613
L30343 33585
L30315 33529
L30315 33304
L30343 33248
L30400 33219
L30512 33219
L30568 33248
L30597 33304
L30597 33360
L30315 33416
" />
<path d="M30850 33557
L30878 33585
L30850 33613
L30822 33585
L30850 33557
L30850 33613
" />
<path d="M30850 33248
L30878 33276
L30850 33304
L30822 33276
L30850 33248
L30850 33304
" />
<path d="M31553 33079
L31581 33051
L31637 33023
L31778 33023
L31834 33051
L31862 33079
L31890 33135
L31890 33191
L31862 33276
L31525 33613
L31890 33613
" />
<path d="M32256 33023
L32312 33023
L32368 33051
L32396 33079
L32424 33135
L32453 33248
L32453 33388
L32424 33501
L32396 33557
L32368 33585
L32312 33613
L32256 33613
L32199 33585
L32171 33557
L32143 33501
L32115 33388
L32115 33248
L32143 33135
L32171 33079
L32199 33051
L32256 33023
" />
<path d="M33015 33613
L32678 33613
" />
<path d="M32846 33613
L32846 33023
L32790 33107
L32734 33163
L32678 33191
" />
<path d="M33212 33023
L33606 33023
L33352 33613
" />
<path d="M33831 33388
L34280 33388
" />
<path d="M34871 33613
L34534 33613
" />
<path d="M34702 33613
L34702 33023
L34646 33107
L34590 33163
L34534 33191
" />
<path d="M35433 33613
L35096 33613
" />
<path d="M35265 33613
L35265 33023
L35208 33107
L35152 33163
L35096 33191
" />
<path d="M35687 33388
L36136 33388
" />
<path d="M36390 33079
L36418 33051
L36474 33023
L36615 33023
L36671 33051
L36699 33079
L36727 33135
L36727 33191
L36699 33276
L36361 33613
L36727 33613
" />
<path d="M37008 33613
L37121 33613
L37177 33585
L37205 33557
L37261 33473
L37289 33360
L37289 33135
L37261 33079
L37233 33051
L37177 33023
L37064 33023
L37008 33051
L36980 33079
L36952 33135
L36952 33276
L36980 33332
L37008 33360
L37064 33388
L37177 33388
L37233 33360
L37261 33332
L37289 33276
" />
</g>
<g style="fill:#000000; fill-opacity:0.0; 
stroke:#000000; stroke-width:39.3701; stroke-opacity:1; 
stroke-linecap:round; stroke-linejoin:round;">
</g>
<g style="fill:#000000; fill-opacity:0.0; 
stroke:#000000; stroke-width:59.0551; stroke-opacity:1; 
stroke-linecap:round; stroke-linejoin:round;">
<path d="M19685 33897
L62205 33897
" />
</g>
<g style="fill:#000000; fill-opacity:0.0; 
stroke:#000000; stroke-width:39.3701; stroke-opacity:1; 
stroke-linecap:round; stroke-linejoin:round;">
</g>
<g style="fill:#000000; fill-opacity:0.0; 
stroke:#000000; stroke-width:59.0551; stroke-opacity:1; 
stroke-linecap:round; stroke-linejoin:round;">
<path d="M20220 34715
L20220 34125
" />
<path d="M20557 34715
L20304 34378
" />
<path d="M20557 34125
L20220 34462
" />
<path d="M20810 34715
L20810 34322
" />
<path d="M20810 34125
L20782 34153
L20810 34181
L20838 34153
L20810 34125
L20810 34181
" />
<path d="M21429 34659
L21401 34687
L21316 34715
L21260 34715
L21176 34687
L21120 34631
L21091 34575
L21063 34462
L21063 34378
L21091 34266
L21120 34209
L21176 34153
L21260 34125
L21316 34125
L21401 34153
L21429 34181
" />
<path d="M21935 34715
L21935 34406
L21907 34350
L21851 34322
L21738 34322
L21682 34350
" />
<path d="M21935 34687
L21879 34715
L21738 34715
L21682 34687
L21654 34631
L21654 34575
L21682 34519
L21738 34491
L21879 34491
L21935 34462
" />
<path d="M22469 34715
L22469 34125
" />
<path d="M22469 34687
L22413 34715
L22301 34715
L22244 34687
L22216 34659
L22188 34603
L22188 34434
L22216 34378
L22244 34350
L22301 34322
L22413 34322
L22469 34350
" />
<path d="M23201 34406
L23397 34406
" />
<path d="M23482 34715
L23201 34715
L23201 34125
L23482 34125
" />
<path d="M23735 34659
L23763 34687
L23735 34715
L23707 34687
L23735 34659
L23735 34715
" />
<path d="M24016 34715
L24016 34125
L24157 34125
L24241 34153
L24297 34209
L24325 34266
L24354 34378
L24354 34462
L24325 34575
L24297 34631
L24241 34687
L24157 34715
L24016 34715
" />
<path d="M24607 34659
L24635 34687
L24607 34715
L24579 34687
L24607 34659
L24607 34715
" />
<path d="M24860 34547
L25141 34547
" />
<path d="M24804 34715
L25000 34125
L25197 34715
" />
<path d="M25394 34659
L25422 34687
L25394 34715
L25366 34687
L25394 34659
L25394 34715
" />
<path d="M26575 34715
L26575 34125
" />
<path d="M26631 34491
L26800 34715
" />
<path d="M26800 34322
L26575 34547
" />
<path d="M27053 34715
L27053 34322
" />
<path d="M27053 34125
L27025 34153
L27053 34181
L27081 34153
L27053 34125
L27053 34181
" />
<path d="M27588 34687
L27531 34715
L27419 34715
L27363 34687
L27334 34659
L27306 34603
L27306 34434
L27334 34378
L27363 34350
L27419 34322
L27531 34322
L27588 34350
" />
<path d="M28094 34715
L28094 34406
L28066 34350
L28009 34322
L27897 34322
L27841 34350
" />
<path d="M28094 34687
L28037 34715
L27897 34715
L27841 34687
L27813 34631
L27813 34575
L27841 34519
L27897 34491
L28037 34491
L28094 34462
" />
<path d="M28628 34715
L28628 34125
" />
<path d="M28628 34687
L28572 34715
L28459 34715
L28403 34687
L28375 34659
L28347 34603
L28347 34434
L28375 34378
L28403 34350
L28459 34322
L28572 34322
L28628 34350
" />
<path d="M29612 34322
L29612 34715
" />
<path d="M29472 34097
L29331 34519
L29697 34519
" />
<path d="M29922 34659
L29950 34687
L29922 34715
L29894 34687
L29922 34659
L29922 34715
" />
<path d="M30315 34125
L30372 34125
L30428 34153
L30456 34181
L30484 34237
L30512 34350
L30512 34491
L30484 34603
L30456 34659
L30428 34687
L30372 34715
L30315 34715
L30259 34687
L30231 34659
L30203 34603
L30175 34491
L30175 34350
L30203 34237
L30231 34181
L30259 34153
L30315 34125
" />
<path d="M30765 34659
L30793 34687
L30765 34715
L30737 34687
L30765 34659
L30765 34715
" />
<path d="M30990 34125
L31384 34125
L31131 34715
" />
</g>
<g style="fill:#000000; fill-opacity:0.0; 
stroke:#000000; stroke-width:39.3701; stroke-opacity:1; 
stroke-linecap:round; stroke-linejoin:round;">
</g>
<g style="fill:#000000; fill-opacity:0.0; 
stroke:#000000; stroke-width:59.0551; stroke-opacity:1; 
stroke-linecap:round; stroke-linejoin:round;">
<path d="M19685 32716
L62205 32716
" />
</g>
<g style="fill:#000000; fill-opacity:0.0; 
stroke:#000000; stroke-width:39.3701; stroke-opacity:1; 
stroke-linecap:round; stroke-linejoin:round;">
</g>
<g style="fill:#000000; fill-opacity:0.0; 
stroke:#000000; stroke-width:118.11; stroke-opacity:1; 
stroke-linecap:round; stroke-linejoin:round;">
<path d="M54022 33613
L53825 33332
" />
<path d="M53684 33613
L53684 33023
L53909 33023
L53965 33051
L53994 33079
L54022 33135
L54022 33219
L53994 33276
L53965 33304
L53909 33332
L53684 33332
" />
<path d="M54500 33585
L54444 33613
L54331 33613
L54275 33585
L54247 33529
L54247 33304
L54275 33248
L54331 33219
L54444 33219
L54500 33248
L54528 33304
L54528 33360
L54247 33416
" />
<path d="M54725 33219
L54865 33613
L55006 33219
" />
<path d="M55231 33557
L55259 33585
L55231 33613
L55203 33585
L55231 33557
L55231 33613
" />
<path d="M55231 33248
L55259 33276
L55231 33304
L55203 33276
L55231 33248
L55231 33304
" />
</g>
<g style="fill:#000000; fill-opacity:0.0; 
stroke:#000000; stroke-width:39.3701; stroke-opacity:1; 
stroke-linecap:round; stroke-linejoin:round;">
</g>
<g style="fill:#000000; fill-opacity:0.0; 
stroke:#000000; stroke-width:59.0551; stroke-opacity:1; 
stroke-linecap:round; stroke-linejoin:round;">
<path d="M20192 33585
L20276 33613
L20417 33613
L20473 33585
L20501 33557
L20529 33501
L20529 33444
L20501 33388
L20473 33360
L20417 33332
L20304 33304
L20248 33276
L20220 33248
L20192 33191
L20192 33135
L20220 33079
L20248 33051
L20304 33023
L20445 33023
L20529 33051
" />
<path d="M20782 33613
L20782 33219
" />
<path d="M20782 33023
L20754 33051
L20782 33079
L20810 33051
L20782 33023
L20782 33079
" />
<path d="M21007 33219
L21316 33219
L21007 33613
L21316 33613
" />
<path d="M21766 33585
L21710 33613
L21598 33613
L21541 33585
L21513 33529
L21513 33304
L21541 33248
L21598 33219
L21710 33219
L21766 33248
L21795 33304
L21795 33360
L21513 33416
" />
<path d="M22048 33557
L22076 33585
L22048 33613
L22019 33585
L22048 33557
L22048 33613
" />
<path d="M22048 33248
L22076 33276
L22048 33304
L22019 33276
L22048 33248
L22048 33304
" />
<path d="M22779 33023
L22779 33501
L22807 33557
L22835 33585
L22891 33613
L23004 33613
L23060 33585
L23088 33557
L23116 33501
L23116 33023
" />
<path d="M23369 33585
L23426 33613
L23538 33613
L23594 33585
L23622 33529
L23622 33501
L23594 33444
L23538 33416
L23454 33416
L23397 33388
L23369 33332
L23369 33304
L23397 33248
L23454 33219
L23538 33219
L23594 33248
" />
<path d="M24100 33585
L24044 33613
L23932 33613
L23876 33585
L23847 33529
L23847 33304
L23876 33248
L23932 33219
L24044 33219
L24100 33248
L24129 33304
L24129 33360
L23847 33416
" />
<path d="M24382 33613
L24382 33219
" />
<path d="M24382 33332
L24410 33276
L24438 33248
L24494 33219
L24550 33219
" />
</g>
<g style="fill:#000000; fill-opacity:0.0; 
stroke:#000000; stroke-width:39.3701; stroke-opacity:1; 
stroke-linecap:round; stroke-linejoin:round;">
</g>
<g style="fill:#000000; fill-opacity:0.0; 
stroke:#000000; stroke-width:59.0551; stroke-opacity:1; 
stroke-linecap:round; stroke-linejoin:round;">
<path d="M53684 34715
L53684 34125
" />
<path d="M54219 34715
L54219 34125
" />
<path d="M54219 34687
L54162 34715
L54050 34715
L53994 34687
L53965 34659
L53937 34603
L53937 34434
L53965 34378
L53994 34350
L54050 34322
L54162 34322
L54219 34350
" />
<path d="M54500 34659
L54528 34687
L54500 34715
L54472 34687
L54500 34659
L54500 34715
" />
<path d="M54500 34350
L54528 34378
L54500 34406
L54472 34378
L54500 34350
L54500 34406
" />
<path d="M55540 34715
L55203 34715
" />
<path d="M55372 34715
L55372 34125
L55315 34209
L55259 34266
L55203 34294
" />
<path d="M56215 34097
L55709 34856
" />
<path d="M56721 34715
L56384 34715
" />
<path d="M56553 34715
L56553 34125
L56496 34209
L56440 34266
L56384 34294
" />
</g>
<g style="fill:#000000; fill-opacity:0.0; 
stroke:#000000; stroke-width:39.3701; stroke-opacity:1; 
stroke-linecap:round; stroke-linejoin:round;">
</g>
<g style="fill:#000000; fill-opacity:0.0; 
stroke:#000000; stroke-width:59.0551; stroke-opacity:1; 
stroke-linecap:round; stroke-linejoin:round;">
<path d="M19685 31141
L62205 31141
" />
</g>
<g style="fill:#000000; fill-opacity:0.0; 
stroke:#000000; stroke-width:39.3701; stroke-opacity:1; 
stroke-linecap:round; stroke-linejoin:round;">
</g>
<g style="fill:#000000; fill-opacity:0.0; 
stroke:#000000; stroke-width:157.48; stroke-opacity:1; 
stroke-linecap:round; stroke-linejoin:round;">
<path d="M20257 31419
L20707 31419
" />
<path d="M20384 32206
L20482 31419
" />
<path d="M20871 32206
L20937 31681
" />
<path d="M20970 31419
L20927 31456
L20960 31494
L21002 31456
L20970 31419
L20960 31494
" />
<path d="M21199 31681
L21499 31681
" />
<path d="M21345 31419
L21260 32094
L21288 32169
L21359 32206
L21434 32206
" />
<path d="M21809 32206
L21738 32169
L21710 32094
L21795 31419
" />
<path d="M22413 32169
L22334 32206
L22184 32206
L22113 32169
L22085 32094
L22123 31794
L22169 31719
L22249 31681
L22399 31681
L22469 31719
L22498 31794
L22488 31869
L22104 31944
" />
<path d="M22793 32131
L22826 32169
L22783 32206
L22751 32169
L22793 32131
L22783 32206
" />
<path d="M22844 31719
L22877 31756
L22835 31794
L22802 31756
L22844 31719
L22835 31794
" />
<path d="M23749 31681
L23871 32206
L24124 31681
" />
<path d="M24471 32206
L24400 32169
L24368 32131
L24340 32056
L24368 31831
L24415 31756
L24457 31719
L24536 31681
L24649 31681
L24719 31719
L24752 31756
L24780 31831
L24752 32056
L24705 32131
L24663 32169
L24583 32206
L24471 32206
" />
<path d="M25413 32169
L25333 32206
L25183 32206
L25113 32169
L25080 32131
L25052 32056
L25080 31831
L25127 31756
L25169 31719
L25249 31681
L25399 31681
L25469 31719
" />
<path d="M25699 31681
L25999 31681
" />
<path d="M25844 31419
L25760 32094
L25788 32169
L25858 32206
L25933 32206
" />
<path d="M26308 32206
L26238 32169
L26205 32131
L26177 32056
L26205 31831
L26252 31756
L26294 31719
L26374 31681
L26486 31681
L26556 31719
L26589 31756
L26617 31831
L26589 32056
L26542 32131
L26500 32169
L26421 32206
L26308 32206
" />
<path d="M26908 32206
L27006 31419
" />
<path d="M27020 31906
L27208 32206
" />
<path d="M27274 31681
L26936 31981
" />
<path d="M27611 31681
L27545 32206
" />
<path d="M27602 31756
L27644 31719
L27723 31681
L27836 31681
L27906 31719
L27934 31794
L27883 32206
" />
<path d="M28370 32206
L28300 32169
L28267 32131
L28239 32056
L28267 31831
L28314 31756
L28356 31719
L28436 31681
L28548 31681
L28619 31719
L28651 31756
L28680 31831
L28651 32056
L28605 32131
L28562 32169
L28483 32206
L28370 32206
" />
<path d="M29036 31681
L28937 32469
" />
<path d="M29031 31719
L29111 31681
L29261 31681
L29331 31719
L29364 31756
L29392 31831
L29364 32056
L29317 32131
L29275 32169
L29195 32206
L29045 32206
L28975 32169
" />
<path d="M29636 31681
L29936 31681
" />
<path d="M29683 32206
L29767 31531
L29814 31456
L29894 31419
L29968 31419
" />
<path d="M30545 32206
L30095 32206
" />
<path d="M30320 32206
L30418 31419
L30329 31531
L30245 31606
L30165 31644
" />
</g>
<g style="fill:#000000; fill-opacity:0.0; 
stroke:#000000; stroke-width:39.3701; stroke-opacity:1; 
stroke-linecap:round; stroke-linejoin:round;">
</g>
<g style="fill:#000000; fill-opacity:0.0; 
stroke:#000000; stroke-width:59.0551; stroke-opacity:1; 
stroke-linecap:round; stroke-linejoin:round;">
<path d="M20417 30390
L20220 30390
" />
<path d="M20220 30700
L20220 30109
L20501 30109
" />
<path d="M20726 30700
L20726 30306
" />
<path d="M20726 30109
L20698 30137
L20726 30165
L20754 30137
L20726 30109
L20726 30165
" />
<path d="M21091 30700
L21035 30672
L21007 30615
L21007 30109
" />
<path d="M21541 30672
L21485 30700
L21373 30700
L21316 30672
L21288 30615
L21288 30390
L21316 30334
L21373 30306
L21485 30306
L21541 30334
L21570 30390
L21570 30447
L21288 30503
" />
<path d="M21823 30643
L21851 30672
L21823 30700
L21795 30672
L21823 30643
L21823 30700
" />
<path d="M21823 30334
L21851 30362
L21823 30390
L21795 30362
L21823 30334
L21823 30390
" />
<path d="M22498 30306
L22638 30700
L22779 30306
" />
<path d="M23088 30700
L23032 30672
L23004 30643
L22976 30587
L22976 30419
L23004 30362
L23032 30334
L23088 30306
L23172 30306
L23229 30334
L23257 30362
L23285 30419
L23285 30587
L23257 30643
L23229 30672
L23172 30700
L23088 30700
" />
<path d="M23791 30672
L23735 30700
L23622 30700
L23566 30672
L23538 30643
L23510 30587
L23510 30419
L23538 30362
L23566 30334
L23622 30306
L23735 30306
L23791 30334
" />
<path d="M23960 30306
L24185 30306
" />
<path d="M24044 30109
L24044 30615
L24072 30672
L24129 30700
L24185 30700
" />
<path d="M24466 30700
L24410 30672
L24382 30643
L24354 30587
L24354 30419
L24382 30362
L24410 30334
L24466 30306
L24550 30306
L24607 30334
L24635 30362
L24663 30419
L24663 30587
L24635 30643
L24607 30672
L24550 30700
L24466 30700
" />
<path d="M24916 30700
L24916 30109
" />
<path d="M24972 30475
L25141 30700
" />
<path d="M25141 30306
L24916 30531
" />
<path d="M25394 30306
L25394 30700
" />
<path d="M25394 30362
L25422 30334
L25478 30306
L25563 30306
L25619 30334
L25647 30390
L25647 30700
" />
<path d="M26013 30700
L25956 30672
L25928 30643
L25900 30587
L25900 30419
L25928 30362
L25956 30334
L26013 30306
L26097 30306
L26153 30334
L26181 30362
L26210 30419
L26210 30587
L26181 30643
L26153 30672
L26097 30700
L26013 30700
" />
<path d="M26463 30306
L26463 30897
" />
<path d="M26463 30334
L26519 30306
L26631 30306
L26688 30334
L26716 30362
L26744 30419
L26744 30587
L26716 30643
L26688 30672
L26631 30700
L26519 30700
L26463 30672
" />
<path d="M26913 30306
L27138 30306
" />
<path d="M26997 30700
L26997 30194
L27025 30137
L27081 30109
L27138 30109
" />
<path d="M27644 30700
L27306 30700
" />
<path d="M27475 30700
L27475 30109
L27419 30194
L27363 30250
L27306 30278
" />
<path d="M27897 30643
L27925 30672
L27897 30700
L27869 30672
L27897 30643
L27897 30700
" />
<path d="M28178 30700
L28178 30109
" />
<path d="M28234 30475
L28403 30700
" />
<path d="M28403 30306
L28178 30531
" />
<path d="M28656 30700
L28656 30306
" />
<path d="M28656 30109
L28628 30137
L28656 30165
L28684 30137
L28656 30109
L28656 30165
" />
<path d="M29190 30672
L29134 30700
L29022 30700
L28965 30672
L28937 30643
L28909 30587
L28909 30419
L28937 30362
L28965 30334
L29022 30306
L29134 30306
L29190 30334
" />
<path d="M29697 30700
L29697 30390
L29669 30334
L29612 30306
L29500 30306
L29444 30334
" />
<path d="M29697 30672
L29640 30700
L29500 30700
L29444 30672
L29415 30615
L29415 30559
L29444 30503
L29500 30475
L29640 30475
L29697 30447
" />
<path d="M30231 30700
L30231 30109
" />
<path d="M30231 30672
L30175 30700
L30062 30700
L30006 30672
L29978 30643
L29950 30587
L29950 30419
L29978 30362
L30006 30334
L30062 30306
L30175 30306
L30231 30334
" />
<path d="M30372 30756
L30822 30756
" />
<path d="M30962 30306
L30962 30897
" />
<path d="M30962 30334
L31018 30306
L31131 30306
L31187 30334
L31215 30362
L31243 30419
L31243 30587
L31215 30643
L31187 30672
L31131 30700
L31018 30700
L30962 30672
" />
<path d="M31750 30672
L31693 30700
L31581 30700
L31525 30672
L31496 30643
L31468 30587
L31468 30419
L31496 30362
L31525 30334
L31581 30306
L31693 30306
L31750 30334
" />
<path d="M32003 30700
L32003 30109
" />
<path d="M32003 30334
L32059 30306
L32171 30306
L32228 30334
L32256 30362
L32284 30419
L32284 30587
L32256 30643
L32228 30672
L32171 30700
L32059 30700
L32003 30672
" />
</g>
<g style="fill:#000000; fill-opacity:0.0; 
stroke:#000000; stroke-width:39.3701; stroke-opacity:1; 
stroke-linecap:round; stroke-linejoin:round;">
</g>
<g style="fill:#000000; fill-opacity:0.0; 
stroke:#000000; stroke-width:59.0551; stroke-opacity:1; 
stroke-linecap:round; stroke-linejoin:round;">
<path d="M19685 28779
L62205 28779
" />
</g>
<g style="fill:#000000; fill-opacity:0.0; 
stroke:#000000; stroke-width:39.3701; stroke-opacity:1; 
stroke-linecap:round; stroke-linejoin:round;">
</g>
<g style="fill:#000000; fill-opacity:0.0; 
stroke:#000000; stroke-width:59.0551; stroke-opacity:1; 
stroke-linecap:round; stroke-linejoin:round;">
<path d="M20192 29609
L20276 29637
L20417 29637
L20473 29609
L20501 29580
L20529 29524
L20529 29468
L20501 29412
L20473 29384
L20417 29356
L20304 29327
L20248 29299
L20220 29271
L20192 29215
L20192 29159
L20220 29102
L20248 29074
L20304 29046
L20445 29046
L20529 29074
" />
<path d="M20782 29637
L20782 29046
" />
<path d="M21035 29637
L21035 29327
L21007 29271
L20951 29243
L20867 29243
L20810 29271
L20782 29299
" />
<path d="M21541 29609
L21485 29637
L21373 29637
L21316 29609
L21288 29552
L21288 29327
L21316 29271
L21373 29243
L21485 29243
L21541 29271
L21570 29327
L21570 29384
L21288 29440
" />
<path d="M22048 29609
L21991 29637
L21879 29637
L21823 29609
L21795 29552
L21795 29327
L21823 29271
L21879 29243
L21991 29243
L22048 29271
L22076 29327
L22076 29384
L21795 29440
" />
<path d="M22244 29243
L22469 29243
" />
<path d="M22329 29046
L22329 29552
L22357 29609
L22413 29637
L22469 29637
" />
<path d="M22666 29580
L22694 29609
L22666 29637
L22638 29609
L22666 29580
L22666 29637
" />
<path d="M22666 29271
L22694 29299
L22666 29327
L22638 29299
L22666 29271
L22666 29327
" />
</g>
<g style="fill:#000000; fill-opacity:0.0; 
stroke:#000000; stroke-width:39.3701; stroke-opacity:1; 
stroke-linecap:round; stroke-linejoin:round;">
</g>
<g style="fill:#000000; fill-opacity:0.0; 
stroke:#000000; stroke-width:59.0551; stroke-opacity:1; 
stroke-linecap:round; stroke-linejoin:round;">
<path d="M27559 32716
L27559 33897
" />
</g>
<g style="fill:#000000; fill-opacity:0.0; 
stroke:#000000; stroke-width:39.3701; stroke-opacity:1; 
stroke-linecap:round; stroke-linejoin:round;">
</g>
<g style="fill:#000000; fill-opacity:0.0; 
stroke:#000000; stroke-width:59.0551; stroke-opacity:1; 
stroke-linecap:round; stroke-linejoin:round;">
<path d="M52756 32716
L52756 35275
" />
</g>
<g style="fill:#C2C200; fill-opacity:0.0; 
stroke:#C2C200; stroke-width:59.0551; stroke-opacity:1; 
stroke-linecap:round; stroke-linejoin:round;">
<path d="M41209 4619
L41209 4225
L41303 4225
L41359 4244
L41396 4281
L41415 4319
L41434 4394
L41434 4450
L41415 4525
L41396 4562
L41359 4600
L41303 4619
L41209 4619
" />
<path d="M41809 4619
L41584 4619
" />
<path d="M41696 4619
L41696 4225
L41659 4281
L41621 4319
L41584 4337
" />
<path d="M41209 7119
L41209 6725
L41303 6725
L41359 6744
L41396 6781
L41415 6819
L41434 6894
L41434 6950
L41415 7025
L41396 7062
L41359 7100
L41303 7119
L41209 7119
" />
<path d="M41584 6762
L41603 6744
L41640 6725
L41734 6725
L41771 6744
L41790 6762
L41809 6800
L41809 6837
L41790 6894
L41565 7119
L41809 7119
" />
<path d="M15434 7768
L15303 7581
" />
<path d="M15209 7768
L15209 7374
L15359 7374
L15396 7393
L15415 7412
L15434 7449
L15434 7506
L15415 7543
L15396 7562
L15359 7581
L15209 7581
" />
<path d="M15809 7768
L15584 7768
" />
<path d="M15696 7768
L15696 7374
L15659 7431
L15621 7468
L15584 7487
" />
<path d="M15434 6268
L15303 6081
" />
<path d="M15209 6268
L15209 5874
L15359 5874
L15396 5893
L15415 5912
L15434 5949
L15434 6006
L15415 6043
L15396 6062
L15359 6081
L15209 6081
" />
<path d="M15584 5912
L15603 5893
L15640 5874
L15734 5874
L15771 5893
L15790 5912
L15809 5949
L15809 5987
L15790 6043
L15565 6268
L15809 6268
" />
<path d="M25434 7768
L25303 7581
" />
<path d="M25209 7768
L25209 7374
L25359 7374
L25396 7393
L25415 7412
L25434 7449
L25434 7506
L25415 7543
L25396 7562
L25359 7581
L25209 7581
" />
<path d="M25565 7374
L25809 7374
L25678 7524
L25734 7524
L25771 7543
L25790 7562
L25809 7599
L25809 7693
L25790 7731
L25771 7749
L25734 7768
L25621 7768
L25584 7749
L25565 7731
" />
<path d="M25434 6268
L25303 6081
" />
<path d="M25209 6268
L25209 5874
L25359 5874
L25396 5893
L25415 5912
L25434 5949
L25434 6006
L25415 6043
L25396 6062
L25359 6081
L25209 6081
" />
<path d="M25771 6006
L25771 6268
" />
<path d="M25678 5856
L25584 6137
L25828 6137
" />
<path d="M35934 8768
L35803 8581
" />
<path d="M35709 8768
L35709 8374
L35859 8374
L35896 8393
L35915 8412
L35934 8449
L35934 8506
L35915 8543
L35896 8562
L35859 8581
L35709 8581
" />
<path d="M36290 8374
L36103 8374
L36084 8562
L36103 8543
L36140 8524
L36234 8524
L36271 8543
L36290 8562
L36309 8599
L36309 8693
L36290 8731
L36271 8749
L36234 8768
L36140 8768
L36103 8749
L36084 8731
" />
<path d="M35934 6768
L35803 6581
" />
<path d="M35709 6768
L35709 6374
L35859 6374
L35896 6393
L35915 6412
L35934 6449
L35934 6506
L35915 6543
L35896 6562
L35859 6581
L35709 6581
" />
<path d="M36271 6374
L36196 6374
L36159 6393
L36140 6412
L36103 6468
L36084 6543
L36084 6693
L36103 6731
L36121 6749
L36159 6768
L36234 6768
L36271 6749
L36290 6731
L36309 6693
L36309 6599
L36290 6562
L36271 6543
L36234 6524
L36159 6524
L36121 6543
L36103 6562
L36084 6599
" />
<path d="M44934 6587
L44803 6400
" />
<path d="M44709 6587
L44709 6193
L44859 6193
L44896 6212
L44915 6231
L44934 6268
L44934 6325
L44915 6362
L44896 6381
L44859 6400
L44709 6400
" />
<path d="M45065 6193
L45328 6193
L45159 6587
" />
<path d="M43268 8565
L43081 8696
" />
<path d="M43268 8790
L42874 8790
L42874 8640
L42893 8603
L42912 8584
L42949 8565
L43006 8565
L43043 8584
L43062 8603
L43081 8640
L43081 8790
" />
<path d="M43043 8340
L43024 8378
L43006 8396
L42968 8415
L42949 8415
L42912 8396
L42893 8378
L42874 8340
L42874 8265
L42893 8228
L42912 8209
L42949 8190
L42968 8190
L43006 8209
L43024 8228
L43043 8265
L43043 8340
L43062 8378
L43081 8396
L43118 8415
L43193 8415
L43231 8396
L43249 8378
L43268 8340
L43268 8265
L43249 8228
L43231 8209
L43193 8190
L43118 8190
L43081 8209
L43062 8228
L43043 8265
" />
<path d="M36434 11268
L36303 11081
" />
<path d="M36209 11268
L36209 10874
L36359 10874
L36396 10893
L36415 10912
L36434 10949
L36434 11006
L36415 11043
L36396 11062
L36359 11081
L36209 11081
" />
<path d="M36621 11268
L36696 11268
L36734 11249
L36753 11231
L36790 11174
L36809 11099
L36809 10949
L36790 10912
L36771 10893
L36734 10874
L36659 10874
L36621 10893
L36603 10912
L36584 10949
L36584 11043
L36603 11081
L36621 11099
L36659 11118
L36734 11118
L36771 11099
L36790 11081
L36809 11043
" />
<path d="M9246 20587
L9115 20400
" />
<path d="M9021 20587
L9021 20193
L9171 20193
L9209 20212
L9228 20231
L9246 20268
L9246 20325
L9228 20362
L9209 20381
L9171 20400
L9021 20400
" />
<path d="M9621 20587
L9396 20587
" />
<path d="M9509 20587
L9509 20193
L9471 20250
L9434 20287
L9396 20306
" />
<path d="M9865 20193
L9903 20193
L9940 20212
L9959 20231
L9978 20268
L9996 20343
L9996 20437
L9978 20512
L9959 20550
L9940 20568
L9903 20587
L9865 20587
L9828 20568
L9809 20550
L9790 20512
L9771 20437
L9771 20343
L9790 20268
L9809 20231
L9828 20212
L9865 20193
" />
<path d="M14587 25253
L14400 25384
" />
<path d="M14587 25478
L14193 25478
L14193 25328
L14212 25290
L14231 25271
L14268 25253
L14325 25253
L14362 25271
L14381 25290
L14400 25328
L14400 25478
" />
<path d="M14587 24878
L14587 25103
" />
<path d="M14587 24990
L14193 24990
L14250 25028
L14287 25065
L14306 25103
" />
<path d="M14587 24503
L14587 24728
" />
<path d="M14587 24615
L14193 24615
L14250 24653
L14287 24690
L14306 24728
" />
<path d="M17246 20587
L17115 20400
" />
<path d="M17021 20587
L17021 20193
L17171 20193
L17209 20212
L17228 20231
L17246 20268
L17246 20325
L17228 20362
L17209 20381
L17171 20400
L17021 20400
" />
<path d="M17621 20587
L17396 20587
" />
<path d="M17509 20587
L17509 20193
L17471 20250
L17434 20287
L17396 20306
" />
<path d="M17771 20231
L17790 20212
L17828 20193
L17921 20193
L17959 20212
L17978 20231
L17996 20268
L17996 20306
L17978 20362
L17753 20587
L17996 20587
" />
<path d="M20768 25253
L20581 25384
" />
<path d="M20768 25478
L20374 25478
L20374 25328
L20393 25290
L20412 25271
L20449 25253
L20506 25253
L20543 25271
L20562 25290
L20581 25328
L20581 25478
" />
<path d="M20768 24878
L20768 25103
" />
<path d="M20768 24990
L20374 24990
L20431 25028
L20468 25065
L20487 25103
" />
<path d="M20374 24746
L20374 24503
L20524 24634
L20524 24578
L20543 24540
L20562 24521
L20599 24503
L20693 24503
L20731 24521
L20749 24540
L20768 24578
L20768 24690
L20749 24728
L20731 24746
" />
<path d="M25246 18768
L25115 18581
" />
<path d="M25021 18768
L25021 18374
L25171 18374
L25209 18393
L25228 18412
L25246 18449
L25246 18506
L25228 18543
L25209 18562
L25171 18581
L25021 18581
" />
<path d="M25621 18768
L25396 18768
" />
<path d="M25509 18768
L25509 18374
L25471 18431
L25434 18468
L25396 18487
" />
<path d="M25959 18506
L25959 18768
" />
<path d="M25865 18356
L25771 18637
L26015 18637
" />
<path d="M30587 25253
L30400 25384
" />
<path d="M30587 25478
L30193 25478
L30193 25328
L30212 25290
L30231 25271
L30268 25253
L30325 25253
L30362 25271
L30381 25290
L30400 25328
L30400 25478
" />
<path d="M30587 24878
L30587 25103
" />
<path d="M30587 24990
L30193 24990
L30250 25028
L30287 25065
L30306 25103
" />
<path d="M30193 24521
L30193 24709
L30381 24728
L30362 24709
L30343 24671
L30343 24578
L30362 24540
L30381 24521
L30418 24503
L30512 24503
L30550 24521
L30568 24540
L30587 24578
L30587 24671
L30568 24709
L30550 24728
" />
<path d="M32246 18768
L32115 18581
" />
<path d="M32021 18768
L32021 18374
L32171 18374
L32209 18393
L32228 18412
L32246 18449
L32246 18506
L32228 18543
L32209 18562
L32171 18581
L32021 18581
" />
<path d="M32621 18768
L32396 18768
" />
<path d="M32509 18768
L32509 18374
L32471 18431
L32434 18468
L32396 18487
" />
<path d="M32959 18374
L32884 18374
L32846 18393
L32828 18412
L32790 18468
L32771 18543
L32771 18693
L32790 18731
L32809 18749
L32846 18768
L32921 18768
L32959 18749
L32978 18731
L32996 18693
L32996 18599
L32978 18562
L32959 18543
L32921 18524
L32846 18524
L32809 18543
L32790 18562
L32771 18599
" />
<path d="M37268 25253
L37081 25384
" />
<path d="M37268 25478
L36874 25478
L36874 25328
L36893 25290
L36912 25271
L36949 25253
L37006 25253
L37043 25271
L37062 25290
L37081 25328
L37081 25478
" />
<path d="M37268 24878
L37268 25103
" />
<path d="M37268 24990
L36874 24990
L36931 25028
L36968 25065
L36987 25103
" />
<path d="M36874 24746
L36874 24484
L37268 24653
" />
<path d="M14587 30253
L14400 30384
" />
<path d="M14587 30478
L14193 30478
L14193 30328
L14212 30290
L14231 30271
L14268 30253
L14325 30253
L14362 30271
L14381 30290
L14400 30328
L14400 30478
" />
<path d="M14587 29878
L14587 30103
" />
<path d="M14587 29990
L14193 29990
L14250 30028
L14287 30065
L14306 30103
" />
<path d="M14362 29653
L14343 29690
L14325 29709
L14287 29728
L14268 29728
L14231 29709
L14212 29690
L14193 29653
L14193 29578
L14212 29540
L14231 29521
L14268 29503
L14287 29503
L14325 29521
L14343 29540
L14362 29578
L14362 29653
L14381 29690
L14400 29709
L14437 29728
L14512 29728
L14550 29709
L14568 29690
L14587 29653
L14587 29578
L14568 29540
L14550 29521
L14512 29503
L14437 29503
L14400 29521
L14381 29540
L14362 29578
" />
<path d="M9246 35587
L9115 35400
" />
<path d="M9021 35587
L9021 35193
L9171 35193
L9209 35212
L9228 35231
L9246 35268
L9246 35325
L9228 35362
L9209 35381
L9171 35400
L9021 35400
" />
<path d="M9621 35587
L9396 35587
" />
<path d="M9509 35587
L9509 35193
L9471 35250
L9434 35287
L9396 35306
" />
<path d="M9809 35587
L9884 35587
L9921 35568
L9940 35550
L9978 35493
L9996 35418
L9996 35268
L9978 35231
L9959 35212
L9921 35193
L9846 35193
L9809 35212
L9790 35231
L9771 35268
L9771 35362
L9790 35400
L9809 35418
L9846 35437
L9921 35437
L9959 35418
L9978 35400
L9996 35362
" />
<path d="M22587 30253
L22400 30384
" />
<path d="M22587 30478
L22193 30478
L22193 30328
L22212 30290
L22231 30271
L22268 30253
L22325 30253
L22362 30271
L22381 30290
L22400 30328
L22400 30478
" />
<path d="M22231 30103
L22212 30084
L22193 30046
L22193 29953
L22212 29915
L22231 29896
L22268 29878
L22306 29878
L22362 29896
L22587 30121
L22587 29878
" />
<path d="M22193 29634
L22193 29596
L22212 29559
L22231 29540
L22268 29521
L22343 29503
L22437 29503
L22512 29521
L22550 29540
L22568 29559
L22587 29596
L22587 29634
L22568 29671
L22550 29690
L22512 29709
L22437 29728
L22343 29728
L22268 29709
L22231 29690
L22212 29671
L22193 29634
" />
<path d="M16246 33768
L16115 33581
" />
<path d="M16021 33768
L16021 33374
L16171 33374
L16209 33393
L16228 33412
L16246 33449
L16246 33506
L16228 33543
L16209 33562
L16171 33581
L16021 33581
" />
<path d="M16396 33412
L16415 33393
L16453 33374
L16546 33374
L16584 33393
L16603 33412
L16621 33449
L16621 33487
L16603 33543
L16378 33768
L16621 33768
" />
<path d="M16996 33768
L16771 33768
" />
<path d="M16884 33768
L16884 33374
L16846 33431
L16809 33468
L16771 33487
" />
<path d="M28768 30253
L28581 30384
" />
<path d="M28768 30478
L28374 30478
L28374 30328
L28393 30290
L28412 30271
L28449 30253
L28506 30253
L28543 30271
L28562 30290
L28581 30328
L28581 30478
" />
<path d="M28412 30103
L28393 30084
L28374 30046
L28374 29953
L28393 29915
L28412 29896
L28449 29878
L28487 29878
L28543 29896
L28768 30121
L28768 29878
" />
<path d="M28412 29728
L28393 29709
L28374 29671
L28374 29578
L28393 29540
L28412 29521
L28449 29503
L28487 29503
L28543 29521
L28768 29746
L28768 29503
" />
<path d="M25246 33768
L25115 33581
" />
<path d="M25021 33768
L25021 33374
L25171 33374
L25209 33393
L25228 33412
L25246 33449
L25246 33506
L25228 33543
L25209 33562
L25171 33581
L25021 33581
" />
<path d="M25396 33412
L25415 33393
L25453 33374
L25546 33374
L25584 33393
L25603 33412
L25621 33449
L25621 33487
L25603 33543
L25378 33768
L25621 33768
" />
<path d="M25753 33374
L25996 33374
L25865 33524
L25921 33524
L25959 33543
L25978 33562
L25996 33599
L25996 33693
L25978 33731
L25959 33749
L25921 33768
L25809 33768
L25771 33749
L25753 33731
" />
<path d="M37268 30253
L37081 30384
" />
<path d="M37268 30478
L36874 30478
L36874 30328
L36893 30290
L36912 30271
L36949 30253
L37006 30253
L37043 30271
L37062 30290
L37081 30328
L37081 30478
" />
<path d="M36912 30103
L36893 30084
L36874 30046
L36874 29953
L36893 29915
L36912 29896
L36949 29878
L36987 29878
L37043 29896
L37268 30121
L37268 29878
" />
<path d="M37006 29540
L37268 29540
" />
<path d="M36856 29634
L37137 29728
L37137 29484
" />
<path d="M33746 33768
L33615 33581
" />
<path d="M33521 33768
L33521 33374
L33671 33374
L33709 33393
L33728 33412
L33746 33449
L33746 33506
L33728 33543
L33709 33562
L33671 33581
L33521 33581
" />
<path d="M33896 33412
L33915 33393
L33953 33374
L34046 33374
L34084 33393
L34103 33412
L34121 33449
L34121 33487
L34103 33543
L33878 33768
L34121 33768
" />
<path d="M34478 33374
L34290 33374
L34271 33562
L34290 33543
L34328 33524
L34421 33524
L34459 33543
L34478 33562
L34496 33599
L34496 33693
L34478 33731
L34459 33749
L34421 33768
L34328 33768
L34290 33749
L34271 33731
" />
<path d="M54746 26087
L54615 25900
" />
<path d="M54521 26087
L54521 25693
L54671 25693
L54709 25712
L54728 25731
L54746 25768
L54746 25825
L54728 25862
L54709 25881
L54671 25900
L54521 25900
" />
<path d="M54896 25731
L54915 25712
L54953 25693
L55046 25693
L55084 25712
L55103 25731
L55121 25768
L55121 25806
L55103 25862
L54878 26087
L55121 26087
" />
<path d="M55459 25693
L55384 25693
L55346 25712
L55328 25731
L55290 25787
L55271 25862
L55271 26012
L55290 26050
L55309 26068
L55346 26087
L55421 26087
L55459 26068
L55478 26050
L55496 26012
L55496 25918
L55478 25881
L55459 25862
L55421 25843
L55346 25843
L55309 25862
L55290 25881
L55271 25918
" />
<path d="M51746 35087
L51615 34900
" />
<path d="M51521 35087
L51521 34693
L51671 34693
L51709 34712
L51728 34731
L51746 34768
L51746 34825
L51728 34862
L51709 34881
L51671 34900
L51521 34900
" />
<path d="M51896 34731
L51915 34712
L51953 34693
L52046 34693
L52084 34712
L52103 34731
L52121 34768
L52121 34806
L52103 34862
L51878 35087
L52121 35087
" />
<path d="M52253 34693
L52515 34693
L52346 35087
" />
</g>
<g style="fill:#008484; fill-opacity:0.0; 
stroke:#008484; stroke-width:59.0551; stroke-opacity:1; 
stroke-linecap:round; stroke-linejoin:round;">
</g>
<g style="fill:#008484; fill-opacity:0.0; 
stroke:#008484; stroke-width:80; stroke-opacity:1; 
stroke-linecap:round; stroke-linejoin:round;">
<path d="M9316 9816
L9316 9116
L9550 9616
L9783 9116
L9783 9816
" />
<path d="M10050 9116
L10516 9816
" />
<path d="M10516 9116
L10050 9816
" />
<path d="M10616 9883
L11150 9883
" />
<path d="M11316 9816
L11316 9116
L11483 9116
L11583 9150
L11650 9216
L11683 9283
L11716 9416
L11716 9516
L11683 9650
L11650 9716
L11583 9783
L11483 9816
L11316 9816
" />
<path d="M19316 9816
L19316 9116
L19550 9616
L19783 9116
L19783 9816
" />
<path d="M20050 9116
L20516 9816
" />
<path d="M20516 9116
L20050 9816
" />
<path d="M20616 9883
L21150 9883
" />
<path d="M21316 9816
L21316 9116
L21483 9116
L21583 9150
L21650 9216
L21683 9283
L21716 9416
L21716 9516
L21683 9650
L21650 9716
L21583 9783
L21483 9816
L21316 9816
" />
<path d="M29316 9816
L29316 9116
L29550 9616
L29783 9116
L29783 9816
" />
<path d="M30050 9116
L30516 9816
" />
<path d="M30516 9116
L30050 9816
" />
<path d="M30616 9883
L31150 9883
" />
<path d="M31316 9816
L31316 9116
L31483 9116
L31583 9150
L31650 9216
L31683 9283
L31716 9416
L31716 9516
L31683 9650
L31650 9716
L31583 9783
L31483 9816
L31316 9816
" />
<path d="M8316 25816
L8316 25116
L8550 25616
L8783 25116
L8783 25816
" />
<path d="M9050 25116
L9516 25816
" />
<path d="M9516 25116
L9050 25816
" />
<path d="M9616 25883
L10150 25883
" />
<path d="M10316 25816
L10316 25116
L10483 25116
L10583 25150
L10650 25216
L10683 25283
L10716 25416
L10716 25516
L10683 25650
L10650 25716
L10583 25783
L10483 25816
L10316 25816
" />
<path d="M16316 25816
L16316 25116
L16550 25616
L16783 25116
L16783 25816
" />
<path d="M17050 25116
L17516 25816
" />
<path d="M17516 25116
L17050 25816
" />
<path d="M17616 25883
L18150 25883
" />
<path d="M18316 25816
L18316 25116
L18483 25116
L18583 25150
L18650 25216
L18683 25283
L18716 25416
L18716 25516
L18683 25650
L18650 25716
L18583 25783
L18483 25816
L18316 25816
" />
<path d="M24316 25816
L24316 25116
L24550 25616
L24783 25116
L24783 25816
" />
<path d="M25050 25116
L25516 25816
" />
<path d="M25516 25116
L25050 25816
" />
<path d="M25616 25883
L26150 25883
" />
<path d="M26316 25816
L26316 25116
L26483 25116
L26583 25150
L26650 25216
L26683 25283
L26716 25416
L26716 25516
L26683 25650
L26650 25716
L26583 25783
L26483 25816
L26316 25816
" />
<path d="M32316 25816
L32316 25116
L32550 25616
L32783 25116
L32783 25816
" />
<path d="M33050 25116
L33516 25816
" />
<path d="M33516 25116
L33050 25816
" />
<path d="M33616 25883
L34150 25883
" />
<path d="M34316 25816
L34316 25116
L34483 25116
L34583 25150
L34650 25216
L34683 25283
L34716 25416
L34716 25516
L34683 25650
L34650 25716
L34583 25783
L34483 25816
L34316 25816
" />
<path d="M8316 32316
L8316 31616
L8550 32116
L8783 31616
L8783 32316
" />
<path d="M9050 31616
L9516 32316
" />
<path d="M9516 31616
L9050 32316
" />
<path d="M9616 32383
L10150 32383
" />
<path d="M10316 32316
L10316 31616
L10483 31616
L10583 31650
L10650 31716
L10683 31783
L10716 31916
L10716 32016
L10683 32150
L10650 32216
L10583 32283
L10483 32316
L10316 32316
" />
<path d="M16316 32316
L16316 31616
L16550 32116
L16783 31616
L16783 32316
" />
<path d="M17050 31616
L17516 32316
" />
<path d="M17516 31616
L17050 32316
" />
<path d="M17616 32383
L18150 32383
" />
<path d="M18316 32316
L18316 31616
L18483 31616
L18583 31650
L18650 31716
L18683 31783
L18716 31916
L18716 32016
L18683 32150
L18650 32216
L18583 32283
L18483 32316
L18316 32316
" />
<path d="M24316 32316
L24316 31616
L24550 32116
L24783 31616
L24783 32316
" />
<path d="M25050 31616
L25516 32316
" />
<path d="M25516 31616
L25050 32316
" />
<path d="M25616 32383
L26150 32383
" />
<path d="M26316 32316
L26316 31616
L26483 31616
L26583 31650
L26650 31716
L26683 31783
L26716 31916
L26716 32016
L26683 32150
L26650 32216
L26583 32283
L26483 32316
L26316 32316
" />
<path d="M32316 32316
L32316 31616
L32550 32116
L32783 31616
L32783 32316
" />
<path d="M33050 31616
L33516 32316
" />
<path d="M33516 31616
L33050 32316
" />
<path d="M33616 32383
L34150 32383
" />
<path d="M34316 32316
L34316 31616
L34483 31616
L34583 31650
L34650 31716
L34683 31783
L34716 31916
L34716 32016
L34683 32150
L34650 32216
L34583 32283
L34483 32316
L34316 32316
" />
<path d="M53816 31816
L53816 31116
L54050 31616
L54283 31116
L54283 31816
" />
<path d="M54550 31116
L55016 31816
" />
<path d="M55016 31116
L54550 31816
" />
<path d="M55116 31883
L55650 31883
" />
<path d="M55816 31816
L55816 31116
L55983 31116
L56083 31150
L56150 31216
L56183 31283
L56216 31416
L56216 31516
L56183 31650
L56150 31716
L56083 31783
L55983 31816
L55816 31816
" />
</g>
<g style="fill:#C2C200; fill-opacity:0.0; 
stroke:#C2C200; stroke-width:80; stroke-opacity:1; 
stroke-linecap:round; stroke-linejoin:round;">
</g>
<g style="fill:#C2C200; fill-opacity:0.0; 
stroke:#C2C200; stroke-width:59.0551; stroke-opacity:1; 
stroke-linecap:round; stroke-linejoin:round;">
<path d="M31701 16299
L32020 16299
L32057 16281
L32076 16262
L32095 16224
L32095 16149
L32076 16112
L32057 16093
L32020 16074
L31701 16074
" />
<path d="M32095 15681
L32095 15906
" />
<path d="M32095 15793
L31701 15793
L31757 15831
L31795 15868
L31814 15906
" />
<path d="M41700 35701
L41700 36020
L41718 36057
L41737 36076
L41775 36095
L41850 36095
L41887 36076
L41906 36057
L41925 36020
L41925 35701
" />
<path d="M42093 35739
L42112 35720
L42149 35701
L42243 35701
L42281 35720
L42299 35739
L42318 35776
L42318 35814
L42299 35870
L42074 36095
L42318 36095
" />
<path d="M41200 13008
L41200 13327
L41218 13365
L41237 13383
L41275 13402
L41350 13402
L41387 13383
L41406 13365
L41425 13327
L41425 13008
" />
<path d="M41574 13008
L41818 13008
L41687 13158
L41743 13158
L41781 13177
L41799 13196
L41818 13233
L41818 13327
L41799 13365
L41781 13383
L41743 13402
L41631 13402
L41593 13383
L41574 13365
" />
<path d="M44565 11387
L44565 11199
" />
<path d="M44678 11424
L44284 11293
L44678 11162
" />
<path d="M44678 10806
L44490 10937
" />
<path d="M44678 11031
L44284 11031
L44284 10881
L44303 10843
L44321 10824
L44359 10806
L44415 10806
L44453 10824
L44471 10843
L44490 10881
L44490 11031
" />
<path d="M44678 10637
L44284 10637
L44284 10543
L44303 10487
L44340 10449
L44378 10431
L44453 10412
L44509 10412
L44584 10431
L44621 10449
L44659 10487
L44678 10543
L44678 10637
" />
<path d="M44284 10243
L44603 10243
L44640 10224
L44659 10206
L44678 10168
L44678 10093
L44659 10056
L44640 10037
L44603 10018
L44284 10018
" />
<path d="M44678 9831
L44284 9831
" />
<path d="M44678 9643
L44284 9643
L44678 9418
L44284 9418
" />
<path d="M44284 9156
L44284 9081
L44303 9043
L44340 9006
L44415 8987
L44546 8987
L44621 9006
L44659 9043
L44678 9081
L44678 9156
L44659 9193
L44621 9231
L44546 9250
L44415 9250
L44340 9231
L44303 9193
L44284 9156
" />
<path d="M44678 8612
L44678 8837
" />
<path d="M44678 8725
L44284 8725
L44340 8762
L44378 8800
L44396 8837
" />
<path d="M38565 18887
L38565 18699
" />
<path d="M38678 18924
L38284 18793
L38678 18662
" />
<path d="M38678 18306
L38490 18437
" />
<path d="M38678 18531
L38284 18531
L38284 18381
L38303 18343
L38321 18324
L38359 18306
L38415 18306
L38453 18324
L38471 18343
L38490 18381
L38490 18531
" />
<path d="M38678 18137
L38284 18137
L38284 18043
L38303 17987
L38340 17949
L38378 17931
L38453 17912
L38509 17912
L38584 17931
L38621 17949
L38659 17987
L38678 18043
L38678 18137
" />
<path d="M38284 17743
L38603 17743
L38640 17724
L38659 17706
L38678 17668
L38678 17593
L38659 17556
L38640 17537
L38603 17518
L38284 17518
" />
<path d="M38678 17331
L38284 17331
" />
<path d="M38678 17143
L38284 17143
L38678 16918
L38284 16918
" />
<path d="M38284 16656
L38284 16581
L38303 16543
L38340 16506
L38415 16487
L38546 16487
L38621 16506
L38659 16543
L38678 16581
L38678 16656
L38659 16693
L38621 16731
L38546 16750
L38415 16750
L38340 16731
L38303 16693
L38284 16656
" />
<path d="M38321 16337
L38303 16318
L38284 16281
L38284 16187
L38303 16150
L38321 16131
L38359 16112
L38396 16112
L38453 16131
L38678 16356
L38678 16112
" />
</g>
<g style="fill:#008484; fill-opacity:0.0; 
stroke:#008484; stroke-width:59.0551; stroke-opacity:1; 
stroke-linecap:round; stroke-linejoin:round;">
</g>
<g style="fill:#008484; fill-opacity:0.0; 
stroke:#008484; stroke-width:47.2441; stroke-opacity:1; 
stroke-linecap:round; stroke-linejoin:round;">
<path d="M42677.2 6000.18 A1177.17 1177.17 0.0 0 0 40492.1 5391.8 " />
<path d="M40492.1 6608.2 A1177.17 1177.17 0.0 0 0 42677.2 5999.82 " />
<circle cx="41500" cy="6000" r="984.252" /> 
<path d="M40492 5391
L40492 6608
" />
<path d="M42677.2 8500.18 A1177.17 1177.17 0.0 0 0 40492.1 7891.8 " />
<path d="M40492.1 9108.2 A1177.17 1177.17 0.0 0 0 42677.2 8499.82 " />
<circle cx="41500" cy="8500" r="984.252" /> 
<path d="M40492 7891
L40492 9108
" />
<path d="M14236 8114
L14236 7984
" />
<path d="M14236 7984
L16763 7984
" />
<path d="M16763 7984
L16763 8114
" />
<path d="M14236 8885
L14236 9015
" />
<path d="M14236 9015
L16763 9015
" />
<path d="M16763 9015
L16763 8885
" />
<path d="M14236 6614
L14236 6484
" />
<path d="M14236 6484
L16763 6484
" />
<path d="M16763 6484
L16763 6614
" />
<path d="M14236 7385
L14236 7515
" />
<path d="M14236 7515
L16763 7515
" />
<path d="M16763 7515
L16763 7385
" />
<path d="M24236 8114
L24236 7984
" />
<path d="M24236 7984
L26763 7984
" />
<path d="M26763 7984
L26763 8114
" />
<path d="M24236 8885
L24236 9015
" />
<path d="M24236 9015
L26763 9015
" />
<path d="M26763 9015
L26763 8885
" />
<path d="M24236 6614
L24236 6484
" />
<path d="M24236 6484
L26763 6484
" />
<path d="M26763 6484
L26763 6614
" />
<path d="M24236 7385
L24236 7515
" />
<path d="M24236 7515
L26763 7515
" />
<path d="M26763 7515
L26763 7385
" />
<path d="M34736 9114
L34736 8984
" />
<path d="M34736 8984
L37263 8984
" />
<path d="M37263 8984
L37263 9114
" />
<path d="M34736 9885
L34736 10015
" />
<path d="M34736 10015
L37263 10015
" />
<path d="M37263 10015
L37263 9885
" />
<path d="M34736 7114
L34736 6984
" />
<path d="M34736 6984
L37263 6984
" />
<path d="M37263 6984
L37263 7114
" />
<path d="M34736 7885
L34736 8015
" />
<path d="M34736 8015
L37263 8015
" />
<path d="M37263 8015
L37263 7885
" />
<path d="M46263 5885
L46263 6015
" />
<path d="M46263 6015
L43736 6015
" />
<path d="M43736 6015
L43736 5885
" />
<path d="M46263 5114
L46263 4984
" />
<path d="M46263 4984
L43736 4984
" />
<path d="M43736 4984
L43736 5114
" />
<path d="M43614 9763
L43484 9763
" />
<path d="M43484 9763
L43484 7236
" />
<path d="M43484 7236
L43614 7236
" />
<path d="M44385 9763
L44515 9763
" />
<path d="M44515 9763
L44515 7236
" />
<path d="M44515 7236
L44385 7236
" />
<path d="M35236 11614
L35236 11484
" />
<path d="M35236 11484
L37763 11484
" />
<path d="M37763 11484
L37763 11614
" />
<path d="M35236 12385
L35236 12515
" />
<path d="M35236 12515
L37763 12515
" />
<path d="M37763 12515
L37763 12385
" />
<path d="M10763 19885
L10763 20015
" />
<path d="M10763 20015
L8236 20015
" />
<path d="M8236 20015
L8236 19885
" />
<path d="M10763 19114
L10763 18984
" />
<path d="M10763 18984
L8236 18984
" />
<path d="M8236 18984
L8236 19114
" />
<path d="M13885 23736
L14015 23736
" />
<path d="M14015 23736
L14015 26263
" />
<path d="M14015 26263
L13885 26263
" />
<path d="M13114 23736
L12984 23736
" />
<path d="M12984 23736
L12984 26263
" />
<path d="M12984 26263
L13114 26263
" />
<path d="M18763 19885
L18763 20015
" />
<path d="M18763 20015
L16236 20015
" />
<path d="M16236 20015
L16236 19885
" />
<path d="M18763 19114
L18763 18984
" />
<path d="M18763 18984
L16236 18984
" />
<path d="M16236 18984
L16236 19114
" />
<path d="M21114 26263
L20984 26263
" />
<path d="M20984 26263
L20984 23736
" />
<path d="M20984 23736
L21114 23736
" />
<path d="M21885 26263
L22015 26263
" />
<path d="M22015 26263
L22015 23736
" />
<path d="M22015 23736
L21885 23736
" />
<path d="M24236 19114
L24236 18984
" />
<path d="M24236 18984
L26763 18984
" />
<path d="M26763 18984
L26763 19114
" />
<path d="M24236 19885
L24236 20015
" />
<path d="M24236 20015
L26763 20015
" />
<path d="M26763 20015
L26763 19885
" />
<path d="M29885 23736
L30015 23736
" />
<path d="M30015 23736
L30015 26263
" />
<path d="M30015 26263
L29885 26263
" />
<path d="M29114 23736
L28984 23736
" />
<path d="M28984 23736
L28984 26263
" />
<path d="M28984 26263
L29114 26263
" />
<path d="M31236 19114
L31236 18984
" />
<path d="M31236 18984
L33763 18984
" />
<path d="M33763 18984
L33763 19114
" />
<path d="M31236 19885
L31236 20015
" />
<path d="M31236 20015
L33763 20015
" />
<path d="M33763 20015
L33763 19885
" />
<path d="M37614 26263
L37484 26263
" />
<path d="M37484 26263
L37484 23736
" />
<path d="M37484 23736
L37614 23736
" />
<path d="M38385 26263
L38515 26263
" />
<path d="M38515 26263
L38515 23736
" />
<path d="M38515 23736
L38385 23736
" />
<path d="M13885 28736
L14015 28736
" />
<path d="M14015 28736
L14015 31263
" />
<path d="M14015 31263
L13885 31263
" />
<path d="M13114 28736
L12984 28736
" />
<path d="M12984 28736
L12984 31263
" />
<path d="M12984 31263
L13114 31263
" />
<path d="M10763 34885
L10763 35015
" />
<path d="M10763 35015
L8236 35015
" />
<path d="M8236 35015
L8236 34885
" />
<path d="M10763 34114
L10763 33984
" />
<path d="M10763 33984
L8236 33984
" />
<path d="M8236 33984
L8236 34114
" />
<path d="M21885 28736
L22015 28736
" />
<path d="M22015 28736
L22015 31263
" />
<path d="M22015 31263
L21885 31263
" />
<path d="M21114 28736
L20984 28736
" />
<path d="M20984 28736
L20984 31263
" />
<path d="M20984 31263
L21114 31263
" />
<path d="M15236 34114
L15236 33984
" />
<path d="M15236 33984
L17763 33984
" />
<path d="M17763 33984
L17763 34114
" />
<path d="M15236 34885
L15236 35015
" />
<path d="M15236 35015
L17763 35015
" />
<path d="M17763 35015
L17763 34885
" />
<path d="M29114 31263
L28984 31263
" />
<path d="M28984 31263
L28984 28736
" />
<path d="M28984 28736
L29114 28736
" />
<path d="M29885 31263
L30015 31263
" />
<path d="M30015 31263
L30015 28736
" />
<path d="M30015 28736
L29885 28736
" />
<path d="M24236 34114
L24236 33984
" />
<path d="M24236 33984
L26763 33984
" />
<path d="M26763 33984
L26763 34114
" />
<path d="M24236 34885
L24236 35015
" />
<path d="M24236 35015
L26763 35015
" />
<path d="M26763 35015
L26763 34885
" />
<path d="M37614 31263
L37484 31263
" />
<path d="M37484 31263
L37484 28736
" />
<path d="M37484 28736
L37614 28736
" />
<path d="M38385 31263
L38515 31263
" />
<path d="M38515 31263
L38515 28736
" />
<path d="M38515 28736
L38385 28736
" />
<path d="M32736 34114
L32736 33984
" />
<path d="M32736 33984
L35263 33984
" />
<path d="M35263 33984
L35263 34114
" />
<path d="M32736 34885
L32736 35015
" />
<path d="M32736 35015
L35263 35015
" />
<path d="M35263 35015
L35263 34885
" />
<path d="M56263 25385
L56263 25515
" />
<path d="M56263 25515
L53736 25515
" />
<path d="M53736 25515
L53736 25385
" />
<path d="M56263 24614
L56263 24484
" />
<path d="M56263 24484
L53736 24484
" />
<path d="M53736 24484
L53736 24614
" />
<path d="M53263 34385
L53263 34515
" />
<path d="M53263 34515
L50736 34515
" />
<path d="M50736 34515
L50736 34385
" />
<path d="M53263 33614
L53263 33484
" />
<path d="M53263 33484
L50736 33484
" />
<path d="M50736 33484
L50736 33614
" />
</g>
<g style="fill:#008484; fill-opacity:0.0; 
stroke:#008484; stroke-width:60; stroke-opacity:1; 
stroke-linecap:round; stroke-linejoin:round;">
<path d="M7500 5000
L13500 5000
" />
<path d="M13500 5000
L13500 11000
" />
<path d="M13500 11000
L7500 11000
" />
<path d="M7500 11000
L7500 5000
" />
<path d="M17500 5000
L23500 5000
" />
<path d="M23500 5000
L23500 11000
" />
<path d="M23500 11000
L17500 11000
" />
<path d="M17500 11000
L17500 5000
" />
<path d="M27500 5000
L33500 5000
" />
<path d="M33500 5000
L33500 11000
" />
<path d="M33500 11000
L27500 11000
" />
<path d="M27500 11000
L27500 5000
" />
<path d="M6500 21000
L12500 21000
" />
<path d="M12500 21000
L12500 27000
" />
<path d="M12500 27000
L6500 27000
" />
<path d="M6500 27000
L6500 21000
" />
<path d="M14500 21000
L20500 21000
" />
<path d="M20500 21000
L20500 27000
" />
<path d="M20500 27000
L14500 27000
" />
<path d="M14500 27000
L14500 21000
" />
<path d="M22500 21000
L28500 21000
" />
<path d="M28500 21000
L28500 27000
" />
<path d="M28500 27000
L22500 27000
" />
<path d="M22500 27000
L22500 21000
" />
<path d="M30500 21000
L36500 21000
" />
<path d="M36500 21000
L36500 27000
" />
<path d="M36500 27000
L30500 27000
" />
<path d="M30500 27000
L30500 21000
" />
<path d="M6500 27500
L12500 27500
" />
<path d="M12500 27500
L12500 33500
" />
<path d="M12500 33500
L6500 33500
" />
<path d="M6500 33500
L6500 27500
" />
<path d="M14500 27500
L20500 27500
" />
<path d="M20500 27500
L20500 33500
" />
<path d="M20500 33500
L14500 33500
" />
<path d="M14500 33500
L14500 27500
" />
<path d="M22500 27500
L28500 27500
" />
<path d="M28500 27500
L28500 33500
" />
<path d="M28500 33500
L22500 33500
" />
<path d="M22500 33500
L22500 27500
" />
<path d="M30500 27500
L36500 27500
" />
<path d="M36500 27500
L36500 33500
" />
<path d="M36500 33500
L30500 33500
" />
<path d="M30500 33500
L30500 27500
" />
<path d="M52000 27000
L58000 27000
" />
<path d="M58000 27000
L58000 33000
" />
<path d="M58000 33000
L52000 33000
" />
<path d="M52000 33000
L52000 27000
" />
</g>
<g style="fill:#008484; fill-opacity:0.0; 
stroke:#008484; stroke-width:47.2441; stroke-opacity:1; 
stroke-linecap:round; stroke-linejoin:round;">
<path d="M31523.6 15606.3 A393.701 393.701 0.0 0 0 31523.6 16393.7 " />
<path d="M31523 15606
L31523 15114
" />
<path d="M31523 15114
L17476 15114
" />
<path d="M17476 15114
L17476 16885
" />
<path d="M17476 16885
L31523 16885
" />
<path d="M31523 16885
L31523 16393
" />
<path d="M42393.7 35523.6 A393.701 393.701 0.0 0 0 41606.3 35523.6 " />
<path d="M42393 35523
L42885 35523
" />
<path d="M42885 35523
L42885 21476
" />
<path d="M42885 21476
L41114 21476
" />
<path d="M41114 21476
L41114 35523
" />
<path d="M41114 35523
L41606 35523
" />
<path d="M42667 12830
L40332 12830
" />
<path d="M40332 12830
L40332 10169
" />
<path d="M40332 10169
L42667 10169
" />
<path d="M42667 10169
L42667 11500
" />
<path d="M42212 12250
L42212 11750
" />
<path d="M42212 11750
L40787 11750
" />
<path d="M40787 11750
L40787 12250
" />
<path d="M40787 12250
L42212 12250
" />
<path d="M41500 12250
L41500 11750
" />
<path d="M42212 11250
L42212 10750
" />
<path d="M42212 10750
L40787 10750
" />
<path d="M40787 10750
L40787 11250
" />
<path d="M40787 11250
L42212 11250
" />
<path d="M41500 11250
L41500 10750
" />
<path d="M47000 12500
L46000 12500
" />
<path d="M46000 12500
L46000 13551
" />
<path d="M47000 13551
L62051 13551
" />
<path d="M44948 13551
L46000 13551
" />
<path d="M46000 7500
L46000 6448
" />
<path d="M46000 7500
L61000 7500
" />
<path d="M61000 7500
L61000 6448
" />
<path d="M47000 12500
L47000 13551
" />
<path d="M47000 12500
L61000 12500
" />
<path d="M61000 12500
L61000 13551
" />
<path d="M62051 13551
L62051 6448
" />
<path d="M62051 6448
L44948 6448
" />
<path d="M44948 6448
L44948 13551
" />
<path d="M41000 20000
L40000 20000
" />
<path d="M40000 20000
L40000 21051
" />
<path d="M41000 21051
L56051 21051
" />
<path d="M38948 21051
L40000 21051
" />
<path d="M40000 15000
L40000 13948
" />
<path d="M40000 15000
L55000 15000
" />
<path d="M55000 15000
L55000 13948
" />
<path d="M41000 20000
L41000 21051
" />
<path d="M41000 20000
L55000 20000
" />
<path d="M55000 20000
L55000 21051
" />
<path d="M56051 21051
L56051 13948
" />
<path d="M56051 13948
L38948 13948
" />
<path d="M38948 13948
L38948 21051
" />
</g>
<g style="fill:#840000; fill-opacity:0.0; 
stroke:#840000; stroke-width:47.2441; stroke-opacity:1; 
stroke-linecap:round; stroke-linejoin:round;">
</g>
<g style="fill:#840000; fill-opacity:1.0; 
stroke:#840000; stroke-width:0; stroke-opacity:1; 
stroke-linecap:round; stroke-linejoin:round;">
<circle cx="11500" cy="6000" r="525" /> 
</g>
<g style="fill:#840000; fill-opacity:1.0; 
stroke:#840000; stroke-width:39.3701; stroke-opacity:1; 
stroke-linecap:round; stroke-linejoin:round;">
</g>
<g style="fill:#840000; fill-opacity:1.0; 
stroke:#840000; stroke-width:0; stroke-opacity:1; 
stroke-linecap:round; stroke-linejoin:round;">
<circle cx="9000" cy="7000" r="525" /> 
</g>
<g style="fill:#840000; fill-opacity:1.0; 
stroke:#840000; stroke-width:39.3701; stroke-opacity:1; 
stroke-linecap:round; stroke-linejoin:round;">
</g>
<g style="fill:#840000; fill-opacity:1.0; 
stroke:#840000; stroke-width:750; stroke-opacity:1; 
stroke-linecap:round; stroke-linejoin:round;">
</g>
<g style="fill:#840000; fill-opacity:0.0; 
stroke:#840000; stroke-width:750; stroke-opacity:1; 
stroke-linecap:round; stroke-linejoin:round;">
<path d="M9000 9950
L9000 10050
" />
</g>
<g style="fill:#840000; fill-opacity:0.0; 
stroke:#840000; stroke-width:0; stroke-opacity:1; 
stroke-linecap:round; stroke-linejoin:round;">
</g>
<g style="fill:#840000; fill-opacity:1.0; 
stroke:#840000; stroke-width:0; stroke-opacity:1; 
stroke-linecap:round; stroke-linejoin:round;">
<polyline style="fill-rule:evenodd;"
points="11625,10425
11625,9575
12375,9575
12375,10425
11625,10425
" /> 
<circle cx="21500" cy="6000" r="525" /> 
</g>
<g style="fill:#840000; fill-opacity:1.0; 
stroke:#840000; stroke-width:39.3701; stroke-opacity:1; 
stroke-linecap:round; stroke-linejoin:round;">
</g>
<g style="fill:#840000; fill-opacity:1.0; 
stroke:#840000; stroke-width:0; stroke-opacity:1; 
stroke-linecap:round; stroke-linejoin:round;">
<circle cx="19000" cy="7000" r="525" /> 
</g>
<g style="fill:#840000; fill-opacity:1.0; 
stroke:#840000; stroke-width:39.3701; stroke-opacity:1; 
stroke-linecap:round; stroke-linejoin:round;">
</g>
<g style="fill:#840000; fill-opacity:1.0; 
stroke:#840000; stroke-width:750; stroke-opacity:1; 
stroke-linecap:round; stroke-linejoin:round;">
</g>
<g style="fill:#840000; fill-opacity:0.0; 
stroke:#840000; stroke-width:750; stroke-opacity:1; 
stroke-linecap:round; stroke-linejoin:round;">
<path d="M19000 9950
L19000 10050
" />
</g>
<g style="fill:#840000; fill-opacity:0.0; 
stroke:#840000; stroke-width:0; stroke-opacity:1; 
stroke-linecap:round; stroke-linejoin:round;">
</g>
<g style="fill:#840000; fill-opacity:1.0; 
stroke:#840000; stroke-width:0; stroke-opacity:1; 
stroke-linecap:round; stroke-linejoin:round;">
<polyline style="fill-rule:evenodd;"
points="21625,10425
21625,9575
22375,9575
22375,10425
21625,10425
" /> 
<circle cx="31500" cy="6000" r="525" /> 
</g>
<g style="fill:#840000; fill-opacity:1.0; 
stroke:#840000; stroke-width:39.3701; stroke-opacity:1; 
stroke-linecap:round; stroke-linejoin:round;">
</g>
<g style="fill:#840000; fill-opacity:1.0; 
stroke:#840000; stroke-width:0; stroke-opacity:1; 
stroke-linecap:round; stroke-linejoin:round;">
<circle cx="29000" cy="7000" r="525" /> 
</g>
<g style="fill:#840000; fill-opacity:1.0; 
stroke:#840000; stroke-width:39.3701; stroke-opacity:1; 
stroke-linecap:round; stroke-linejoin:round;">
</g>
<g style="fill:#840000; fill-opacity:1.0; 
stroke:#840000; stroke-width:750; stroke-opacity:1; 
stroke-linecap:round; stroke-linejoin:round;">
</g>
<g style="fill:#840000; fill-opacity:0.0; 
stroke:#840000; stroke-width:750; stroke-opacity:1; 
stroke-linecap:round; stroke-linejoin:round;">
<path d="M29000 9950
L29000 10050
" />
</g>
<g style="fill:#840000; fill-opacity:0.0; 
stroke:#840000; stroke-width:0; stroke-opacity:1; 
stroke-linecap:round; stroke-linejoin:round;">
</g>
<g style="fill:#840000; fill-opacity:1.0; 
stroke:#840000; stroke-width:0; stroke-opacity:1; 
stroke-linecap:round; stroke-linejoin:round;">
<polyline style="fill-rule:evenodd;"
points="31625,10425
31625,9575
32375,9575
32375,10425
31625,10425
" /> 
<circle cx="10500" cy="22000" r="525" /> 
</g>
<g style="fill:#840000; fill-opacity:1.0; 
stroke:#840000; stroke-width:39.3701; stroke-opacity:1; 
stroke-linecap:round; stroke-linejoin:round;">
</g>
<g style="fill:#840000; fill-opacity:1.0; 
stroke:#840000; stroke-width:0; stroke-opacity:1; 
stroke-linecap:round; stroke-linejoin:round;">
<circle cx="8000" cy="23000" r="525" /> 
</g>
<g style="fill:#840000; fill-opacity:1.0; 
stroke:#840000; stroke-width:39.3701; stroke-opacity:1; 
stroke-linecap:round; stroke-linejoin:round;">
</g>
<g style="fill:#840000; fill-opacity:1.0; 
stroke:#840000; stroke-width:750; stroke-opacity:1; 
stroke-linecap:round; stroke-linejoin:round;">
</g>
<g style="fill:#840000; fill-opacity:0.0; 
stroke:#840000; stroke-width:750; stroke-opacity:1; 
stroke-linecap:round; stroke-linejoin:round;">
<path d="M8000 25950
L8000 26050
" />
</g>
<g style="fill:#840000; fill-opacity:0.0; 
stroke:#840000; stroke-width:0; stroke-opacity:1; 
stroke-linecap:round; stroke-linejoin:round;">
</g>
<g style="fill:#840000; fill-opacity:1.0; 
stroke:#840000; stroke-width:0; stroke-opacity:1; 
stroke-linecap:round; stroke-linejoin:round;">
<polyline style="fill-rule:evenodd;"
points="10625,26425
10625,25575
11375,25575
11375,26425
10625,26425
" /> 
<circle cx="18500" cy="22000" r="525" /> 
</g>
<g style="fill:#840000; fill-opacity:1.0; 
stroke:#840000; stroke-width:39.3701; stroke-opacity:1; 
stroke-linecap:round; stroke-linejoin:round;">
</g>
<g style="fill:#840000; fill-opacity:1.0; 
stroke:#840000; stroke-width:0; stroke-opacity:1; 
stroke-linecap:round; stroke-linejoin:round;">
<circle cx="16000" cy="23000" r="525" /> 
</g>
<g style="fill:#840000; fill-opacity:1.0; 
stroke:#840000; stroke-width:39.3701; stroke-opacity:1; 
stroke-linecap:round; stroke-linejoin:round;">
</g>
<g style="fill:#840000; fill-opacity:1.0; 
stroke:#840000; stroke-width:750; stroke-opacity:1; 
stroke-linecap:round; stroke-linejoin:round;">
</g>
<g style="fill:#840000; fill-opacity:0.0; 
stroke:#840000; stroke-width:750; stroke-opacity:1; 
stroke-linecap:round; stroke-linejoin:round;">
<path d="M16000 25950
L16000 26050
" />
</g>
<g style="fill:#840000; fill-opacity:0.0; 
stroke:#840000; stroke-width:0; stroke-opacity:1; 
stroke-linecap:round; stroke-linejoin:round;">
</g>
<g style="fill:#840000; fill-opacity:1.0; 
stroke:#840000; stroke-width:0; stroke-opacity:1; 
stroke-linecap:round; stroke-linejoin:round;">
<polyline style="fill-rule:evenodd;"
points="18625,26425
18625,25575
19375,25575
19375,26425
18625,26425
" /> 
<circle cx="26500" cy="22000" r="525" /> 
</g>
<g style="fill:#840000; fill-opacity:1.0; 
stroke:#840000; stroke-width:39.3701; stroke-opacity:1; 
stroke-linecap:round; stroke-linejoin:round;">
</g>
<g style="fill:#840000; fill-opacity:1.0; 
stroke:#840000; stroke-width:0; stroke-opacity:1; 
stroke-linecap:round; stroke-linejoin:round;">
<circle cx="24000" cy="23000" r="525" /> 
</g>
<g style="fill:#840000; fill-opacity:1.0; 
stroke:#840000; stroke-width:39.3701; stroke-opacity:1; 
stroke-linecap:round; stroke-linejoin:round;">
</g>
<g style="fill:#840000; fill-opacity:1.0; 
stroke:#840000; stroke-width:750; stroke-opacity:1; 
stroke-linecap:round; stroke-linejoin:round;">
</g>
<g style="fill:#840000; fill-opacity:0.0; 
stroke:#840000; stroke-width:750; stroke-opacity:1; 
stroke-linecap:round; stroke-linejoin:round;">
<path d="M24000 25950
L24000 26050
" />
</g>
<g style="fill:#840000; fill-opacity:0.0; 
stroke:#840000; stroke-width:0; stroke-opacity:1; 
stroke-linecap:round; stroke-linejoin:round;">
</g>
<g style="fill:#840000; fill-opacity:1.0; 
stroke:#840000; stroke-width:0; stroke-opacity:1; 
stroke-linecap:round; stroke-linejoin:round;">
<polyline style="fill-rule:evenodd;"
points="26625,26425
26625,25575
27375,25575
27375,26425
26625,26425
" /> 
<circle cx="34500" cy="22000" r="525" /> 
</g>
<g style="fill:#840000; fill-opacity:1.0; 
stroke:#840000; stroke-width:39.3701; stroke-opacity:1; 
stroke-linecap:round; stroke-linejoin:round;">
</g>
<g style="fill:#840000; fill-opacity:1.0; 
stroke:#840000; stroke-width:0; stroke-opacity:1; 
stroke-linecap:round; stroke-linejoin:round;">
<circle cx="32000" cy="23000" r="525" /> 
</g>
<g style="fill:#840000; fill-opacity:1.0; 
stroke:#840000; stroke-width:39.3701; stroke-opacity:1; 
stroke-linecap:round; stroke-linejoin:round;">
</g>
<g style="fill:#840000; fill-opacity:1.0; 
stroke:#840000; stroke-width:750; stroke-opacity:1; 
stroke-linecap:round; stroke-linejoin:round;">
</g>
<g style="fill:#840000; fill-opacity:0.0; 
stroke:#840000; stroke-width:750; stroke-opacity:1; 
stroke-linecap:round; stroke-linejoin:round;">
<path d="M32000 25950
L32000 26050
" />
</g>
<g style="fill:#840000; fill-opacity:0.0; 
stroke:#840000; stroke-width:0; stroke-opacity:1; 
stroke-linecap:round; stroke-linejoin:round;">
</g>
<g style="fill:#840000; fill-opacity:1.0; 
stroke:#840000; stroke-width:0; stroke-opacity:1; 
stroke-linecap:round; stroke-linejoin:round;">
<polyline style="fill-rule:evenodd;"
points="34625,26425
34625,25575
35375,25575
35375,26425
34625,26425
" /> 
<circle cx="10500" cy="28500" r="525" /> 
</g>
<g style="fill:#840000; fill-opacity:1.0; 
stroke:#840000; stroke-width:39.3701; stroke-opacity:1; 
stroke-linecap:round; stroke-linejoin:round;">
</g>
<g style="fill:#840000; fill-opacity:1.0; 
stroke:#840000; stroke-width:0; stroke-opacity:1; 
stroke-linecap:round; stroke-linejoin:round;">
<circle cx="8000" cy="29500" r="525" /> 
</g>
<g style="fill:#840000; fill-opacity:1.0; 
stroke:#840000; stroke-width:39.3701; stroke-opacity:1; 
stroke-linecap:round; stroke-linejoin:round;">
</g>
<g style="fill:#840000; fill-opacity:1.0; 
stroke:#840000; stroke-width:750; stroke-opacity:1; 
stroke-linecap:round; stroke-linejoin:round;">
</g>
<g style="fill:#840000; fill-opacity:0.0; 
stroke:#840000; stroke-width:750; stroke-opacity:1; 
stroke-linecap:round; stroke-linejoin:round;">
<path d="M8000 32450
L8000 32550
" />
</g>
<g style="fill:#840000; fill-opacity:0.0; 
stroke:#840000; stroke-width:0; stroke-opacity:1; 
stroke-linecap:round; stroke-linejoin:round;">
</g>
<g style="fill:#840000; fill-opacity:1.0; 
stroke:#840000; stroke-width:0; stroke-opacity:1; 
stroke-linecap:round; stroke-linejoin:round;">
<polyline style="fill-rule:evenodd;"
points="10625,32925
10625,32075
11375,32075
11375,32925
10625,32925
" /> 
<circle cx="18500" cy="28500" r="525" /> 
</g>
<g style="fill:#840000; fill-opacity:1.0; 
stroke:#840000; stroke-width:39.3701; stroke-opacity:1; 
stroke-linecap:round; stroke-linejoin:round;">
</g>
<g style="fill:#840000; fill-opacity:1.0; 
stroke:#840000; stroke-width:0; stroke-opacity:1; 
stroke-linecap:round; stroke-linejoin:round;">
<circle cx="16000" cy="29500" r="525" /> 
</g>
<g style="fill:#840000; fill-opacity:1.0; 
stroke:#840000; stroke-width:39.3701; stroke-opacity:1; 
stroke-linecap:round; stroke-linejoin:round;">
</g>
<g style="fill:#840000; fill-opacity:1.0; 
stroke:#840000; stroke-width:750; stroke-opacity:1; 
stroke-linecap:round; stroke-linejoin:round;">
</g>
<g style="fill:#840000; fill-opacity:0.0; 
stroke:#840000; stroke-width:750; stroke-opacity:1; 
stroke-linecap:round; stroke-linejoin:round;">
<path d="M16000 32450
L16000 32550
" />
</g>
<g style="fill:#840000; fill-opacity:0.0; 
stroke:#840000; stroke-width:0; stroke-opacity:1; 
stroke-linecap:round; stroke-linejoin:round;">
</g>
<g style="fill:#840000; fill-opacity:1.0; 
stroke:#840000; stroke-width:0; stroke-opacity:1; 
stroke-linecap:round; stroke-linejoin:round;">
<polyline style="fill-rule:evenodd;"
points="18625,32925
18625,32075
19375,32075
19375,32925
18625,32925
" /> 
<circle cx="26500" cy="28500" r="525" /> 
</g>
<g style="fill:#840000; fill-opacity:1.0; 
stroke:#840000; stroke-width:39.3701; stroke-opacity:1; 
stroke-linecap:round; stroke-linejoin:round;">
</g>
<g style="fill:#840000; fill-opacity:1.0; 
stroke:#840000; stroke-width:0; stroke-opacity:1; 
stroke-linecap:round; stroke-linejoin:round;">
<circle cx="24000" cy="29500" r="525" /> 
</g>
<g style="fill:#840000; fill-opacity:1.0; 
stroke:#840000; stroke-width:39.3701; stroke-opacity:1; 
stroke-linecap:round; stroke-linejoin:round;">
</g>
<g style="fill:#840000; fill-opacity:1.0; 
stroke:#840000; stroke-width:750; stroke-opacity:1; 
stroke-linecap:round; stroke-linejoin:round;">
</g>
<g style="fill:#840000; fill-opacity:0.0; 
stroke:#840000; stroke-width:750; stroke-opacity:1; 
stroke-linecap:round; stroke-linejoin:round;">
<path d="M24000 32450
L24000 32550
" />
</g>
<g style="fill:#840000; fill-opacity:0.0; 
stroke:#840000; stroke-width:0; stroke-opacity:1; 
stroke-linecap:round; stroke-linejoin:round;">
</g>
<g style="fill:#840000; fill-opacity:1.0; 
stroke:#840000; stroke-width:0; stroke-opacity:1; 
stroke-linecap:round; stroke-linejoin:round;">
<polyline style="fill-rule:evenodd;"
points="26625,32925
26625,32075
27375,32075
27375,32925
26625,32925
" /> 
<circle cx="34500" cy="28500" r="525" /> 
</g>
<g style="fill:#840000; fill-opacity:1.0; 
stroke:#840000; stroke-width:39.3701; stroke-opacity:1; 
stroke-linecap:round; stroke-linejoin:round;">
</g>
<g style="fill:#840000; fill-opacity:1.0; 
stroke:#840000; stroke-width:0; stroke-opacity:1; 
stroke-linecap:round; stroke-linejoin:round;">
<circle cx="32000" cy="29500" r="525" /> 
</g>
<g style="fill:#840000; fill-opacity:1.0; 
stroke:#840000; stroke-width:39.3701; stroke-opacity:1; 
stroke-linecap:round; stroke-linejoin:round;">
</g>
<g style="fill:#840000; fill-opacity:1.0; 
stroke:#840000; stroke-width:750; stroke-opacity:1; 
stroke-linecap:round; stroke-linejoin:round;">
</g>
<g style="fill:#840000; fill-opacity:0.0; 
stroke:#840000; stroke-width:750; stroke-opacity:1; 
stroke-linecap:round; stroke-linejoin:round;">
<path d="M32000 32450
L32000 32550
" />
</g>
<g style="fill:#840000; fill-opacity:0.0; 
stroke:#840000; stroke-width:0; stroke-opacity:1; 
stroke-linecap:round; stroke-linejoin:round;">
</g>
<g style="fill:#840000; fill-opacity:1.0; 
stroke:#840000; stroke-width:0; stroke-opacity:1; 
stroke-linecap:round; stroke-linejoin:round;">
<polyline style="fill-rule:evenodd;"
points="34625,32925
34625,32075
35375,32075
35375,32925
34625,32925
" /> 
<circle cx="56000" cy="28000" r="525" /> 
</g>
<g style="fill:#840000; fill-opacity:1.0; 
stroke:#840000; stroke-width:39.3701; stroke-opacity:1; 
stroke-linecap:round; stroke-linejoin:round;">
</g>
<g style="fill:#840000; fill-opacity:1.0; 
stroke:#840000; stroke-width:0; stroke-opacity:1; 
stroke-linecap:round; stroke-linejoin:round;">
<circle cx="53500" cy="29000" r="525" /> 
</g>
<g style="fill:#840000; fill-opacity:1.0; 
stroke:#840000; stroke-width:39.3701; stroke-opacity:1; 
stroke-linecap:round; stroke-linejoin:round;">
</g>
<g style="fill:#840000; fill-opacity:1.0; 
stroke:#840000; stroke-width:750; stroke-opacity:1; 
stroke-linecap:round; stroke-linejoin:round;">
</g>
<g style="fill:#840000; fill-opacity:0.0; 
stroke:#840000; stroke-width:750; stroke-opacity:1; 
stroke-linecap:round; stroke-linejoin:round;">
<path d="M53500 31950
L53500 32050
" />
</g>
<g style="fill:#840000; fill-opacity:0.0; 
stroke:#840000; stroke-width:0; stroke-opacity:1; 
stroke-linecap:round; stroke-linejoin:round;">
</g>
<g style="fill:#840000; fill-opacity:1.0; 
stroke:#840000; stroke-width:0; stroke-opacity:1; 
stroke-linecap:round; stroke-linejoin:round;">
<polyline style="fill-rule:evenodd;"
points="56125,32425
56125,31575
56875,31575
56875,32425
56125,32425
" /> 
</g> 
</svg>
